<svg width="240" height="135" viewBox="0 0 240 135" fill="none" xmlns="http://www.w3.org/2000/svg">
<g clip-path="url(#clip0_169_11759)">
<rect width="240" height="135" fill="#C3C6D1"/>
<g clip-path="url(#clip1_169_11759)">
<rect width="720" height="135" transform="translate(-240)" fill="#515E7B"/>
<path d="M14.2812 4.125C14.2812 4.125 13.7188 4.125 13.4375 4.28125C13.0312 4.46875 12.875 4.84375 12.875 5.8125C12.875 5.8125 13.0938 5.59375 13.375 5.5C14.3438 5.15625 14.2812 4.53125 14.2812 4.125ZM10.6562 5.25C10.8438 4.40625 11.625 4.03125 12.375 4.125L10.3438 11.875C10.3438 11.875 9.65625 11.9375 9.3125 11.75C8.875 11.5312 8.65625 11.375 8.40625 10.3125C8.15625 9.375 7.5 6.59375 7.4375 6.40625C7.28125 5.96875 7.09375 5.9375 6.9375 6.40625C6.875 6.59375 6.21875 9.375 5.96875 10.3125C5.71875 11.375 5.5 11.5312 5.0625 11.75C4.71875 11.9375 4.03125 11.875 4.03125 11.875L2 4.125C2.71875 4.03125 3.53125 4.40625 3.71875 5.25L4.78125 9.375L5.6875 6C5.90625 4.96875 6.34375 4.46875 7.1875 4.46875C8.0625 4.46875 8.46875 5 8.6875 6L9.59375 9.375L10.6562 5.25ZM14.2812 5.40625V5.6875V10.375C14.2812 11.3438 14.1875 11.5625 13.75 11.7812C13.4062 11.9375 12.875 11.875 12.875 11.875V7.125C12.875 6.46875 12.8125 6.25 13.2812 6.03125C13.5 5.9375 13.6562 5.875 13.8438 5.78125C14.1562 5.59375 14.2812 5.40625 14.2812 5.40625ZM19.375 8.03125L21.9688 11.875C21.9688 11.875 20.8438 12.0312 20.3125 11.5312C19.875 11.1562 19.5625 10.6562 18.6562 9.3125C18.625 9.3125 18.4688 9 18.25 9.3125C17.1562 10.9062 16.9688 11.2188 16.5938 11.5312C16.0625 12.0312 14.9062 11.875 14.9062 11.875L17.5 8.03125L14.9062 4.15625C14.9062 4.15625 16 3.96875 16.5625 4.46875C16.9688 4.84375 17.3125 5.40625 18.25 6.75C18.4688 7.0625 18.625 6.75 18.6562 6.75C19.5938 5.40625 19.9375 4.84375 20.3438 4.46875C20.875 3.96875 22 4.15625 22 4.15625L19.375 8.03125Z" fill="#183153"/>
<path d="M43.75 8C43.75 12.2812 40.2812 15.75 36 15.75C35.1875 15.75 34.4062 15.6562 33.6875 15.4062C34 14.9062 34.4688 14.0625 34.6562 13.375C34.75 13.0312 35.125 11.5312 35.125 11.5312C35.375 12.0312 36.125 12.4375 36.9062 12.4375C39.25 12.4375 40.9375 10.2812 40.9375 7.625C40.9375 5.0625 38.8438 3.125 36.1562 3.125C32.8125 3.125 31.0312 5.375 31.0312 7.8125C31.0312 8.96875 31.625 10.375 32.5938 10.8438C32.75 10.9062 32.8438 10.875 32.875 10.7188C32.875 10.625 33.0312 10.0938 33.0938 9.84375C33.0938 9.78125 33.0938 9.6875 33.0312 9.625C32.7188 9.25 32.4688 8.53125 32.4688 7.84375C32.4688 6.15625 33.75 4.5 35.9688 4.5C37.8438 4.5 39.1875 5.78125 39.1875 7.65625C39.1875 9.75 38.125 11.1875 36.75 11.1875C36 11.1875 35.4375 10.5625 35.5938 9.8125C35.8125 8.875 36.25 7.875 36.25 7.21875C36.25 6.625 35.9375 6.125 35.2812 6.125C34.5 6.125 33.875 6.9375 33.875 8C33.875 8.6875 34.0938 9.15625 34.0938 9.15625C34.0938 9.15625 33.3438 12.4062 33.1875 13C33.0312 13.6875 33.0938 14.625 33.1562 15.2188C30.2812 14.0938 28.25 11.3125 28.25 8C28.25 3.71875 31.7188 0.25 36 0.25C40.2812 0.25 43.75 3.71875 43.75 8Z" fill="#183153"/>
<path d="M67.7188 6.40625C68.0312 7.21875 68.0625 8.125 67.8125 8.96875C67.5938 9.8125 67.0625 10.5625 66.375 11.0938L63.0312 13.5938L61.375 14.8125L60.375 15.5938C60.2812 15.6562 60.125 15.7188 59.9688 15.7188C59.8438 15.7188 59.6875 15.6562 59.5625 15.5938L58.5625 14.8125L56.9375 13.5938L53.625 11.0938H53.5938C52.9062 10.5625 52.375 9.8125 52.1562 8.96875C51.9062 8.125 51.9375 7.21875 52.25 6.40625L52.2812 6.34375L54.4375 0.6875C54.5 0.5625 54.5625 0.46875 54.6875 0.40625C54.75 0.34375 54.8438 0.3125 54.9375 0.3125C55 0.3125 55.0938 0.3125 55.1875 0.34375C55.2812 0.375 55.3438 0.4375 55.4062 0.5C55.4688 0.5625 55.5 0.65625 55.5312 0.71875L57 5.21875H62.9688L64.4375 0.71875C64.4688 0.65625 64.5 0.5625 64.5625 0.5C64.625 0.4375 64.6875 0.375 64.7812 0.34375C64.875 0.3125 64.9688 0.3125 65.0312 0.3125C65.125 0.3125 65.2188 0.34375 65.2812 0.40625C65.4062 0.46875 65.4688 0.5625 65.5312 0.6875L67.6875 6.34375L67.7188 6.40625Z" fill="#183153"/>
<path d="M88.75 1C89.3438 1 89.9062 1.25 90.3438 1.65625C90.75 2.09375 91 2.65625 91 3.25V12.7812C91 13.375 90.75 13.9375 90.3438 14.3438C89.9062 14.7812 89.3438 15 88.75 15H79.2188C78.625 15 78.0625 14.7812 77.6562 14.3438C77.2188 13.9375 77 13.375 77 12.7812V1H88.75ZM87.375 13.5C87.625 13.7812 87.9688 13.9062 88.4062 13.9062C88.875 13.9062 89.2188 13.7812 89.4688 13.5C89.75 13.25 89.875 12.875 89.875 12.4062C89.875 12 89.7812 11.6562 89.625 11.4375C89.4688 11.1875 89.2188 10.9688 88.8438 10.8125L88.5 10.6562C88.375 10.625 88.25 10.5312 88.1562 10.4062C88.0938 10.3125 88.0625 10.1875 88.0625 10.0312C88.0625 9.6875 88.1875 9.53125 88.4688 9.53125C88.625 9.53125 88.7188 9.59375 88.7812 9.6875C88.8438 9.84375 88.875 10 88.875 10.1562H89.8125C89.8125 9.65625 89.6875 9.3125 89.4375 9.03125C89.2188 8.78125 88.875 8.65625 88.4688 8.65625C88 8.65625 87.6562 8.78125 87.4062 9.03125C87.1875 9.3125 87.0625 9.65625 87.0625 10.0625C87.0625 10.4688 87.125 10.75 87.25 10.9688C87.4062 11.1875 87.625 11.375 87.9688 11.5L88.3125 11.6875C88.4688 11.75 88.625 11.8438 88.75 11.9688C88.8125 12.0938 88.875 12.2188 88.875 12.4062C88.875 12.625 88.8438 12.7812 88.7812 12.875C88.6875 12.9688 88.5938 13 88.4375 13C88.125 13 87.9688 12.7812 87.9688 12.3438H87C87 12.8438 87.125 13.2188 87.375 13.5ZM84.2188 13.5C84.4688 13.7812 84.8125 13.9062 85.25 13.9062C85.7188 13.9062 86.0625 13.7812 86.3125 13.5C86.5938 13.25 86.7188 12.875 86.7188 12.4062C86.7188 12 86.625 11.6562 86.4688 11.4375C86.3125 11.1875 86.0625 10.9688 85.6875 10.8125L85.3438 10.6562C85.2188 10.625 85.0938 10.5312 85 10.4062C84.9375 10.3125 84.9062 10.1875 84.9062 10.0312C84.9062 9.6875 85.0312 9.53125 85.3125 9.53125C85.4688 9.53125 85.5625 9.59375 85.625 9.6875C85.6875 9.84375 85.7188 10 85.7188 10.1562H86.6562C86.625 9.65625 86.5312 9.3125 86.2812 9.03125C86.0625 8.78125 85.7188 8.65625 85.3125 8.65625C84.8438 8.65625 84.5 8.78125 84.25 9.03125C84.0312 9.3125 83.9062 9.65625 83.9062 10.0625C83.9062 10.4688 83.9688 10.75 84.0938 10.9688C84.25 11.1875 84.4688 11.375 84.8125 11.5L85.1562 11.6875C85.3125 11.75 85.4688 11.8438 85.5938 11.9688C85.6562 12.0938 85.6875 12.2188 85.6875 12.4062C85.6875 12.625 85.6562 12.7812 85.5938 12.875C85.5312 12.9688 85.4375 13 85.2812 13C84.9688 13 84.8125 12.7812 84.8125 12.3438H83.8438C83.8438 12.8438 83.9688 13.2188 84.2188 13.5ZM80.9062 13.5312C81.1875 13.7812 81.5312 13.9062 81.9688 13.9062C82.25 13.9062 82.5 13.8438 82.75 13.7188C82.9688 13.625 83.1562 13.4375 83.2812 13.2188C83.4062 13 83.4688 12.7188 83.4688 12.4062V12.25H82.4375V12.375C82.4375 12.5312 82.4062 12.6875 82.3438 12.8125C82.25 12.9062 82.1562 12.9688 82 12.9688C81.7188 12.9688 81.5625 12.75 81.5625 12.3125V10.2812C81.5625 10.0938 81.5938 9.90625 81.6562 9.75C81.7188 9.625 81.8438 9.59375 82 9.59375C82.0625 9.5625 82.125 9.59375 82.1875 9.625C82.2188 9.625 82.2812 9.6875 82.3125 9.71875C82.4062 9.8125 82.4375 9.96875 82.4375 10.1562V10.3438H83.4688V10.1562C83.4688 9.65625 83.3438 9.28125 83.0938 9.03125C82.8125 8.78125 82.4688 8.65625 82.0312 8.65625C81.5938 8.65625 81.2188 8.78125 80.9375 9C80.6562 9.25 80.5312 9.625 80.5312 10.0938V12.4375C80.5312 12.9375 80.6562 13.2812 80.9062 13.5312Z" fill="#183153"/>
<path d="M108 0.25C112.25 0.25 115.75 3.75 115.75 8C115.75 12.2812 112.25 15.75 108 15.75C103.719 15.75 100.25 12.2812 100.25 8C100.25 3.75 103.719 0.25 108 0.25ZM111.125 11.6562C111.375 11.6562 111.594 11.4688 111.594 11.1875C111.594 10.9062 111.5 10.7812 111.312 10.6562C109.062 9.34375 106.469 9.28125 103.906 9.84375C103.656 9.90625 103.469 10.0625 103.469 10.375C103.469 10.625 103.656 10.875 103.969 10.875C104.062 10.875 104.219 10.8125 104.344 10.7812C106.594 10.3438 108.844 10.375 110.812 11.5625C110.906 11.625 111 11.6562 111.125 11.6562ZM111.969 9.625C112.312 9.625 112.562 9.34375 112.594 9C112.594 8.75 112.469 8.53125 112.219 8.40625C110.688 7.46875 108.719 6.96875 106.688 6.96875C105.406 6.96875 104.5 7.15625 103.625 7.40625C103.312 7.5 103.156 7.71875 103.156 8.03125C103.156 8.375 103.438 8.65625 103.75 8.65625C103.906 8.65625 103.969 8.59375 104.125 8.5625C106.719 7.875 109.625 8.34375 111.594 9.5C111.688 9.53125 111.812 9.625 111.969 9.625ZM112.938 7.25C113.312 7.25 113.656 6.9375 113.656 6.5C113.656 6.125 113.5 5.9375 113.25 5.8125C111.531 4.78125 109.125 4.3125 106.844 4.3125C105.5 4.3125 104.281 4.46875 103.188 4.78125C102.906 4.875 102.625 5.09375 102.625 5.53125C102.625 5.9375 102.938 6.28125 103.344 6.28125C103.5 6.28125 103.656 6.21875 103.75 6.1875C106.344 5.46875 110.312 5.78125 112.531 7.125C112.688 7.1875 112.781 7.25 112.938 7.25Z" fill="#183153"/>
<path d="M128.75 7.40625C130.812 9.625 131.531 13.3125 130.344 15.75C130.281 15.9062 130.094 16 129.938 16H124.469C124.125 16 123.875 15.6562 124.031 15.3438L127.969 7.5C128.125 7.15625 128.5 7.15625 128.75 7.40625ZM131.625 0.28125C131.844 -0.0625 132.25 -0.0625 132.438 0.25C132.594 0.625 139.938 15.3438 139.938 15.3438C140.094 15.6562 139.875 16 139.531 16H134.062C133.906 16 133.719 15.9062 133.656 15.75C131.344 11.1562 127.812 6.3125 131.625 0.28125Z" fill="#183153"/>
<path d="M151.312 7.53125C151.156 7.4375 150.938 7.4375 150.75 7.5C150.562 7.59375 150.406 7.75 150.344 7.9375C150.062 8.78125 149.938 9.71875 150.062 10.5938C150.094 10.8125 150.188 11 150.344 11.125C150.531 11.2188 150.75 11.2812 150.938 11.2188L154.312 10.375C154.938 10.2188 155.031 9.34375 154.438 9.03125L151.312 7.53125ZM152.688 15C152.531 14.875 152.406 14.6875 152.406 14.5C152.375 14.2812 152.438 14.0938 152.562 13.9375L154.906 11.375C155.344 10.875 156.156 11.1875 156.125 11.875L156 15.3125C156 15.5312 155.906 15.7188 155.75 15.8438C155.594 16 155.375 16.0312 155.188 16C154.281 15.8438 153.438 15.5 152.688 15ZM157.25 11.5625C156.875 11 157.438 10.3125 158.062 10.5L161.375 11.5625C161.562 11.6562 161.719 11.7812 161.812 11.9688C161.875 12.1562 161.875 12.375 161.781 12.5625C161.406 13.375 160.844 14.0938 160.156 14.6875C159.969 14.8125 159.781 14.875 159.562 14.8438C159.375 14.8125 159.188 14.6875 159.094 14.5L157.25 11.5625ZM161.875 7.4375C161.969 7.625 161.969 7.84375 161.875 8.03125C161.781 8.21875 161.625 8.34375 161.438 8.40625L158.094 9.375C157.438 9.5625 156.938 8.84375 157.312 8.28125L159.25 5.40625C159.344 5.25 159.531 5.125 159.75 5.09375C159.938 5.0625 160.156 5.125 160.312 5.28125C160.969 5.875 161.531 6.59375 161.875 7.4375ZM151.938 0.96875C153.031 0.4375 154.219 0.125 155.438 0.03125C155.625 0 155.844 0.0625 155.969 0.21875C156.125 0.34375 156.188 0.53125 156.188 0.71875V7.25C156.188 7.96875 155.25 8.21875 154.875 7.59375L151.625 1.96875C151.531 1.78125 151.5 1.59375 151.562 1.40625C151.625 1.1875 151.75 1.03125 151.938 0.96875Z" fill="#183153"/>
<path d="M180.156 13.375C180.094 13.3125 180.062 13.2812 179.969 13.2812C179.875 13.3125 179.844 13.3438 179.781 13.4062C179.406 13.75 178.812 14.375 178.781 14.9062C178.719 15.5 179.188 16 179.969 16C180.625 16.0312 181.156 15.6562 181.188 15.0312C181.188 15.0312 181.219 15 181.219 14.9688C181.219 14.4375 180.562 13.75 180.156 13.375ZM184.344 2.125C185.094 3.375 185.219 4.40625 185 5.625C184.531 7.8125 181.781 10.8438 180.125 12.375C180.094 12.4375 180.094 12.4062 180.031 12.4375H179.938C179.875 12.4062 179.781 12.3125 179.719 12.2812C177.906 10.4688 175.094 7.53125 174.875 4.96875C174.812 2.75 175.781 1.4375 177.438 0.5625C177.75 0.4375 178.594 0 180 0C180.688 0 181.594 0.15625 182.375 0.5C183.156 0.84375 183.844 1.3125 184.344 2.125ZM179.812 11V0.84375C178 1 177.562 3.625 177.656 5.09375C177.781 6.9375 178.938 9.40625 179.812 11ZM184.25 5.625C184.75 3.9375 183.906 1.4375 181.156 0.84375C182.344 1.65625 182.688 3.53125 182.656 4.96875C182.594 6.78125 181.406 9.34375 180.531 10.9688C181.844 9.625 183.75 7.40625 184.25 5.625Z" fill="#183153"/>
<path d="M204.594 2.875V0L211 3.75V11.2188L208.531 9.78125V6.84375C208.531 6.75 208.406 6.6875 208.312 6.71875L205.344 8.46875C205.281 8.53125 205.219 8.625 205.219 8.71875V12.1875C205.219 12.3125 205.344 12.375 205.406 12.3125L207.938 10.8438L210.375 12.2812L204 16L197.594 12.2812L200.031 10.8438L202.562 12.3125C202.625 12.375 202.75 12.3125 202.75 12.1875V8.71875C202.75 8.625 202.719 8.53125 202.625 8.46875L199.656 6.71875C199.562 6.6875 199.438 6.75 199.438 6.84375V9.78125L197 11.2188V3.75L203.375 0V2.875L200.875 4.34375C200.781 4.375 200.781 4.53125 200.875 4.59375L203.844 6.3125C203.938 6.375 204.031 6.375 204.125 6.3125L207.094 4.59375C207.188 4.53125 207.188 4.40625 207.094 4.34375L204.594 2.875Z" fill="#183153"/>
<path d="M235 7.21875V15H221V7.21875H225.406V11.125H230.562V7.21875H235ZM230.562 1H225.406V4.90625H230.562V1Z" fill="#183153"/>
<path d="M17.25 25C18.1875 25 19 25.8125 19 26.75V37.25C19 38.2188 18.1875 39 17.25 39H6.75C5.78125 39 5 38.2188 5 37.25V26.75C5 25.8125 5.78125 25 6.75 25H17.25ZM13.8438 27.5938V33.8125C13.8438 34.4375 14.7812 34.4375 14.7812 33.8125V27.5938C14.7812 26.9688 13.8438 26.9688 13.8438 27.5938ZM11.5312 27.3438V34.125C11.5312 34.7188 12.4688 34.7188 12.4688 34.125V27.3438C12.4688 26.7188 11.5312 26.7188 11.5312 27.3438ZM9.1875 27.5938V33.8125C9.1875 34.4375 10.125 34.4375 10.125 33.8125V27.5938C10.125 26.9688 9.1875 26.9688 9.1875 27.5938ZM6.84375 28.5V32.7188C6.84375 33.3438 7.78125 33.3438 7.78125 32.7188V28.5C7.78125 27.9062 6.84375 27.9062 6.84375 28.5ZM16.9688 35.625C17.4375 35.2188 16.8125 34.5312 16.3438 34.9375C14.375 36.5938 9.6875 36.6562 7.625 34.9375C7.15625 34.5312 6.5625 35.2188 7.03125 35.625C9.40625 37.6875 14.6875 37.5938 16.9688 35.625ZM17.125 32.7188V28.5C17.125 27.9062 16.1875 27.9062 16.1875 28.5V32.7188C16.1875 33.3438 17.125 33.3438 17.125 32.7188Z" fill="#183153"/>
<path d="M30.8438 27H42.6562C43.125 27 43.5 27.375 43.5 27.8438C43.5 27.9688 43.4688 28.0625 43.4062 28.1875L41.5 32.5L43.4062 36.8438C43.4688 36.9688 43.5 37.0625 43.5 37.1875C43.5 37.6562 43.125 38 42.6562 38H31V40H29V38V27V26.9062C28.5938 26.625 28.375 26.1562 28.375 25.625C28.375 24.75 29.0938 24 30 24C30.875 24 31.625 24.75 31.625 25.625C31.625 26.2188 31.3125 26.7188 30.8438 27Z" fill="#183153"/>
<path d="M63.0625 33.7188L62.8125 34.9375L56.6875 33.6562L56.9688 32.4375L63.0625 33.7188ZM64.6562 31L63.875 31.9688L59.0625 27.9688L59.875 27L64.6562 31ZM63.6875 32.25L63.1562 33.375L57.5 30.75L58.0312 29.5938L63.6875 32.25ZM62.1875 25L65.9062 30.0312L64.9062 30.7812L61.1875 25.75L62.1875 25ZM62.8125 35.25V36.5H56.5625V35.25H62.8125ZM64.0625 37.75V34H65.3125V39H54.0625V34H55.3125V37.75H64.0625Z" fill="#183153"/>
<path d="M92.1562 27.9062C92.5312 29.2188 92.5312 32.0312 92.5312 32.0312C92.5312 32.0312 92.5312 34.8125 92.1562 36.1562C91.9688 36.9062 91.375 37.4688 90.6562 37.6562C89.3125 38 84 38 84 38C84 38 78.6562 38 77.3125 37.6562C76.5938 37.4688 76 36.9062 75.8125 36.1562C75.4375 34.8125 75.4375 32.0312 75.4375 32.0312C75.4375 32.0312 75.4375 29.2188 75.8125 27.9062C76 27.1562 76.5938 26.5625 77.3125 26.375C78.6562 26 84 26 84 26C84 26 89.3125 26 90.6562 26.375C91.375 26.5625 91.9688 27.1562 92.1562 27.9062ZM82.25 34.5625L86.6875 32.0312L82.25 29.5V34.5625Z" fill="#183153"/>
<path d="M103.938 33.875C103.938 34.6562 103.25 35.3438 102.469 35.3438C101.656 35.3438 101 34.6562 101 33.875C101 33.0625 101.656 32.4062 102.469 32.4062H103.938V33.875ZM104.656 33.875C104.656 33.0625 105.344 32.4062 106.125 32.4062C106.938 32.4062 107.594 33.0625 107.594 33.875V37.5312C107.594 38.3438 106.938 39 106.125 39C105.344 39 104.656 38.3438 104.656 37.5312V33.875ZM106.125 27.9688C105.344 27.9688 104.656 27.2812 104.656 26.5C104.656 25.6875 105.344 25 106.125 25C106.938 25 107.594 25.6875 107.594 26.5V27.9688H106.125ZM106.125 28.6875C106.938 28.6875 107.594 29.3438 107.594 30.1562C107.594 30.9688 106.938 31.625 106.125 31.625H102.469C101.656 31.625 101 30.9688 101 30.1562C101 29.3438 101.656 28.6875 102.469 28.6875H106.125ZM112.031 30.1562C112.031 29.3438 112.719 28.6875 113.5 28.6875C114.312 28.6875 115 29.3438 115 30.1562C115 30.9688 114.312 31.625 113.5 31.625H112.031V30.1562ZM111.312 30.1562C111.312 30.9688 110.656 31.625 109.844 31.625C109.031 31.625 108.375 30.9688 108.375 30.1562V26.5C108.375 25.6875 109.031 25 109.844 25C110.656 25 111.312 25.6875 111.312 26.5V30.1562ZM109.844 36.0625C110.656 36.0625 111.312 36.75 111.312 37.5312C111.312 38.3438 110.656 39 109.844 39C109.031 39 108.375 38.3438 108.375 37.5312V36.0625H109.844ZM109.844 35.3438C109.031 35.3438 108.375 34.6562 108.375 33.875C108.375 33.0625 109.031 32.4062 109.844 32.4062H113.5C114.312 32.4062 115 33.0625 115 33.875C115 34.6562 114.312 35.3438 113.5 35.3438H109.844Z" fill="#183153"/>
<path d="M133.625 25.625C133.625 26.2812 133.219 26.8438 132.688 27.125L136 30L139.25 29.375C139.094 29.125 139 28.8125 139 28.5C139 27.6875 139.656 27 140.5 27C141.312 27 142 27.6875 142 28.5C142 29.3125 141.344 30 140.531 30L137.031 37.8438C136.688 38.5625 135.969 39 135.188 39H128.781C128 39 127.281 38.5625 126.969 37.8438L123.438 30C122.625 30 122 29.3125 122 28.5C122 27.6875 122.656 27 123.5 27C124.312 27 125 27.6875 125 28.5C125 28.8438 124.875 29.125 124.719 29.375L128 30L131.312 27.125C130.75 26.8438 130.375 26.2812 130.375 25.625C130.375 24.75 131.094 24 132 24C132.875 24 133.625 24.75 133.625 25.625Z" fill="#183153"/>
<path d="M162 25C162.531 25 163 25.4688 163 26.0312V38C163 38.5625 162.531 39 162 39H149.969C149.438 39 149 38.5625 149 38V26.0312C149 25.4688 149.438 25 149.969 25H162ZM153.219 37V30.3438H151.156V37H153.219ZM152.188 29.4062C152.844 29.4062 153.375 28.875 153.375 28.2188C153.375 27.5625 152.844 27 152.188 27C151.5 27 150.969 27.5625 150.969 28.2188C150.969 28.875 151.5 29.4062 152.188 29.4062ZM161 37V33.3438C161 31.5625 160.594 30.1562 158.5 30.1562C157.5 30.1562 156.812 30.7188 156.531 31.25H156.5V30.3438H154.531V37H156.594V33.7188C156.594 32.8438 156.75 32 157.844 32C158.906 32 158.906 33 158.906 33.75V37H161Z" fill="#183153"/>
<path d="M175 25H185C186.094 25 187 25.9062 187 27V37C187 38.125 186.094 39 185 39H175C173.875 39 173 38.125 173 37V27C173 25.9062 173.875 25 175 25ZM183 31.2812C183.75 30.5625 183.781 29.3125 183 28.5938C182.25 27.8438 181.031 27.8438 180.281 28.5938L180 28.8438C179.656 28.3438 179.062 28 178.406 28C177.344 28 176.469 28.875 176.469 29.9375V34.0938C176.469 35.1562 177.344 36 178.406 36C179.094 36 179.656 35.6875 180 35.1875L180.281 35.4375C181.031 36.1875 182.25 36.1875 183 35.4375C183.75 34.6875 183.75 33.4688 183 32.7188L182.281 32.0312L183 31.2812Z" fill="#183153"/>
<path d="M211.688 29C211.875 29.125 212 29.3438 212 29.5625V34.4375C212 34.6875 211.875 34.9062 211.688 35.0312L204.375 39.9062C204.125 40.0625 203.844 40.0625 203.594 39.9062L196.281 35.0312C196.094 34.9062 196 34.6875 196 34.4375V29.5625C196 29.3438 196.094 29.125 196.281 29L203.594 24.125C203.844 23.9688 204.125 23.9688 204.375 24.125L211.688 29ZM204.688 26V29.1875L207.656 31.1875L210.062 29.5625L204.688 26ZM203.312 26L197.906 29.5625L200.312 31.1875L203.312 29.1875V26ZM197.375 30.875V33.1562L199.094 32L197.375 30.875ZM203.312 38.0312V34.8438L200.312 32.8438L197.906 34.4375L203.312 38.0312ZM204 33.625L206.406 32L204 30.375L201.562 32L204 33.625ZM204.688 38.0312L210.062 34.4375L207.656 32.8438L204.688 34.8438V38.0312ZM210.625 33.1562V30.875L208.875 32L210.625 33.1562Z" fill="#183153"/>
<path d="M220.844 29.0938L223.312 25.7812L223.094 29.875H220.281L220.844 29.0938ZM232.375 25.4375L232.594 29.625L228.344 25L232.375 25.4375ZM223.5 30.8438L227.312 38.3125L220.281 30.1562H223.156L223.5 30.8438ZM223.562 29.875L228 25.0312L229.875 27.0938L232.438 29.875H223.562ZM232.844 30.1562H235.688L228.656 38.3125L232.844 30.1562ZM232.969 26.1562L235.719 29.875H232.906L232.688 26.3125V25.7812L232.969 26.1562ZM223.531 26.9375L223.625 25.4375L227.625 25L223.375 29.625L223.531 26.9375ZM232.531 30.1562L228 39L224.781 32.75L223.469 30.1562H232.531Z" fill="#183153"/>
<path d="M17.5938 49C18.3438 49 19 49.6562 19 50.4062V61.625C19 62.375 18.3438 63 17.5938 63H6.375C5.625 63 5 62.375 5 61.625V50.4062C5 49.6562 5.625 49 6.375 49H17.5938ZM16.7812 53.6562C16.8125 52.3438 16.3438 51.6562 15.2812 51.6562C13.9062 51.5938 12.9375 52.375 12.4375 54.0312C13.0625 53.75 14 53.6875 13.875 54.7188C13.8438 55.0625 13.625 55.5625 13.1875 56.25C12.0312 58.0938 11.7188 57.4688 11.0938 53.375C10.9062 52.2188 10.4062 51.6875 9.625 51.7812C8.9375 51.8438 7.8125 52.9688 6.65625 54L7.125 54.5938C7.59375 54.2812 7.84375 54.125 7.9375 54.125C8.59375 54.125 8.90625 55.8438 9.71875 58.75C10.125 59.8438 10.625 60.375 11.2188 60.375C12.1562 60.375 13.3438 59.5 14.7188 57.7188C16.0312 56 16.7188 54.6562 16.7812 53.6562Z" fill="#183153"/>
<path d="M33.4688 57.25C33.3438 57.875 32.9375 60.6562 32.7812 61.4375C32.7812 61.5 32.75 61.5312 32.6875 61.5312H30.375C30.125 61.5312 29.9688 61.3125 30 61.0938L31.8125 49.4688C31.875 49.1562 32.125 48.9375 32.4375 48.9375C37.2188 48.9375 37.5938 48.8125 38.8125 49.3125C40.6875 50.0312 40.875 51.7812 40.1875 53.6875C39.5312 55.625 37.9375 56.4688 35.8125 56.5C34.4688 56.5312 33.6562 56.2812 33.4688 57.25ZM41.1562 52.75C41.0938 52.7188 41.0625 52.7188 41.0625 52.8125C41 53.1562 40.9062 53.5 40.7812 53.8438C39.5312 57.4062 36.0625 57.0938 34.375 57.0938C34.1875 57.0938 34.0625 57.2188 34.0312 57.4062C33.3438 61.7812 33.1875 62.6875 33.1875 62.6875C33.1562 62.9062 33.3125 63.0938 33.5312 63.0938H35.5C35.7812 63.0938 36 62.9062 36.0625 62.625C36.0938 62.4688 36.0312 62.8125 36.5 59.7812C36.6562 59.0938 36.9688 59.1562 37.4375 59.1562C39.6562 59.1562 41.375 58.2812 41.875 55.6562C42.0938 54.5625 42.0312 53.4375 41.1562 52.75Z" fill="#183153"/>
<path d="M63.5312 57.9688C62.6562 56.875 60.3438 54.5938 60.0312 54.5312C59.875 54.5 58.5 55.75 57.5 56.8125C55.7188 58.6875 54.7188 60.3125 54.7188 61.25C54.7188 61.7188 54.9062 61.9375 55.7812 62.5C56.8125 63.1875 58.0312 63.625 59.2188 63.7188C60.2188 63.8438 61.4375 63.7188 62.3438 63.4062C63.4688 63.0625 65 62.125 65.25 61.6562C65.5625 61.0312 64.9375 59.6562 63.5312 57.9688ZM57.875 52.5C55.8125 55.0625 54.5625 57.375 54.125 58.5938C53.8125 59.4062 53.6875 60.25 53.8125 60.5938C53.9062 60.8125 53.8438 60.7188 53.5312 60.2812C52.8125 59.1562 52.4375 58.0625 52.2812 56.5C52.2188 55.9688 52.2188 55.6875 52.4062 54.5938C52.625 53.2812 53.375 51.7188 54.2812 50.7812C54.6562 50.375 54.7188 50.375 55.1875 50.5312C56.0625 50.8125 56.9375 51.6562 57.875 52.5ZM67.625 54.5C67.75 55.1875 67.7812 56.7188 67.6562 57.4062C67.5312 58 67.2812 58.75 67.0625 59.25C66.875 59.625 66.4688 60.375 66.2812 60.5938C66.1562 60.7188 66.1562 60.7188 66.2188 60.4688C66.2812 60.125 66.2188 59.4688 66 58.8125C65.3438 56.875 63.4688 54.1562 62.1562 52.5C62.875 51.8438 63.4375 51.3125 64.1562 50.8438C64.5312 50.625 65.0625 50.4062 65.2812 50.4062C65.5 50.4062 67.0938 52 67.625 54.5ZM56.4062 49.3438C55.9375 49.375 55.9688 49.3438 56.6875 49C59.2188 47.8125 62 48.1562 64 49.375C63.5938 49.3438 62.6562 49.1875 60.6562 50.1562C60.3125 50.3438 60 50.4688 59.9688 50.4688C59.8438 50.4375 57.9062 49.2812 56.4062 49.3438Z" fill="#183153"/>
<path d="M89.4219 57.25C90.8594 57.25 91.9531 56.125 91.9531 54.4375C91.9531 52.7812 90.8594 51.6562 89.4219 51.6562C87.9844 51.6562 86.8906 52.5938 86.5156 55.5625C86.8281 56.0312 87.8594 57.25 89.4219 57.25ZM89.4219 49.8125C91.9844 49.8125 93.9844 51.8125 93.9844 54.4375C93.9844 57.0938 91.9844 59.0625 89.4531 59.0625C89.3594 59.0625 89.2344 59.0625 89.2344 59.0625C88.4219 59.0312 87.6406 58.7812 86.9531 58.3438C86.6719 58.1875 86.4219 58.0312 86.1719 57.8125L85.4531 62.25H83.3906L84.4844 56C83.2969 54.375 82.7031 52.5 82.4531 51.5312V54.4688C82.4531 57.1875 80.7344 59.0625 78.2656 59.0625C77.0156 59.0625 75.9531 58.625 75.1719 57.75C74.4219 56.9375 73.9844 55.75 73.9844 54.4688V50.0625H76.0469L76.0156 54.4688C76.0156 56.0938 76.8281 57.25 78.2656 57.25C79.6719 57.25 80.4219 56.0625 80.4219 54.4688V50.0625H83.9531C84.2031 51.1562 84.5469 52.3438 85.0156 53.2188C85.4219 51.5 86.8594 49.8125 89.4219 49.8125Z" fill="#183153"/>
<path d="M113.938 49C114.5 49 115 49.5 114.969 50.0625V61.9688C114.969 62.5312 114.5 63 113.938 63H102.031C101.469 63 101 62.5312 101 61.9375V50.0625C101 49.5 101.469 49 102.031 49H113.938ZM108.406 60.25C110.75 60 112.438 57.9062 112.219 55.5938C112 53.4375 110.156 51.7812 108 51.7812C105.812 51.7812 103.969 53.4375 103.75 55.5938H106.719V54.9688C106.719 54.8438 106.812 54.75 106.938 54.75H109.062C109.156 54.75 109.25 54.8438 109.25 54.9688V57.0625C109.25 57.1875 109.156 57.2812 109.062 57.2812H106.938C106.812 57.2812 106.719 57.1875 106.719 57.0625V56.4375H103.75C104 58.7812 106.094 60.4688 108.406 60.25Z" fill="#183153"/>
<path d="M134.656 56.9375C130.562 56.9375 127.531 54.4062 127.531 53.625C127.5 53.5 127.469 53.5938 128.344 51.1875C128.594 50.4688 128.906 50.125 129.406 50.125C129.938 50.125 130.375 50.5938 130.938 50.5938C131.5 50.5938 131.656 49.9688 132.125 49.9688C132.656 49.9688 134.438 50.6562 135.25 51.0625C136.312 51.5938 136.438 51.875 136.562 52.4688C137.25 55.4062 137.25 55.25 137.219 55.4688C137.219 56.7188 135.719 56.9375 134.656 56.9375ZM137.406 55.9688C139.062 56.6875 140 57.9062 140 59C140 60.3438 139.031 62.0625 135.219 62.0625C130.25 62.0625 124 58.8125 124 56.1562C124 54.5312 125.812 54.2812 127.219 54.2188C127.156 54.4062 127.094 54.625 127.094 54.8438C127.094 56.3438 130.531 58.6562 134.469 58.6562C136.219 58.6562 137.531 58 137.531 56.8438C137.531 56.75 137.531 56.6562 137.406 55.9688Z" fill="#183153"/>
<path d="M159.312 55.625C159.25 55.5312 159.156 55.375 159.125 55.1875C159.062 54.8438 159.062 54.5938 159.25 54.5625C159.469 54.5312 159.562 54.75 159.625 55.0625C159.656 55.3125 159.656 55.5 159.594 55.625C159.5 55.625 159.406 55.625 159.312 55.625ZM157.656 55.875V55.9062C157.5 55.8438 157.312 55.75 157.094 55.7812C156.719 55.8125 156.438 56 156.406 55.875C156.375 55.8125 156.469 55.7188 156.562 55.6562C156.844 55.4688 157.219 55.4062 157.531 55.5625C157.781 55.6562 157.969 55.9062 157.906 55.9688C157.875 56 157.781 55.9375 157.656 55.875ZM157.375 56.0625C157.656 56 157.875 56.1875 157.844 56.25C157.812 56.2812 157.781 56.2812 157.688 56.2812C157.5 56.25 157.281 56.2812 157.094 56.3438C156.969 56.4062 156.969 56.375 156.938 56.375C156.906 56.25 157.062 56.0938 157.375 56.0625ZM159.062 56.5938C158.938 56.8125 158.5 56.5938 158.594 56.375C158.719 56.1562 159.156 56.375 159.062 56.5938ZM159.531 55.9375C159.781 55.9375 159.781 56.4375 159.531 56.4375C159.281 56.4375 159.312 55.9375 159.531 55.9375ZM152.719 58.4062C152.844 58.375 152.812 58.4375 152.812 58.4375C152.812 58.4375 152.844 58.4688 152.812 58.5C152.719 58.7188 152.188 58.75 152.156 58.2188C152.125 57.875 152.438 57.5625 152.062 57.3125C151.969 57.25 151.875 57.25 151.781 57.25C151.656 57.2812 151.562 57.3438 151.5 57.4375C151.406 57.5938 151.406 57.8125 151.281 57.8125C151.156 57.7812 151.156 57.3438 151.438 57.0312C151.656 56.7812 152.25 56.6875 152.531 57.2188C152.781 57.6875 152.281 58.0938 152.438 58.3438C152.531 58.4688 152.656 58.4062 152.719 58.4062ZM162.062 57.875C162.281 57.875 162.594 58.125 162.594 58.6562C162.594 59.2188 162.375 59.8438 162.312 60C160.594 64.0625 154.031 64.0625 152.219 59.9062C151.25 59.9062 150.219 59.0625 150.125 58C150.094 57.6562 150.125 57.3125 150.25 56.9688L149.781 56.5625C147.688 54.7812 154.281 47.4375 156.406 49.2812C156.406 49.3125 157.125 50 157.125 50L157.5 49.8438C159.344 49.0625 160.875 49.4375 160.875 50.6562C160.875 51.2812 160.469 52.0312 159.812 52.7188C160.625 53.4688 160.438 54.9375 160.469 55.3125C160.719 55.375 161.438 55.5312 161.75 55.875C162.344 56.5 161.938 57.125 161.875 57.25C162 57.5938 161.969 57.5 162.062 57.875ZM152.188 59.375C153.125 59.4062 153.406 58.5 153.25 57.5625C152.969 55.5938 150.438 56.0312 150.625 57.9688C150.719 58.7188 151.469 59.375 152.188 59.375ZM151.625 55.8125C152.219 54.1875 153.219 52.6875 154.562 51.6875C155.562 50.8438 156.625 50.25 156.625 50.25C156.625 50.25 156.031 49.5938 155.875 49.5312C154.812 49.25 152.5 50.8438 151.031 52.9375C150.438 53.7812 149.594 55.3125 150 56.0625C150.031 56.1562 150.312 56.4062 150.469 56.5312C150.719 56.1875 151.156 55.9062 151.625 55.8125ZM159.094 58.9688C159.156 58.9688 159.094 59.0625 159.094 59.0625C159.094 59.0625 158.25 59.4375 156.875 59.0312C156.906 59.3438 157.219 59.5 157.375 59.5625C158.375 59.9375 160.094 59.625 161.406 58.75C161.406 58.7188 161.438 58.75 161.406 58.7812C160.5 60.0625 157.406 60.4688 156.688 59.4375C156.312 58.875 156.656 58.0625 157.312 58.1562C157.5 58.1875 158.969 58.4062 160.438 57.7188C161.312 57.3125 161.625 56.875 161.562 56.5312C161.562 56.4062 161.5 56.3125 161.438 56.25C161.281 56.0938 161.031 55.9688 160.625 55.8438C160.469 55.8125 160.375 55.7812 160.281 55.75C160.094 55.7188 160.031 55.6562 160 55.3125C160 55.1875 159.969 54.6562 159.969 54.4688C159.938 54.0938 159.906 53.5938 159.594 53.375C159.469 53.3125 159.312 53.2812 159.156 53.3125C158.969 53.3438 158.875 53.4375 158.75 53.5625C158.344 53.875 158.031 53.9375 157.656 53.9062C157.438 53.9062 157.219 53.875 156.938 53.8438H156.781C156.188 53.8125 155.531 54.3438 155.406 55.0938C155.25 56.125 156.031 56.6875 156.25 57C156.281 57.0312 156.281 57.0938 156.281 57.125C156.281 57.1875 156.25 57.25 156.219 57.2812C155.594 57.9375 155.406 58.9375 155.625 59.7812C155.656 59.9062 155.688 60 155.75 60.0938C156.281 61.375 158 62 159.688 61.4375C159.906 61.375 160.125 61.2812 160.312 61.1562C160.688 61 161 60.75 161.281 60.4375C161.719 59.9688 162 59.4688 162.094 58.8438C162.188 58.2812 161.844 58.2812 161.75 58.2812C161.688 58.0312 161.625 57.7812 161.531 57.5312C161.031 57.9062 160.406 58.1875 159.938 58.3125C157.75 58.9375 157.094 58.125 156.906 58.75C157.969 59.125 159.094 58.9688 159.094 58.9688ZM154.344 52.9375V52.9688H154.375C154.719 52.7188 156.406 51.625 158.562 52.125C158.594 52.125 158.625 52.0938 158.594 52.0938C158.25 51.875 157.688 51.75 157.312 51.75C157.312 51.75 157.281 51.75 157.281 51.7188C157.375 51.625 157.438 51.5312 157.531 51.4688C157.531 51.4688 157.562 51.4375 157.531 51.4375C157.531 51.4375 157.531 51.4062 157.531 51.4375C156.969 51.4688 156.344 51.7188 156 51.9688C155.969 51.9688 155.969 51.9688 155.969 51.9688C155.938 51.9688 155.938 51.9375 155.938 51.9375C155.969 51.8125 156.062 51.625 156.125 51.5312C156.125 51.5312 156.125 51.5312 156.125 51.5C156.094 51.5 156.094 51.5 156.094 51.5C155.5 51.8125 154.875 52.3438 154.344 52.9375Z" fill="#183153"/>
<path d="M180 48.25C184.25 48.25 187.75 51.75 187.75 56C187.75 60.2812 184.25 63.75 180 63.75C175.719 63.75 172.25 60.2812 172.25 56C172.25 51.75 175.719 48.25 180 48.25ZM185.094 51.8438C184.969 52.0312 183.875 53.4375 181.406 54.4375C181.656 54.9375 181.812 55.3125 182 55.75C184.188 55.4688 186.375 55.9062 186.594 55.9688C186.594 54.4062 186.031 52.9688 185.094 51.8438ZM184.375 51.0625C182.75 49.625 180.531 49.0938 178.438 49.5938C178.625 49.8438 179.812 51.4688 180.906 53.4688C183.25 52.5938 184.25 51.25 184.375 51.0625ZM177.156 50.0312C175.312 50.9062 173.938 52.625 173.5 54.6562C173.812 54.6875 176.531 54.6875 179.625 53.875C178.531 51.9062 177.344 50.2812 177.156 50.0312ZM173.375 56.0312C173.375 57.7188 174 59.2812 175.062 60.4375C176.125 58.625 178.312 56.6875 180.719 56C180.531 55.625 180.375 55.25 180.156 54.875C176.875 55.875 173.656 55.8438 173.375 55.8125C173.375 55.9062 173.375 55.9688 173.375 56.0312ZM175.906 61.25C177.875 62.7812 180.438 63.0312 182.562 62.125C182.469 61.5312 182.094 59.5 181.156 57.0938C178.5 58 176.625 59.8438 175.906 61.25ZM183.688 61.5C185.156 60.5 186.219 58.9062 186.531 57.0625C186.281 57 184.469 56.4688 182.406 56.7812C183.25 59.1875 183.625 61.125 183.688 61.5Z" fill="#183153"/>
<path d="M204 51.6562L199.875 54.2812L204 56.9062L199.875 59.5625L195.75 56.9062L199.875 54.25L195.75 51.6562L199.875 49L204 51.6562ZM199.844 60.375L203.969 57.75L208.094 60.375L203.969 63L199.844 60.375ZM204 56.9062L208.125 54.25L204 51.6562L208.094 49L212.25 51.6562L208.094 54.2812L212.25 56.9062L208.094 59.5625L204 56.9062Z" fill="#183153"/>
<path d="M220 56C220 51.5938 223.562 48 228 48C232.406 48 236 51.5938 236 56C236 60.4375 232.406 64 228 64H221.156C220.719 64 220.5 63.5 220.812 63.1875L222.344 61.6562C220.875 60.2188 220 58.2188 220 56ZM230.906 52.8125C231.656 52.8125 232.25 52.2188 232.25 51.4688C232.25 50.75 231.656 50.1562 230.906 50.1562C230.281 50.1562 229.719 50.5938 229.594 51.2188C228.531 51.3125 227.688 52.25 227.688 53.3438C226.5 53.4062 225.438 53.75 224.594 54.25C224.281 54.0312 223.875 53.875 223.438 53.875C222.406 53.875 221.594 54.7188 221.594 55.75C221.594 56.5 222.031 57.125 222.656 57.4375C222.719 59.5938 225.094 61.3438 228 61.3438C230.906 61.3438 233.25 59.5938 233.312 57.4375C233.938 57.125 234.375 56.4688 234.375 55.75C234.375 54.7188 233.562 53.875 232.531 53.875C232.094 53.875 231.688 54 231.375 54.25C230.531 53.7188 229.438 53.4062 228.25 53.3438C228.25 52.5625 228.844 51.875 229.625 51.7812C229.75 52.375 230.281 52.8125 230.906 52.8125ZM225.531 55.7188C226.031 55.7188 226.438 56.2812 226.406 56.9688C226.375 57.625 226 57.875 225.469 57.875C224.938 57.875 224.469 57.5938 224.5 56.9375C224.531 56.25 225 55.7188 225.531 55.7188ZM231.469 56.9375C231.5 57.5938 231.031 57.875 230.5 57.875C230 57.875 229.594 57.625 229.562 56.9688C229.531 56.2812 229.938 55.7188 230.469 55.7188C230.969 55.7188 231.438 56.25 231.469 56.9375ZM229.969 58.6875C229.625 59.4688 228.875 60 228 60C227.094 60 226.344 59.4688 226.031 58.6875C225.969 58.5938 226.031 58.5 226.156 58.5C226.719 58.4375 227.344 58.4062 228 58.4062C228.625 58.4062 229.25 58.4375 229.844 58.5C229.938 58.5 230 58.5938 229.969 58.6875Z" fill="#183153"/>
<path d="M16.875 75.0625C18.1875 76.375 19 78.0938 19 79.9688C19 83.7812 15.8125 86.9062 11.9688 86.9062C10.8125 86.9062 9.6875 86.5938 8.65625 86.0625L5 87L5.96875 83.4062C5.375 82.375 5.03125 81.1875 5.03125 79.9375C5.03125 76.125 8.15625 73 11.9688 73C13.8438 73 15.5938 73.75 16.875 75.0625ZM11.9688 85.7188C15.1562 85.7188 17.8125 83.125 17.8125 79.9688C17.8125 78.4062 17.1562 76.9688 16.0625 75.875C14.9688 74.7812 13.5312 74.1875 12 74.1875C8.8125 74.1875 6.21875 76.7812 6.21875 79.9375C6.21875 81.0312 6.53125 82.0938 7.09375 83.0312L7.25 83.25L6.65625 85.375L8.84375 84.7812L9.03125 84.9062C9.9375 85.4375 10.9375 85.7188 11.9688 85.7188ZM15.1562 81.4062C15.3125 81.5 15.4375 81.5312 15.4688 81.625C15.5312 81.6875 15.5312 82.0312 15.375 82.4375C15.2188 82.8438 14.5312 83.2188 14.2188 83.25C13.6562 83.3438 13.2188 83.3125 12.125 82.8125C10.375 82.0625 9.25 80.3125 9.15625 80.2188C9.0625 80.0938 8.46875 79.2812 8.46875 78.4062C8.46875 77.5625 8.90625 77.1562 9.0625 76.9688C9.21875 76.7812 9.40625 76.75 9.53125 76.75C9.625 76.75 9.75 76.75 9.84375 76.75C9.96875 76.75 10.0938 76.7188 10.25 77.0625C10.375 77.4062 10.75 78.25 10.7812 78.3438C10.8125 78.4375 10.8438 78.5312 10.7812 78.6562C10.4688 79.3125 10.0938 79.2812 10.2812 79.5938C10.9688 80.75 11.625 81.1562 12.6562 81.6562C12.8125 81.75 12.9062 81.7188 13.0312 81.625C13.125 81.5 13.4688 81.0938 13.5625 80.9375C13.6875 80.75 13.8125 80.7812 13.9688 80.8438C14.125 80.9062 14.9688 81.3125 15.1562 81.4062Z" fill="#183153"/>
<path d="M36 83.6875C36.75 82.6875 37.2188 81.8438 37.4062 81.0625C38.0938 78.3125 33.875 78.3125 34.5938 81.0625C34.7188 81.8125 35.1875 82.6875 36 83.6875ZM40.3125 85.9688C41.4062 85.4688 41.875 84.2812 41.4688 83.25C40.6562 81.3438 39 78 37.875 75.7812C37.3438 74.7188 37 73.9062 35.9688 73.9062C34.9375 73.9062 34.625 74.7812 34.125 75.7188C34 76.0312 30.9688 82.0312 30.5 83.25C29.9375 84.8125 31.1875 86.3438 32.75 86.0938C33.5 86.0312 34.375 85.5 35.4062 84.375C34.4688 83.2188 33.9062 82.1875 33.6875 81.2812C33.3125 79.5938 34.2812 78.125 36 78.125C38 78.125 39.8125 80.3125 36.5625 84.375C37.6875 85.625 39 86.5312 40.3125 85.9688ZM41.7812 81.7188C41.7812 81.7188 42.3125 82.8125 42.2812 82.9375C43.0938 85.125 41.4688 87.0312 39.5 87C39.1562 87 37.8125 87.0625 36 85.0625C34.375 86.8125 33.1562 87 32.4688 87C30.5 87 28.875 85.125 29.6875 82.9375C29.6875 82.875 30.0312 81.9375 33.3438 75.2812C33.9688 74 34.5625 73 36 73C37.5312 73 37.75 73.125 41.7812 81.7188Z" fill="#183153"/>
<path d="M66.2812 76C68.3125 76 70 77.6875 70 79.7188C70 81.7812 68.3125 83.4375 66.2812 83.4375C64.9375 83.4375 63.7812 82.7188 63.125 81.6875C63.5 81.125 63.6875 80.4375 63.6875 79.7188C63.6875 79 63.5 78.3125 63.125 77.75L63.1562 77.7188C63.8125 76.7188 64.9375 76.0312 66.2188 76H66.2812ZM60 76C61.3125 76 62.4688 76.7188 63.125 77.75C62.7812 78.3125 62.5625 79 62.5625 79.7188C62.5625 80.4375 62.7812 81.125 63.125 81.6875L63.0938 81.7188C62.4688 82.7188 61.3438 83.4062 60.0625 83.4375H60C58.6562 83.4375 57.5 82.7188 56.8438 81.6875C57.1875 81.125 57.4062 80.4375 57.4062 79.7188C57.4062 79 57.1875 78.3125 56.8438 77.75L56.875 77.7188C57.5 76.7188 58.625 76.0312 59.9375 76H60ZM53.6875 76C55.0312 76 56.1875 76.7188 56.8438 77.75C56.5 78.3125 56.2812 79 56.2812 79.7188C56.2812 80.4375 56.5 81.125 56.8438 81.6875L56.8125 81.7188C56.1562 82.7188 55.0312 83.4062 53.75 83.4375H53.6875C51.6562 83.4375 50 81.7812 50 79.7188C50 77.6875 51.6562 76 53.6875 76Z" fill="#183153"/>
<path d="M87.3438 79.375C87.4062 79.4062 87.4688 79.4375 87.5312 79.4688C88.4688 79.9062 89.125 80.5625 89.4688 81.375C89.9688 82.5312 90 84.375 88.5312 85.875C87.4062 87 86.0312 87.5 84.0625 87.5312C81.875 87.5 80.1875 86.75 79.0625 85.3125C78.0312 84.0312 77.5312 82.25 77.5 80.0312V80C77.5312 77.7812 78.0312 76 79.0312 74.7188C80.1875 73.2812 81.875 72.5312 84.0625 72.5C86.2812 72.5312 87.9688 73.25 89.1562 74.6875C89.7188 75.4062 90.1562 76.25 90.4062 77.25L89.1562 77.5938C88.9375 76.7812 88.5938 76.0938 88.1562 75.5312C87.2188 74.4375 85.875 73.8438 84.0625 73.8438C82.2812 73.8438 80.9375 74.4375 80.0625 75.5312C79.25 76.5938 78.8125 78.0938 78.8125 80C78.8125 81.9375 79.25 83.4375 80.0625 84.5C80.9375 85.5938 82.2812 86.1875 84.0625 86.1875C85.6562 86.1875 86.7188 85.8125 87.625 84.9062C88.625 83.9062 88.5938 82.6562 88.2812 81.9062C88.0938 81.4688 87.75 81.0938 87.2812 80.8125C87.1875 81.6562 86.9062 82.3438 86.5312 82.8438C85.9688 83.5312 85.2188 83.9062 84.25 83.9688C83.5 84 82.8125 83.8125 82.25 83.4688C81.5938 83.0312 81.2188 82.375 81.1875 81.5938C81.0938 80.0938 82.2812 79 84.1562 78.9062C84.8125 78.875 85.4375 78.9062 86 79C85.9375 78.5312 85.7812 78.1562 85.5312 77.875C85.2188 77.5312 84.75 77.3438 84.0938 77.3438C83.5625 77.3438 82.875 77.4688 82.4062 78.1562L81.3438 77.4062C81.9375 76.5 82.9062 76 84.0938 76C86.0625 76.0312 87.2188 77.25 87.3438 79.375ZM82.4688 81.5312C82.5 82.3125 83.3438 82.6875 84.1875 82.625C84.9688 82.5938 85.875 82.2812 86.0312 80.3438C85.625 80.25 85.1562 80.2188 84.6875 80.2188C84.5312 80.2188 84.375 80.2188 84.2188 80.2188C82.875 80.2812 82.4375 80.9375 82.4688 81.5312Z" fill="#183153"/>
<path d="M103 80H104V88H100V83H101V82H102V81H103V80ZM116 83V88H112V80H113V81H114V82H115V83H116ZM110 74H111V86H110V85H106V86H105V74H106V73H107V72H109V73H110V74ZM109 76H107V78H109V76Z" fill="#183153"/>
<path d="M136.625 82.3438C136.719 82.3125 136.781 82.2812 136.844 82.25L137.094 82.0938C137.156 82.0625 137.25 82 137.375 81.875C137.5 81.75 137.625 81.7188 137.75 81.7188C137.812 81.7188 137.875 81.7188 137.938 81.75L138.906 80.9062C138.938 80.875 138.969 80.875 139 80.8438C139.094 80.7812 139.188 80.7812 139.25 80.8438C139.375 80.9375 139.375 81.0312 139.281 81.1875L138.25 82.0625C138.281 82.0938 138.281 82.0938 138.281 82.125C138.281 82.1875 138.281 82.25 138.25 82.3438C138.25 82.375 138.219 82.4062 138.156 82.4688C138.125 82.5 138.094 82.5625 138.031 82.5938L137.438 83.0312C137.406 83.0625 137.344 83.0938 137.281 83.125C137.219 83.1562 137.156 83.1875 137.094 83.25C137.062 83.25 137.031 83.25 137 83.2812C136.812 83.3438 136.625 83.4062 136.406 83.4375C136.344 84.1875 136.062 84.9062 135.625 85.5625C135.094 86.3438 134.344 86.9688 133.406 87.375C132.438 87.8125 131.438 88.0312 130.312 88.0312C128.812 88 127.562 87.6562 126.625 87C125.531 86.2188 125 85.1875 125 83.9062V83.7188C125.031 82.8438 125.281 82.0312 125.75 81.2188C126.219 80.4375 126.906 79.9375 127.812 79.6562C128.281 79.5 128.75 79.4375 129.219 79.4375C129.719 79.4375 130.219 79.5312 130.75 79.7188C131.25 79.9062 131.844 80.1875 132.469 80.625L134.188 81.7812C134.656 82.0625 135.062 82.2812 135.469 82.4062C135.375 81.625 135.094 80.9375 134.594 80.375C134.125 79.8125 133.5 79.4062 132.75 79.125L132 78.875C131.344 78.6562 130.844 78.4375 130.531 78.1875C129.625 77.5938 129.156 76.7812 129.062 75.75L129.031 75.4375C129.031 74.4375 129.438 73.5938 130.25 72.9062C130.969 72.3125 131.844 72 132.844 72C133.594 72 134.25 72.2188 134.844 72.6562C135.438 73.0938 135.781 73.7188 135.875 74.5312V74.8438C135.875 75.4062 135.75 75.9062 135.438 76.3125C135.125 76.75 134.844 76.9375 134.625 76.9375C134.562 76.9375 134.531 76.9375 134.469 76.9375L133.406 77.9375C133.25 78.0312 133.125 78 133.062 77.875C133 77.8125 133.031 77.7188 133.094 77.625C133.125 77.5938 133.125 77.5625 133.156 77.5312L134.156 76.5938C134.125 76.5625 134.125 76.5 134.125 76.4375C134.125 76.3125 134.188 76.2188 134.281 76.125C134.719 75.75 134.938 75.2812 134.938 74.7812C134.938 74.2812 134.75 73.875 134.375 73.5312C133.969 73.1875 133.469 73 132.812 73C132 73 131.312 73.25 130.781 73.75C130.25 74.25 130 74.8125 130 75.5C130 76.0625 130.219 76.5625 130.625 77.0312C131.062 77.4688 131.719 77.8125 132.594 78.0625C133.844 78.4375 134.812 79.0312 135.469 79.9062C136.031 80.6562 136.375 81.5 136.438 82.4375C136.5 82.4062 136.562 82.375 136.656 82.3438H136.625ZM133.188 77.5938C133.188 77.625 133.188 77.6562 133.219 77.6562C133.25 77.6562 133.531 77.375 134.125 76.8125C134.125 76.75 133.969 76.8438 133.656 77.125C133.344 77.4062 133.188 77.5625 133.188 77.5938ZM133.438 77.8125C133.438 77.7812 133.406 77.75 133.375 77.75C133.344 77.75 133.312 77.7812 133.281 77.8125C133.219 77.8125 133.188 77.8125 133.156 77.8125C133.156 77.8438 133.156 77.8438 133.156 77.8438C133.156 77.875 133.156 77.875 133.188 77.9062H133.281C133.375 77.875 133.438 77.8125 133.438 77.7812V77.8125ZM134.125 77.1875C134.125 77.0938 134.094 77.0938 133.969 77.1875C133.938 77.2188 133.875 77.2812 133.781 77.375C133.781 77.375 133.719 77.4375 133.625 77.5312C133.531 77.625 133.5 77.6562 133.5 77.6875V77.7188C133.531 77.75 133.531 77.75 133.562 77.75C133.562 77.75 133.656 77.6562 133.844 77.4688C134.031 77.2812 134.125 77.1875 134.125 77.1875ZM139.125 80.9375L138.156 81.7812C138.219 81.8125 138.281 81.8438 138.281 81.9062L139.25 81.0625C139.25 81.0312 139.25 81 139.219 80.9688C139.188 80.9375 139.156 80.9375 139.125 80.9375ZM139.062 80.9062V80.875L138.219 81.5625L138.25 81.625L139.062 80.9062ZM135.438 83.375C135.188 83.3125 134.969 83.25 134.75 83.1562C134.281 82.9688 133.688 82.625 132.969 82.125L131.812 81.3438C131.312 81.0312 130.844 80.8125 130.438 80.6562C130.031 80.5 129.625 80.4062 129.25 80.4062H129.062C128.062 80.4688 127.281 80.8438 126.719 81.5312C126.219 82.1875 125.938 82.9688 125.938 83.8438C125.938 84.8438 126.344 85.625 127.125 86.1875C127.938 86.75 129.031 87.0312 130.406 87.0312C131.5 87.0312 132.406 86.8438 133.156 86.4375C133.875 86.0625 134.469 85.5312 134.875 84.9062C135.188 84.4375 135.375 83.9062 135.438 83.375Z" fill="#183153"/>
<path d="M156 87.75C151.656 87.75 148.281 84.125 148.406 79.8125C148.5 77.3438 149.75 75.0625 152.031 73.5625C152.062 73.5625 152.094 73.5312 152.062 73.5938C151.906 73.75 148.594 77.6562 151.625 80.6562C153.188 82.2188 154.438 80.75 154.438 80.75C155.656 79.1875 154.438 76.8125 154.438 76.8125C154.125 76.0312 153 75.5625 153 75.5625L153.906 74.5625C154.656 74.875 155.25 75.7812 155.25 75.7812C155.281 74.8438 154.562 73.8438 154.562 73.8438L155.969 72.25L157.344 73.8438C156.688 74.7188 156.656 75.7812 156.656 75.7812C157.094 75.0625 158.031 74.5625 158.031 74.5625L158.906 75.5625C158.062 75.8438 157.5 76.8125 157.5 76.8125C157 77.6875 156.656 79.5938 157.5 80.7812C158.531 82.1562 160.25 80.6875 160.25 80.6875C163.469 77.8125 159.906 73.6562 159.906 73.6562C159.719 73.5 159.938 73.5625 159.938 73.5625C161.5 74.7188 163.531 76.2188 163.562 79.9688C163.625 84.5312 160.469 87.75 156 87.75Z" fill="#183153"/>
<path d="M180.906 79.4062V77.5312H178.844V79.4062H180.906ZM180.906 73V74.9062H178.844V73H180.906ZM183.375 77.5312V79.4062H181.312V77.5312H183.375ZM178.469 75.2812V77.1562H176.406V75.2812H178.469ZM180.906 75.2812V77.1562H178.844V75.2812H180.906ZM189.562 78.4062L190 78.6875C189.938 78.8125 189.781 79.1562 189.719 79.2188C188.969 80.625 187.531 80.6562 186.875 80.625C185.156 84.75 181.531 87.0312 176.594 87.0312C174.344 87.0312 172.594 86.3125 171.438 84.9375C170.25 83.5312 169.781 81.4688 170.062 79.875H183.656C184.344 79.9062 184.875 79.6875 185.156 79.5625C184.531 78.5938 184.688 77.1875 185.281 76.3125L185.562 75.875L186 76.1562C186.75 76.75 187.188 77.4062 187.281 78.1562C188.094 78 189.125 78.0938 189.562 78.4062ZM173.594 77.5312V79.4062H171.531V77.5312H173.594ZM176.031 77.5312V79.4062H173.969V77.5312H176.031ZM178.469 77.5312V79.4062H176.406V77.5312H178.469ZM176.031 75.2812V77.1562H173.969V75.2812H176.031Z" fill="#183153"/>
<path d="M204 72H211.688C211.844 72 212 72.1562 212 72.3125V87.6875C212 87.9688 211.656 88.125 211.469 87.9375L206.656 83.6562C205.875 84.2188 204.906 84.5625 203.875 84.5312C201.406 84.4688 199.406 82.3438 199.469 79.875C199.531 77.3438 201.688 75.3438 204.281 75.5C206.531 75.625 208.344 77.4375 208.5 79.6875C208.531 80.0938 208.5 80.4688 208.438 80.8438C208.406 80.9688 208.25 81.0312 208.125 80.9375L207.188 80.0938C207.062 80 207 79.875 207 79.75C206.875 78.1875 205.562 77 204 77C202.25 77 200.844 78.4688 200.969 80.25C201.094 81.7188 202.281 82.9062 203.781 83C204.844 83.0938 205.812 82.5938 206.406 81.8125C206.5 81.6875 206.688 81.6875 206.781 81.7812L210.469 85.0625V73.5312H204C200.438 73.5312 197.562 76.375 197.5 79.9062C197.438 83.4688 200.344 86.4375 203.906 86.5C204.812 86.5 205.719 86.3438 206.531 85.9688C206.719 85.9062 206.938 85.9375 207.062 86.0625L207.812 86.75C207.938 86.8125 207.906 86.9688 207.781 87.0312C206.625 87.6875 205.312 88 203.938 88C199.5 87.9688 195.938 84.3125 196 79.9062C196.062 75.5312 199.625 72 204 72Z" fill="#183153"/>
<path d="M234.531 77.625C234.531 77.625 234.531 79.8438 234.25 81.4062C234.031 82.4062 232.5 83.4688 230.75 83.6875C230.125 83.75 227.844 84.125 225.188 83.4688C225.188 83.625 225.188 83.7812 225.188 83.9062C225.406 85.4688 226.75 85.5625 228 85.5938C229.281 85.6562 230.406 85.2812 230.406 85.2812L230.469 86.4375C230.469 86.4375 229.562 86.9062 228 87C227.125 87.0625 226.031 86.9688 224.75 86.6562C221.25 85.7188 221.469 81.2188 221.469 77.625C221.469 74.5625 223.438 73.6875 223.438 73.6875C225.375 72.8125 230.562 72.7812 232.531 73.6875C232.531 73.6875 234.531 74.5625 234.531 77.625ZM232.156 81.5312C232.156 77.7188 232.344 76.9062 231.594 76.0625C230.781 75.1562 229.094 75.0938 228.344 76.25L228 76.8438L227.625 76.25C226.875 75.0938 225.188 75.1562 224.375 76.0625C223.625 76.9062 223.812 77.7188 223.812 81.5312H225.25V77.9688C225.25 76.4062 227.25 76.3438 227.25 78.1562V80.125H228.719V78.1875C228.719 76.3438 230.719 76.4062 230.719 77.9688V81.5312H232.156Z" fill="#183153"/>
<path d="M13.5938 106.344H10.3438V111H5.53125V97H8.9375V100.281L18.4688 102.969V111H13.5938V106.344Z" fill="#183153"/>
<path d="M33.4062 108.438C33.4062 108.375 33.3438 108.312 33.25 108.312C33.1562 108.312 33.0938 108.375 33.0938 108.438C33.0938 108.5 33.1562 108.562 33.25 108.531C33.3438 108.531 33.4062 108.5 33.4062 108.438ZM32.4375 108.281C32.4688 108.219 32.5625 108.188 32.6562 108.219C32.75 108.25 32.7812 108.312 32.7812 108.375C32.75 108.438 32.6562 108.469 32.5938 108.438C32.5 108.438 32.4375 108.344 32.4375 108.281ZM33.8438 108.25C33.9062 108.219 34 108.281 34 108.344C34.0312 108.406 33.9688 108.438 33.875 108.469C33.7812 108.5 33.6875 108.469 33.6875 108.406C33.6875 108.312 33.75 108.25 33.8438 108.25ZM35.875 96.25C40.2188 96.25 43.75 99.5625 43.75 103.875C43.75 107.344 41.625 110.312 38.5 111.344C38.0938 111.438 37.9375 111.188 37.9375 110.969C37.9375 110.719 37.9688 109.406 37.9688 108.375C37.9688 107.625 37.7188 107.156 37.4375 106.906C39.1875 106.719 41.0312 106.469 41.0312 103.469C41.0312 102.594 40.7188 102.188 40.2188 101.625C40.2812 101.406 40.5625 100.594 40.125 99.5C39.4688 99.2812 37.9688 100.344 37.9688 100.344C37.3438 100.156 36.6875 100.094 36 100.094C35.3438 100.094 34.6875 100.156 34.0625 100.344C34.0625 100.344 32.5312 99.3125 31.9062 99.5C31.4688 100.594 31.7188 101.406 31.8125 101.625C31.3125 102.188 31.0625 102.594 31.0625 103.469C31.0625 106.469 32.8438 106.719 34.5938 106.906C34.3438 107.125 34.1562 107.469 34.0938 107.969C33.625 108.188 32.5 108.531 31.8125 107.312C31.375 106.562 30.5938 106.5 30.5938 106.5C29.8438 106.5 30.5625 107 30.5625 107C31.0625 107.219 31.4062 108.125 31.4062 108.125C31.875 109.531 34.0625 109.062 34.0625 109.062C34.0625 109.719 34.0625 110.781 34.0625 111C34.0625 111.188 33.9375 111.438 33.5312 111.375C30.4062 110.312 28.25 107.344 28.25 103.875C28.25 99.5625 31.5625 96.25 35.875 96.25ZM31.2812 107.031C31.3125 107 31.375 107.031 31.4375 107.062C31.5 107.125 31.5 107.219 31.4688 107.25C31.4062 107.281 31.3438 107.25 31.2812 107.219C31.25 107.156 31.2188 107.062 31.2812 107.031ZM30.9375 106.781C30.9688 106.75 31 106.75 31.0625 106.781C31.125 106.812 31.1562 106.844 31.1562 106.875C31.125 106.938 31.0625 106.938 31 106.906C30.9375 106.875 30.9062 106.844 30.9375 106.781ZM31.9375 107.906C32 107.844 32.0938 107.875 32.1562 107.938C32.2188 108 32.2188 108.094 32.1875 108.125C32.1562 108.188 32.0625 108.156 32 108.094C31.9062 108.031 31.9062 107.938 31.9375 107.906ZM31.5938 107.438C31.6562 107.406 31.7188 107.438 31.7812 107.5C31.8125 107.562 31.8125 107.656 31.7812 107.688C31.7188 107.719 31.6562 107.688 31.5938 107.625C31.5312 107.562 31.5312 107.469 31.5938 107.438Z" fill="#183153"/>
<path d="M63.9375 104.406C63.9375 104.469 63.8438 106.312 65.875 107.281C65.5 108.438 64.1875 111 62.6562 111C61.7812 111 61.2812 110.438 60.2812 110.438C59.25 110.438 58.6875 111 57.9062 111C56.4062 111.062 54.9688 108.25 54.5625 107.094C54.25 106.219 54.125 105.375 54.125 104.562C54.125 101.781 55.9688 100.438 57.7188 100.406C58.5625 100.406 59.625 101 60.0938 101C60.5312 101 61.75 100.281 62.875 100.375C64.0312 100.469 64.9062 100.906 65.5 101.75C64.4688 102.406 63.9375 103.25 63.9375 104.406ZM62.1875 99.2812C61.5625 100 60.8125 100.406 60 100.344C59.9375 99.5 60.25 98.7188 60.8125 98.0938C61.3125 97.5312 62.1875 97.0625 62.9375 97C62.9375 97.3438 63.0312 98.2812 62.1875 99.2812Z" fill="#183153"/>
<path d="M78.4375 99C78.4375 97.3438 79.75 96 81.4062 96H86.5625C88.2188 96 89.5312 97.3438 89.5312 99C89.5312 100.062 89 100.969 88.1875 101.5C89 102.062 89.5312 102.969 89.5312 104.031C89.5312 105.656 88.2188 107 86.5625 107H86.5C85.7188 107 85 106.719 84.4688 106.219V109C84.4688 110.656 83.0938 112 81.4375 112C79.7812 112 78.4375 110.688 78.4375 109.031C78.4375 107.969 78.9688 107.062 79.7812 106.531C78.9688 105.969 78.4375 105.062 78.4375 104.031C78.4375 102.969 78.9688 102.062 79.7812 101.5C78.9688 100.969 78.4375 100.062 78.4375 99ZM83.5 102H81.4062C80.3125 102 79.4062 102.906 79.4062 104.031C79.4062 105.125 80.2812 106.031 81.4062 106.031H83.5V102ZM84.4688 104.031C84.4688 105.125 85.375 106.031 86.5 106.031H86.5625C87.6562 106.031 88.5625 105.125 88.5625 104.031C88.5625 102.906 87.6562 102 86.5625 102H86.5C85.375 102 84.4688 102.906 84.4688 104.031ZM81.4062 107C80.2812 107.031 79.4062 107.906 79.4062 109.031C79.4062 110.125 80.3125 111.031 81.4375 111.031C82.5625 111.031 83.5 110.125 83.5 109V107H81.4062ZM81.4062 97C80.3125 97 79.4062 97.9062 79.4062 99C79.4062 100.125 80.3125 101.031 81.4062 101.031H83.5V97H81.4062ZM84.4688 101.031H86.5625C87.6562 101.031 88.5625 100.125 88.5625 99C88.5625 97.9062 87.6562 97 86.5625 97H84.4688V101.031Z" fill="#183153"/>
<path d="M115.625 104.188C115.625 108.625 112.594 111.75 108.125 111.75C103.812 111.75 100.375 108.312 100.375 104C100.375 99.7188 103.812 96.25 108.125 96.25C110.188 96.25 111.969 97.0312 113.312 98.2812L111.188 100.312C108.438 97.6562 103.312 99.6562 103.312 104C103.312 106.719 105.469 108.906 108.125 108.906C111.188 108.906 112.344 106.719 112.5 105.562H108.125V102.906H115.5C115.562 103.312 115.625 103.688 115.625 104.188Z" fill="#183153"/>
<path d="M138.375 98.1875C140.438 101.25 141.469 104.688 141.094 108.656C141.094 108.656 141.094 108.688 141.062 108.688C139.688 109.719 138.125 110.5 136.469 111C136.438 111.031 136.438 111 136.406 111C136.062 110.5 135.75 110 135.469 109.469C135.469 109.438 135.469 109.438 135.469 109.406L135.5 109.375C136 109.188 136.469 108.969 136.938 108.688C136.938 108.688 136.969 108.688 136.969 108.656C136.969 108.625 136.969 108.625 136.938 108.594C136.844 108.531 136.75 108.469 136.656 108.375C136.625 108.375 136.625 108.375 136.594 108.375C133.625 109.75 130.375 109.75 127.375 108.375C127.344 108.375 127.312 108.375 127.312 108.375C127.219 108.469 127.125 108.531 127.031 108.594C127 108.625 127 108.625 127 108.656C127 108.688 127 108.688 127.031 108.688C127.469 108.969 127.969 109.188 128.469 109.375C128.469 109.375 128.469 109.406 128.5 109.406C128.5 109.438 128.5 109.438 128.5 109.469C128.219 110 127.906 110.5 127.562 111C127.531 111 127.5 111.031 127.5 111C125.844 110.5 124.281 109.719 122.906 108.688C122.875 108.688 122.875 108.656 122.875 108.656C122.562 105.219 123.219 101.75 125.594 98.1875C125.594 98.1875 125.594 98.1875 125.625 98.1875C126.812 97.625 128.062 97.25 129.344 97.0312C129.375 97 129.406 97.0312 129.406 97.0312C129.594 97.3438 129.75 97.6875 129.875 98C131.281 97.7812 132.688 97.7812 134.094 98C134.219 97.6875 134.375 97.3438 134.562 97.0312C134.562 97.0312 134.594 97 134.625 97.0312C135.906 97.25 137.156 97.625 138.344 98.1875C138.375 98.1875 138.375 98.1875 138.375 98.1875ZM128.938 106.562C129.844 106.562 130.594 105.719 130.594 104.719C130.594 103.688 129.875 102.875 128.938 102.875C128.031 102.875 127.281 103.688 127.281 104.719C127.281 105.719 128.031 106.562 128.938 106.562ZM135.031 106.562C135.969 106.562 136.688 105.719 136.688 104.719C136.719 103.688 135.969 102.875 135.031 102.875C134.125 102.875 133.406 103.688 133.406 104.719C133.406 105.719 134.125 106.562 135.031 106.562Z" fill="#183153"/>
<path d="M151.625 102.375C151.594 103.062 151.969 103.375 151.969 103.594C151.969 103.656 151.906 103.75 151.844 103.781L151.438 104.062C151.375 104.094 151.312 104.125 151.25 104.125C151.25 104.125 151 104.188 150.625 103.312C150.156 103.906 149.406 104.25 148.656 104.25C148.156 104.25 146.781 103.938 146.844 102.469C146.781 101.281 147.906 100.531 149.062 100.594C149.281 100.594 149.75 100.625 150.531 100.812V100.312C150.625 99.4688 150.062 98.8438 149.125 98.9375C149.062 98.9375 148.531 98.9375 147.688 99.25C147.469 99.375 147.438 99.3438 147.375 99.3438C147.125 99.3438 147.219 98.6562 147.281 98.5938C147.438 98.375 148.375 98 149.344 98.0312C149.969 97.9688 150.594 98.1562 151.062 98.5625C151.469 99 151.656 99.5938 151.625 100.188V102.375ZM148.906 103.375C149.938 103.344 150.375 102.75 150.469 102.406C150.531 102.094 150.531 101.906 150.531 101.562C150.219 101.5 149.781 101.406 149.281 101.406C148.812 101.375 147.938 101.594 148 102.406C147.938 102.938 148.344 103.406 148.906 103.375ZM154.25 104.094C154.031 104.125 153.906 103.938 153.875 103.781L152.312 98.625C152.281 98.5312 152.25 98.4375 152.25 98.3438C152.25 98.2812 152.281 98.1875 152.375 98.1875C152.375 98.1875 152.312 98.1875 153.062 98.1875C153.344 98.1562 153.438 98.375 153.469 98.5L154.562 102.906L155.625 98.5C155.625 98.4062 155.688 98.1562 156 98.1875H156.562C156.625 98.1875 156.906 98.1875 156.938 98.5312L158 102.969L159.125 98.5312C159.156 98.4375 159.219 98.1562 159.531 98.1875H160.156C160.188 98.1875 160.344 98.1562 160.312 98.4688C160.312 98.5312 160.438 98.125 158.656 103.781C158.625 103.938 158.531 104.125 158.281 104.094H157.688C157.344 104.125 157.312 103.781 157.281 103.75L156.25 99.4688L155.219 103.75C155.219 103.781 155.188 104.125 154.844 104.094H154.25ZM162.812 104.281C162.625 104.281 161.75 104.25 161.031 103.875C160.875 103.812 160.781 103.688 160.781 103.5V103.188C160.781 102.906 160.969 102.969 161.062 103C161.375 103.125 161.562 103.219 161.938 103.281C163.094 103.531 163.594 103.219 163.719 103.156C164.125 102.906 164.156 102.344 163.875 102.062C163.562 101.781 163.406 101.781 162.219 101.406C162.094 101.375 160.875 100.969 160.844 99.7812C160.844 98.875 161.625 98 163.031 98.0312C163.438 98.0312 164.469 98.1562 164.781 98.5C164.812 98.5625 164.844 98.6562 164.812 98.7188V99.0312C164.812 99.1875 164.781 99.25 164.688 99.25C164.438 99.2188 164 98.9062 163.125 98.9062C162.938 98.9062 161.906 98.9375 161.938 99.6875C161.938 100.281 162.781 100.5 162.875 100.531C164 100.875 164.375 100.938 164.844 101.469C165.375 102.156 165.094 102.969 164.969 103.188C164.375 104.375 162.844 104.281 162.812 104.281ZM164.062 107.531C161.875 109.156 158.688 110.031 156 110.031C152.312 110.031 148.781 108.688 146.062 106.25C145.875 106.062 146.062 105.812 146.312 105.938C149.312 107.688 152.719 108.594 156.188 108.594C158.781 108.562 161.344 108.031 163.75 107.031C164.125 106.875 164.438 107.281 164.062 107.531ZM164.969 106.5C164.688 106.156 163.125 106.344 162.406 106.406C162.219 106.438 162.188 106.25 162.375 106.125C163.625 105.25 165.688 105.5 165.906 105.781C166.156 106.094 165.844 108.156 164.688 109.125C164.5 109.281 164.312 109.219 164.406 109C164.656 108.344 165.25 106.875 164.969 106.5Z" fill="#183153"/>
<path d="M188 104C188 108.094 184.906 111.469 180.969 111.969V106.469H183.125L183.562 104H180.969V103.156C180.969 101.844 181.469 101.344 182.781 101.344C183.188 101.344 183.5 101.375 183.688 101.375V99.1875C183.344 99.0625 182.469 98.9688 181.969 98.9688C179.281 98.9688 178.062 100.25 178.062 102.969V104H176.406V106.469H178.062V111.781C174.562 110.906 172 107.75 172 104C172 99.5938 175.562 96 180 96C184.406 96 188 99.5938 188 104Z" fill="#183153"/>
<path d="M198.844 97.0938C200.938 98.6562 203.156 101.812 203.969 103.531C204.812 101.812 207.031 98.6562 209.125 97.0938C210.625 95.9688 213.031 95.0938 213.031 97.875C213.031 98.4375 212.719 102.531 212.531 103.188C211.875 105.531 209.531 106.094 207.438 105.75C211.094 106.375 212.031 108.438 210.031 110.531C206.188 114.438 204.531 109.531 204.094 108.281C204.031 108.031 203.969 107.938 203.969 108.031C203.969 107.938 203.938 108.031 203.875 108.281C203.438 109.531 201.75 114.438 197.938 110.531C195.938 108.438 196.875 106.375 200.531 105.75C198.438 106.094 196.062 105.5 195.438 103.188C195.25 102.531 194.938 98.4375 194.938 97.875C194.938 95.0938 197.344 95.9688 198.844 97.0938Z" fill="#183153"/>
<path d="M221 97H235V111H221V97ZM221.656 103.188V103.156V103.188ZM228.469 104.875L231 100H229.906C228.188 103.188 228.375 103.094 228 103.938C227.688 103.188 227.781 103.094 226.156 100H225L227.469 104.812V108H228.469V104.875Z" fill="#183153"/>
<path d="M19.875 127.812C19.9375 127.875 19.9688 127.938 19.9688 128C19.9688 128.094 19.9375 128.156 19.875 128.219L19.1875 128.625C19.1875 128.688 19.1875 128.75 19.1875 128.812L19.75 129.375C19.8125 129.406 19.8438 129.5 19.8438 129.562C19.8125 129.656 19.75 129.719 19.6875 129.75L18.9375 130.031C18.9062 130.094 18.9062 130.156 18.875 130.219L19.3438 130.844C19.4062 130.906 19.4062 131 19.375 131.062C19.3438 131.156 19.2812 131.188 19.1875 131.219L18.4062 131.344C18.375 131.406 18.3438 131.438 18.3125 131.5L18.6562 132.25C18.6875 132.312 18.6875 132.406 18.625 132.469C18.5938 132.531 18.5312 132.562 18.4375 132.562L17.625 132.531C17.5938 132.594 17.5625 132.625 17.5312 132.656L17.7188 133.469C17.7188 133.531 17.6875 133.625 17.6562 133.688C17.5938 133.719 17.5 133.75 17.4375 133.719L16.6562 133.562C16.5938 133.594 16.5625 133.625 16.5 133.656L16.5312 134.469C16.5312 134.562 16.5 134.625 16.4375 134.656C16.375 134.719 16.2812 134.719 16.2188 134.688L15.4688 134.344C15.4375 134.375 15.375 134.406 15.3125 134.438L15.1875 135.219C15.1875 135.312 15.125 135.375 15.0312 135.406C14.9688 135.438 14.875 135.438 14.8125 135.375L14.1875 134.906C14.125 134.938 14.0625 134.938 14 134.969L13.7188 135.719C13.6875 135.781 13.625 135.844 13.5312 135.844C13.4688 135.875 13.375 135.844 13.3438 135.781L12.7812 135.219C12.7188 135.219 12.6562 135.219 12.5938 135.219L12.1875 135.906C12.125 135.969 12.0625 136 12 136C11.9062 136 11.8438 135.969 11.7812 135.906L11.375 135.219C11.3125 135.219 11.25 135.219 11.1875 135.219L10.625 135.781C10.5938 135.844 10.5 135.875 10.4375 135.844C10.3438 135.844 10.2812 135.781 10.25 135.719L9.96875 134.969C9.90625 134.938 9.84375 134.938 9.78125 134.906L9.15625 135.375C9.09375 135.438 9 135.438 8.9375 135.406C8.84375 135.375 8.8125 135.312 8.78125 135.219L8.65625 134.438C8.59375 134.406 8.5625 134.375 8.5 134.344L7.75 134.688C7.6875 134.719 7.59375 134.719 7.53125 134.656C7.46875 134.625 7.4375 134.562 7.4375 134.469L7.46875 133.656C7.40625 133.625 7.375 133.594 7.34375 133.562L6.53125 133.719C6.46875 133.75 6.375 133.719 6.3125 133.688C6.28125 133.625 6.25 133.531 6.28125 133.469L6.4375 132.656C6.40625 132.625 6.375 132.594 6.34375 132.531L5.53125 132.562C5.4375 132.562 5.375 132.531 5.34375 132.469C5.28125 132.406 5.28125 132.312 5.3125 132.25L5.65625 131.5C5.625 131.438 5.59375 131.406 5.5625 131.344L4.78125 131.219C4.6875 131.188 4.625 131.156 4.59375 131.062C4.5625 131 4.5625 130.906 4.625 130.844L5.09375 130.219C5.0625 130.156 5.0625 130.094 5.03125 130.031L4.28125 129.75C4.21875 129.719 4.15625 129.656 4.125 129.562C4.125 129.5 4.15625 129.406 4.21875 129.375L4.78125 128.812C4.78125 128.75 4.78125 128.688 4.78125 128.625L4.09375 128.219C4.03125 128.156 3.96875 128.094 3.96875 128C3.96875 127.938 4.03125 127.875 4.09375 127.812L4.78125 127.406C4.78125 127.344 4.78125 127.281 4.78125 127.219L4.21875 126.656C4.15625 126.625 4.125 126.531 4.125 126.469C4.15625 126.375 4.21875 126.312 4.28125 126.281L5.03125 126C5.0625 125.938 5.0625 125.875 5.09375 125.812L4.625 125.188C4.5625 125.125 4.5625 125.031 4.59375 124.969C4.625 124.875 4.6875 124.844 4.78125 124.812L5.5625 124.688C5.59375 124.625 5.625 124.562 5.65625 124.531L5.3125 123.781C5.28125 123.719 5.28125 123.625 5.34375 123.562C5.375 123.5 5.4375 123.469 5.53125 123.469L6.34375 123.5C6.375 123.438 6.40625 123.406 6.4375 123.344L6.28125 122.562C6.25 122.5 6.28125 122.406 6.3125 122.344C6.375 122.312 6.46875 122.281 6.53125 122.281L7.3125 122.469C7.375 122.438 7.40625 122.406 7.46875 122.375L7.4375 121.562C7.4375 121.469 7.46875 121.406 7.53125 121.375C7.59375 121.312 7.6875 121.312 7.75 121.344L8.5 121.688C8.53125 121.656 8.59375 121.625 8.65625 121.594L8.78125 120.812C8.78125 120.719 8.84375 120.656 8.9375 120.625C9 120.594 9.09375 120.594 9.15625 120.656L9.78125 121.125C9.84375 121.094 9.90625 121.094 9.96875 121.062L10.25 120.312C10.2812 120.25 10.3438 120.188 10.4375 120.156C10.5 120.156 10.5938 120.188 10.625 120.25L11.1875 120.812C11.25 120.812 11.3125 120.812 11.375 120.812L11.7812 120.125C11.8438 120.062 11.9062 120 12 120C12.0625 120 12.125 120.062 12.1875 120.125L12.5938 120.812C12.6562 120.812 12.7188 120.812 12.7812 120.812L13.3438 120.25C13.375 120.188 13.4688 120.156 13.5312 120.156C13.625 120.188 13.6875 120.25 13.7188 120.312L14 121.062C14.0625 121.094 14.125 121.094 14.1875 121.125L14.8125 120.656C14.875 120.594 14.9688 120.594 15.0312 120.625C15.125 120.656 15.1562 120.719 15.1875 120.812L15.3125 121.594C15.375 121.625 15.4375 121.656 15.4688 121.688L16.2188 121.344C16.2812 121.312 16.375 121.312 16.4375 121.375C16.5 121.406 16.5312 121.469 16.5312 121.562L16.5 122.375C16.5625 122.406 16.5938 122.438 16.6562 122.469L17.4375 122.281C17.5 122.281 17.5938 122.312 17.6562 122.344C17.6875 122.406 17.7188 122.5 17.7188 122.562L17.5312 123.344C17.5625 123.406 17.5938 123.438 17.625 123.5L18.4375 123.469C18.5312 123.469 18.5938 123.5 18.625 123.562C18.6875 123.625 18.6875 123.719 18.6562 123.781L18.3125 124.531C18.3438 124.562 18.375 124.625 18.4062 124.688L19.1875 124.812C19.2812 124.844 19.3438 124.875 19.375 124.969C19.4062 125.031 19.4062 125.125 19.3438 125.188L18.875 125.812C18.9062 125.875 18.9062 125.938 18.9375 126L19.6875 126.281C19.75 126.312 19.8125 126.375 19.8438 126.469C19.8438 126.531 19.8125 126.625 19.75 126.656L19.1875 127.219C19.1875 127.281 19.1875 127.344 19.1875 127.406L19.875 127.812ZM15.1562 131.844L16.1562 132.062C16.3438 131.875 16.5312 131.656 16.7188 131.438H14.2188C13.8438 131.438 13.4688 130.875 13.375 130.625C13.2812 130.375 13.1562 129.594 13.0938 129.375C12.9062 128.594 12.3125 128.562 12.1875 128.562H10.6562V129.625H12.0625C12.125 129.625 12.1562 129.625 12.1562 129.688V131.375C12.1562 131.438 12.125 131.438 12.0625 131.438H7.28125C7.4375 131.656 7.59375 131.844 7.78125 132.031L8.75 131.844C8.875 131.812 9 131.844 9.09375 131.906C9.1875 131.969 9.25 132.062 9.28125 132.156L9.53125 133.281C11.0625 134 12.8438 134 14.4062 133.312L14.6562 132.188C14.6875 131.938 14.9375 131.812 15.1562 131.844ZM15.9688 132.938C15.9688 132.688 15.75 132.469 15.5 132.469C15.2188 132.469 15 132.656 15 132.938C15 133.188 15.2188 133.406 15.5 133.406C15.75 133.406 15.9688 133.188 15.9688 132.938ZM8.90625 132.906C8.90625 132.656 8.71875 132.438 8.4375 132.438C8.1875 132.438 7.96875 132.656 7.96875 132.906C7.96875 133.188 8.1875 133.375 8.4375 133.375C8.6875 133.375 8.90625 133.188 8.90625 132.906ZM6.15625 127.344C6.0625 128.094 6.15625 128.844 6.34375 129.562H8.03125V125.812H7.1875L7.40625 126.312C7.4375 126.406 7.46875 126.531 7.40625 126.625C7.375 126.75 7.28125 126.844 7.1875 126.875L6.15625 127.344ZM5.8125 126.219C5.8125 126.469 6.03125 126.688 6.28125 126.688C6.53125 126.688 6.75 126.469 6.75 126.219C6.75 125.938 6.5625 125.75 6.3125 125.719H6.28125C6.15625 125.719 6.03125 125.781 5.9375 125.875C5.84375 125.969 5.8125 126.094 5.8125 126.219ZM10.6562 126.969H12.5C12.875 126.969 13.3438 126.844 13.3438 126.438C13.3438 126 12.75 125.875 12.625 125.875H10.6562V126.969ZM16.4688 129.594C16.7812 129.562 17.1562 129.406 17.1562 128.781V128.5C17.1562 128.438 17.1562 128.406 17.2188 128.406H17.8125C17.8438 128.062 17.8438 127.719 17.8125 127.375L16.75 126.906C16.5312 126.812 16.4062 126.562 16.5 126.344L17.0625 125.062C16.2188 123.562 14.75 122.531 13.0625 122.219L12.25 123C12.1562 123.062 12.0625 123.125 11.9375 123.094C11.8125 123.094 11.7188 123.062 11.625 122.969L10.9062 122.219C9.625 122.438 8.46875 123.094 7.625 124.062H13.8438C14 124.062 14.5625 124.125 15.0938 124.469C15.4688 124.719 16 125.219 16 126C16 126.75 15.4062 127.312 14.8125 127.688C15.2812 128.062 15.5938 128.281 15.7812 129.281C15.8125 129.469 16.1562 129.625 16.4688 129.594ZM11.5 121.906C11.4688 122.156 11.6875 122.375 11.9688 122.375C12.2188 122.375 12.4375 122.156 12.4375 121.906C12.4375 121.656 12.25 121.438 11.9688 121.406C11.6875 121.438 11.5 121.625 11.5 121.906ZM17.625 126.688C17.9062 126.719 18.125 126.5 18.125 126.219C18.125 125.969 17.9062 125.75 17.6562 125.75H17.625C17.375 125.75 17.1562 125.969 17.1562 126.219C17.1562 126.5 17.375 126.688 17.625 126.688Z" fill="#183153"/>
<path d="M37.4062 126.312C37.4062 127.031 36.8438 127.469 35.8125 127.469H34.5V125.25H36.0625C36.9062 125.25 37.4062 125.625 37.4062 126.312ZM43.1562 125.906C43.4375 126.875 43.9375 127.5 44.7812 127.562V128.469C43.9375 128.531 43.4375 129.156 43.125 130.125C42.8438 131.094 42.8125 132.281 42.8438 133.188C42.875 134.125 42.125 135 41.125 135H30.8438C29.8438 135 29.0938 134.125 29.1562 133.188C29.1875 132.281 29.125 131.094 28.8438 130.125C28.5312 129.156 28.0312 128.531 27.2188 128.469V127.562C28.0312 127.5 28.5312 126.875 28.8438 125.906C29.125 124.938 29.1875 123.75 29.1562 122.844C29.0938 121.906 29.8438 121 30.8438 121H41.125C42.125 121 42.875 121.875 42.8438 122.844C42.8125 123.75 42.8438 124.938 43.1562 125.906ZM36.375 131.75C38 131.75 38.9688 130.938 38.9688 129.625C38.9688 128.625 38.2812 127.906 37.2188 127.812V127.75C38 127.656 38.5938 126.938 38.5938 126.156C38.5938 125.031 37.7188 124.281 36.3438 124.281H33.3125V131.75H36.375ZM36.0625 128.344C37.1875 128.344 37.75 128.75 37.75 129.562C37.75 130.375 37.1875 130.781 36.125 130.781H34.5V128.344H36.0625Z" fill="#183153"/>
<path d="M65.125 123.281C65.125 123.344 66.8125 134.75 66.8125 134.75L62.9062 135.75V122.219C63.1562 122.469 63.8125 123.125 63.8125 123.125C63.8125 123.125 64.9062 123.156 64.9688 123.156C65.0625 123.156 65.125 123.188 65.125 123.281ZM62 122.219C62.2812 122.125 62.4688 122.094 62.4688 122.094C62.5 122.062 62.5625 122.062 62.5938 122.062V135.75L53.1562 134.125C53.1562 134.125 54.3125 125.312 54.3438 125C54.375 124.594 54.4062 124.594 54.8438 124.438C54.8438 124.438 55.4375 124.25 56.3125 123.969C56.4062 123.312 56.7188 122.469 57.1562 121.781C57.75 120.812 58.5 120.281 59.25 120.25C59.6562 120.25 59.9688 120.375 60.2188 120.656C60.2188 120.688 60.25 120.688 60.2812 120.719C60.3125 120.719 60.3438 120.688 60.4062 120.688C60.9688 120.688 61.4688 121.031 61.7812 121.656C61.875 121.844 61.9375 122.031 62 122.219ZM60.2812 122.75C60.2812 122.344 60.25 121.719 60.0312 121.281C59.8125 121.375 59.625 121.531 59.5 121.688C59.125 122.062 58.8438 122.656 58.6875 123.25C59.2188 123.094 59.7812 122.906 60.2812 122.75ZM59.25 120.781C58.0938 120.812 57.0938 122.625 56.8125 123.812C57.2188 123.688 57.6875 123.562 58.125 123.406C58.2812 122.656 58.625 121.844 59.125 121.344C59.3125 121.156 59.5 121 59.7188 120.875C59.5625 120.812 59.4062 120.781 59.25 120.781ZM57.8125 127.656C57.7812 127.5 57.8125 126.906 58.7188 126.844C59.375 126.812 59.9062 127.062 59.9062 127.062L60.375 125.25C60.375 125.25 59.9688 125.062 59.1562 125.094C57.0625 125.25 56.0938 126.719 56.1875 128.156C56.3125 129.875 58.0312 129.812 58.0938 130.875C58.125 131.125 57.9375 131.5 57.5 131.5C56.8438 131.562 56 130.938 56 130.938L55.6875 132.312C55.6875 132.312 56.5 133.188 58.0312 133.094C59.3125 133.031 60.1875 132 60.0938 130.531C59.9688 128.625 57.8438 128.469 57.8125 127.656ZM60.7812 122.594C61.0625 122.531 61.3125 122.438 61.5312 122.375C61.4062 122 61.125 121.344 60.5625 121.25C60.7188 121.688 60.7812 122.219 60.7812 122.594Z" fill="#183153"/>
<path d="M81.8125 130.75L86.7188 125.844C87.9062 124.625 89.875 124.625 91.0938 125.844C92.2812 127.031 92.2812 129 91.0938 130.188L87.3438 133.938C86.75 134.531 85.7812 134.531 85.1562 133.938L90 129.094C90.5938 128.5 90.5938 127.531 90 126.938C89.375 126.312 88.4062 126.312 87.8125 126.938L82.9062 131.844C82.5938 132.125 82.0938 132.125 81.8125 131.844C81.5 131.531 81.5 131.031 81.8125 130.75ZM89.4375 127.469C89.75 127.781 89.75 128.25 89.4375 128.562L84.5312 133.469C83.3125 134.688 81.375 134.688 80.1562 133.469C79.875 133.156 79.875 132.688 80.1562 132.375C80.4688 132.094 80.9688 132.094 81.25 132.375C81.8438 133 82.8438 133 83.4375 132.375L88.3438 127.469C88.6562 127.156 89.1562 127.156 89.4375 127.469ZM81.25 130.188C80.0625 131.406 78.0938 131.406 76.875 130.188C75.6875 129 75.6875 127.031 76.875 125.844L80.625 122.094C81.2188 121.5 82.1875 121.5 82.8125 122.094L77.9688 126.938C77.375 127.531 77.375 128.5 77.9688 129.094C78.5938 129.719 79.5625 129.719 80.1562 129.094L85.0625 124.188C85.375 123.906 85.875 123.906 86.1562 124.188C86.4688 124.5 86.4688 125 86.1562 125.281L81.25 130.188ZM78.5312 128.562C78.2188 128.25 78.2188 127.781 78.5312 127.469L83.4375 122.562C84.6562 121.344 86.5938 121.344 87.8125 122.562C88.0938 122.844 88.0938 123.344 87.8125 123.656C87.5 123.938 87 123.938 86.7188 123.656C86.125 123.031 85.125 123.031 84.5312 123.656L79.625 128.562C79.3125 128.875 78.8125 128.875 78.5312 128.562Z" fill="#183153"/>
<path d="M117.969 129.344C117.938 130.062 117.625 130.75 117.094 131.25C116.562 131.719 115.875 132 115.156 132H108.344C108.188 132 108.031 131.938 107.938 131.812C107.812 131.719 107.781 131.562 107.781 131.406V124.094C107.75 123.969 107.781 123.844 107.875 123.719C107.938 123.625 108.031 123.531 108.156 123.5C108.156 123.5 108.781 123.062 110.094 123.062C110.906 123.062 111.688 123.281 112.375 123.688C112.938 124 113.406 124.438 113.75 124.938C114.125 125.438 114.375 126.031 114.531 126.625C114.75 126.562 115 126.531 115.25 126.531C115.594 126.531 115.969 126.594 116.312 126.75C116.656 126.875 116.938 127.094 117.219 127.344C117.469 127.625 117.656 127.938 117.781 128.281C117.938 128.625 118 128.969 117.969 129.344ZM106.906 124.562C106.906 124.531 106.906 124.5 106.906 124.469C106.906 124.438 106.875 124.406 106.875 124.375C106.844 124.344 106.812 124.344 106.781 124.312C106.75 124.312 106.719 124.312 106.688 124.312C106.656 124.312 106.625 124.312 106.594 124.312C106.562 124.344 106.562 124.344 106.531 124.375C106.5 124.406 106.5 124.438 106.469 124.469C106.469 124.5 106.469 124.531 106.469 124.562C106.281 127 106.156 129.312 106.469 131.781C106.469 131.844 106.5 131.875 106.531 131.938C106.594 131.969 106.625 131.969 106.688 131.969C106.75 131.969 106.812 131.969 106.844 131.938C106.875 131.875 106.906 131.844 106.906 131.781C107.25 129.312 107.125 127.031 106.906 124.562ZM105.531 125.406C105.531 125.344 105.5 125.281 105.469 125.25C105.438 125.219 105.375 125.188 105.312 125.188C105.25 125.188 105.188 125.219 105.156 125.25C105.125 125.281 105.094 125.344 105.094 125.406C104.844 127.531 104.844 129.656 105.094 131.781C105.094 131.844 105.125 131.906 105.156 131.938C105.188 131.969 105.25 132 105.312 132C105.375 132 105.406 131.969 105.469 131.938C105.5 131.906 105.531 131.844 105.531 131.781C105.812 129.656 105.812 127.531 105.531 125.406ZM104.156 125.188C104.156 125.125 104.125 125.094 104.094 125.031C104.031 125 104 125 103.938 125C103.875 125 103.812 125 103.781 125.031C103.75 125.062 103.719 125.125 103.719 125.188C103.5 127.438 103.406 129.531 103.719 131.781C103.719 131.844 103.75 131.906 103.781 131.938C103.812 131.969 103.875 132 103.938 132C104 132 104.062 131.969 104.094 131.938C104.125 131.906 104.156 131.844 104.156 131.781C104.5 129.5 104.375 127.469 104.156 125.188ZM102.781 125.844C102.781 125.781 102.75 125.719 102.719 125.656C102.688 125.625 102.625 125.594 102.562 125.594C102.5 125.594 102.438 125.625 102.406 125.656C102.344 125.719 102.312 125.781 102.312 125.844C102.062 127.812 102.062 129.812 102.312 131.781C102.344 131.844 102.344 131.906 102.406 131.938C102.438 131.969 102.5 132 102.562 132C102.594 132 102.656 131.969 102.688 131.938C102.75 131.906 102.781 131.844 102.781 131.781C103.062 129.812 103.062 127.812 102.781 125.844ZM101.406 127.312C101.406 127.25 101.375 127.188 101.312 127.156C101.281 127.125 101.219 127.094 101.156 127.094C101.094 127.094 101.062 127.125 101 127.156C100.969 127.188 100.938 127.25 100.938 127.312C100.625 128.844 100.781 130.25 100.969 131.812C100.969 131.844 101 131.906 101.031 131.938C101.062 131.969 101.125 132 101.156 132C101.219 132 101.281 131.969 101.312 131.938C101.344 131.906 101.375 131.844 101.375 131.812C101.594 130.219 101.75 128.875 101.406 127.312ZM100 127.094C100 127.031 99.9688 126.969 99.9375 126.938C99.9062 126.906 99.8438 126.875 99.7812 126.875C99.7188 126.875 99.6562 126.906 99.625 126.938C99.5938 126.969 99.5625 127.031 99.5625 127.094C99.25 128.656 99.3438 130.031 99.5625 131.594C99.5938 131.844 100 131.844 100 131.594C100.25 130 100.344 128.656 100.031 127.094H100ZM98.625 127.844C98.625 127.781 98.5938 127.75 98.5312 127.688C98.5 127.656 98.4375 127.656 98.375 127.656C98.3438 127.656 98.2812 127.656 98.2188 127.688C98.1875 127.75 98.1562 127.781 98.1562 127.844C97.9062 128.906 97.9688 129.781 98.1875 130.844C98.1875 130.875 98.2188 130.938 98.25 130.969C98.2812 131 98.3438 131.031 98.4062 131.031C98.4375 131.031 98.5 131 98.5312 130.969C98.5938 130.938 98.5938 130.875 98.625 130.844C98.8438 129.75 98.9688 128.906 98.625 127.844Z" fill="#183153"/>
<path d="M139.5 121.469C140.312 121.469 141 122.156 141 122.969V130.656C141 131.469 140.312 132.156 139.5 132.156H136.688C133.5 132.156 132.531 132.906 132.094 134.5C132.062 134.594 131.906 134.594 131.906 134.5C131.438 132.906 130.469 132.156 127.281 132.156H124.5C123.656 132.156 123 131.469 123 130.656V122.969C123 122.125 123.656 121.469 124.5 121.469H128.844C130.344 121.469 131.656 122.5 132 123.969C132.312 122.5 133.625 121.469 135.125 121.469H139.5ZM130.562 129.75V129.031C130.562 128.969 130.5 128.938 130.438 128.938H125.438C125.375 128.938 125.312 129 125.312 129.031V129.75C125.312 129.812 125.375 129.875 125.438 129.875H130.438C130.5 129.875 130.562 129.812 130.562 129.75ZM130.562 127.844V127.156C130.562 127.094 130.5 127.031 130.438 127.031H125.438C125.375 127.031 125.312 127.094 125.312 127.156V127.844C125.312 127.906 125.375 127.969 125.438 127.969H130.438C130.5 127.969 130.562 127.906 130.562 127.844ZM130.562 125.969V125.25C130.562 125.188 130.5 125.125 130.438 125.125H125.438C125.375 125.125 125.312 125.188 125.312 125.25V125.969C125.312 126.031 125.375 126.062 125.438 126.062H130.438C130.5 126.062 130.562 126 130.562 125.969ZM138.656 129.75V129.031C138.656 128.969 138.594 128.938 138.531 128.938H133.531C133.469 128.938 133.438 128.969 133.438 129.031V129.75C133.438 129.812 133.469 129.875 133.531 129.875H138.531C138.594 129.875 138.656 129.812 138.656 129.75ZM138.656 127.844V127.125C138.656 127.062 138.594 127.031 138.531 127.031H133.531C133.469 127.031 133.438 127.094 133.438 127.125V127.844C133.438 127.906 133.469 127.969 133.531 127.969H138.531C138.594 127.969 138.656 127.906 138.656 127.844ZM138.656 125.938V125.25C138.656 125.188 138.594 125.125 138.531 125.125H133.531C133.469 125.125 133.438 125.188 133.438 125.25V125.938C133.438 126 133.469 126.062 133.531 126.062H138.531C138.594 126.062 138.656 126 138.656 125.938Z" fill="#183153"/>
<path d="M162.719 126.281C163.062 127.625 163.094 128.625 162.719 129.688C162.406 130.688 162.031 131.375 161.062 131.375H156.062V131.781H159.375V133.062C159.375 134.031 158.562 134.531 157.719 134.75C156.469 135.125 155.438 135.062 154.375 134.75C153.5 134.5 152.719 133.969 152.719 133.062V129.875C152.719 128.969 153.469 128.188 154.375 128.188H157.719C158.844 128.188 159.812 127.219 159.812 126.062V124.594H161.062C162.031 124.594 162.5 125.312 162.719 126.281ZM157.938 132.625C157.594 132.625 157.312 132.906 157.312 133.281C157.312 133.625 157.594 133.906 157.938 133.906C158.281 133.906 158.562 133.625 158.562 133.281C158.562 132.938 158.281 132.625 157.938 132.625ZM154.219 127.781C153.094 127.781 152.156 128.75 152.156 129.844V131.375H151C150.031 131.375 149.469 130.656 149.219 129.688C148.906 128.344 148.906 127.562 149.219 126.281C149.5 125.156 150.344 124.594 151.312 124.594H155.906V124.156H152.562V122.875C152.562 121.938 152.812 121.406 154.219 121.156C155.219 120.969 156.438 120.969 157.562 121.156C158.469 121.312 159.25 121.969 159.25 122.875V126.062C159.25 127 158.5 127.781 157.562 127.781H154.219ZM154.031 123.312C154.375 123.312 154.656 123.031 154.656 122.688C154.656 122.312 154.375 122.031 154.031 122.031C153.688 122.031 153.406 122.312 153.406 122.688C153.406 123.031 153.688 123.312 154.031 123.312Z" fill="#183153"/>
<path d="M186 130.875C185.938 131.219 185.562 134.312 185.5 135C181.812 134.875 178.625 134.875 174 135V134.219C175.406 133.938 175.875 133.969 175.906 133.125C175.938 130.844 176 125.5 175.906 123.062C175.844 122.156 175.5 122.219 174 121.938V121.125C176.281 121.219 181.969 121.406 185.312 121C185.219 122.219 185.094 124.969 185.094 124.969H184.375C184 123.625 183.781 122.125 182.656 122.125H178.375C178.062 122.125 178.031 122.25 178.031 122.438V127.562C179.844 127.562 180.812 127.469 180.812 127.469C181.719 127.469 181.656 127.219 182.062 125.438H182.875C182.75 128.625 182.75 127.375 182.812 130.438H182.031C181.719 129.188 181.719 128.531 180.781 128.531C180.781 128.531 180.094 128.469 178.031 128.469V132.812C178.031 133.625 178.469 134 179.406 134H182.219C184.188 134 184.281 133.219 185.281 130.875H186Z" fill="#183153"/>
<path d="M197 121H203.688V127.719H197V121ZM204.281 121H211V127.719H204.281V121ZM197 128.312H203.688V135H197V128.312ZM204.281 128.312H211V135H204.281V128.312Z" fill="#183153"/>
<path d="M232.125 122.031H235L228 134L221 122.031H226.5L228 124.781L229.75 122.031H232.125ZM222.719 123.031L228 132.031L233.25 123.031H231.562L228 129.219L224.406 123.031H222.719Z" fill="#183153"/>
<rect x="43.5" y="40" width="153" height="54" rx="16" fill="#183153"/>
<rect x="43.5" y="40" width="153" height="54" rx="16" stroke="#515E7B" stroke-width="8"/>
<path d="M75.0623 65.432C76.8383 66.056 77.8943 67.448 77.8943 69.344C77.8943 72.08 75.7343 74 72.6623 74H67.2623C66.3023 74 65.6063 73.304 65.6063 72.344V59.816C65.6063 58.856 66.3023 58.16 67.2623 58.16H71.2223C74.1743 58.16 76.2383 59.96 76.2383 62.576C76.2383 63.752 75.8303 64.712 75.0623 65.432ZM70.9823 60.944H68.7503V64.568H70.9823C72.2543 64.568 73.0463 63.872 73.0463 62.744C73.0463 61.616 72.2543 60.944 70.9823 60.944ZM72.4223 71.216C73.8383 71.216 74.6783 70.496 74.6783 69.224C74.6783 67.976 73.8383 67.232 72.4223 67.232H68.7503V71.216H72.4223ZM96.3771 71.576C96.6651 72.008 96.8331 72.416 96.8331 72.8C96.8331 73.616 96.1371 74.288 95.3211 74.288C94.7451 74.288 94.2651 74 93.8811 73.448L90.3291 68.408H90.3051H87.5691V72.632C87.5691 73.568 86.8731 74.288 85.9611 74.288C85.0251 74.288 84.3291 73.568 84.3291 72.632V59.792C84.3291 58.856 85.0251 58.16 85.9851 58.16H90.3051C93.6891 58.16 95.9931 60.224 95.9931 63.248C95.9931 65.168 95.0571 66.728 93.5211 67.616L96.3771 71.576ZM87.5691 61.016V65.552H90.2811C91.7691 65.552 92.6811 64.664 92.6811 63.272C92.6811 61.904 91.7451 61.016 90.2811 61.016H87.5691ZM116.601 71.864C116.745 72.2 116.793 72.488 116.793 72.728C116.793 73.592 116.121 74.288 115.209 74.288C114.513 74.288 113.985 73.88 113.673 73.136L113.001 71.504H106.305L105.633 73.136C105.345 73.88 104.817 74.288 104.121 74.288C103.209 74.288 102.513 73.592 102.513 72.728C102.513 72.488 102.585 72.2 102.705 71.864L108.129 58.976C108.417 58.256 108.945 57.872 109.665 57.872C110.385 57.872 110.913 58.256 111.201 58.976L116.601 71.864ZM109.665 62.648L107.361 68.84H111.921L109.665 62.648ZM135.131 57.872C136.043 57.872 136.739 58.592 136.739 59.528V72.656C136.739 73.568 136.067 74.288 135.155 74.288C134.363 74.288 133.979 73.832 133.547 73.304L126.491 64.232V72.632C126.491 73.568 125.795 74.288 124.883 74.288C123.947 74.288 123.251 73.568 123.251 72.632V59.504C123.251 58.592 123.947 57.872 124.835 57.872C125.651 57.872 126.011 58.328 126.491 58.928L133.523 67.928L133.499 59.528C133.499 58.592 134.195 57.872 135.131 57.872ZM149.385 58.16C154.521 58.16 158.001 61.328 158.001 66.032C158.001 70.736 154.449 74 149.385 74H145.833C144.873 74 144.177 73.304 144.177 72.344V59.816C144.177 58.856 144.873 58.16 145.833 58.16H149.385ZM149.361 61.088H147.417V71.072H149.361C152.553 71.072 154.689 69.08 154.689 66.032C154.689 62.984 152.649 61.088 149.361 61.088ZM169.627 74.288C167.755 74.288 165.691 73.448 164.515 72.152C164.131 71.768 163.915 71.36 163.915 70.904C163.939 70.04 164.635 69.464 165.403 69.464C165.691 69.464 166.003 69.56 166.243 69.776C166.891 70.448 168.019 71.408 169.627 71.408C171.043 71.408 171.883 70.736 171.883 69.656C171.883 68.744 171.331 68.36 169.867 67.688L168.163 66.92C165.643 65.768 164.323 64.4 164.323 62.36C164.323 59.696 166.579 57.872 169.579 57.872C171.955 57.872 173.347 58.976 174.019 59.744C174.355 60.104 174.451 60.464 174.451 60.776C174.451 61.592 173.707 62.216 172.963 62.216C172.675 62.216 172.363 62.12 172.075 61.88C171.427 61.304 170.707 60.752 169.579 60.752C168.427 60.752 167.611 61.304 167.611 62.288C167.611 63.08 168.043 63.464 169.459 64.112L171.259 64.904C173.899 66.08 175.171 67.376 175.171 69.536C175.171 72.464 172.795 74.288 169.627 74.288Z" fill="white"/>
</g>
</g>
<defs>
<clipPath id="clip0_169_11759">
<rect width="240" height="135" fill="white"/>
</clipPath>
<clipPath id="clip1_169_11759">
<rect width="720" height="135" fill="white" transform="translate(-240)"/>
</clipPath>
</defs>
</svg>
