<svg width="240" height="135" viewBox="0 0 240 135" fill="none" xmlns="http://www.w3.org/2000/svg">
<g clip-path="url(#clip0_165_65966)">
<g clip-path="url(#clip1_165_65966)">
<rect width="720" height="135" transform="translate(-240)" fill="#FFD43B"/>
<path d="M14 2C14 0.90625 13.0938 0 12 0C10.9062 0 10 0.90625 10 2C10 3.09375 10.9062 4 12 4C13.0938 4 14 3.09375 14 2ZM13.3125 4.6875C12.9375 4.90625 12.4688 5 12 5C11.5312 5 11.0938 4.90625 10.6875 4.6875L8.4375 8.59375C9.5 9.1875 10.7188 9.5 12 9.5C14.7812 9.5 17.1875 8 18.5 5.75C18.625 5.5 18.9375 5.4375 19.1875 5.5625C19.4375 5.71875 19.5 6 19.375 6.25C17.9062 8.78125 15.1562 10.5 12 10.5C10.5312 10.5 9.15625 10.125 7.9375 9.46875L4.9375 14.75C4.8125 15 4.5 15.0625 4.25 14.9375C4.03125 14.8125 3.9375 14.5 4.0625 14.25L7.09375 8.9375C6.09375 8.25 5.25 7.3125 4.625 6.25C4.5 6.03125 4.59375 5.71875 4.8125 5.5625C5.0625 5.4375 5.375 5.5 5.5 5.75C6.03125 6.65625 6.75 7.46875 7.59375 8.0625L9.875 4.09375C9.34375 3.5625 9 2.8125 9 2C9 0.34375 10.3438 -1 12 -1C13.6562 -1 15 0.34375 15 2C15 2.8125 14.6875 3.5625 14.125 4.09375L15.6562 6.75C15.375 6.96875 15.0938 7.15625 14.8125 7.3125L13.3125 4.6875ZM19.9375 14.25C20.0625 14.5 20 14.8125 19.75 14.9375C19.5 15.0625 19.2188 15 19.0625 14.75L16.8125 10.7812C17.0938 10.625 17.375 10.4375 17.6562 10.25L19.9375 14.25Z" fill="#FAB005"/>
<path d="M40 5.5C40 2.46875 37.5312 0 34.5 0C31.4688 0 29 2.46875 29 5.5C29 8.53125 31.4688 11 34.5 11C37.5312 11 40 8.53125 40 5.5ZM38.7188 10.4375C37.5938 11.4062 36.125 12 34.5 12C30.9062 12 28 9.09375 28 5.5C28 1.90625 30.9062 -1 34.5 -1C38.0938 -1 41 1.90625 41 5.5C41 7.125 40.4062 8.59375 39.4375 9.71875L43.8438 14.1562C44.0625 14.3438 44.0625 14.6562 43.8438 14.8438C43.6562 15.0625 43.3438 15.0625 43.1562 14.8438L38.7188 10.4375Z" fill="#FAB005"/>
<path d="M53 1C53 -0.09375 53.9062 -1 55 -1H65.5C66.3438 -1 67 -0.3125 67 0.5V10.5C67 11.1562 66.5938 11.7188 66 11.9062V14H66.5C66.7812 14 67 14.2188 67 14.5C67 14.7812 66.7812 15 66.5 15H55C53.9062 15 53 14.0938 53 13V1ZM55 12C54.4375 12 54 12.4375 54 13C54 13.5625 54.4375 14 55 14H65V12H55ZM54 11.2812C54.2812 11.0938 54.625 11 55 11H65.5C65.7812 11 66 10.7812 66 10.5V0.5C66 0.21875 65.7812 0 65.5 0H55C54.4375 0 54 0.4375 54 1V11.2812ZM57.5 3H63.5C63.7812 3 64 3.21875 64 3.5C64 3.78125 63.7812 4 63.5 4H57.5C57.2188 4 57 3.78125 57 3.5C57 3.21875 57.2188 3 57.5 3ZM57.5 6H63.5C63.7812 6 64 6.21875 64 6.5C64 6.78125 63.7812 7 63.5 7H57.5C57.2188 7 57 6.78125 57 6.5C57 6.21875 57.2188 6 57.5 6Z" fill="#FAB005"/>
<path d="M92 7C92 7.34375 91.9688 7.65625 91.9375 8C89.6875 8.78125 86.9375 9.25 84 9.25C81.0625 9.25 78.3125 8.78125 76.0625 8C76.0312 7.65625 76 7.34375 76 7C76 2.59375 79.5938 -1 84 -1C88.4062 -1 92 2.59375 92 7ZM84 10.75C86.7188 10.75 89.2812 10.375 91.5312 9.71875C90.4375 12.7812 87.4688 15 84 15C80.5312 15 77.5938 12.7812 76.4688 9.71875C78.7188 10.375 81.2812 10.75 84 10.75ZM81 4C81 3.4375 81.4375 3 82 3C82.5625 3 83 3.4375 83 4C83 4.5625 82.5625 5 82 5C81.4375 5 81 4.5625 81 4ZM84.5 4C84.5 2.625 83.375 1.5 82 1.5C80.625 1.5 79.5 2.625 79.5 4C79.5 5.375 80.625 6.5 82 6.5C83.375 6.5 84.5 5.375 84.5 4Z" fill="#FAB005"/>
<path d="M113 1H103C102.438 1 102 1.4375 102 2V12C102 12.5625 102.438 13 103 13H113C113.562 13 114 12.5625 114 12V2C114 1.4375 113.562 1 113 1ZM103 0H113C114.094 0 115 0.90625 115 2V12C115 13.0938 114.094 14 113 14H103C101.906 14 101 13.0938 101 12V2C101 0.90625 101.906 0 103 0ZM105 4.5C105.281 4.5 105.5 4.28125 105.5 4C105.5 3.71875 105.281 3.5 105 3.5C104.719 3.5 104.5 3.71875 104.5 4C104.5 4.28125 104.719 4.5 105 4.5ZM103.5 4C103.5 3.15625 104.156 2.5 105 2.5C105.844 2.5 106.5 3.15625 106.5 4C106.5 4.84375 105.844 5.5 105 5.5C104.156 5.5 103.5 4.84375 103.5 4ZM108.781 5.875L107.375 8.0625C107.281 8.21875 107.125 8.28125 106.969 8.3125C106.781 8.3125 106.625 8.21875 106.531 8.09375L106.219 7.625C106.156 7.53125 106.094 7.5 106 7.5C105.906 7.5 105.844 7.53125 105.781 7.625L104.031 10.125C104 10.1875 104 10.2812 104.031 10.375C104.062 10.4375 104.156 10.5 104.25 10.5H111.75C111.844 10.5 111.938 10.4688 111.969 10.375C112 10.2812 112 10.1875 111.969 10.125L109.219 5.875C109.156 5.78125 109.094 5.75 109 5.75C108.906 5.75 108.844 5.78125 108.781 5.875ZM109 4.75C109.438 4.75 109.812 4.96875 110.062 5.3125L112.812 9.5625C113.062 9.96875 113.062 10.4375 112.844 10.8438C112.625 11.25 112.219 11.5 111.75 11.5H104.25C103.781 11.5 103.344 11.25 103.125 10.8438C102.938 10.4062 102.969 9.90625 103.219 9.53125L104.969 7.03125C105.219 6.6875 105.594 6.5 106 6.5C106.344 6.5 106.688 6.65625 106.938 6.90625L107.938 5.3125C108.188 4.96875 108.562 4.75 109 4.75Z" fill="#FAB005"/>
<path d="M127.875 7.5L125.156 13.8438L139.125 7.5H127.875ZM139.125 6.5L125.156 0.1875L127.875 6.5H139.125ZM124.062 0.15625C124.031 0.0625 124 -0.0625 124 -0.15625C124 -0.625 124.375 -1 124.812 -1C124.938 -1 125.062 -0.96875 125.156 -0.9375L140.312 5.9375C140.75 6.125 141 6.53125 141 7C141 7.46875 140.75 7.875 140.312 8.0625L125.156 14.9375C125.062 14.9688 124.938 15 124.812 15C124.375 15 124 14.625 124 14.1875C124 14.0625 124.031 13.9375 124.062 13.8438L127 7L124.062 0.15625Z" fill="#FAB005"/>
<path d="M156 -1C156.562 -1 157 -0.5625 157 0V0.09375C159.281 0.5625 161 2.59375 161 5V5.6875C161 7.1875 161.5 8.65625 162.438 9.8125L162.75 10.1875C162.906 10.4062 163 10.625 163 10.9062C163 11.5 162.5 12 161.875 12H150.125C149.5 12 149 11.5 149 10.9062C149 10.625 149.094 10.4062 149.25 10.1875L149.562 9.8125C150.5 8.65625 151 7.1875 151 5.6875V5C151 2.59375 152.719 0.5625 155 0.09375V0C155 -0.5625 155.438 -1 156 -1ZM154.062 13.5H157.938C157.719 14.375 156.938 15 156 15C155.062 15 154.281 14.375 154.062 13.5Z" fill="#FAB005"/>
<path d="M182.062 1.15625L180.969 3H183.25C183.938 3 184.5 2.4375 184.5 1.75C184.5 1.0625 183.938 0.5 183.25 0.5H183.188C182.719 0.5 182.281 0.75 182.062 1.15625ZM177.969 1.15625C177.719 0.75 177.281 0.5 176.812 0.5H176.75C176.062 0.5 175.5 1.0625 175.5 1.75C175.5 2.4375 176.062 3 176.75 3H179.031L177.969 1.15625ZM180.75 0.40625V0.375C181.25 -0.46875 182.188 -1 183.188 -1H183.25C184.781 -1 186 0.21875 186 1.75C186 2.1875 185.906 2.625 185.688 3H187C187.562 3 188 3.4375 188 4V5C188 5.5625 187.562 6 187 6V12C187 13.0938 186.094 14 185 14H175C173.906 14 173 13.0938 173 12V6C172.438 6 172 5.5625 172 5V4C172 3.4375 172.438 3 173 3H174.312C174.125 2.625 174 2.1875 174 1.75C174 0.21875 175.219 -1 176.75 -1H176.812C177.812 -1 178.75 -0.46875 179.25 0.40625L180 1.6875L180.75 0.40625ZM174.5 6V12C174.5 12.2812 174.719 12.5 175 12.5H179.25V6H174.5ZM180.75 6V12.5H185C185.281 12.5 185.5 12.2812 185.5 12V6H180.75Z" fill="#FAB005"/>
<path d="M201.812 0H206.188C206.719 0 207.219 0.28125 207.469 0.75L208.219 2H210C211.094 2 212 2.90625 212 4V12C212 13.0938 211.094 14 210 14H198C196.906 14 196 13.0938 196 12V4C196 2.90625 196.906 2 198 2H199.812L200.531 0.75C200.812 0.28125 201.281 0 201.812 0ZM201.406 1.25L200.531 2.75C200.438 2.90625 200.25 3 200.094 3H198C197.438 3 197 3.4375 197 4V12C197 12.5625 197.438 13 198 13H210C210.562 13 211 12.5625 211 12V4C211 3.4375 210.562 3 210 3H207.906C207.75 3 207.562 2.90625 207.5 2.75L206.594 1.25C206.531 1.09375 206.344 1 206.188 1H201.812C201.656 1 201.5 1.09375 201.406 1.25ZM204 11.5C202.062 11.5 200.5 9.9375 200.5 8C200.5 6.0625 202.062 4.5 204 4.5C205.938 4.5 207.5 6.0625 207.5 8C207.5 9.9375 205.938 11.5 204 11.5ZM201.5 8C201.5 9.375 202.625 10.5 204 10.5C205.375 10.5 206.5 9.375 206.5 8C206.5 6.625 205.375 5.5 204 5.5C202.625 5.5 201.5 6.625 201.5 8Z" fill="#FAB005"/>
<path d="M234 -1.25C234.281 -1.25 234.5 -1.03125 234.5 -0.75V0.5H235.75C236.031 0.5 236.25 0.71875 236.25 1C236.25 1.28125 236.031 1.5 235.75 1.5H234.5V2.75C234.5 3.03125 234.281 3.25 234 3.25C233.719 3.25 233.5 3.03125 233.5 2.75V1.5H232.25C231.969 1.5 231.75 1.28125 231.75 1C231.75 0.71875 231.969 0.5 232.25 0.5H233.5V-0.75C233.5 -1.03125 233.719 -1.25 234 -1.25ZM230.188 1.96875L231.25 3.03125L231.656 2.65625C231.844 2.46875 232.156 2.46875 232.344 2.65625C232.562 2.84375 232.562 3.15625 232.344 3.34375L231.969 3.75L233 4.78125C233.406 5.1875 233.406 5.8125 233 6.21875L232.688 6.53125C232.906 7.15625 233 7.8125 233 8.5C233 12.0938 230.094 15 226.5 15C222.906 15 220 12.0938 220 8.5C220 4.90625 222.906 2 226.5 2C227.156 2 227.812 2.09375 228.438 2.28125L228.812 1.9375C229.156 2.3125 229.156 2.3125 228.812 1.9375C229.219 1.59375 229.812 1.59375 230.188 1.96875ZM228.875 3.21875C228.75 3.34375 228.531 3.375 228.375 3.3125C227.781 3.125 227.156 3 226.5 3C223.469 3 221 5.46875 221 8.5C221 11.5312 223.469 14 226.5 14C229.531 14 232 11.5312 232 8.5C232 7.8125 231.875 7.15625 231.656 6.5625C231.594 6.375 231.625 6.1875 231.75 6.03125L232.281 5.5L229.469 2.6875L228.875 3.21875ZM223.5 8.5C223.5 8.78125 223.281 9 223 9C222.719 9 222.5 8.78125 222.5 8.5C222.5 6.28125 224.281 4.5 226.5 4.5C226.781 4.5 227 4.71875 227 5C227 5.28125 226.781 5.5 226.5 5.5C224.844 5.5 223.5 6.84375 223.5 8.5Z" fill="#FAB005"/>
<path d="M7 30V31.1875C7.3125 31.0625 7.65625 31 8 31H8.5C9.34375 31 10 31.6875 10 32.5V36.5C10 37.3438 9.34375 38 8.5 38H8C6.34375 38 5 36.6562 5 35V30C5 26.125 8.125 23 12 23C15.875 23 19 26.125 19 30V35C19 36.6562 17.6562 38 16 38H15.5C14.6875 38 14 37.3438 14 36.5V32.5C14 31.6875 14.6875 31 15.5 31H16C16.3438 31 16.6875 31.0625 17 31.1875V30C17 27.25 14.75 25 12 25C9.25 25 7 27.25 7 30Z" fill="#FAB005"/>
<path d="M35.6875 23.125C35.875 22.9688 36.1562 22.9688 36.3438 23.125L43.8438 30.125C44.0625 30.3125 44.0625 30.6562 43.875 30.8438C43.6875 31.0312 43.375 31.0625 43.1875 30.875L42.5312 30.25V37C42.5312 38.0938 41.625 39 40.5312 39H31.5312C30.4062 39 29.5312 38.0938 29.5312 37V30.25L28.8438 30.875C28.6562 31.0625 28.3438 31.0312 28.1562 30.8438C27.9688 30.625 27.9688 30.3125 28.1875 30.125L35.6875 23.125ZM36.0312 24.1875L30.5312 29.3125V37C30.5312 37.5625 30.9688 38 31.5312 38H33.5312V34.5C33.5312 33.4062 34.4062 32.5 35.5312 32.5H36.5312C37.625 32.5 38.5312 33.4062 38.5312 34.5V38H40.5312C41.0625 38 41.5312 37.5625 41.5312 37V29.3125L36.0312 24.1875ZM34.5312 38H37.5312V34.5C37.5312 33.9375 37.0625 33.5 36.5312 33.5H35.5312C34.9688 33.5 34.5312 33.9375 34.5312 34.5V38Z" fill="#FAB005"/>
<path d="M67 31C67 27.125 63.875 24 60 24C56.125 24 53 27.125 53 31C53 34.875 56.125 38 60 38C63.875 38 67 34.875 67 31ZM52 31C52 26.5938 55.5938 23 60 23C64.4062 23 68 26.5938 68 31C68 35.4062 64.4062 39 60 39C55.5938 39 52 35.4062 52 31ZM56.9688 33.0938C57.6875 33.9688 58.7812 34.5 60 34.5C61.2188 34.5 62.3125 33.9688 63.0312 33.0938C63.2188 32.875 63.5312 32.875 63.75 33.0312C63.9688 33.2188 63.9688 33.5312 63.8125 33.75C62.875 34.8125 61.5312 35.5 60 35.5C58.4688 35.5 57.125 34.8125 56.1875 33.75C56.0312 33.5312 56.0312 33.2188 56.25 33.0312C56.4688 32.875 56.7812 32.875 56.9688 33.0938ZM56.75 29.5C56.75 29.0938 57.0938 28.75 57.5 28.75C57.9062 28.75 58.25 29.0938 58.25 29.5C58.25 29.9062 57.9062 30.25 57.5 30.25C57.0938 30.25 56.75 29.9062 56.75 29.5ZM62.5 28.75C62.9062 28.75 63.25 29.0938 63.25 29.5C63.25 29.9062 62.9062 30.25 62.5 30.25C62.0938 30.25 61.75 29.9062 61.75 29.5C61.75 29.0938 62.0938 28.75 62.5 28.75Z" fill="#FAB005"/>
<path d="M84 24H80C79.4375 24 79 24.4375 79 25V37C79 37.5625 79.4375 38 80 38H88C88.5625 38 89 37.5625 89 37V29H86C84.9062 29 84 28.0938 84 27V24ZM88.5938 28L85 24.4062V27C85 27.5625 85.4375 28 86 28H88.5938ZM78 25C78 23.9062 78.9062 23 80 23H84.1875C84.7188 23 85.2188 23.2188 85.5938 23.5938L89.4062 27.4062C89.7812 27.7812 90 28.3125 90 28.8438V37C90 38.0938 89.0938 39 88 39H80C78.9062 39 78 38.0938 78 37V25Z" fill="#FAB005"/>
<path d="M114.5 31.0625C114.5 31.0312 114.5 31.0312 114.5 31C114.5 27.4062 111.594 24.5 108 24.5C104.406 24.5 101.5 27.4062 101.5 31C101.5 34.5938 104.406 37.5 108 37.5C108.094 37.5 108.188 37.5 108.281 37.5C108.281 37.5 108.312 37.5 108.312 37.4688C108.344 37.4688 108.344 37.4688 108.375 37.4375C108.438 37.3438 108.5 37.2188 108.5 37.0625C108.5 37 108.469 36.875 108.312 36.5312C108.312 36.4688 108.281 36.4375 108.281 36.375C108.125 36.0938 107.906 35.625 107.812 35.125C107.781 34.9062 107.75 34.7188 107.75 34.5C107.75 32.8438 109.094 31.5 110.75 31.5H113.812C114.062 31.5 114.25 31.4062 114.375 31.3125C114.469 31.2188 114.5 31.1562 114.5 31.0625ZM116 31.0938C116 32.2188 114.969 33 113.812 33H110.75C109.938 33 109.25 33.6875 109.25 34.5C109.25 34.5938 109.25 34.7188 109.281 34.8125C109.344 35.125 109.5 35.4375 109.625 35.75C109.812 36.1875 110 36.5938 110 37.0625C110 38.0625 109.312 38.9688 108.344 39C108.219 39 108.125 39 108 39C103.594 39 100 35.4062 100 31C100 26.5938 103.594 23 108 23C112.406 23 116 26.5938 116 31C116 31.0312 116 31.0625 116 31.0938ZM105 31C105 31.5625 104.562 32 104 32C103.438 32 103 31.5625 103 31C103 30.4375 103.438 30 104 30C104.562 30 105 30.4375 105 31ZM105 29C104.438 29 104 28.5625 104 28C104 27.4375 104.438 27 105 27C105.562 27 106 27.4375 106 28C106 28.5625 105.562 29 105 29ZM109 27C109 27.5625 108.562 28 108 28C107.438 28 107 27.5625 107 27C107 26.4375 107.438 26 108 26C108.562 26 109 26.4375 109 27ZM111 29C110.438 29 110 28.5625 110 28C110 27.4375 110.438 27 111 27C111.562 27 112 27.4375 112 28C112 28.5625 111.562 29 111 29Z" fill="#FAB005"/>
<path d="M135.219 24.6562L130.281 29.5625L133.438 32.7188L138.344 27.8125C138.781 27.375 139 26.8125 139 26.2188C139 25 138 24 136.781 24C136.188 24 135.625 24.25 135.219 24.6562ZM129.562 30.2812L127.906 31.9375C126.5 33.375 125.562 35.1875 125.188 37.1562L125.062 37.9375L125.844 37.8125C127.812 37.4688 129.625 36.5 131.062 35.0938L132.719 33.4375L129.562 30.2812ZM134.5 23.9375C135.094 23.3438 135.906 23 136.781 23C138.562 23 140 24.4375 140 26.2188C140 27.0938 139.656 27.9062 139.062 28.5L131.75 35.8125C130.188 37.375 128.188 38.4062 126.031 38.7812L124.875 39C124.656 39.0312 124.406 38.9688 124.219 38.7812C124.031 38.625 123.969 38.375 124 38.125L124.219 36.9688C124.594 34.8125 125.625 32.8125 127.188 31.25L133.375 25.0625L132.719 24.4062C132.312 24.0312 131.688 24.0312 131.281 24.4062L127.844 27.8438C127.656 28.0625 127.344 28.0625 127.156 27.8438C126.969 27.6562 126.969 27.3438 127.156 27.1562L130.594 23.7188C131.375 22.9375 132.625 22.9375 133.406 23.7188L134.062 24.375L134.5 23.9375Z" fill="#FAB005"/>
<path d="M155 25.5V28.5C155 29.3438 154.344 30 153.5 30H150.5C149.688 30 149 29.3438 149 28.5V25.5C149 24.6875 149.688 24 150.5 24H153.5C154.344 24 155 24.6875 155 25.5ZM155 33.5V36.5C155 37.3438 154.344 38 153.5 38H150.5C149.688 38 149 37.3438 149 36.5V33.5C149 32.6875 149.688 32 150.5 32H153.5C154.344 32 155 32.6875 155 33.5ZM157 25.5C157 24.6875 157.688 24 158.5 24H161.5C162.344 24 163 24.6875 163 25.5V28.5C163 29.3438 162.344 30 161.5 30H158.5C157.688 30 157 29.3438 157 28.5V25.5ZM163 33.5V36.5C163 37.3438 162.344 38 161.5 38H158.5C157.688 38 157 37.3438 157 36.5V33.5C157 32.6875 157.688 32 158.5 32H161.5C162.344 32 163 32.6875 163 33.5Z" fill="#FAB005"/>
<path d="M171 31C171 27.6875 173.688 25 177 25H178.5C178.781 25 179 25.2188 179 25.5C179 25.7812 178.781 26 178.5 26H177C174.25 26 172 28.25 172 31C172 33.75 174.25 36 177 36H178.5C178.781 36 179 36.2188 179 36.5C179 36.7812 178.781 37 178.5 37H177C173.688 37 171 34.3125 171 31ZM176 31C176 30.7188 176.219 30.5 176.5 30.5H183.5C183.781 30.5 184 30.7188 184 31C184 31.2812 183.781 31.5 183.5 31.5H176.5C176.219 31.5 176 31.2812 176 31ZM183 25C186.312 25 189 27.6875 189 31C189 34.3125 186.312 37 183 37H181.5C181.219 37 181 36.7812 181 36.5C181 36.2188 181.219 36 181.5 36H183C185.75 36 188 33.75 188 31C188 28.25 185.75 26 183 26H181.5C181.219 26 181 25.7812 181 25.5C181 25.2188 181.219 25 181.5 25H183Z" fill="#FAB005"/>
<path d="M207.781 24.4062L205.719 26.5L208.5 29.2812L210.594 27.2188C210.969 26.8125 210.969 26.1875 210.594 25.7812L209.219 24.4062C208.812 24.0312 208.188 24.0312 207.781 24.4062ZM204.75 26.0625L207.094 23.7188C207.875 22.9375 209.125 22.9375 209.906 23.7188L211.281 25.0938C212.062 25.875 212.062 27.125 211.281 27.9062L208.938 30.25L207.781 34.5625C207.562 35.4062 206.906 36.0625 206.094 36.3125L197.5 38.875C197.094 39 196.688 38.875 196.406 38.5938C196.125 38.3125 196 37.9062 196.125 37.5312L198.719 28.9062C198.938 28.0938 199.594 27.4688 200.438 27.2188L204.75 26.0625ZM204.844 27.0625L200.719 28.1875C200.219 28.3438 199.812 28.7188 199.656 29.2188L197.344 36.9688L200.781 33.5312C200.594 33.2188 200.5 32.875 200.5 32.5C200.5 31.4062 201.406 30.5 202.5 30.5C203.594 30.5 204.5 31.4062 204.5 32.5C204.5 33.5938 203.594 34.5 202.5 34.5C202.125 34.5 201.781 34.4062 201.5 34.2188L198.031 37.6562L205.781 35.3438C206.281 35.1875 206.688 34.8125 206.812 34.3125L207.938 30.1562L204.844 27.0625ZM202.5 31.5C201.938 31.5 201.5 31.9375 201.5 32.5C201.5 33.0625 201.938 33.5 202.5 33.5C203.062 33.5 203.5 33.0625 203.5 32.5C203.5 31.9375 203.062 31.5 202.5 31.5Z" fill="#FAB005"/>
<path d="M222.406 34.4062C222.656 34.7188 222.688 35.1562 222.5 35.5L221.25 37.8125L224.406 36.4688C224.656 36.3438 224.938 36.3438 225.188 36.4375C226.031 36.8125 227 37 228 37C231.938 37 235 34.0312 235 30.5C235 26.9688 231.938 24 228 24C224.062 24 221 26.9688 221 30.5C221 31.9688 221.531 33.3125 222.406 34.4062ZM221.625 35.0312C220.594 33.7812 220 32.1875 220 30.5C220 26.375 223.594 23 228 23C232.406 23 236 26.375 236 30.5C236 34.6562 232.406 38 228 38C226.875 38 225.781 37.7812 224.781 37.375L221.156 38.9375C221.031 39 220.938 39 220.812 39C220.344 39 220 38.6562 220 38.2188C220 38.0625 220.031 37.9375 220.094 37.8125L221.625 35.0312Z" fill="#FAB005"/>
<path d="M7.5 48C6.28125 48 5.28125 48.875 5.0625 50H8.09375C8.21875 50 8.34375 49.9375 8.4375 49.8438L8.65625 49.6562C8.84375 49.4688 9.15625 49.4688 9.34375 49.6562C9.53125 49.8438 9.53125 50.1562 9.34375 50.3438L9.15625 50.5625C8.875 50.8438 8.46875 51 8.09375 51H5V51.625C5 52 5.1875 52.3125 5.5 52.5L7.96875 53.9062C8.53125 53.4375 9.25 53.125 10 53.0312V51.5C10 51.2188 10.2188 51 10.5 51C10.7812 51 11 51.2188 11 51.5V53H13V51.5C13 51.2188 13.2188 51 13.5 51C13.7812 51 14 51.2188 14 51.5V53.0312C14.7812 53.125 15.4688 53.4375 16.0312 53.9062L18.5 52.5C18.8125 52.3125 19 52 19 51.625V51H15.9062C15.5312 51 15.125 50.8438 14.8438 50.5625L14.6562 50.3438C14.4688 50.1562 14.4688 49.8438 14.6562 49.6562C14.8438 49.4688 15.1562 49.4688 15.3438 49.6562L15.5625 49.8438C15.6562 49.9375 15.7812 50 15.9062 50H18.9375C18.7188 48.875 17.7188 48 16.5 48H16L16.8125 48.5938C17.0312 48.7812 17.0625 49.0938 16.9062 49.3125C16.75 49.5312 16.4375 49.5625 16.1875 49.4062L14.1875 47.9062C14.0312 47.7812 13.9688 47.5625 14.0312 47.3438C14.0938 47.125 14.2812 47 14.5 47H16.5C18.4375 47 20 48.5625 20 50.5V51.625C20 52.3438 19.625 53 19 53.375L16.75 54.6562C16.9375 54.9062 17.0938 55.1875 17.2188 55.5H18.375L19.2812 55.0625C19.5312 54.9375 19.8125 55.0312 19.9375 55.2812C20.0625 55.5312 19.9688 55.8125 19.7188 55.9375L18.7188 56.4375C18.6562 56.5 18.5625 56.5 18.5 56.5H17.4688C17.5 56.6562 17.5 56.8438 17.5 57V57.25L18.1875 57.5312C18.25 57.5625 18.3125 57.5938 18.3438 57.6562L19.3438 58.6562C19.5625 58.8438 19.5625 59.1562 19.3438 59.3438C19.1562 59.5625 18.8438 59.5625 18.6562 59.3438L17.7188 58.4375L16.9062 58.0938L15.9375 59.0625L17.1875 59.5312C17.25 59.5625 17.3125 59.5938 17.3438 59.6562L18.3438 60.6562C18.5625 60.8438 18.5625 61.1562 18.3438 61.3438C18.1562 61.5625 17.8438 61.5625 17.6562 61.3438L16.7188 60.4375L15.1562 59.8438L14.6875 60.3125L15.7812 61.0938C15.9375 61.1875 16 61.3438 16 61.5V62.5C16 62.7812 15.7812 63 15.5 63C15.2188 63 15 62.7812 15 62.5V61.75L13.9375 61H10.0625L9 61.75V62.5C9 62.7812 8.78125 63 8.5 63C8.21875 63 8 62.7812 8 62.5V61.5C8 61.3438 8.09375 61.1875 8.21875 61.0938L9.3125 60.3125L8.84375 59.8438L7.28125 60.4375L6.375 61.3438C6.15625 61.5625 5.84375 61.5625 5.65625 61.3438C5.46875 61.1562 5.46875 60.8438 5.65625 60.6562L6.65625 59.6562C6.71875 59.5938 6.78125 59.5625 6.84375 59.5312L8.0625 59.0625L7.09375 58.0938L6.28125 58.4375L5.375 59.3438C5.15625 59.5625 4.84375 59.5625 4.65625 59.3438C4.46875 59.1562 4.46875 58.8438 4.65625 58.6562L5.65625 57.6562C5.71875 57.5938 5.75 57.5625 5.8125 57.5312L6.5 57.25V57C6.5 56.8438 6.53125 56.6562 6.53125 56.5H5.5C5.4375 56.5 5.375 56.5 5.28125 56.4375L4.28125 55.9375C4.03125 55.8125 3.9375 55.5312 4.0625 55.2812C4.1875 55.0312 4.5 54.9375 4.75 55.0625L5.625 55.5H6.8125C6.9375 55.1875 7.09375 54.9062 7.28125 54.6562L5 53.375C4.375 53 4 52.3438 4 51.625V50.5C4 48.5625 5.5625 47 7.5 47H9.5C9.71875 47 9.90625 47.125 9.96875 47.3438C10.0312 47.5312 9.96875 47.7812 9.8125 47.9062L7.8125 49.4062C7.59375 49.5625 7.28125 49.5312 7.09375 49.3125C6.9375 49.0938 6.96875 48.7812 7.1875 48.5938L8 48H7.5ZM13.5 54H10.5C8.84375 54 7.5 55.3438 7.5 57V57.0938L10.4062 60H13.5938L16.5 57.0938V57C16.5 55.3438 15.1562 54 13.5 54Z" fill="#FAB005"/>
<path d="M29.9062 49H42.0938C43.1562 49 44 49.875 44 50.9062C44 50.9375 44 50.9688 44 51V59C44 60.0938 43.0938 61 42 61H30C28.9062 61 28 60.0938 28 59V51C28 50.9688 28 50.9375 28 50.9062C28 49.875 28.875 49 29.9062 49ZM42.5 53L37.6562 56.6875C36.6875 57.4375 35.3125 57.4375 34.3438 56.6875L29.5 53V59C29.5 59.2812 29.7188 59.5 30 59.5H42C42.2812 59.5 42.5 59.2812 42.5 59V53ZM29.5 50.9062C29.5 51.0625 29.5625 51.1875 29.6562 51.25L35.25 55.5C35.6875 55.8125 36.3125 55.8125 36.75 55.5L42.3438 51.25C42.4375 51.1875 42.5 51.0625 42.5 50.9062C42.5 50.6875 42.3125 50.5 42.0938 50.5H29.9062C29.6875 50.5 29.5 50.6875 29.5 50.9062Z" fill="#FAB005"/>
<path d="M54.5 48H61.5C63.4375 48 65 49.5625 65 51.5C65 52.6562 64.4375 53.6875 63.5625 54.3125C65 54.9375 66 56.3438 66 58C66 60.2188 64.2188 62 62 62H54.5C54.2188 62 54 61.7812 54 61.5C54 61.2188 54.2188 61 54.5 61H56V49H54.5C54.2188 49 54 48.7812 54 48.5C54 48.2188 54.2188 48 54.5 48ZM57 61H62C63.6562 61 65 59.6562 65 58C65 56.3438 63.6562 55 62 55H57V61ZM57 49V54H61.5C62.875 54 64 52.875 64 51.5C64 50.125 62.875 49 61.5 49H57Z" fill="#FAB005"/>
<path d="M91.25 53.25C92.2188 53.25 93 54.0312 93 55C93 55.9688 92.2188 56.75 91.25 56.75H87.2812L82.3125 62.1875C82.0938 62.375 81.8438 62.5 81.5625 62.5H80.1875C79.8438 62.5 79.625 62.1562 79.7188 61.8438L81.4062 56.75H78.3125L76.6562 58.8125C76.5625 58.9375 76.4062 59 76.25 59H75.6562C75.3125 59 75.0938 58.6875 75.1562 58.375L76 55L75.1562 51.625C75.0625 51.3125 75.3125 51 75.6562 51H76.25C76.4062 51 76.5625 51.0625 76.6562 51.1875L78.3125 53.25H81.4062L79.7188 48.1562C79.625 47.8438 79.8438 47.5 80.1875 47.5H81.5625C81.8438 47.5 82.0938 47.625 82.3125 47.8125L87.2812 53.25H91.25Z" fill="#FAB005"/>
<path d="M102 49C102 47.9062 102.906 47 104 47H112C113.094 47 114 47.9062 114 49V62.3125C114 62.9062 113.375 63.25 112.875 62.9688L108 60.0938L103.125 62.9688C102.625 63.25 102 62.9062 102 62.3125V49ZM104 48C103.438 48 103 48.4375 103 49V61.875L107.625 59.1562C107.844 59 108.156 59 108.375 59.1562L113 61.875V49C113 48.4375 112.562 48 112 48H104Z" fill="#FAB005"/>
<path d="M129.938 47.625C129.5 48.0938 128.906 48.75 128.344 49.5625C127.156 51.1875 126 53.4375 126 56C126 59.3125 128.688 62 132 62C135.312 62 138 59.3125 138 56C138 54.0625 137.219 52.3125 136.406 51C136 50.3125 135.531 49.625 135 49.0938C134.812 49.3125 134.625 49.5625 134.406 49.8125C134.375 49.875 134.344 49.9375 134.281 49.9688C134.094 50.25 133.781 50.4062 133.438 50.375C133.125 50.375 132.812 50.1875 132.625 49.9062C132.188 49.125 131.688 48.5 131.312 48C131.031 47.6875 130.781 47.375 130.5 47.0938C130.312 47.25 130.125 47.4375 129.938 47.625ZM130.531 46.0625C130.75 46.0625 130.969 46.1562 131.156 46.3438C131.469 46.6562 131.781 47.0312 132.062 47.375C132.5 47.9062 133 48.5625 133.5 49.375C133.531 49.3438 133.562 49.2812 133.594 49.25C133.812 48.9375 134.094 48.5938 134.375 48.2812C134.562 48.125 134.781 48 135 48C135.25 48 135.438 48.125 135.625 48.3125C136.281 48.9375 136.812 49.7812 137.25 50.4688C138.125 51.8438 139 53.8125 139 56C139 59.875 135.875 63 132 63C128.125 63 125 59.875 125 56C125 53.1562 126.281 50.6875 127.531 48.9688C128.125 48.0938 128.75 47.4062 129.219 46.9375C129.438 46.7188 129.656 46.5 129.875 46.2812C130.062 46.125 130.281 46.0625 130.531 46.0625ZM129 56.5938C129 57.5312 129.344 58.25 129.875 58.7188C130.406 59.2188 131.156 59.5 132.062 59.5C134.188 59.5 135.656 57.4062 134.688 55.4688L133.969 56.3125C133.562 56.8125 132.812 56.7812 132.438 56.2812C131.906 55.625 130.938 54.375 130.406 53.7188C129.844 54.2812 129 55.3438 129 56.5938ZM131.188 53.0625H131.156C131.688 53.7188 132.656 54.9688 133.219 55.6562L134 54.75C134.406 54.2812 135.188 54.2812 135.531 54.9062C137 57.625 134.875 60.5 132.062 60.5C130.969 60.5 129.938 60.1562 129.188 59.4688C128.438 58.7812 128 57.7812 128 56.5938C128 54.875 129.188 53.5312 129.75 52.9688C130.188 52.5625 130.844 52.6562 131.188 53.0625Z" fill="#FAB005"/>
<path d="M156 48C152.125 48 149 51.125 149 55C149 58.875 152.125 62 156 62C159.875 62 163 58.875 163 55C163 51.125 159.875 48 156 48ZM156 63C151.594 63 148 59.4062 148 55C148 50.5938 151.594 47 156 47C160.406 47 164 50.5938 164 55C164 59.4062 160.406 63 156 63ZM156 57C155.438 57 155 57.4375 155 58C155 58.5625 155.438 59 156 59C156.562 59 157 58.5625 157 58C157 57.4375 156.562 57 156 57ZM156 60C154.906 60 154 59.0938 154 58C154 57.0625 154.625 56.2812 155.5 56.0625V50C155.5 49.7188 155.719 49.5 156 49.5C156.281 49.5 156.5 49.7188 156.5 50V56.0625C157.375 56.2812 158 57.0625 158 58C158 59.0938 157.094 60 156 60ZM152.5 52.25C152.094 52.25 151.75 51.9062 151.75 51.5C151.75 51.0938 152.094 50.75 152.5 50.75C152.906 50.75 153.25 51.0938 153.25 51.5C153.25 51.9062 152.906 52.25 152.5 52.25ZM151.75 55C151.75 55.4062 151.406 55.75 151 55.75C150.594 55.75 150.25 55.4062 150.25 55C150.25 54.5938 150.594 54.25 151 54.25C151.406 54.25 151.75 54.5938 151.75 55ZM161 55.75C160.594 55.75 160.25 55.4062 160.25 55C160.25 54.5938 160.594 54.25 161 54.25C161.406 54.25 161.75 54.5938 161.75 55C161.75 55.4062 161.406 55.75 161 55.75ZM160.25 51.5C160.25 51.9062 159.906 52.25 159.5 52.25C159.094 52.25 158.75 51.9062 158.75 51.5C158.75 51.0938 159.094 50.75 159.5 50.75C159.906 50.75 160.25 51.0938 160.25 51.5Z" fill="#FAB005"/>
<path d="M178.5 48C178.219 48 178 48.2188 178 48.5V50H182V48.5C182 48.2188 181.781 48 181.5 48H178.5ZM177 48.5C177 47.6875 177.688 47 178.5 47H181.5C182.344 47 183 47.6875 183 48.5V50H186C187.094 50 188 50.9062 188 52V60C188 61.0938 187.094 62 186 62H174C172.906 62 172 61.0938 172 60V52C172 50.9062 172.906 50 174 50H177V48.5ZM177.5 51H176.5V61H183.5V51H177.5ZM175.5 51H174C173.438 51 173 51.4375 173 52V60C173 60.5625 173.438 61 174 61H175.5V51ZM184.5 61H186C186.562 61 187 60.5625 187 60V52C187 51.4375 186.562 51 186 51H184.5V61Z" fill="#FAB005"/>
<path d="M199.406 50.375L198.531 53H209.469L208.594 50.375C208.312 49.5625 207.562 49 206.688 49H201.312C200.438 49 199.688 49.5625 199.406 50.375ZM197.438 53.0938L198.469 50.0625C198.875 48.8125 200 48 201.312 48H206.688C208 48 209.125 48.8125 209.562 50.0625L210.562 53.0625C211.406 53.3125 212 54.0938 212 55V61.5C212 61.7812 211.781 62 211.5 62C211.219 62 211 61.7812 211 61.5V60H197V61.5C197 61.7812 196.781 62 196.5 62C196.219 62 196 61.7812 196 61.5V55C196 54.0938 196.625 53.3125 197.438 53.0938ZM198 54C197.438 54 197 54.4375 197 55V59H211V55C211 54.4375 210.562 54 210 54H198ZM199.25 55.75C199.656 55.75 200 56.0938 200 56.5C200 56.9062 199.656 57.25 199.25 57.25C198.844 57.25 198.5 56.9062 198.5 56.5C198.5 56.0938 198.844 55.75 199.25 55.75ZM208 56.5C208 56.0938 208.344 55.75 208.75 55.75C209.156 55.75 209.5 56.0938 209.5 56.5C209.5 56.9062 209.156 57.25 208.75 57.25C208.344 57.25 208 56.9062 208 56.5Z" fill="#FAB005"/>
<path d="M236 49.5C236 49.7812 235.781 50 235.5 50H234V60H235.5C235.781 60 236 60.2188 236 60.5C236 60.7812 235.781 61 235.5 61H234V62.5C234 62.7812 233.781 63 233.5 63C233.219 63 233 62.7812 233 62.5V61H223V62.5C223 62.7812 222.781 63 222.5 63C222.219 63 222 62.7812 222 62.5V61H220.5C220.219 61 220 60.7812 220 60.5C220 60.2188 220.219 60 220.5 60H222V50H220.5C220.219 50 220 49.7812 220 49.5C220 49.2188 220.219 49 220.5 49H222V47.5C222 47.2188 222.219 47 222.5 47C222.781 47 223 47.2188 223 47.5V49H233V47.5C233 47.2188 233.219 47 233.5 47C233.781 47 234 47.2188 234 47.5V49H235.5C235.781 49 236 49.2188 236 49.5ZM233 50H223V60H233V50Z" fill="#FAB005"/>
<path d="M12 72.5C12 72.2188 12.2188 72 12.5 72H15C15.25 72 15.4375 72.1562 15.5 72.4062L15.8125 73.875L17.6875 73.25C18.3438 73.0312 19 73.5 19 74.1875V76.3125C19 77 18.3438 77.4688 17.6875 77.25L16.4688 76.8438L16.5312 77.25C16.6875 77.9688 16.5312 78.7188 16.0938 79.2812L14.0625 81.9375C13.5625 82.5938 12.75 83 11.875 83H9.75C9.75 83.0938 9.75 83.1562 9.75 83.25C9.75 84.7812 8.53125 86 7 86C5.46875 86 4.25 84.7812 4.25 83.25C4.25 83.1562 4.25 83.0938 4.25 83H4C3.4375 83 3 82.5625 3 82V81C3 78.7812 4.78125 77 7 77H9C9.5625 77 10 77.4375 10 78V80.25C10 80.5 10.0625 80.7188 10.125 80.9375C10.4062 81.5625 11.0312 82 11.75 82H11.875C12.4375 82 12.9375 81.75 13.2812 81.3125L15.2812 78.6875C15.5625 78.3438 15.6562 77.875 15.5625 77.4375L14.5938 73H12.5C12.2188 73 12 72.7812 12 72.5ZM16.2188 75.7188L18 76.3125V74.1875L16.0312 74.8438L16.2188 75.7188ZM9.625 82C9.53125 81.875 9.4375 81.75 9.375 81.625C9.125 81.2188 9 80.75 9 80.25V78H7C5.34375 78 4 79.3438 4 81V82H9.625ZM5.5 75H9.5C9.78125 75 10 75.2188 10 75.5C10 75.7812 9.78125 76 9.5 76H5.5C5.21875 76 5 75.7812 5 75.5C5 75.2188 5.21875 75 5.5 75ZM5.25 83.25C5.25 84.2188 6.03125 85 7 85C7.96875 85 8.75 84.2188 8.75 83.25C8.75 83.1562 8.75 83.0938 8.71875 83H5.28125C5.25 83.0938 5.25 83.1562 5.25 83.25ZM19.75 83.25C19.75 82.2812 18.9688 81.5 18 81.5C17.0312 81.5 16.25 82.2812 16.25 83.25C16.25 84.2188 17.0312 85 18 85C18.9688 85 19.75 84.2188 19.75 83.25ZM15.25 83.25C15.25 81.7188 16.4688 80.5 18 80.5C19.5312 80.5 20.75 81.7188 20.75 83.25C20.75 84.7812 19.5312 86 18 86C16.4688 86 15.25 84.7812 15.25 83.25Z" fill="#FAB005"/>
<path d="M40.875 84.0312C42.1875 82.75 43 80.9688 43 79C43 75.125 39.875 72 36 72C32.125 72 29 75.125 29 79C29 80.9688 29.8125 82.75 31.125 84.0312C31.5625 82.2812 33.125 81 35 81H37C38.875 81 40.4375 82.2812 40.875 84.0312ZM40 84.75C39.875 83.2188 38.5625 82 37 82H35C33.4375 82 32.125 83.2188 32 84.75C33.1562 85.5312 34.5312 86 36 86C37.4688 86 38.875 85.5312 40 84.75ZM36 87C31.5938 87 28 83.4062 28 79C28 74.5938 31.5938 71 36 71C40.4062 71 44 74.5938 44 79C44 83.4062 40.4062 87 36 87ZM36 78.5C36.8438 78.5 37.5 77.8438 37.5 77C37.5 76.1562 36.8438 75.5 36 75.5C35.1562 75.5 34.5 76.1562 34.5 77C34.5 77.8438 35.1562 78.5 36 78.5ZM33.5 77C33.5 75.625 34.625 74.5 36 74.5C37.375 74.5 38.5 75.625 38.5 77C38.5 78.375 37.375 79.5 36 79.5C34.625 79.5 33.5 78.375 33.5 77Z" fill="#FAB005"/>
<path d="M60.3125 72.0625C60.125 71.9688 59.875 71.9688 59.6875 72.0625L53.3438 75L59.6875 77.9375C59.875 78.0312 60.125 78.0312 60.3125 77.9375L66.6562 75L60.3125 72.0625ZM60.75 71.1562L67.5625 74.3125C67.8438 74.4375 68 74.7188 68 75C68 75.2812 67.8438 75.5625 67.5625 75.6875L60.75 78.8438C60.2812 79.0625 59.7188 79.0625 59.2812 78.8438L52.4375 75.6875C52.1562 75.5625 52 75.2812 52 75C52 74.7188 52.1562 74.4375 52.4375 74.3125L59.2812 71.1562C59.7188 70.9375 60.2812 70.9375 60.75 71.1562ZM53.5 77.8125L54.6875 78.375L53.3438 79L59.6875 81.9375C59.875 82.0312 60.125 82.0312 60.3125 81.9375L66.6562 79L65.3125 78.375L66.5 77.8125L67.5625 78.3125C67.8438 78.4375 68 78.7188 68 79C68 79.2812 67.8438 79.5625 67.5625 79.6875L60.75 82.8438C60.2812 83.0625 59.7188 83.0625 59.2812 82.8438L52.4375 79.6875C52.1562 79.5625 52 79.2812 52 79C52 78.7188 52.1562 78.4375 52.4375 78.3125L53.5 77.8125ZM52.4375 82.3125L53.5 81.8125L54.6875 82.375L53.3438 83L59.6875 85.9375C59.875 86.0312 60.125 86.0312 60.3125 85.9375L66.6562 83L65.3125 82.375L66.5 81.8125L67.5625 82.3125C67.8438 82.4375 68 82.7188 68 83C68 83.2812 67.8438 83.5625 67.5625 83.6875L60.75 86.8438C60.2812 87.0625 59.7188 87.0625 59.2812 86.8438L52.4375 83.6875C52.1562 83.5625 52 83.2812 52 83C52 82.7188 52.1562 82.4375 52.4375 82.3125Z" fill="#FAB005"/>
<path d="M78 84H90C90.5625 84 91 83.5625 91 83V75.5C91 74.9375 90.5625 74.5 90 74.5H85.3438C84.9062 74.5 84.4688 74.375 84.125 74.0938L82.9375 73.1875C82.75 73.0625 82.5625 73 82.3438 73H78C77.4375 73 77 73.4375 77 74V83C77 83.5625 77.4375 84 78 84ZM90 85H78C76.9062 85 76 84.0938 76 83V74C76 72.9062 76.9062 72 78 72H82.3438C82.7812 72 83.1875 72.1562 83.5312 72.4062L84.75 73.3125C84.9062 73.4375 85.125 73.5 85.3438 73.5H90C91.0938 73.5 92 74.4062 92 75.5V83C92 84.0938 91.0938 85 90 85Z" fill="#FAB005"/>
<path d="M106.5 73C104.562 73 103 74.5625 103 76.5C103 76.8438 103.062 77.1562 103.125 77.4688C103.156 77.5938 103.156 77.7188 103.094 77.8438C103 77.9688 102.906 78.0625 102.75 78.0938C101.188 78.4062 100 79.8125 100 81.5C100 83.4375 101.562 85 103.5 85H113C114.656 85 116 83.6562 116 82C116 80.6875 115.156 79.5938 114 79.1562C113.875 79.125 113.75 79.0312 113.688 78.875C113.656 78.75 113.656 78.5938 113.719 78.4688C113.906 78.0938 114 77.6875 114 77.25C114 75.7188 112.781 74.5 111.25 74.5C110.812 74.5 110.438 74.5938 110.062 74.7812C109.844 74.875 109.562 74.8125 109.438 74.5938C108.812 73.625 107.719 73 106.5 73ZM102 76.5C102 74.0312 104.031 72 106.5 72C107.938 72 109.219 72.6562 110.031 73.7188C110.406 73.5625 110.812 73.5 111.25 73.5C113.312 73.5 115 75.1875 115 77.25C115 77.6562 114.938 78.0625 114.812 78.4375C116.125 79.0938 117 80.4375 117 82C117 84.2188 115.219 86 113 86H103.5C101.031 86 99 84 99 81.5C99 79.5312 100.281 77.8438 102.062 77.25C102.031 77 102 76.75 102 76.5Z" fill="#FAB005"/>
<path d="M129.5 71.75V73H131.25V71.75C131.25 71.3438 131.594 71 132 71C132.406 71 132.75 71.3438 132.75 71.75V73H134.5V71.75C134.5 71.3438 134.844 71 135.25 71C135.656 71 136 71.3438 136 71.75V73C137.094 73 138 73.9062 138 75H139.25C139.656 75 140 75.3438 140 75.75C140 76.1562 139.656 76.5 139.25 76.5H138V78.25H139.25C139.656 78.25 140 78.5938 140 79C140 79.4062 139.656 79.75 139.25 79.75H138V81.5H139.25C139.656 81.5 140 81.8438 140 82.25C140 82.6562 139.656 83 139.25 83H138C138 84.0938 137.094 85 136 85V86.25C136 86.6562 135.656 87 135.25 87C134.844 87 134.5 86.6562 134.5 86.25V85H132.75V86.25C132.75 86.6562 132.406 87 132 87C131.594 87 131.25 86.6562 131.25 86.25V85H129.5V86.25C129.5 86.6562 129.156 87 128.75 87C128.344 87 128 86.6562 128 86.25V85C126.906 85 126 84.0938 126 83H124.75C124.344 83 124 82.6562 124 82.25C124 81.8438 124.344 81.5 124.75 81.5H126V79.75H124.75C124.344 79.75 124 79.4062 124 79C124 78.5938 124.344 78.25 124.75 78.25H126V76.5H124.75C124.344 76.5 124 76.1562 124 75.75C124 75.3438 124.344 75 124.75 75H126C126 73.9062 126.906 73 128 73V71.75C128 71.3438 128.344 71 128.75 71C129.156 71 129.5 71.3438 129.5 71.75ZM129 75C128.438 75 128 75.4375 128 76V82C128 82.5625 128.438 83 129 83H135C135.562 83 136 82.5625 136 82V76C136 75.4375 135.562 75 135 75H129ZM129.5 76.5H134.5V81.5H129.5V76.5Z" fill="#FAB005"/>
<path d="M159.844 73C158.844 73 157.875 73.5 157.281 74.3125L156.406 75.5312C156.312 75.6562 156.156 75.7188 156 75.7188C155.844 75.7188 155.688 75.6562 155.594 75.5312L154.719 74.3125C154.125 73.5 153.188 73 152.156 73C150.406 73 149 74.4062 149 76.1562C149 77.875 150.062 79.5 151.25 80.9375C152.562 82.5312 154.156 83.9375 155.25 84.7812C155.469 84.9062 155.719 85 156 85C156.281 85 156.531 84.9062 156.75 84.7812C157.844 83.9375 159.438 82.5312 160.75 80.9375C161.938 79.5 163 77.875 163 76.1562C163 74.4062 161.594 73 159.844 73ZM156.469 73.7188C157.25 72.6562 158.5 72 159.844 72C162.125 72 164 73.875 164 76.1562C164 78.2812 162.688 80.125 161.531 81.5625C160.156 83.25 158.5 84.6875 157.344 85.5625C156.969 85.8438 156.5 86 156 86C155.531 86 155.031 85.8438 154.656 85.5625C153.5 84.6875 151.844 83.25 150.469 81.5625C149.312 80.125 148 78.2812 148 76.1562C148 73.875 149.875 72 152.156 72C153.5 72 154.75 72.6562 155.531 73.7188L156 74.375L156.469 73.7188Z" fill="#FAB005"/>
<path d="M174 74C173.438 74 173 74.4375 173 75V83C173 83.5625 173.438 84 174 84H182C182.562 84 183 83.5625 183 83V75C183 74.4375 182.562 74 182 74H174ZM172 75C172 73.9062 172.906 73 174 73H182C183.094 73 184 73.9062 184 75V83C184 84.0938 183.094 85 182 85H174C172.906 85 172 84.0938 172 83V75ZM185.5 77.625V76.375L187.812 74.6562C187.938 74.5625 188.094 74.5 188.25 74.5C188.656 74.5 189 74.8438 189 75.25V82.75C189 83.1562 188.656 83.5 188.25 83.5C188.094 83.5 187.938 83.4375 187.812 83.3438L185.5 81.625V80.375L188 82.25V75.75L185.5 77.625Z" fill="#FAB005"/>
<path d="M211 79C211 75.125 207.875 72 204 72C200.125 72 197 75.125 197 79C197 82.875 200.125 86 204 86C207.875 86 211 82.875 211 79ZM196 79C196 74.5938 199.594 71 204 71C208.406 71 212 74.5938 212 79C212 83.4062 208.406 87 204 87C199.594 87 196 83.4062 196 79ZM204 83.5C205.688 83.5 207.125 82.4688 207.719 81H200.281C200.875 82.4688 202.312 83.5 204 83.5ZM199.844 80H208.156C208.594 80 208.938 80.375 208.812 80.8125C208.25 82.9375 206.312 84.5 204 84.5C201.688 84.5 199.75 82.9375 199.188 80.8125C199.062 80.375 199.406 80 199.844 80ZM200.75 77C200.75 76.5938 201.094 76.25 201.5 76.25C201.906 76.25 202.25 76.5938 202.25 77C202.25 77.4062 201.906 77.75 201.5 77.75C201.094 77.75 200.75 77.4062 200.75 77ZM206.5 76.25C206.906 76.25 207.25 76.5938 207.25 77C207.25 77.4062 206.906 77.75 206.5 77.75C206.094 77.75 205.75 77.4062 205.75 77C205.75 76.5938 206.094 76.25 206.5 76.25Z" fill="#FAB005"/>
<path d="M235.75 75.1562C235.625 75.4688 235.188 75.4375 235 75.1562C234.125 73.9062 232.906 72.9062 231.531 72.25C231.188 72.125 231.094 71.6875 231.375 71.5C231.844 71.1875 232.406 71 233.031 71C234.656 71 236 72.3438 236 73.9688C236 74.375 235.906 74.7812 235.75 75.1562ZM221.031 75.1562C220.812 75.4375 220.375 75.4688 220.25 75.1562C220.094 74.7812 220 74.375 220 73.9688C220 72.3438 221.344 71 222.969 71C223.594 71 224.156 71.1875 224.625 71.5C224.906 71.6875 224.812 72.125 224.469 72.25C223.094 72.9062 221.875 73.9062 221 75.1562H221.031ZM232.188 85.5938C231.031 86.4688 229.562 87 228 87C226.438 87 224.969 86.4688 223.812 85.5938L222.719 86.7188C222.312 87.0938 221.688 87.0938 221.281 86.7188C220.906 86.3125 220.906 85.6875 221.281 85.2812L222.406 84.1875C221.531 83.0312 221 81.5625 221 80C221 76.125 224.125 73 228 73C231.875 73 235 76.125 235 80C235 81.5625 234.469 83.0312 233.594 84.1875L234.719 85.2812C235.094 85.6875 235.094 86.3125 234.719 86.7188C234.312 87.0938 233.688 87.0938 233.281 86.7188L232.188 85.625V85.5938ZM228.75 76.75C228.75 76.3438 228.406 76 228 76C227.594 76 227.25 76.3438 227.25 76.75V80C227.25 80.1875 227.344 80.4062 227.469 80.5312L229.219 82.2812C229.5 82.5625 230 82.5625 230.281 82.2812C230.562 82 230.562 81.5 230.281 81.2188L228.75 79.6875V76.75Z" fill="#FAB005"/>
<path d="M12.7188 101.75H12.6875C12.8125 101.531 12.8125 101.281 12.625 101.125C12.4375 100.938 12.125 100.938 11.9375 101.125L6 107.031V105.312C6 103.188 6.84375 101.156 8.34375 99.6562L11.5938 96.4062C12.5 95.5 13.7188 95 15 95C16.2812 95 17.5 95.5 18.4062 96.4062L18.5625 96.5938C19.4688 97.5 20 98.7188 20 100C20 100.75 19.8125 101.469 19.5 102.156C19.4375 102.25 19.3125 102.344 19.1875 102.375L15.6875 103.438C15.5938 103.469 15.5 103.594 15.5 103.719C15.5 103.875 15.625 104 15.7812 104H16.7812C17.2188 104 17.4688 104.531 17.1562 104.844L16.4375 105.562C16.375 105.625 16.3125 105.656 16.2188 105.688L13.6875 106.438C13.5938 106.469 13.5 106.594 13.5 106.719C13.5 106.875 13.625 107 13.7812 107C14.1875 107 14.375 107.5 14.0312 107.719C12.75 108.562 11.25 109 9.6875 109H7.5625L5.78125 110.781C5.5 111.062 5 111.062 4.71875 110.781C4.4375 110.5 4.4375 110 4.71875 109.719L12.7188 101.75Z" fill="#FAB005"/>
<path d="M36 96C34.9062 96 34 96.9062 34 98V102C34 103.094 34.9062 104 36 104C37.0938 104 38 103.094 38 102V98C38 96.9062 37.0938 96 36 96ZM33 98C33 96.3438 34.3438 95 36 95C37.6562 95 39 96.3438 39 98V102C39 103.656 37.6562 105 36 105C34.3438 105 33 103.656 33 102V98ZM31 100.5V102C31 104.75 33.25 107 36 107C38.75 107 41 104.75 41 102V100.5C41 100.219 41.2188 100 41.5 100C41.7812 100 42 100.219 42 100.5V102C42 105.156 39.5938 107.719 36.5 107.969V110H38.5C38.7812 110 39 110.219 39 110.5C39 110.781 38.7812 111 38.5 111H33.5C33.2188 111 33 110.781 33 110.5C33 110.219 33.2188 110 33.5 110H35.5V107.969C32.4062 107.719 30 105.156 30 102V100.5C30 100.219 30.2188 100 30.5 100C30.7812 100 31 100.219 31 100.5Z" fill="#FAB005"/>
<path d="M60 96C56.125 96 53 99.125 53 103C53 106.875 56.125 110 60 110C63.875 110 67 106.875 67 103C67 99.125 63.875 96 60 96ZM60 111C55.5938 111 52 107.406 52 103C52 98.5938 55.5938 95 60 95C64.4062 95 68 98.5938 68 103C68 107.406 64.4062 111 60 111ZM62.9062 98.8438C63.6875 98.5938 64.4062 99.3125 64.1562 100.094L62.625 104.688C62.5 105.125 62.125 105.5 61.6875 105.625L57.0938 107.156C56.3125 107.406 55.5938 106.688 55.8438 105.906L57.375 101.312C57.5312 100.875 57.875 100.531 58.3125 100.375L62.9062 98.8438ZM63.2188 99.7812L58.625 101.312C58.4688 101.375 58.375 101.469 58.3125 101.625L56.7812 106.219L61.375 104.688C61.5312 104.625 61.625 104.531 61.6875 104.375L63.2188 99.7812ZM60 103.75C59.5938 103.75 59.25 103.406 59.25 103C59.25 102.594 59.5938 102.25 60 102.25C60.4062 102.25 60.75 102.594 60.75 103C60.75 103.406 60.4062 103.75 60 103.75Z" fill="#FAB005"/>
<path d="M78.3438 97.9375L77.5625 104H80.25C80.6562 104 81.0312 104.219 81.2812 104.562L81.9062 105.5H86.0938L86.7188 104.562C86.9688 104.219 87.3438 104 87.7812 104H90.4375L89.6562 97.9375C89.625 97.6875 89.4062 97.5 89.1562 97.5H78.8438C78.5938 97.5 78.375 97.6875 78.3438 97.9375ZM77.5 105.5V108C77.5 108.281 77.7188 108.5 78 108.5H90C90.2812 108.5 90.5 108.281 90.5 108V105.5H87.9062L87.2812 106.438C87.0312 106.781 86.6562 107 86.25 107H81.7812C81.3438 107 80.9688 106.781 80.7188 106.438L80.0938 105.5H77.5ZM78.8438 96H89.1562C90.1562 96 91 96.75 91.125 97.75L92 104.406V104.469V108C92 109.094 91.0938 110 90 110H78C76.9062 110 76 109.094 76 108V104.469V104.406L76.875 97.75C77 96.75 77.8438 96 78.8438 96Z" fill="#FAB005"/>
<path d="M105.25 97V99H110.75V97H105.25ZM104.25 97H103C102.438 97 102 97.4375 102 98V99H104.25V97ZM102 100V102.5H107.5V100H102ZM102 106H104.25V103.5H102V106ZM102 107V108C102 108.562 102.438 109 103 109H107.5V107H102ZM105.25 106H110.75V103.5H105.25V106ZM111.75 106H114V103.5H111.75V106ZM114 107H108.5V109H113C113.562 109 114 108.562 114 108V107ZM114 100H108.5V102.5H114V100ZM114 99V98C114 97.4375 113.562 97 113 97H111.75V99H114ZM101 98C101 96.9062 101.906 96 103 96H113C114.094 96 115 96.9062 115 98V108C115 109.094 114.094 110 113 110H103C101.906 110 101 109.094 101 108V98Z" fill="#FAB005"/>
<path d="M126.5 97C125.688 97 125 97.6875 125 98.5V101.5C125 101.781 124.781 102 124.5 102C124.219 102 124 101.781 124 101.5V98.5C124 97.125 125.125 96 126.5 96H138.156C138.625 96 139 96.375 139 96.8438C139 96.9375 138.969 97.0625 138.938 97.1562L137.562 100.688C139.062 101.781 140 103.531 140 105.5V105.75C140 107.5 138.938 108.844 138.25 109.531C137.938 109.844 137.5 110 137.062 110H128.938C128.5 110 128.062 109.844 127.75 109.531C127.094 108.875 126 107.5 126 105.75V105.5C126 103.531 126.969 101.781 128.438 100.688L127 97H126.5ZM137.938 97H128.062L129.438 100.5H136.562L137.938 97ZM127.031 105C127 105.156 127 105.344 127 105.5V105.75C127 107.094 127.844 108.219 128.469 108.844C128.562 108.938 128.719 109 128.938 109H137.062C137.312 109 137.469 108.938 137.531 108.844C138.156 108.219 139 107.094 139 105.75V105.5C139 105.344 139 105.156 138.969 105H127.031ZM127.219 104H138.781C138.469 103 137.844 102.125 137 101.5H129C128.188 102.125 127.562 103 127.219 104Z" fill="#FAB005"/>
<path d="M151.5 101V108C152.312 107.844 153.219 108.094 153.812 108.781L154 109L154.125 108.875C155.125 107.75 156.875 107.75 157.875 108.875L158 109L158.188 108.781C158.781 108.094 159.688 107.844 160.5 108V101C160.5 98.5312 158.5 96.5 156 96.5C153.531 96.5 151.5 98.5312 151.5 101ZM158 111C157.844 111 157.688 110.938 157.594 110.812L156.75 109.875C156.344 109.406 155.656 109.406 155.25 109.875L154.406 110.812C154.312 110.938 154.156 111 154 111C153.844 111 153.688 110.938 153.594 110.812L152.688 109.781C152.312 109.344 151.656 109.344 151.281 109.719L151.219 109.781C151.094 109.938 150.906 110 150.719 110C150.312 110 150 109.688 150 109.281V101C150 97.6875 152.688 95 156 95C159.312 95 162 97.6875 162 101V109.281C162 109.688 161.688 110 161.281 110C161.094 110 160.938 109.938 160.781 109.781L160.719 109.719C160.344 109.344 159.688 109.344 159.344 109.781L158.406 110.812C158.312 110.938 158.156 111 158 111ZM153 101C153 100.438 153.438 100 154 100C154.562 100 155 100.438 155 101C155 101.562 154.562 102 154 102C153.438 102 153 101.562 153 101ZM157 101C157 100.438 157.438 100 158 100C158.562 100 159 100.438 159 101C159 101.562 158.562 102 158 102C157.438 102 157 101.562 157 101Z" fill="#FAB005"/>
<path d="M179.062 95.1875L179.719 96.8125C179.812 97.0625 180.188 97.0625 180.281 96.8125L180.938 95.1875C180.969 95.0625 181.094 95 181.219 95H184.5C185.344 95 186 95.6875 186 96.5V103H174V96.5C174 95.6875 174.688 95 175.5 95H175.812C175.906 95 176.031 95.0625 176.062 95.1875L176.719 96.8125C176.812 97.0625 177.188 97.0625 177.281 96.8125L177.938 95.1875C177.969 95.0625 178.094 95 178.219 95H178.812C178.906 95 179.031 95.0625 179.062 95.1875ZM174 104.5H186V105C186 106.094 185.094 107 184 107H182V109C182 110.094 181.094 111 180 111C178.906 111 178 110.094 178 109V107H176C174.906 107 174 106.094 174 105V104.5ZM180 109.5C180.281 109.5 180.5 109.281 180.5 109C180.5 108.719 180.281 108.5 180 108.5C179.719 108.5 179.5 108.719 179.5 109C179.5 109.281 179.719 109.5 180 109.5Z" fill="#FAB005"/>
<path d="M209.281 98.6875C208.469 98.0938 207.375 98.0938 206.562 98.6875C205.75 99.25 204.906 99.75 204 99.75C203.094 99.75 202.219 99.25 201.438 98.6875C200.625 98.0938 199.531 98.0938 198.719 98.6875C198.438 98.2812 198.438 98.2812 198.719 98.6875C198.094 99.125 197.375 99.5312 196.594 99.6875C196.312 99.7188 196.062 99.5625 196 99.2812C195.938 99 196.125 98.75 196.406 98.6875C196.969 98.5938 197.562 98.2812 198.125 97.875C199.281 97.0312 200.844 97.0312 202 97.875C202.812 98.4375 203.438 98.75 204 98.75C204.562 98.75 205.188 98.4375 205.969 97.875C207.156 97.0312 208.719 97.0312 209.875 97.875C210.438 98.2812 211.031 98.5938 211.594 98.6875C211.875 98.75 212.031 99 212 99.2812C211.938 99.5625 211.688 99.7188 211.406 99.6875C210.625 99.5312 209.906 99.125 209.281 98.6875ZM209.281 103.188C208.469 102.594 207.375 102.594 206.562 103.188C205.75 103.75 204.906 104.25 204 104.25C203.094 104.25 202.219 103.75 201.438 103.188C200.625 102.594 199.531 102.594 198.719 103.188C198.094 103.625 197.375 104.031 196.594 104.188C196.312 104.219 196.062 104.062 196 103.781C195.938 103.5 196.125 103.25 196.406 103.188C196.969 103.094 197.562 102.781 198.125 102.375C199.281 101.531 200.844 101.531 202 102.375C202.812 102.938 203.438 103.25 204 103.25C204.562 103.25 205.188 102.938 205.969 102.375C207.156 101.531 208.719 101.531 209.875 102.375C210.438 102.781 211.031 103.094 211.594 103.188C211.875 103.25 212.031 103.5 212 103.781C211.938 104.062 211.688 104.219 211.406 104.188C210.625 104.031 209.906 103.625 209.281 103.188ZM206.562 107.688C205.75 108.25 204.906 108.75 204 108.75C203.094 108.75 202.219 108.25 201.438 107.688C200.625 107.094 199.531 107.094 198.719 107.688C198.094 108.125 197.375 108.531 196.594 108.688C196.312 108.719 196.062 108.562 196 108.281C195.938 108 196.125 107.75 196.406 107.688C196.969 107.594 197.562 107.281 198.125 106.875C199.281 106.031 200.844 106.031 202 106.875C202.812 107.438 203.438 107.75 204 107.75C204.562 107.75 205.188 107.438 205.969 106.875C207.156 106.031 208.719 106.031 209.875 106.875C210.438 107.281 211.031 107.594 211.594 107.688C211.875 107.75 212.031 108 212 108.281C211.938 108.562 211.688 108.719 211.406 108.688C210.625 108.531 209.906 108.125 209.281 107.688C208.469 107.094 207.375 107.094 206.562 107.688Z" fill="#FAB005"/>
<path d="M221 101V101.25C221 104.438 223.562 107 226.75 107C229.938 107 232.5 104.438 232.5 101.25V98.25C232.5 97 231.5 96 230.25 96C229 96 228 97 228 98.25V99C228 100.094 227.094 101 226 101H221ZM220 100.875C220 100.406 220.406 100 220.875 100H226C226.562 100 227 99.5625 227 99V98.25C227 96.4688 228.469 95 230.25 95C231.625 95 232.812 95.875 233.281 97.0938L235.75 98.5625C235.906 98.6562 236 98.8438 236 99C236 99.1875 235.906 99.3438 235.75 99.4375L233.5 100.781V101.25C233.5 104.031 231.844 106.406 229.438 107.438L230.938 110.281C231.062 110.5 230.969 110.812 230.75 110.938C230.5 111.062 230.188 110.969 230.062 110.75L228.5 107.781C227.938 107.938 227.344 108 226.75 108L227.938 110.281C228.062 110.5 227.969 110.812 227.75 110.938C227.5 111.062 227.188 110.969 227.062 110.75L225.562 107.906C222.406 107.344 220 104.562 220 101.25V100.875ZM234.531 99L233.5 98.375V99.625L234.531 99ZM230.25 99.5C229.844 99.5 229.5 99.1562 229.5 98.75C229.5 98.3438 229.844 98 230.25 98C230.656 98 231 98.3438 231 98.75C231 99.1562 230.656 99.5 230.25 99.5Z" fill="#FAB005"/>
<path d="M10.25 121.562C10.0938 121.875 9.71875 122.031 9.375 121.906C8.6875 121.719 7.9375 121.875 7.40625 122.406C6.875 122.938 6.71875 123.719 6.90625 124.375C7.03125 124.719 6.875 125.094 6.5625 125.25C5.9375 125.594 5.5 126.25 5.5 127C5.5 127.75 5.9375 128.406 6.5625 128.75C6.875 128.906 7.03125 129.281 6.90625 129.625C6.71875 130.312 6.875 131.062 7.40625 131.594C7.9375 132.125 8.71875 132.281 9.375 132.094C9.71875 131.969 10.0938 132.125 10.25 132.438C10.5938 133.062 11.25 133.5 12 133.5C12.75 133.5 13.4062 133.062 13.75 132.438C13.9062 132.125 14.2812 131.969 14.625 132.094C15.3125 132.281 16.0625 132.125 16.5938 131.594C17.125 131.062 17.2812 130.281 17.0938 129.625C16.9688 129.281 17.125 128.906 17.4375 128.75C18.0625 128.406 18.5 127.75 18.5 127C18.5 126.25 18.0625 125.594 17.4375 125.25C17.125 125.094 16.9688 124.719 17.0938 124.375C17.2812 123.688 17.125 122.938 16.5938 122.406C16.0625 121.875 15.3125 121.719 14.625 121.906C14.2812 122.031 13.9062 121.875 13.75 121.562C13.4062 120.938 12.75 120.5 12 120.5C11.25 120.5 10.5938 120.938 10.25 121.562ZM12 119C13.125 119 14.125 119.531 14.75 120.344C15.7812 120.219 16.875 120.562 17.6562 121.344C18.4375 122.125 18.7812 123.219 18.6562 124.25C19.4688 124.875 20 125.875 20 127C20 128.125 19.4688 129.125 18.6562 129.75C18.7812 130.781 18.4688 131.875 17.6562 132.656C16.875 133.438 15.7812 133.781 14.75 133.656C14.125 134.469 13.125 135 12 135C10.875 135 9.875 134.469 9.25 133.656C8.21875 133.781 7.125 133.469 6.34375 132.656C5.5625 131.875 5.21875 130.781 5.34375 129.75C4.53125 129.125 4 128.125 4 127C4 125.875 4.53125 124.875 5.34375 124.25C5.21875 123.219 5.5625 122.125 6.34375 121.344C7.125 120.562 8.21875 120.219 9.25 120.344C9.875 119.531 10.875 119 12 119ZM14.625 125.156L12.125 129.156C12 129.344 11.7812 129.5 11.5312 129.5C11.2812 129.5 11.0625 129.406 10.9062 129.188L9.40625 127.188C9.15625 126.875 9.21875 126.406 9.5625 126.156C9.875 125.906 10.3438 125.969 10.5938 126.312L11.4375 127.438L13.375 124.344C13.5938 124 14.0625 123.906 14.4062 124.125C14.75 124.344 14.8438 124.812 14.625 125.156Z" fill="#FAB005"/>
<path d="M35.5 120.219L30.0938 122.5C29.75 122.656 29.5 123 29.5 123.375C29.5312 126.281 30.7188 131.406 35.5 133.781V120.219ZM36.5 133.781C41.2812 131.406 42.5 126.281 42.5 123.375C42.5 123 42.2812 122.656 41.9062 122.5L36.5 120.219V133.781ZM36.7812 119.25L42.3125 121.594C43 121.875 43.5 122.562 43.5 123.375C43.5 126.469 42.2188 132.156 36.8125 134.719C36.3125 134.969 35.6875 134.969 35.1875 134.719C29.7812 132.156 28.5312 126.469 28.5 123.375C28.5 122.562 29 121.875 29.6875 121.594L35.2188 119.25C35.7188 119.031 36.2812 119.031 36.7812 119.25Z" fill="#FAB005"/>
<path d="M56 120C54.9062 120 54 120.906 54 122V123H66V122C66 120.906 65.0938 120 64 120H56ZM54 124V127H59.5V124H54ZM60.5 124V127H66V124H60.5ZM54 128V131C54 131.562 54.4375 132 55 132H65C65.5625 132 66 131.562 66 131V128H54ZM53 127V122C53 120.344 54.3438 119 56 119H64C65.6562 119 67 120.344 67 122V131C67 131.75 66.5938 132.375 66 132.719V134.5C66 134.781 65.7812 135 65.5 135C65.2188 135 65 134.781 65 134.5V133H55V134.5C55 134.781 54.7812 135 54.5 135C54.2188 135 54 134.781 54 134.5V132.719C53.4062 132.375 53 131.75 53 131V127ZM55.25 130C55.25 129.594 55.5938 129.25 56 129.25C56.4062 129.25 56.75 129.594 56.75 130C56.75 130.406 56.4062 130.75 56 130.75C55.5938 130.75 55.25 130.406 55.25 130ZM64 129.25C64.4062 129.25 64.75 129.594 64.75 130C64.75 130.406 64.4062 130.75 64 130.75C63.5938 130.75 63.25 130.406 63.25 130C63.25 129.594 63.5938 129.25 64 129.25ZM58.5 121H61.5C61.7812 121 62 121.219 62 121.5C62 121.781 61.7812 122 61.5 122H58.5C58.2188 122 58 121.781 58 121.5C58 121.219 58.2188 121 58.5 121Z" fill="#FAB005"/>
<path d="M85 120C85 119.438 85.4375 119 86 119H87.25C88.7812 119 90 120.219 90 121.75C90 123.281 88.7812 124.5 87.25 124.5H77C76.4375 124.5 76 124.062 76 123.5C76 122.938 76.4375 122.5 77 122.5H87.25C87.6562 122.5 88 122.156 88 121.75C88 121.344 87.6562 121 87.25 121H86C85.4375 121 85 120.562 85 120ZM87 131C87 130.438 87.4375 130 88 130H89C89.5625 130 90 129.562 90 129C90 128.438 89.5625 128 89 128H77C76.4375 128 76 127.562 76 127C76 126.438 76.4375 126 77 126H89C90.6562 126 92 127.344 92 129C92 130.656 90.6562 132 89 132H88C87.4375 132 87 131.562 87 131ZM80 135C79.4375 135 79 134.562 79 134C79 133.438 79.4375 133 80 133H81.25C81.6562 133 82 132.656 82 132.25C82 131.844 81.6562 131.5 81.25 131.5H77C76.4375 131.5 76 131.062 76 130.5C76 129.938 76.4375 129.5 77 129.5H81.25C82.7812 129.5 84 130.719 84 132.25C84 133.781 82.7812 135 81.25 135H80Z" fill="#FAB005"/>
<path d="M105.531 121.906C105.688 120.812 106.656 120 107.75 120C109.125 120 110.156 121.219 109.969 122.562L109.469 126.094C109.312 127.188 108.344 128 107.25 128C105.875 128 104.844 126.812 105.031 125.469L105.531 121.906ZM107.75 121C107.156 121 106.625 121.438 106.531 122.062L106.031 125.594C105.938 126.344 106.5 127 107.25 127C107.875 127 108.375 126.562 108.469 125.938L108.969 122.406C109.094 121.656 108.5 121 107.75 121ZM104.062 120.094C104.188 120.219 104.281 120.375 104.25 120.562L103 128.562C102.938 128.844 102.688 129.031 102.438 129C102.156 128.969 101.969 128.719 102 128.438L103.125 121.312L101.688 121.969C101.438 122.062 101.156 121.969 101.031 121.719C100.938 121.438 101.062 121.156 101.312 121.031L103.562 120.031C103.719 119.969 103.906 120 104.062 120.094ZM113.312 120C114.625 120 115.688 121.156 115.531 122.5L115.188 125.531C115.031 126.656 114.094 127.5 112.938 127.5C111.625 127.5 110.562 126.344 110.719 125L111.062 121.969C111.219 120.844 112.156 120 113.312 120ZM112.062 122.094L111.719 125.125C111.625 125.844 112.219 126.5 112.938 126.5C113.594 126.5 114.125 126.031 114.188 125.406L114.531 122.375C114.625 121.656 114.031 121 113.312 121C112.688 121 112.156 121.469 112.062 122.094ZM116 129.438C116.031 129.719 115.844 129.969 115.562 130L100.562 132C100.281 132.031 100.031 131.844 100 131.562C99.9688 131.312 100.156 131.031 100.438 131L115.438 129C115.719 128.969 115.969 129.156 116 129.438ZM114.562 133L106.562 134C106.281 134.031 106.031 133.844 106 133.562C105.969 133.281 106.156 133.031 106.438 133L114.438 132C114.719 131.969 114.969 132.156 115 132.438C115.031 132.719 114.844 132.969 114.562 133Z" fill="#FAB005"/>
<path d="M137.406 120.25L130.406 121.812C130.156 121.875 130 122.062 130 122.312V124.625L138 122.844V120.75C138 120.438 137.719 120.188 137.406 120.25ZM138 127.625V123.875L130 125.656V131.5C130 132.875 128.656 134 127 134C125.344 134 124 132.875 124 131.5C124 130.125 125.344 129 127 129C127.781 129 128.469 129.25 129 129.656V122.312C129 121.594 129.5 121 130.188 120.844L137.188 119.281C138.125 119.062 139 119.781 139 120.75V129.5C139 130.875 137.656 132 136 132C134.344 132 133 130.875 133 129.5C133 128.125 134.344 127 136 127C136.781 127 137.469 127.25 138 127.625ZM138 129.5C138 128.688 137.094 128 136 128C134.906 128 134 128.688 134 129.5C134 130.344 134.906 131 136 131C137.094 131 138 130.344 138 129.5ZM129 131.5C129 130.688 128.094 130 127 130C125.906 130 125 130.688 125 131.5C125 132.344 125.906 133 127 133C128.094 133 129 132.344 129 131.5Z" fill="#FAB005"/>
<path d="M157.938 132.125C158.531 130.938 158.938 129.281 159 127.5H153C153.062 129.281 153.5 130.938 154.094 132.125C154.781 133.531 155.531 134 156 134C156.5 134 157.219 133.531 157.938 132.125ZM159 126.5C158.938 124.719 158.531 123.094 157.938 121.875C157.219 120.469 156.5 120 156 120C155.531 120 154.781 120.469 154.094 121.875C153.5 123.094 153.062 124.719 153 126.5H159ZM160 127.5C159.906 129.969 159.188 132.281 158.156 133.656C160.812 132.812 162.781 130.406 162.969 127.5H160ZM162.969 126.5C162.781 123.625 160.812 121.219 158.156 120.344C159.188 121.719 159.906 124.031 160 126.5H162.969ZM152 126.5C152.094 124.031 152.812 121.719 153.844 120.344C151.188 121.219 149.219 123.625 149.031 126.5H152ZM149.031 127.5C149.219 130.406 151.188 132.812 153.844 133.656C152.812 132.281 152.094 129.969 152 127.5H149.031ZM156 135C151.594 135 148 131.406 148 127C148 122.594 151.594 119 156 119C160.406 119 164 122.594 164 127C164 131.406 160.406 135 156 135Z" fill="#FAB005"/>
<path d="M178 132.5H182V121.5H178V132.5ZM176.5 121.5H175C174.719 121.5 174.5 121.719 174.5 122V123H176.5V121.5ZM176.5 124.5H174.5V126.25H176.5V124.5ZM176.5 127.75H174.5V129.5H176.5V127.75ZM176.5 131H174.5V132C174.5 132.281 174.719 132.5 175 132.5H176.5V131ZM183.5 121.5V123H185.5V122C185.5 121.719 185.281 121.5 185 121.5H183.5ZM185.5 124.5H183.5V126.25H185.5V124.5ZM185.5 127.75H183.5V129.5H185.5V127.75ZM185.5 131H183.5V132.5H185C185.281 132.5 185.5 132.281 185.5 132V131ZM175 120H185C186.094 120 187 120.906 187 122V132C187 133.094 186.094 134 185 134H175C173.906 134 173 133.094 173 132V122C173 120.906 173.906 120 175 120Z" fill="#FAB005"/>
<path d="M200 119.5C200 119.219 200.219 119 200.5 119H207.5C207.781 119 208 119.219 208 119.5C208 119.781 207.781 120 207.5 120H207V125.875L208.938 129.25L210.781 132.469C210.938 132.75 211 133.031 211 133.312C211 134.25 210.25 135 209.312 135H198.688C197.75 135 197 134.25 197 133.312C197 133.031 197.062 132.75 197.219 132.469L199.062 129.25L201 125.875V120H200.5C200.219 120 200 119.781 200 119.5ZM199.781 130L198.094 132.969C198.031 133.094 198 133.188 198 133.312C198 133.688 198.312 134 198.688 134H209.312C209.688 134 210 133.688 210 133.312C210 133.188 209.969 133.094 209.906 132.969L208.219 130H199.781ZM207.625 129L206.062 126.25C206.031 126.188 206 126.094 206 126V120H202V126C202 126.094 201.969 126.188 201.938 126.25L200.375 129H207.656H207.625Z" fill="#FAB005"/>
<path d="M236 119.844V131.875C236 132.062 235.875 132.25 235.719 132.344L231.5 134.25C231.156 134.406 230.781 134.406 230.406 134.281L224.969 132.469L220.719 134.625C220.562 134.688 220.375 134.688 220.25 134.594C220.094 134.5 220 134.344 220 134.156V122.125C220 121.938 220.125 121.75 220.281 121.656L224.5 119.75C224.844 119.594 225.219 119.594 225.594 119.719L231.031 121.531L235.281 119.375C235.438 119.312 235.625 119.312 235.75 119.406C235.906 119.5 236 119.656 236 119.844ZM231.5 122.406V133.156L235 131.562V120.656L231.5 122.406ZM230.5 122.406L225.5 120.75V131.594L230.5 133.281V122.406ZM224.5 131.594V120.844L221 122.438V133.344L224.5 131.594Z" fill="#FAB005"/>
<rect x="40" y="40" width="160" height="54" rx="16" fill="#183153"/>
<rect x="40" y="40" width="160" height="54" rx="16" stroke="#FFD43B" stroke-width="8"/>
<path d="M69.6051 74.288C64.8531 74.288 61.1811 70.688 61.1811 66.08C61.1811 61.472 64.8771 57.872 69.6291 57.872C72.0531 57.872 74.3331 58.904 75.7491 60.608C76.0851 60.992 76.2531 61.376 76.2531 61.808C76.2531 62.6 75.5811 63.272 74.7411 63.272C74.2851 63.272 73.8531 63.056 73.4931 62.648C72.4611 61.448 71.1651 60.872 69.6291 60.872C66.6531 60.872 64.5171 63.056 64.5171 66.104C64.5171 69.128 66.6531 71.288 69.6291 71.288C71.1411 71.288 72.4131 70.712 73.4691 69.512C73.8531 69.104 74.2611 68.888 74.7411 68.888C75.5811 68.888 76.2291 69.56 76.2291 70.352C76.2291 70.736 76.0851 71.12 75.7251 71.552C74.3331 73.256 72.0531 74.288 69.6051 74.288ZM84.8385 74C83.8785 74 83.1825 73.304 83.1825 72.344V59.528C83.1825 58.664 83.8545 57.872 84.8145 57.872C85.7505 57.872 86.4225 58.592 86.4225 59.528V71.072H92.0625C92.9265 71.072 93.5505 71.72 93.5505 72.536C93.5505 73.376 92.9265 74 92.0625 74H84.8385ZM112.665 71.864C112.809 72.2 112.857 72.488 112.857 72.728C112.857 73.592 112.185 74.288 111.273 74.288C110.577 74.288 110.049 73.88 109.737 73.136L109.065 71.504H102.369L101.697 73.136C101.409 73.88 100.881 74.288 100.185 74.288C99.273 74.288 98.577 73.592 98.577 72.728C98.577 72.488 98.649 72.2 98.769 71.864L104.193 58.976C104.481 58.256 105.009 57.872 105.729 57.872C106.449 57.872 106.977 58.256 107.265 58.976L112.665 71.864ZM105.729 62.648L103.425 68.84H107.985L105.729 62.648ZM124.238 74.288C122.366 74.288 120.302 73.448 119.126 72.152C118.742 71.768 118.526 71.36 118.526 70.904C118.55 70.04 119.246 69.464 120.014 69.464C120.302 69.464 120.614 69.56 120.854 69.776C121.502 70.448 122.63 71.408 124.238 71.408C125.654 71.408 126.494 70.736 126.494 69.656C126.494 68.744 125.942 68.36 124.478 67.688L122.774 66.92C120.254 65.768 118.934 64.4 118.934 62.36C118.934 59.696 121.19 57.872 124.19 57.872C126.566 57.872 127.958 58.976 128.63 59.744C128.966 60.104 129.062 60.464 129.062 60.776C129.062 61.592 128.318 62.216 127.574 62.216C127.286 62.216 126.974 62.12 126.686 61.88C126.038 61.304 125.318 60.752 124.19 60.752C123.038 60.752 122.222 61.304 122.222 62.288C122.222 63.08 122.654 63.464 124.07 64.112L125.87 64.904C128.51 66.08 129.782 67.376 129.782 69.536C129.782 72.464 127.406 74.288 124.238 74.288ZM141.367 74.288C139.495 74.288 137.431 73.448 136.255 72.152C135.871 71.768 135.655 71.36 135.655 70.904C135.679 70.04 136.375 69.464 137.143 69.464C137.431 69.464 137.743 69.56 137.983 69.776C138.631 70.448 139.759 71.408 141.367 71.408C142.783 71.408 143.623 70.736 143.623 69.656C143.623 68.744 143.071 68.36 141.607 67.688L139.903 66.92C137.383 65.768 136.063 64.4 136.063 62.36C136.063 59.696 138.319 57.872 141.319 57.872C143.695 57.872 145.087 58.976 145.759 59.744C146.095 60.104 146.191 60.464 146.191 60.776C146.191 61.592 145.447 62.216 144.703 62.216C144.415 62.216 144.103 62.12 143.815 61.88C143.167 61.304 142.447 60.752 141.319 60.752C140.167 60.752 139.351 61.304 139.351 62.288C139.351 63.08 139.783 63.464 141.199 64.112L142.999 64.904C145.639 66.08 146.911 67.376 146.911 69.536C146.911 72.464 144.535 74.288 141.367 74.288ZM155.206 74.288C154.246 74.288 153.574 73.568 153.574 72.632V59.528C153.574 58.592 154.246 57.872 155.206 57.872C156.142 57.872 156.814 58.592 156.814 59.528V72.632C156.814 73.568 156.142 74.288 155.206 74.288ZM171.794 74.288C167.042 74.288 163.37 70.688 163.37 66.08C163.37 61.472 167.066 57.872 171.818 57.872C174.242 57.872 176.522 58.904 177.938 60.608C178.274 60.992 178.442 61.376 178.442 61.808C178.442 62.6 177.77 63.272 176.93 63.272C176.474 63.272 176.042 63.056 175.682 62.648C174.65 61.448 173.354 60.872 171.818 60.872C168.842 60.872 166.706 63.056 166.706 66.104C166.706 69.128 168.842 71.288 171.818 71.288C173.33 71.288 174.602 70.712 175.658 69.512C176.042 69.104 176.45 68.888 176.93 68.888C177.77 68.888 178.418 69.56 178.418 70.352C178.418 70.736 178.274 71.12 177.914 71.552C176.522 73.256 174.242 74.288 171.794 74.288Z" fill="white"/>
</g>
</g>
<defs>
<clipPath id="clip0_165_65966">
<rect width="240" height="135" fill="white"/>
</clipPath>
<clipPath id="clip1_165_65966">
<rect width="720" height="135" fill="white" transform="translate(-240)"/>
</clipPath>
</defs>
</svg>
