<svg width="240" height="135" viewBox="0 0 240 135" fill="none" xmlns="http://www.w3.org/2000/svg">
<g clip-path="url(#clip0_169_11755)">
<g clip-path="url(#clip1_169_11755)">
<rect width="720" height="135" transform="translate(-240)" fill="#74C0FC"/>
<path d="M14.7188 3.25L16.9062 7C16.125 7.75 15.1875 8.34375 14.125 8.6875L12 5L7.09375 13.5C6.9375 13.75 6.71875 13.9375 6.46875 14.0938L4.71875 14.9375C4.5625 15.0312 4.375 15.0312 4.25 14.9375C4.09375 14.8438 4 14.6875 4 14.5V12.7812C4 12.5 4.0625 12.25 4.21875 12.0312L9.28125 3.25C9.09375 2.875 9 2.4375 9 2C9 0.34375 10.3438 -1 12 -1C13.6562 -1 15 0.34375 15 2C15 2.4375 14.9062 2.875 14.7188 3.25ZM11 2C11 2.5625 11.4375 3 12 3C12.5625 3 13 2.5625 13 2C13 1.4375 12.5625 1 12 1C11.4375 1 11 1.4375 11 2ZM15.1562 10.4375C16.1875 10.0625 17.125 9.5 17.9375 8.78125L19.8125 12.0312C19.9375 12.25 20 12.5 20 12.7812V14.5C20 14.6875 19.9062 14.8438 19.75 14.9375C19.625 15.0312 19.4375 15.0312 19.2812 14.9375L17.5312 14.0938C17.2812 13.9375 17.0625 13.75 16.9062 13.5L15.1562 10.4375Z" fill="#146EBE"/>
<path opacity="0.4" d="M4.96875 7.625C4.625 7.1875 4.6875 6.5625 5.125 6.21875C5.5625 5.875 6.1875 5.9375 6.53125 6.375C6.71875 6.59375 6.90625 6.8125 7.09375 7L6.09375 8.78125C5.6875 8.4375 5.3125 8.03125 4.96875 7.625ZM8.84375 10.4375L9.875 8.6875C10.5625 8.875 11.25 9 12 9C12.75 9 13.4688 8.875 14.125 8.6875C15.1875 8.34375 16.125 7.75 16.9062 7C17.0938 6.8125 17.2812 6.59375 17.4688 6.375C17.8125 5.9375 18.4375 5.875 18.875 6.21875C19.3125 6.5625 19.375 7.1875 19.0312 7.625C18.6875 8.03125 18.3438 8.4375 17.9375 8.78125C16.2812 10.2188 14.1875 11 12 11C10.9062 11 9.84375 10.8125 8.875 10.4375H8.84375Z" fill="#146EBE"/>
<path d="M40 5.5C40 2.46875 37.5312 0 34.5 0C31.4688 0 29 2.46875 29 5.5C29 8.53125 31.4688 11 34.5 11C37.5312 11 40 8.53125 40 5.5ZM38.7188 10.4375C37.5938 11.4062 36.125 12 34.5 12C30.9062 12 28 9.09375 28 5.5C28 1.90625 30.9062 -1 34.5 -1C38.0938 -1 41 1.90625 41 5.5C41 7.125 40.4062 8.59375 39.4375 9.71875L43.8438 14.1562C44.0625 14.3438 44.0625 14.6562 43.8438 14.8438C43.6562 15.0625 43.3438 15.0625 43.1562 14.8438L38.7188 10.4375Z" fill="#146EBE"/>
<path opacity="0.4" d="M29 5.5C29 2.46875 31.4688 0 34.5 0C37.5312 0 40 2.46875 40 5.5C40 8.53125 37.5312 11 34.5 11C31.4688 11 29 8.53125 29 5.5Z" fill="#146EBE"/>
<path d="M57.75 3H63.25C63.6562 3 64 3.34375 64 3.75C64 4.15625 63.6562 4.5 63.25 4.5H57.75C57.3438 4.5 57 4.15625 57 3.75C57 3.34375 57.3438 3 57.75 3ZM57.75 6H63.25C63.6562 6 64 6.34375 64 6.75C64 7.15625 63.6562 7.5 63.25 7.5H57.75C57.3438 7.5 57 7.15625 57 6.75C57 6.34375 57.3438 6 57.75 6Z" fill="#146EBE"/>
<path opacity="0.4" d="M53 2C53 0.34375 54.3438 -1 56 -1H65.5C66.3438 -1 67 -0.3125 67 0.5V9.5C67 10.1562 66.5938 10.7188 66 10.9062V13C66.5625 13 67 13.4375 67 14C67 14.5625 66.5625 15 66 15H56C54.3438 15 53 13.6562 53 12V2ZM55 12C55 12.5625 55.4375 13 56 13H64V11H56C55.4375 11 55 11.4375 55 12ZM57 3.75C57 4.15625 57.3438 4.5 57.75 4.5H63.25C63.6562 4.5 64 4.15625 64 3.75C64 3.34375 63.6562 3 63.25 3H57.75C57.3438 3 57 3.34375 57 3.75ZM57 6.75C57 7.15625 57.3438 7.5 57.75 7.5H63.25C63.6562 7.5 64 7.15625 64 6.75C64 6.34375 63.6562 6 63.25 6H57.75C57.3438 6 57 6.34375 57 6.75Z" fill="#146EBE"/>
<path d="M77 7C77 7.46875 77.0625 7.90625 77.125 8.34375C77.1875 8.375 77.25 8.40625 77.3438 8.4375C78.4688 8.84375 80.4375 9.53125 84 9.53125C87.5625 9.53125 89.5312 8.84375 90.6562 8.4375C90.75 8.40625 90.8125 8.375 90.875 8.34375C90.9688 7.90625 91 7.46875 91 7C91 3.125 87.875 0 84 0C80.125 0 77 3.125 77 7ZM84 10.5312V10.5625C80.7188 10.5625 78.6875 9.96875 77.4688 9.53125C78.5 12.1562 81.0312 14 84 14C86.9688 14 89.5 12.1562 90.5312 9.53125C89.3125 9.96875 87.2812 10.5312 84 10.5312ZM84 -1C88.4062 -1 92 2.59375 92 7C92 11.4062 88.4062 15 84 15C79.5938 15 76 11.4062 76 7C76 2.59375 79.5938 -1 84 -1ZM80.25 4C80.25 4.96875 81.0312 5.75 82 5.75C82.9688 5.75 83.75 4.96875 83.75 4C83.75 3.03125 82.9688 2.25 82 2.25C81.0312 2.25 80.25 3.03125 80.25 4ZM84.75 4C84.75 5.53125 83.5312 6.75 82 6.75C80.4688 6.75 79.25 5.53125 79.25 4C79.25 2.46875 80.4688 1.25 82 1.25C83.5312 1.25 84.75 2.46875 84.75 4ZM82 4.75C81.5938 4.75 81.25 4.40625 81.25 4C81.25 3.59375 81.5938 3.25 82 3.25C82.4062 3.25 82.75 3.59375 82.75 4C82.75 4.40625 82.4062 4.75 82 4.75Z" fill="#146EBE"/>
<path opacity="0.4" d="M77 7C77 3.125 80.125 0 84 0C87.875 0 91 3.125 91 7C91 7.46875 90.9688 7.90625 90.875 8.34375C90.8125 8.375 90.75 8.40625 90.6562 8.4375C89.5312 8.84375 87.5625 9.53125 84 9.53125C80.4375 9.53125 78.4688 8.84375 77.3438 8.4375C77.25 8.40625 77.1875 8.375 77.125 8.34375C77.0625 7.90625 77 7.46875 77 7ZM77.4688 9.53125C78.6875 9.96875 80.7188 10.5625 84 10.5625C87.2812 10.5625 89.3125 9.96875 90.5312 9.53125C89.5 12.1562 86.9688 14 84 14C81.0312 14 78.5 12.1562 77.4688 9.53125ZM79.25 4C79.25 5.53125 80.4688 6.75 82 6.75C83.5312 6.75 84.75 5.53125 84.75 4C84.75 2.46875 83.5312 1.25 82 1.25C80.4688 1.25 79.25 2.46875 79.25 4Z" fill="#146EBE"/>
<path d="M110.156 6.375L110.125 6.34375L112.875 10.8438C113.031 11.0938 113.031 11.375 112.906 11.625C112.781 11.8438 112.531 12 112.25 12H103.75C103.469 12 103.219 11.8438 103.094 11.5938C102.969 11.3438 102.969 11.0625 103.125 10.8125L104.875 8.3125C105.031 8.125 105.25 8 105.5 8C105.75 8 105.969 8.125 106.125 8.3125L106.938 9.5L108.875 6.375C109 6.125 109.25 6 109.5 6C109.75 6 110 6.125 110.156 6.375Z" fill="#146EBE"/>
<path opacity="0.4" d="M101 2C101 0.90625 101.906 0 103 0H113C114.094 0 115 0.90625 115 2V12C115 13.0938 114.094 14 113 14H103C101.906 14 101 13.0938 101 12V2ZM103.094 11.5938C103.219 11.8438 103.469 12 103.75 12H112.25C112.531 12 112.781 11.875 112.906 11.625C113.031 11.375 113.031 11.0938 112.906 10.875L110.156 6.375C110 6.15625 109.75 6 109.5 6C109.25 6 109 6.15625 108.875 6.375L106.938 9.5L106.125 8.3125C105.969 8.125 105.75 8 105.5 8C105.25 8 105.031 8.125 104.875 8.3125L103.125 10.8125C102.969 11.0625 102.969 11.3438 103.094 11.5938ZM106.5 4C106.5 3.15625 105.844 2.5 105 2.5C104.156 2.5 103.5 3.15625 103.5 4C103.5 4.84375 104.156 5.5 105 5.5C105.844 5.5 106.5 4.84375 106.5 4Z" fill="#146EBE"/>
<path d="M127.875 7.5L125.156 13.8438L139.125 7.5H127.875ZM139.125 6.5L125.156 0.1875L127.875 6.5H139.125ZM124.062 0.15625C124.031 0.0625 124 -0.0625 124 -0.15625C124 -0.625 124.375 -1 124.812 -1C124.938 -1 125.062 -0.96875 125.156 -0.9375L140.312 5.9375C140.75 6.125 141 6.53125 141 7C141 7.46875 140.75 7.875 140.312 8.0625L125.156 14.9375C125.062 14.9688 124.938 15 124.812 15C124.375 15 124 14.625 124 14.1875C124 14.0625 124.031 13.9375 124.062 13.8438L127 7L124.062 0.15625Z" fill="#146EBE"/>
<path opacity="0.4" d="M125.156 0.1875L139.125 6.5H127.875L125.156 0.1875ZM125.156 13.8438L127.875 7.5H139.125L125.156 13.8438Z" fill="#146EBE"/>
<path d="M154.062 13.5H157.938C157.719 14.375 156.938 15 156 15C155.062 15 154.281 14.375 154.062 13.5Z" fill="#146EBE"/>
<path opacity="0.4" d="M149 10.9062C149 10.625 149.094 10.4062 149.25 10.1875L149.562 9.8125C150.5 8.65625 151 7.1875 151 5.6875V5C151 2.59375 152.719 0.5625 155 0.09375V0C155 -0.5625 155.438 -1 156 -1C156.562 -1 157 -0.5625 157 0V0.09375C159.281 0.5625 161 2.59375 161 5V5.6875C161 7.1875 161.5 8.65625 162.438 9.8125L162.75 10.1875C162.906 10.4062 163 10.625 163 10.9062C163 11.5 162.5 12 161.875 12H150.125C149.5 12 149 11.5 149 10.9062Z" fill="#146EBE"/>
<path d="M181.656 0.84375L180.562 3H183C183.844 3 184.5 2.34375 184.5 1.5C184.5 0.6875 183.812 0 183 0C182.438 0 181.906 0.3125 181.656 0.84375ZM177 4H173.5C173.219 4 173 4.21875 173 4.5V5.5C173 5.78125 173.219 6 173.5 6H186.5C186.781 6 187 5.78125 187 5.5V4.5C187 4.21875 186.781 4 186.5 4H177ZM173.5 3H175C174.688 2.59375 174.5 2.0625 174.5 1.5C174.5 0.125 175.625 -1 177 -1C177.969 -1 178.844 -0.46875 179.25 0.375L180 1.875L180.75 0.375C181.188 -0.46875 182.031 -1 183 -1C184.375 -1 185.5 0.125 185.5 1.5C185.5 2.0625 185.312 2.59375 185 3H186.5C187.344 3 188 3.6875 188 4.5V5.5C188 6.15625 187.594 6.71875 187 6.90625V12C187 13.0938 186.094 14 185 14H175C173.906 14 173 13.0938 173 12V6.90625C172.406 6.71875 172 6.15625 172 5.5V4.5C172 3.6875 172.688 3 173.5 3ZM179.438 3L178.375 0.84375C178.094 0.3125 177.594 0 177 0C176.188 0 175.5 0.6875 175.5 1.5C175.5 2.34375 176.188 3 177 3H179.438ZM174 12C174 12.5625 174.438 13 175 13H179.5V7H174V12ZM180.5 13H185C185.562 13 186 12.5625 186 12V7H180.5V13Z" fill="#146EBE"/>
<path opacity="0.4" d="M173 4.5C173 4.21875 173.219 4 173.5 4H186.5C186.781 4 187 4.21875 187 4.5V5.5C187 5.78125 186.781 6 186.5 6H173.5C173.219 6 173 5.78125 173 5.5V4.5ZM174 7H179.5V13H175C174.438 13 174 12.5625 174 12V7ZM180.5 7H186V12C186 12.5625 185.562 13 185 13H180.5V7Z" fill="#146EBE"/>
<path d="M200.656 1.03125C200.875 0.40625 201.438 0 202.094 0H205.906C206.562 0 207.125 0.40625 207.344 1.03125L207.656 2H210C211.094 2 212 2.90625 212 4V12C212 13.0938 211.094 14 210 14H198C196.906 14 196 13.0938 196 12V4C196 2.90625 196.906 2 198 2H200.344L200.656 1.03125ZM204 5C202.344 5 201 6.34375 201 8C201 9.65625 202.344 11 204 11C205.656 11 207 9.65625 207 8C207 6.34375 205.656 5 204 5Z" fill="#146EBE"/>
<path opacity="0.4" d="M201 8C201 6.34375 202.344 5 204 5C205.656 5 207 6.34375 207 8C207 9.65625 205.656 11 204 11C202.344 11 201 9.65625 201 8Z" fill="#146EBE"/>
<path d="M234 -1.25C234.281 -1.25 234.5 -1.03125 234.5 -0.75V0.5H235.75C236.031 0.5 236.25 0.71875 236.25 1C236.25 1.28125 236.031 1.5 235.75 1.5H234.5V2.75C234.5 3.03125 234.281 3.25 234 3.25C233.719 3.25 233.5 3.03125 233.5 2.75V1.5H232.25C231.969 1.5 231.75 1.28125 231.75 1C231.75 0.71875 231.969 0.5 232.25 0.5H233.5V-0.75C233.5 -1.03125 233.719 -1.25 234 -1.25ZM230.188 1.96875L231.25 3.03125L231.656 2.65625C231.844 2.46875 232.156 2.46875 232.344 2.65625C232.562 2.84375 232.562 3.15625 232.344 3.34375L231.969 3.75L233 4.78125C233.406 5.1875 233.406 5.8125 233 6.21875L232.688 6.53125C232.906 7.15625 233 7.8125 233 8.5C233 12.0938 230.094 15 226.5 15C222.906 15 220 12.0938 220 8.5C220 4.90625 222.906 2 226.5 2C227.156 2 227.812 2.09375 228.438 2.28125L228.812 1.9375C229.156 2.3125 229.156 2.3125 228.812 1.9375C229.219 1.59375 229.812 1.59375 230.188 1.96875ZM228.875 3.21875C228.75 3.34375 228.531 3.375 228.375 3.3125C227.781 3.125 227.156 3 226.5 3C223.469 3 221 5.46875 221 8.5C221 11.5312 223.469 14 226.5 14C229.531 14 232 11.5312 232 8.5C232 7.8125 231.875 7.15625 231.656 6.5625C231.594 6.375 231.625 6.1875 231.75 6.03125L232.281 5.5L229.469 2.6875L228.875 3.21875ZM223.5 8.5C223.5 8.78125 223.281 9 223 9C222.719 9 222.5 8.78125 222.5 8.5C222.5 6.28125 224.281 4.5 226.5 4.5C226.781 4.5 227 4.71875 227 5C227 5.28125 226.781 5.5 226.5 5.5C224.844 5.5 223.5 6.84375 223.5 8.5Z" fill="#146EBE"/>
<path opacity="0.4" d="M221 8.5C221 5.46875 223.469 3 226.5 3C227.156 3 227.781 3.125 228.375 3.3125C228.531 3.375 228.75 3.34375 228.875 3.21875L229.469 2.6875L232.281 5.5L231.75 6.03125C231.625 6.15625 231.594 6.375 231.656 6.5625C231.875 7.15625 232 7.8125 232 8.5C232 11.5312 229.531 14 226.5 14C223.469 14 221 11.5312 221 8.5ZM222.5 8.5C222.5 8.78125 222.719 9 223 9C223.281 9 223.5 8.78125 223.5 8.5C223.5 6.84375 224.844 5.5 226.5 5.5C226.781 5.5 227 5.28125 227 5C227 4.71875 226.781 4.5 226.5 4.5C224.281 4.5 222.5 6.28125 222.5 8.5Z" fill="#146EBE"/>
<path d="M6 30V31.75C6.53125 31.2812 7.21875 31 8 31H8.5C9.34375 31 10 31.6875 10 32.5V36.5C10 37.3438 9.34375 38 8.5 38H8C6.34375 38 5 36.6562 5 35V30C5 26.125 8.125 23 12 23C15.875 23 19 26.125 19 30V35C19 36.6562 17.6562 38 16 38H15.5C14.6875 38 14 37.3438 14 36.5V32.5C14 31.6875 14.6875 31 15.5 31H16C16.7812 31 17.4688 31.2812 18 31.75V30C18 26.6875 15.3125 24 12 24C8.6875 24 6 26.6875 6 30ZM6 34V35C6 36.0938 6.90625 37 8 37H8.5C8.78125 37 9 36.7812 9 36.5V32.5C9 32.2188 8.78125 32 8.5 32H8C6.90625 32 6 32.9062 6 34ZM18 34C18 32.9062 17.0938 32 16 32H15.5C15.2188 32 15 32.2188 15 32.5V36.5C15 36.7812 15.2188 37 15.5 37H16C17.0938 37 18 36.0938 18 35V34Z" fill="#146EBE"/>
<path opacity="0.4" d="M6 34C6 32.9062 6.90625 32 8 32H8.5C8.78125 32 9 32.2188 9 32.5V36.5C9 36.7812 8.78125 37 8.5 37H8C6.90625 37 6 36.0938 6 35C6 34.6562 6 34.3438 6 34ZM15.0312 32.3125C15.125 32.125 15.2812 32 15.5 32H16C17.0938 32 18 32.9062 18 34V35C18 36.0938 17.0938 37 16 37H15.5C15.2812 37 15.125 36.875 15.0312 36.6875V36.6562V32.3438V32.3125Z" fill="#146EBE"/>
<path d="M36.6875 23.7812L43.6875 30.2812C44.0938 30.6562 44.0938 31.2812 43.7188 31.6875C43.3438 32.0938 42.7188 32.0938 42.3125 31.7188L36 25.875L29.6875 31.75C29.2812 32.125 28.6562 32.0938 28.2812 31.6875C27.9062 31.2812 27.9062 30.6562 28.3125 30.2812L35.3125 23.7812C35.7188 23.4062 36.3125 23.4062 36.6875 23.7812ZM35.5 33.5H36.5C37.3438 33.5 38 34.1875 38 35V39H34V35C34 34.1875 34.6875 33.5 35.5 33.5Z" fill="#146EBE"/>
<path opacity="0.4" d="M29.5 31.875C29.5625 31.8438 29.625 31.7812 29.6875 31.7188L36 25.875L42.3125 31.7188C42.375 31.7812 42.4375 31.8438 42.5 31.875V37C42.5 38.0938 41.5938 39 40.5 39H38V35C38 34.1875 37.3438 33.5 36.5 33.5H35.5C34.6875 33.5 34 34.1875 34 35V39H31.5C30.4062 39 29.5 38.0938 29.5 37V31.875Z" fill="#146EBE"/>
<path d="M67 31C67 27.125 63.875 24 60 24C56.125 24 53 27.125 53 31C53 34.875 56.125 38 60 38C63.875 38 67 34.875 67 31ZM52 31C52 26.5938 55.5938 23 60 23C64.4062 23 68 26.5938 68 31C68 35.4062 64.4062 39 60 39C55.5938 39 52 35.4062 52 31ZM56.9688 33.0938C57.6875 33.9688 58.7812 34.5 60 34.5C61.2188 34.5 62.3125 33.9688 63.0312 33.0938C63.2188 32.875 63.5312 32.875 63.75 33.0312C63.9688 33.2188 63.9688 33.5312 63.8125 33.75C62.875 34.8125 61.5312 35.5 60 35.5C58.4688 35.5 57.125 34.8125 56.1875 33.75C56.0312 33.5312 56.0312 33.2188 56.25 33.0312C56.4688 32.875 56.7812 32.875 56.9688 33.0938ZM56.75 29.5C56.75 29.0938 57.0938 28.75 57.5 28.75C57.9062 28.75 58.25 29.0938 58.25 29.5C58.25 29.9062 57.9062 30.25 57.5 30.25C57.0938 30.25 56.75 29.9062 56.75 29.5ZM62.5 28.75C62.9062 28.75 63.25 29.0938 63.25 29.5C63.25 29.9062 62.9062 30.25 62.5 30.25C62.0938 30.25 61.75 29.9062 61.75 29.5C61.75 29.0938 62.0938 28.75 62.5 28.75Z" fill="#146EBE"/>
<path opacity="0.4" d="M53 31C53 27.125 56.125 24 60 24C63.875 24 67 27.125 67 31C67 34.875 63.875 38 60 38C56.125 38 53 34.875 53 31ZM56.1875 33.75C57.125 34.8125 58.4688 35.5 60 35.5C61.5312 35.5 62.875 34.8125 63.8125 33.75C63.9688 33.5312 63.9688 33.2188 63.75 33.0312C63.5312 32.875 63.2188 32.875 63.0312 33.0938C62.3125 33.9688 61.2188 34.5 60 34.5C58.7812 34.5 57.6875 33.9688 56.9688 33.0938C56.7812 32.875 56.4688 32.875 56.25 33.0312C56.0312 33.2188 56.0312 33.5312 56.1875 33.75ZM58.25 29.5C58.25 29.0938 57.9062 28.75 57.5 28.75C57.0938 28.75 56.75 29.0938 56.75 29.5C56.75 29.9062 57.0938 30.25 57.5 30.25C57.9062 30.25 58.25 29.9062 58.25 29.5ZM63.25 29.5C63.25 29.0938 62.9062 28.75 62.5 28.75C62.0938 28.75 61.75 29.0938 61.75 29.5C61.75 29.9062 62.0938 30.25 62.5 30.25C62.9062 30.25 63.25 29.9062 63.25 29.5Z" fill="#146EBE"/>
<path d="M85 23C85.4688 23 85.9375 23.1875 86.2812 23.5312L89.4688 26.7188C89.8125 27.0625 90 27.5312 90 28H86C85.4375 28 85 27.5625 85 27V23Z" fill="#146EBE"/>
<path opacity="0.4" d="M78 25C78 23.9062 78.9062 23 80 23H85V27C85 27.5625 85.4375 28 86 28H90V37C90 38.0938 89.0938 39 88 39H80C78.9062 39 78 38.0938 78 37V25Z" fill="#146EBE"/>
<path d="M115 31.0625C115 31.0625 115 31.0312 115 31C115 27.125 111.875 24 108 24C104.125 24 101 27.125 101 31C101 34.875 104.125 38 108 38C108.094 38 108.188 38 108.281 38C108.625 38 109 37.6562 109 37.0625C109 36.9062 108.938 36.6875 108.781 36.3125C108.75 36.2812 108.75 36.2188 108.719 36.1875C108.594 35.875 108.406 35.4375 108.312 35.0312C108.281 34.8438 108.25 34.6875 108.25 34.5C108.25 33.125 109.375 32 110.75 32H113.812C114.562 32 115 31.5 115 31.0625ZM116 31.0938C116 32.2188 114.969 33 113.812 33H110.75C109.938 33 109.25 33.6875 109.25 34.5C109.25 34.5938 109.25 34.7188 109.281 34.8125C109.344 35.125 109.5 35.4375 109.625 35.75C109.812 36.1875 110 36.5938 110 37.0625C110 38.0625 109.312 38.9688 108.344 39C108.219 39 108.125 39 108 39C103.594 39 100 35.4062 100 31C100 26.5938 103.594 23 108 23C112.406 23 116 26.5938 116 31C116 31.0312 116 31.0625 116 31.0938ZM104.75 31C104.75 31.4062 104.406 31.75 104 31.75C103.594 31.75 103.25 31.4062 103.25 31C103.25 30.5938 103.594 30.25 104 30.25C104.406 30.25 104.75 30.5938 104.75 31ZM105 28.75C104.594 28.75 104.25 28.4062 104.25 28C104.25 27.5938 104.594 27.25 105 27.25C105.406 27.25 105.75 27.5938 105.75 28C105.75 28.4062 105.406 28.75 105 28.75ZM108.75 27C108.75 27.4062 108.406 27.75 108 27.75C107.594 27.75 107.25 27.4062 107.25 27C107.25 26.5938 107.594 26.25 108 26.25C108.406 26.25 108.75 26.5938 108.75 27ZM111 28.75C110.594 28.75 110.25 28.4062 110.25 28C110.25 27.5938 110.594 27.25 111 27.25C111.406 27.25 111.75 27.5938 111.75 28C111.75 28.4062 111.406 28.75 111 28.75Z" fill="#146EBE"/>
<path opacity="0.4" d="M101 31C101 27.125 104.125 24 108 24C111.875 24 115 27.125 115 31C115 31.0312 115 31.0312 115 31.0625C115 31.5 114.562 32 113.812 32H110.75C109.375 32 108.25 33.125 108.25 34.5C108.25 34.6875 108.281 34.8438 108.312 35.0312C108.406 35.4375 108.594 35.875 108.719 36.1875C108.75 36.2188 108.781 36.2812 108.781 36.3125C108.938 36.6875 109 36.9062 109 37.0625C109 37.6562 108.625 37.9688 108.281 38C108.188 38 108.094 38 108 38C104.125 38 101 34.875 101 31ZM104.75 31C104.75 30.5938 104.406 30.25 104 30.25C103.594 30.25 103.25 30.5938 103.25 31C103.25 31.4062 103.594 31.75 104 31.75C104.406 31.75 104.75 31.4062 104.75 31ZM105.75 28C105.75 27.5938 105.406 27.25 105 27.25C104.594 27.25 104.25 27.5938 104.25 28C104.25 28.4062 104.594 28.75 105 28.75C105.406 28.75 105.75 28.4062 105.75 28ZM108.75 27C108.75 26.5938 108.406 26.25 108 26.25C107.594 26.25 107.25 26.5938 107.25 27C107.25 27.4062 107.594 27.75 108 27.75C108.406 27.75 108.75 27.4062 108.75 27ZM111.75 28C111.75 27.5938 111.406 27.25 111 27.25C110.594 27.25 110.25 27.5938 110.25 28C110.25 28.4062 110.594 28.75 111 28.75C111.406 28.75 111.75 28.4062 111.75 28Z" fill="#146EBE"/>
<path d="M136.781 23C138.562 23 140 24.4375 140 26.2188C140 27.0938 139.656 27.9062 139.062 28.5L133.812 33.75L129.25 29.1875L132.875 25.5625L132.469 25.1562C132.188 24.875 131.719 24.875 131.406 25.1562L128.281 28.2812C128 28.5625 127.5 28.5625 127.219 28.2812C126.938 28 126.938 27.5 127.219 27.2188L130.344 24.0938C131.219 23.2188 132.656 23.2188 133.531 24.0938L133.938 24.5L134.5 23.9375C135.094 23.3438 135.906 23 136.781 23Z" fill="#146EBE"/>
<path opacity="0.4" d="M124 38.125L124.219 36.9688C124.594 34.8125 125.656 32.8125 127.188 31.25C127.875 30.5625 128.562 29.875 129.25 29.1875L133.812 33.75L131.75 35.8125C130.188 37.375 128.188 38.4062 126.031 38.7812L124.875 39C124.625 39.0312 124.406 38.9688 124.219 38.7812C124.062 38.5938 123.969 38.375 124 38.125Z" fill="#146EBE"/>
<path d="M150.5 25C150.219 25 150 25.2188 150 25.5V28.5C150 28.7812 150.219 29 150.5 29H153.5C153.781 29 154 28.7812 154 28.5V25.5C154 25.2188 153.781 25 153.5 25H150.5ZM149 25.5C149 24.6875 149.688 24 150.5 24H153.5C154.344 24 155 24.6875 155 25.5V28.5C155 29.3438 154.344 30 153.5 30H150.5C149.688 30 149 29.3438 149 28.5V25.5ZM150.5 33C150.219 33 150 33.2188 150 33.5V36.5C150 36.7812 150.219 37 150.5 37H153.5C153.781 37 154 36.7812 154 36.5V33.5C154 33.2188 153.781 33 153.5 33H150.5ZM149 33.5C149 32.6875 149.688 32 150.5 32H153.5C154.344 32 155 32.6875 155 33.5V36.5C155 37.3438 154.344 38 153.5 38H150.5C149.688 38 149 37.3438 149 36.5V33.5ZM161.5 25H158.5C158.219 25 158 25.2188 158 25.5V28.5C158 28.7812 158.219 29 158.5 29H161.5C161.781 29 162 28.7812 162 28.5V25.5C162 25.2188 161.781 25 161.5 25ZM158.5 24H161.5C162.344 24 163 24.6875 163 25.5V28.5C163 29.3438 162.344 30 161.5 30H158.5C157.688 30 157 29.3438 157 28.5V25.5C157 24.6875 157.688 24 158.5 24ZM158.5 33C158.219 33 158 33.2188 158 33.5V36.5C158 36.7812 158.219 37 158.5 37H161.5C161.781 37 162 36.7812 162 36.5V33.5C162 33.2188 161.781 33 161.5 33H158.5ZM157 33.5C157 32.6875 157.688 32 158.5 32H161.5C162.344 32 163 32.6875 163 33.5V36.5C163 37.3438 162.344 38 161.5 38H158.5C157.688 38 157 37.3438 157 36.5V33.5Z" fill="#146EBE"/>
<path opacity="0.4" d="M150 25.5C150 25.2188 150.219 25 150.5 25H153.5C153.781 25 154 25.2188 154 25.5V28.5C154 28.7812 153.781 29 153.5 29H150.5C150.219 29 150 28.7812 150 28.5V25.5ZM150 33.5C150 33.2188 150.219 33 150.5 33H153.5C153.781 33 154 33.2188 154 33.5V36.5C154 36.7812 153.781 37 153.5 37H150.5C150.219 37 150 36.7812 150 36.5V33.5ZM158 25.5C158 25.2188 158.219 25 158.5 25H161.5C161.781 25 162 25.2188 162 25.5V28.5C162 28.7812 161.781 29 161.5 29H158.5C158.219 29 158 28.7812 158 28.5V25.5ZM158 33.5C158 33.2188 158.219 33 158.5 33H161.5C161.781 33 162 33.2188 162 33.5V36.5C162 36.7812 161.781 37 161.5 37H158.5C158.219 37 158 36.7812 158 36.5V33.5Z" fill="#146EBE"/>
<path d="M177 25H178C178.562 25 179 25.4375 179 26C179 26.5625 178.562 27 178 27H177C174.781 27 173 28.7812 173 31C173 33.2188 174.781 35 177 35H178C178.562 35 179 35.4375 179 36C179 36.5625 178.562 37 178 37H177C173.688 37 171 34.3125 171 31C171 27.6875 173.688 25 177 25ZM183 25C186.312 25 189 27.6875 189 31C189 34.3125 186.312 37 183 37H182C181.438 37 181 36.5625 181 36C181 35.4375 181.438 35 182 35H183C185.219 35 187 33.2188 187 31C187 28.7812 185.219 27 183 27H182C181.438 27 181 26.5625 181 26C181 25.4375 181.438 25 182 25H183Z" fill="#146EBE"/>
<path opacity="0.4" d="M176 31C176 30.4375 176.438 30 177 30H183C183.562 30 184 30.4375 184 31C184 31.5625 183.562 32 183 32H177C176.438 32 176 31.5625 176 31Z" fill="#146EBE"/>
<path d="M207.781 24.4062L205.719 26.5L208.5 29.2812L210.594 27.2188C210.969 26.8125 210.969 26.1875 210.594 25.7812L209.219 24.4062C208.812 24.0312 208.188 24.0312 207.781 24.4062ZM204.75 26.0625L207.094 23.7188C207.875 22.9375 209.125 22.9375 209.906 23.7188L211.281 25.0938C212.062 25.875 212.062 27.125 211.281 27.9062L208.938 30.25L207.781 34.5625C207.562 35.4062 206.906 36.0625 206.094 36.3125L197.5 38.875C197.094 39 196.688 38.875 196.406 38.5938C196.125 38.3125 196 37.9062 196.125 37.5312L198.719 28.9062C198.938 28.0938 199.594 27.4688 200.438 27.2188L204.75 26.0625ZM204.844 27.0625L200.719 28.1875C200.219 28.3438 199.812 28.7188 199.656 29.2188L197.344 36.9688L200.781 33.5312C200.594 33.2188 200.5 32.875 200.5 32.5C200.5 31.4062 201.406 30.5 202.5 30.5C203.594 30.5 204.5 31.4062 204.5 32.5C204.5 33.5938 203.594 34.5 202.5 34.5C202.125 34.5 201.781 34.4062 201.5 34.2188L198.031 37.6562L205.781 35.3438C206.281 35.1875 206.688 34.8125 206.812 34.3125L207.938 30.1562L204.844 27.0625ZM202.5 31.5C201.938 31.5 201.5 31.9375 201.5 32.5C201.5 33.0625 201.938 33.5 202.5 33.5C203.062 33.5 203.5 33.0625 203.5 32.5C203.5 31.9375 203.062 31.5 202.5 31.5Z" fill="#146EBE"/>
<path opacity="0.4" d="M197.344 36.9688L199.656 29.2188C199.812 28.7188 200.188 28.3438 200.688 28.1875L204.844 27.0625L207.938 30.1562L206.812 34.3125C206.688 34.8125 206.281 35.1875 205.781 35.3438L198.031 37.6562L201.5 34.2188C201.781 34.4062 202.125 34.5 202.5 34.5C203.594 34.5 204.5 33.5938 204.5 32.5C204.5 31.4062 203.594 30.5 202.5 30.5C201.406 30.5 200.5 31.4062 200.5 32.5C200.5 32.875 200.594 33.2188 200.781 33.5312L197.344 36.9688Z" fill="#146EBE"/>
<path opacity="0.4" d="M236 30.5C236 34.6562 232.406 38 228 38C226.844 38 225.75 37.7812 224.75 37.3438L221.062 38.9375C220.75 39.0625 220.406 39 220.188 38.75C219.969 38.5312 219.938 38.1875 220.094 37.9062L221.625 35.0312C220.594 33.75 220 32.1875 220 30.5C220 26.375 223.594 23 228 23C232.406 23 236 26.375 236 30.5Z" fill="#146EBE"/>
<path d="M4.71875 48.75C5.3125 47.6875 6.4375 47 7.71875 47H9.40625C9.625 47 9.71875 47.2812 9.5625 47.4375L8.4375 48.5625C8.28125 48.7188 8.375 49 8.59375 49H9.75C9.875 49 10 49.125 10 49.25C9.875 50.25 9.03125 51 8 51H5.5V52.0312C5.5 52.3438 5.65625 52.5938 5.9375 52.7188L8.15625 53.75C8.8125 53.2812 9.625 53 10.5 53H13.5C14.375 53 15.1875 53.2812 15.8438 53.75L18.0625 52.7188C18.3125 52.5938 18.5 52.3438 18.5 52.0312V51H16C14.9688 51 14.125 50.25 14 49.25C13.9688 49.125 14.0938 49 14.25 49H15.125C15.3438 49 15.4688 48.7188 15.3125 48.5625L14.0312 47.3125C14 47.2812 14 47.2188 14 47.1875C14 47.0938 14.0625 47 14.1562 47H16.25C17.5625 47 18.6875 47.6875 19.2812 48.75C19.7188 49.375 20 50.1562 20 51V52.0312C20 52.9062 19.4688 53.7188 18.6875 54.0938L16.9062 54.9062C17.2812 55.5 17.5 56.2188 17.5 57V57.5L14 61H10L6.5 57.5V57C6.5 56.2188 6.71875 55.5312 7.09375 54.9062L5.3125 54.0938C4.5 53.7188 4 52.9062 4 52.0312V51C4 50.1562 4.25 49.375 4.71875 48.75Z" fill="#146EBE"/>
<path opacity="0.4" d="M4.0625 55.2812C4.1875 55.0312 4.46875 54.9375 4.71875 55.0625L5.625 55.5H6.78125C6.65625 55.8125 6.5625 56.1562 6.53125 56.5H5.5C5.4375 56.5 5.34375 56.4688 5.28125 56.4375L4.28125 55.9375C4.03125 55.8125 3.9375 55.5312 4.0625 55.2812ZM4.65625 58.6562L5.65625 57.6562C5.71875 57.5938 5.78125 57.5625 5.84375 57.5312L6.5 57.3125V57.5L7.15625 58.1562L6.28125 58.4375L5.34375 59.3438C5.15625 59.5312 4.84375 59.5312 4.65625 59.3438C4.46875 59.1562 4.46875 58.8438 4.65625 58.6562ZM5.65625 60.6562L6.65625 59.6562C6.71875 59.5938 6.78125 59.5625 6.84375 59.5312L8.09375 59.0938L8.90625 59.9062L7.28125 60.4375L6.34375 61.3438C6.15625 61.5312 5.84375 61.5312 5.65625 61.3438C5.46875 61.1562 5.46875 60.8438 5.65625 60.6562ZM8 61.5C8 61.3125 8.09375 61.1562 8.25 61.0625L9.375 60.375L10 61H10.3125L9 61.7812V62.5C9 62.7812 8.78125 63 8.5 63C8.21875 63 8 62.7812 8 62.5V61.5ZM10 51.5C10 51.2188 10.2188 51 10.5 51C10.7812 51 11 51.2188 11 51.5V53H10.5C10.3438 53 10.1562 53 10 53.0312V51.5ZM13 51.5C13 51.2188 13.2188 51 13.5 51C13.7812 51 14 51.2188 14 51.5V53.0312C13.8438 53 13.6562 53 13.5 53H13V51.5ZM13.6875 61H14L14.625 60.375L15.75 61.0625C15.9062 61.1562 16 61.3125 16 61.5V62.5C16 62.7812 15.7812 63 15.5 63C15.2188 63 15 62.7812 15 62.5V61.7812L13.6875 61ZM15.0938 59.9062L15.9062 59.0938L17.1562 59.5312C17.2188 59.5625 17.3125 59.5938 17.3438 59.6562L18.3438 60.6562C18.5625 60.8438 18.5625 61.1562 18.3438 61.3438C18.1562 61.5625 17.8438 61.5625 17.6562 61.3438L16.7188 60.4375L15.0938 59.9062ZM16.8438 58.1562L17.5 57.5V57.3125L18.1562 57.5312C18.2188 57.5625 18.3125 57.5938 18.3438 57.6562L19.3438 58.6562C19.5625 58.8438 19.5625 59.1562 19.3438 59.3438C19.1562 59.5625 18.8438 59.5625 18.6562 59.3438L17.7188 58.4375L16.8438 58.1562ZM17.2188 55.5H18.375L19.2812 55.0625C19.5312 54.9375 19.8125 55.0312 19.9375 55.2812C20.0625 55.5312 19.9688 55.8125 19.7188 55.9375L18.7188 56.4375C18.6562 56.5 18.5625 56.5 18.5 56.5H17.4688C17.4375 56.1562 17.3438 55.8125 17.2188 55.5Z" fill="#146EBE"/>
<path d="M28 50.8438V50.75C28.0312 49.7812 28.8438 49 29.8438 49H42.1875C43.1562 49 43.9688 49.7812 44 50.75V59C44 60.0938 43.0938 61 42 61H30C28.9062 61 28 60.0938 28 59V50.8438ZM43 52.5L37.4688 56.5312C36.5938 57.1875 35.4062 57.1875 34.5312 56.5312L29 52.5V59C29 59.5625 29.4375 60 30 60H42C42.5625 60 43 59.5625 43 59V52.5ZM43 50.8438C43 50.375 42.625 50 42.1875 50H29.8438C29.375 50 29 50.375 29 50.8438C29 51.0938 29.125 51.3438 29.3438 51.5L35.125 55.7188C35.6562 56.125 36.375 56.125 36.875 55.7188L42.6562 51.5C42.875 51.3438 43 51.0938 43 50.8125V50.8438Z" fill="#146EBE"/>
<path opacity="0.4" d="M29 50.8438C29 50.375 29.375 50 29.8438 50H42.1875C42.625 50 43 50.375 43 50.8125C43 51.0938 42.875 51.3438 42.6562 51.5L36.875 55.7188C36.375 56.125 35.6562 56.125 35.125 55.7188L29.3438 51.5C29.125 51.3438 29 51.0938 29 50.8438ZM29 52.5L34.5312 56.5312C35.4062 57.1875 36.5938 57.1875 37.4688 56.5312L43 52.5V59C43 59.5625 42.5625 60 42 60H30C29.4375 60 29 59.5625 29 59V52.5Z" fill="#146EBE"/>
<path opacity="0.4" d="M55 48H61C63.2188 48 65 49.7812 65 52C65 52.9688 64.6562 53.875 64.0625 54.5625C65.2188 55.2812 66 56.5625 66 58C66 60.2188 64.2188 62 62 62H55C54.4375 62 54 61.5625 54 61C54 60.4375 54.4375 60 55 60H56V50H55C54.4375 50 54 49.5625 54 49C54 48.4375 54.4375 48 55 48ZM63 52C63 50.9062 62.0938 50 61 50H58V54H61C62.0938 54 63 53.0938 63 52ZM58 60H62C63.0938 60 64 59.0938 64 58C64 56.9062 63.0938 56 62 56H58V60Z" fill="#146EBE"/>
<path d="M91 53C92.0938 53 93 53.9062 93 55C93 56.0938 92.0938 57 91 57H87.7188L82.375 62.8438C82.2812 62.9375 82.1562 63 82 63H79.5C79.3438 63 79.1875 62.9375 79.0938 62.7812C79 62.6562 78.9688 62.5 79.0312 62.3438L80.8125 57H79L77.1562 59.3125C77.0625 59.4375 76.9062 59.5 76.75 59.5H75.25C75.0938 59.5 74.9375 59.4375 74.8438 59.3125C74.75 59.1875 74.7188 59.0312 74.7812 58.875L75.75 55L74.7812 51.125C74.7188 50.9688 74.75 50.8125 74.8438 50.6875C74.9375 50.5625 75.0938 50.5 75.25 50.5H76.75C76.9062 50.5 77.0625 50.5625 77.1562 50.6875L79 53H80.8125L79.0312 47.6562C78.9688 47.5 79 47.3438 79.0938 47.2188C79.1875 47.0938 79.3438 47 79.5 47H82C82.1562 47 82.2812 47.0625 82.375 47.1562L87.7188 53H91ZM92 55C92 54.4375 91.5625 54 91 54H78.75C78.5938 54 78.4688 53.9375 78.375 53.8125L76.5 51.5H75.9062L76.75 54.875C76.75 54.9688 76.75 55.0312 76.75 55.125L75.9062 58.5H76.5L78.375 56.1875C78.4688 56.0625 78.5938 56 78.75 56H91C91.5625 56 92 55.5625 92 55ZM86.375 57H81.875L80.1875 62H81.7812L86.375 57ZM81.7812 48H80.1875L81.875 53H86.375L81.7812 48Z" fill="#146EBE"/>
<path opacity="0.4" d="M75.9062 51.5H76.5L78.375 53.8125C78.4688 53.9375 78.5938 54 78.75 54H91C91.5625 54 92 54.4375 92 55C92 55.5625 91.5625 56 91 56H78.75C78.5938 56 78.4688 56.0625 78.375 56.1875L76.5 58.5H75.9062L76.75 55.125C76.75 55.0312 76.75 54.9688 76.75 54.875L75.9062 51.5ZM80.1875 48H81.7812L86.375 53H81.875L80.1875 48ZM80.1875 62L81.875 57H86.375L81.7812 62H80.1875Z" fill="#146EBE"/>
<path d="M108 56L105.781 57.4688C105.438 57.7188 105 57.4688 105 57.0625V47H111V57.0625C111 57.4688 110.562 57.7188 110.219 57.4688L108 56Z" fill="#146EBE"/>
<path opacity="0.4" d="M102 49C102 47.9062 102.906 47 104 47H105V57.0625C105 57.4688 105.438 57.7188 105.781 57.4688L108 56L110.219 57.4688C110.562 57.7188 111 57.4688 111 57.0625V47H112C113.094 47 114 47.9062 114 49V62C114 62.375 113.812 62.6875 113.5 62.875C113.188 63.0625 112.781 63.0312 112.5 62.8438L108 60.1562L103.5 62.8438C103.219 63.0312 102.812 63.0312 102.5 62.875C102.188 62.6875 102 62.375 102 62V49Z" fill="#146EBE"/>
<path d="M129.938 47.625C129.5 48.0938 128.906 48.75 128.344 49.5625C127.156 51.1875 126 53.4375 126 56C126 59.3125 128.688 62 132 62C135.312 62 138 59.3125 138 56C138 54.0625 137.219 52.3125 136.406 51C136 50.3125 135.531 49.625 135 49.0938C134.812 49.3125 134.625 49.5625 134.406 49.8125C134.375 49.875 134.344 49.9375 134.281 49.9688C134.094 50.25 133.781 50.4062 133.438 50.375C133.125 50.375 132.812 50.1875 132.625 49.9062C132.188 49.125 131.688 48.5 131.312 48C131.031 47.6875 130.781 47.375 130.5 47.0938C130.312 47.25 130.125 47.4375 129.938 47.625ZM130.531 46.0625C130.75 46.0625 130.969 46.1562 131.156 46.3438C131.469 46.6562 131.781 47.0312 132.062 47.375C132.5 47.9062 133 48.5625 133.5 49.375C133.531 49.3438 133.562 49.2812 133.594 49.25C133.812 48.9375 134.094 48.5938 134.375 48.2812C134.562 48.125 134.781 48 135 48C135.25 48 135.438 48.125 135.625 48.3125C136.281 48.9375 136.812 49.7812 137.25 50.4688C138.125 51.8438 139 53.8125 139 56C139 59.875 135.875 63 132 63C128.125 63 125 59.875 125 56C125 53.1562 126.281 50.6875 127.531 48.9688C128.125 48.0938 128.75 47.4062 129.219 46.9375C129.438 46.7188 129.656 46.5 129.875 46.2812C130.062 46.125 130.281 46.0625 130.531 46.0625ZM129 56.5938C129 57.5312 129.344 58.25 129.875 58.7188C130.406 59.2188 131.156 59.5 132.062 59.5C134.188 59.5 135.656 57.4062 134.688 55.4688L133.969 56.3125C133.562 56.8125 132.812 56.7812 132.438 56.2812C131.906 55.625 130.938 54.375 130.406 53.7188C129.844 54.2812 129 55.3438 129 56.5938ZM131.188 53.0625H131.156C131.688 53.7188 132.656 54.9688 133.219 55.6562L134 54.75C134.406 54.2812 135.188 54.2812 135.531 54.9062C137 57.625 134.875 60.5 132.062 60.5C130.969 60.5 129.938 60.1562 129.188 59.4688C128.438 58.7812 128 57.7812 128 56.5938C128 54.875 129.188 53.5312 129.75 52.9688C130.188 52.5625 130.844 52.6562 131.188 53.0625Z" fill="#146EBE"/>
<path opacity="0.4" d="M126 56C126 53.4375 127.156 51.1875 128.344 49.5625C128.906 48.75 129.5 48.0938 129.938 47.625C130.125 47.4375 130.312 47.25 130.5 47.0938C130.781 47.375 131.031 47.6875 131.312 48C131.688 48.5 132.188 49.125 132.625 49.9062C132.812 50.1875 133.125 50.375 133.438 50.375C133.781 50.4062 134.094 50.25 134.281 49.9688C134.344 49.9375 134.375 49.875 134.406 49.8125C134.625 49.5625 134.812 49.3125 135 49.0938C135.531 49.625 136 50.3125 136.406 51C137.219 52.3125 138 54.0625 138 56C138 59.3125 135.312 62 132 62C128.688 62 126 59.3125 126 56ZM128 56.5938C128 57.7812 128.438 58.7812 129.219 59.4688C129.938 60.1562 130.969 60.5 132.062 60.5C134.875 60.5 137 57.625 135.531 54.9062C135.188 54.2812 134.406 54.2812 134 54.75L133.219 55.6562C132.656 54.9688 131.688 53.7188 131.188 53.0625C130.844 52.6562 130.188 52.5625 129.75 52.9688C129.188 53.5312 128 54.875 128 56.5938Z" fill="#146EBE"/>
<path d="M156.75 50.75V56.1562C157.5 56.4375 158 57.1562 158 58C158 59.0938 157.094 60 156 60C154.906 60 154 59.0938 154 58C154 57.1562 154.531 56.4375 155.25 56.1562V50.75C155.25 50.3438 155.594 50 156 50C156.406 50 156.75 50.3438 156.75 50.75Z" fill="#146EBE"/>
<path opacity="0.4" d="M148 55C148 50.5938 151.594 47 156 47C160.406 47 164 50.5938 164 55C164 59.4062 160.406 63 156 63C151.594 63 148 59.4062 148 55ZM152 55C152 54.4375 151.562 54 151 54C150.438 54 150 54.4375 150 55C150 55.5625 150.438 56 151 56C151.562 56 152 55.5625 152 55ZM153.5 51.5C153.5 50.9375 153.062 50.5 152.5 50.5C151.938 50.5 151.5 50.9375 151.5 51.5C151.5 52.0625 151.938 52.5 152.5 52.5C153.062 52.5 153.5 52.0625 153.5 51.5ZM154 58C154 59.0938 154.906 60 156 60C157.094 60 158 59.0938 158 58C158 57.1562 157.5 56.4375 156.75 56.1562V50.75C156.75 50.3438 156.406 50 156 50C155.594 50 155.25 50.3438 155.25 50.75V56.1562C154.531 56.4375 154 57.1562 154 58ZM160.5 51.5C160.5 50.9375 160.062 50.5 159.5 50.5C158.938 50.5 158.5 50.9375 158.5 51.5C158.5 52.0625 158.938 52.5 159.5 52.5C160.062 52.5 160.5 52.0625 160.5 51.5ZM162 55C162 54.4375 161.562 54 161 54C160.438 54 160 54.4375 160 55C160 55.5625 160.438 56 161 56C161.562 56 162 55.5625 162 55Z" fill="#146EBE"/>
<path d="M178.5 48C178.219 48 178 48.2188 178 48.5V50H182V48.5C182 48.2188 181.781 48 181.5 48H178.5ZM177 48.5C177 47.6875 177.688 47 178.5 47H181.5C182.344 47 183 47.6875 183 48.5V50H186C187.094 50 188 50.9062 188 52V60C188 61.0938 187.094 62 186 62H174C172.906 62 172 61.0938 172 60V52C172 50.9062 172.906 50 174 50H177V48.5ZM177.5 51H176.5V61H183.5V51H177.5ZM175.5 51H174C173.438 51 173 51.4375 173 52V60C173 60.5625 173.438 61 174 61H175.5V51ZM184.5 61H186C186.562 61 187 60.5625 187 60V52C187 51.4375 186.562 51 186 51H184.5V61Z" fill="#146EBE"/>
<path opacity="0.4" d="M173 52C173 51.4375 173.438 51 174 51H175.5V61H174C173.438 61 173 60.5625 173 60V52ZM176.5 51H183.5V61H176.5V51ZM184.5 51H186C186.562 51 187 51.4375 187 52V60C187 60.5625 186.562 61 186 61H184.5V51Z" fill="#146EBE"/>
<path d="M199 60H196V55C196 54.1562 196.5 53.4375 197.25 53.1562L198.344 50C198.75 48.8125 199.906 48 201.156 48H206.844C208.094 48 209.25 48.8125 209.656 50L210.75 53.1562C211.5 53.4375 212 54.1562 212 55V60H199ZM201.156 50C200.75 50 200.375 50.2812 200.219 50.6562L199.406 53H208.594L207.781 50.6562C207.625 50.2812 207.25 50 206.844 50H201.156ZM199 57.5C199.562 57.5 200 57.0625 200 56.5C200 55.9375 199.562 55.5 199 55.5C198.438 55.5 198 55.9375 198 56.5C198 57.0625 198.438 57.5 199 57.5ZM210 56.5C210 55.9375 209.562 55.5 209 55.5C208.438 55.5 208 55.9375 208 56.5C208 57.0625 208.438 57.5 209 57.5C209.562 57.5 210 57.0625 210 56.5Z" fill="#146EBE"/>
<path opacity="0.4" d="M196 60H199V61C199 61.5625 198.562 62 198 62H197C196.438 62 196 61.5625 196 61V60ZM199.406 53L200.219 50.6562C200.375 50.2812 200.75 50 201.156 50H206.844C207.25 50 207.625 50.2812 207.781 50.6562L208.594 53H199.406ZM209 60H212V61C212 61.5625 211.562 62 211 62H210C209.438 62 209 61.5625 209 61V60Z" fill="#146EBE"/>
<path d="M236 49.5C236 49.7812 235.781 50 235.5 50H234V60H235.5C235.781 60 236 60.2188 236 60.5C236 60.7812 235.781 61 235.5 61H234V62.5C234 62.7812 233.781 63 233.5 63C233.219 63 233 62.7812 233 62.5V61H223V62.5C223 62.7812 222.781 63 222.5 63C222.219 63 222 62.7812 222 62.5V61H220.5C220.219 61 220 60.7812 220 60.5C220 60.2188 220.219 60 220.5 60H222V50H220.5C220.219 50 220 49.7812 220 49.5C220 49.2188 220.219 49 220.5 49H222V47.5C222 47.2188 222.219 47 222.5 47C222.781 47 223 47.2188 223 47.5V49H233V47.5C233 47.2188 233.219 47 233.5 47C233.781 47 234 47.2188 234 47.5V49H235.5C235.781 49 236 49.2188 236 49.5ZM233 50H223V60H233V50Z" fill="#146EBE"/>
<path opacity="0.4" d="M223 50H233V60H223V50Z" fill="#146EBE"/>
<path d="M12 72.5C12 72.2188 12.2188 72 12.5 72H15C15.25 72 15.4375 72.1562 15.5 72.4062L15.8125 73.875L17.6875 73.25C18.3438 73.0312 19 73.5 19 74.1875V76.3125C19 77 18.3438 77.4688 17.6875 77.25L16.4688 76.8438L16.5312 77.25C16.6875 77.9688 16.5312 78.7188 16.0938 79.2812L14.0625 81.9375C13.5625 82.5938 12.75 83 11.875 83H9.75C9.75 83.0938 9.75 83.1562 9.75 83.25C9.75 84.7812 8.53125 86 7 86C5.46875 86 4.25 84.7812 4.25 83.25C4.25 83.1562 4.25 83.0938 4.25 83H4C3.4375 83 3 82.5625 3 82V81C3 78.7812 4.78125 77 7 77H9C9.5625 77 10 77.4375 10 78V80.25C10 80.5 10.0625 80.7188 10.125 80.9375C10.4062 81.5625 11.0312 82 11.75 82H11.875C12.4375 82 12.9375 81.75 13.2812 81.3125L15.2812 78.6875C15.5625 78.3438 15.6562 77.875 15.5625 77.4375L14.5938 73H12.5C12.2188 73 12 72.7812 12 72.5ZM16.2188 75.7188L18 76.3125V74.1875L16.0312 74.8438L16.2188 75.7188ZM9.625 82C9.53125 81.875 9.4375 81.75 9.375 81.625C9.125 81.2188 9 80.75 9 80.25V78H7C5.34375 78 4 79.3438 4 81V82H9.625ZM5.5 75H9.5C9.78125 75 10 75.2188 10 75.5C10 75.7812 9.78125 76 9.5 76H5.5C5.21875 76 5 75.7812 5 75.5C5 75.2188 5.21875 75 5.5 75ZM5.25 83.25C5.25 84.2188 6.03125 85 7 85C7.96875 85 8.75 84.2188 8.75 83.25C8.75 83.1562 8.75 83.0938 8.71875 83H5.28125C5.25 83.0938 5.25 83.1562 5.25 83.25ZM19.75 83.25C19.75 82.2812 18.9688 81.5 18 81.5C17.0312 81.5 16.25 82.2812 16.25 83.25C16.25 84.2188 17.0312 85 18 85C18.9688 85 19.75 84.2188 19.75 83.25ZM15.25 83.25C15.25 81.7188 16.4688 80.5 18 80.5C19.5312 80.5 20.75 81.7188 20.75 83.25C20.75 84.7812 19.5312 86 18 86C16.4688 86 15.25 84.7812 15.25 83.25Z" fill="#146EBE"/>
<path opacity="0.4" d="M4 81C4 79.3438 5.34375 78 7 78H9V80.25C9 80.75 9.125 81.2188 9.375 81.625C9.4375 81.75 9.53125 81.875 9.625 82H4V81ZM16.0312 74.8438L18 74.1875V76.3125L16.2188 75.7188L16.0312 74.8438Z" fill="#146EBE"/>
<path d="M36 79.5C34.75 79.5 33.75 78.5 33.75 77.25C33.75 76 34.75 75 36 75C37.25 75 38.25 76 38.25 77.25C38.25 78.5 37.25 79.5 36 79.5ZM36 85C34.2188 85 32.625 84.2188 31.5312 83C32.2188 81.8125 33.5312 81 35 81H37C38.5 81 39.7812 81.8125 40.4688 83C39.375 84.2188 37.7812 85 36 85Z" fill="#146EBE"/>
<path opacity="0.4" d="M28 79C28 74.5938 31.5938 71 36 71C40.4062 71 44 74.5938 44 79C44 83.4062 40.4062 87 36 87C31.5938 87 28 83.4062 28 79ZM31.5312 83C32.625 84.2188 34.2188 85 36 85C37.7812 85 39.375 84.2188 40.4688 83C39.7812 81.8125 38.4688 81 37 81H35C33.5312 81 32.2188 81.8125 31.5312 83ZM38.25 77.25C38.25 76 37.25 75 36 75C34.75 75 33.75 76 33.75 77.25C33.75 78.5 34.75 79.5 36 79.5C37.25 79.5 38.25 78.5 38.25 77.25Z" fill="#146EBE"/>
<path d="M60.3125 72.0625C60.125 71.9688 59.875 71.9688 59.6875 72.0625L53.3438 75L59.6875 77.9375C59.875 78.0312 60.125 78.0312 60.3125 77.9375L66.6562 75L60.3125 72.0625ZM60.75 71.1562L67.5625 74.3125C67.8438 74.4375 68 74.7188 68 75C68 75.2812 67.8438 75.5625 67.5625 75.6875L60.75 78.8438C60.2812 79.0625 59.7188 79.0625 59.2812 78.8438L52.4375 75.6875C52.1562 75.5625 52 75.2812 52 75C52 74.7188 52.1562 74.4375 52.4375 74.3125L59.2812 71.1562C59.7188 70.9375 60.2812 70.9375 60.75 71.1562ZM53.5 77.8125L54.6875 78.375L53.3438 79L59.6875 81.9375C59.875 82.0312 60.125 82.0312 60.3125 81.9375L66.6562 79L65.3125 78.375L66.5 77.8125L67.5625 78.3125C67.8438 78.4375 68 78.7188 68 79C68 79.2812 67.8438 79.5625 67.5625 79.6875L60.75 82.8438C60.2812 83.0625 59.7188 83.0625 59.2812 82.8438L52.4375 79.6875C52.1562 79.5625 52 79.2812 52 79C52 78.7188 52.1562 78.4375 52.4375 78.3125L53.5 77.8125ZM52.4375 82.3125L53.5 81.8125L54.6875 82.375L53.3438 83L59.6875 85.9375C59.875 86.0312 60.125 86.0312 60.3125 85.9375L66.6562 83L65.3125 82.375L66.5 81.8125L67.5625 82.3125C67.8438 82.4375 68 82.7188 68 83C68 83.2812 67.8438 83.5625 67.5625 83.6875L60.75 86.8438C60.2812 87.0625 59.7188 87.0625 59.2812 86.8438L52.4375 83.6875C52.1562 83.5625 52 83.2812 52 83C52 82.7188 52.1562 82.4375 52.4375 82.3125Z" fill="#146EBE"/>
<path opacity="0.4" d="M53.3438 75L59.6875 72.0625C59.875 71.9688 60.125 71.9688 60.3125 72.0625L66.6562 75L60.3125 77.9375C60.125 78.0312 59.875 78.0312 59.6875 77.9375L53.3438 75ZM53.3438 79L54.6875 78.375C56 78.9688 57.3125 79.5938 58.625 80.1875C59.5 80.5938 60.5 80.5938 61.375 80.1875C62.6875 79.5938 64 78.9688 65.3125 78.375L66.6562 79L60.3125 81.9375C60.125 82.0312 59.875 82.0312 59.6875 81.9375L53.3438 79ZM53.3438 83L54.6875 82.375C56 82.9688 57.3125 83.5938 58.625 84.1875C59.5 84.5938 60.5 84.5938 61.375 84.1875C62.6875 83.5938 64 82.9688 65.3125 82.375L66.6562 83L60.3125 85.9375C60.125 86.0312 59.875 86.0312 59.6875 85.9375L53.3438 83Z" fill="#146EBE"/>
<path opacity="0.4" d="M78 85C76.9062 85 76 84.0938 76 83V74C76 72.9062 76.9062 72 78 72H82.3438C82.7812 72 83.1875 72.1562 83.5312 72.4062L84.75 73.3125C84.9062 73.4375 85.125 73.5 85.3438 73.5H90C91.0938 73.5 92 74.4062 92 75.5V83C92 84.0938 91.0938 85 90 85H78Z" fill="#146EBE"/>
<path d="M106.5 73C104.562 73 103 74.5625 103 76.5C103 76.8438 103.062 77.1562 103.125 77.4688C103.156 77.5938 103.156 77.7188 103.094 77.8438C103 77.9688 102.906 78.0625 102.75 78.0938C101.188 78.4062 100 79.8125 100 81.5C100 83.4375 101.562 85 103.5 85H113C114.656 85 116 83.6562 116 82C116 80.6875 115.156 79.5938 114 79.1562C113.875 79.125 113.75 79.0312 113.688 78.875C113.656 78.75 113.656 78.5938 113.719 78.4688C113.906 78.0938 114 77.6875 114 77.25C114 75.7188 112.781 74.5 111.25 74.5C110.812 74.5 110.438 74.5938 110.062 74.7812C109.844 74.875 109.562 74.8125 109.438 74.5938C108.812 73.625 107.719 73 106.5 73ZM102 76.5C102 74.0312 104.031 72 106.5 72C107.938 72 109.219 72.6562 110.031 73.7188C110.406 73.5625 110.812 73.5 111.25 73.5C113.312 73.5 115 75.1875 115 77.25C115 77.6562 114.938 78.0625 114.812 78.4375C116.125 79.0938 117 80.4375 117 82C117 84.2188 115.219 86 113 86H103.5C101.031 86 99 84 99 81.5C99 79.5312 100.281 77.8438 102.062 77.25C102.031 77 102 76.75 102 76.5Z" fill="#146EBE"/>
<path opacity="0.4" d="M100 81.5C100 79.8125 101.188 78.4062 102.75 78.0938C102.906 78.0625 103 77.9688 103.094 77.8438C103.156 77.7188 103.156 77.5938 103.125 77.4688C103.062 77.1562 103 76.8438 103 76.5C103 74.5625 104.562 73 106.5 73C107.719 73 108.812 73.625 109.438 74.5938C109.562 74.8125 109.844 74.875 110.062 74.7812C110.438 74.5938 110.812 74.5 111.25 74.5C112.781 74.5 114 75.7188 114 77.25C114 77.6875 113.906 78.0938 113.719 78.4688C113.656 78.5938 113.656 78.75 113.688 78.875C113.75 79.0312 113.875 79.125 114 79.1562C115.156 79.5938 116 80.6875 116 82C116 83.6562 114.656 85 113 85H103.5C101.562 85 100 83.4375 100 81.5Z" fill="#146EBE"/>
<path d="M128 73H136C137.094 73 138 73.9062 138 75V83C138 84.0938 137.094 85 136 85H128C126.906 85 126 84.0938 126 83V75C126 73.9062 126.906 73 128 73ZM129 75C128.438 75 128 75.4375 128 76V82C128 82.5625 128.438 83 129 83H135C135.562 83 136 82.5625 136 82V76C136 75.4375 135.562 75 135 75H129Z" fill="#146EBE"/>
<path opacity="0.4" d="M124 75.75C124 75.3438 124.344 75 124.75 75H126V76.5H124.75C124.344 76.5 124 76.1562 124 75.75ZM124 79C124 78.5938 124.344 78.25 124.75 78.25H126V79.75H124.75C124.344 79.75 124 79.4062 124 79ZM124 82.25C124 81.8438 124.344 81.5 124.75 81.5H126V83H124.75C124.344 83 124 82.6562 124 82.25ZM128 71.75C128 71.3438 128.344 71 128.75 71C129.156 71 129.5 71.3438 129.5 71.75V73H128V71.75ZM128 85H129.5V86.25C129.5 86.6562 129.156 87 128.75 87C128.344 87 128 86.6562 128 86.25V85ZM129.5 76.5H134.5V81.5H129.5V76.5ZM131.25 71.75C131.25 71.3438 131.594 71 132 71C132.406 71 132.75 71.3438 132.75 71.75V73H131.25V71.75ZM131.25 85H132.75V86.25C132.75 86.6562 132.406 87 132 87C131.594 87 131.25 86.6562 131.25 86.25V85ZM134.5 71.75C134.5 71.3438 134.844 71 135.25 71C135.656 71 136 71.3438 136 71.75V73H134.5V71.75ZM134.5 85H136V86.25C136 86.6562 135.656 87 135.25 87C134.844 87 134.5 86.6562 134.5 86.25V85ZM138 75H139.25C139.656 75 140 75.3438 140 75.75C140 76.1562 139.656 76.5 139.25 76.5H138V75ZM138 78.25H139.25C139.656 78.25 140 78.5938 140 79C140 79.4062 139.656 79.75 139.25 79.75H138V78.25ZM138 81.5H139.25C139.656 81.5 140 81.8438 140 82.25C140 82.6562 139.656 83 139.25 83H138V81.5Z" fill="#146EBE"/>
<path d="M159.844 73C158.844 73 157.875 73.5 157.281 74.3125L156.406 75.5312C156.312 75.6562 156.156 75.7188 156 75.7188C155.844 75.7188 155.688 75.6562 155.594 75.5312L154.719 74.3125C154.125 73.5 153.188 73 152.156 73C150.406 73 149 74.4062 149 76.1562C149 77.875 150.062 79.5 151.25 80.9375C152.562 82.5312 154.156 83.9375 155.25 84.7812C155.469 84.9062 155.719 85 156 85C156.281 85 156.531 84.9062 156.75 84.7812C157.844 83.9375 159.438 82.5312 160.75 80.9375C161.938 79.5 163 77.875 163 76.1562C163 74.4062 161.594 73 159.844 73ZM156.469 73.7188C157.25 72.6562 158.5 72 159.844 72C162.125 72 164 73.875 164 76.1562C164 78.2812 162.688 80.125 161.531 81.5625C160.156 83.25 158.5 84.6875 157.344 85.5625C156.969 85.8438 156.5 86 156 86C155.531 86 155.031 85.8438 154.656 85.5625C153.5 84.6875 151.844 83.25 150.469 81.5625C149.312 80.125 148 78.2812 148 76.1562C148 73.875 149.875 72 152.156 72C153.5 72 154.75 72.6562 155.531 73.7188L156 74.375L156.469 73.7188Z" fill="#146EBE"/>
<path opacity="0.4" d="M149 76.1562C149 74.4062 150.406 73 152.156 73C153.188 73 154.125 73.5 154.719 74.3125L155.594 75.5312C155.688 75.6562 155.844 75.7188 156 75.7188C156.156 75.7188 156.312 75.6562 156.406 75.5312L157.281 74.3125C157.875 73.5 158.844 73 159.844 73C161.594 73 163 74.4062 163 76.1562C163 77.875 161.938 79.5 160.75 80.9375C159.438 82.5312 157.844 83.9375 156.75 84.7812C156.531 84.9062 156.281 85 156 85C155.719 85 155.469 84.9062 155.25 84.7812C154.156 83.9375 152.562 82.5312 151.25 80.9375C150.062 79.5 149 77.875 149 76.1562Z" fill="#146EBE"/>
<path d="M184 76.9062L186.812 74.6562C186.938 74.5625 187.094 74.5 187.25 74.5C187.656 74.5 188 74.8438 188 75.25V82.75C188 83.1562 187.656 83.5 187.25 83.5C187.094 83.5 186.938 83.4375 186.812 83.3438L184 81.0938V76.9062Z" fill="#146EBE"/>
<path opacity="0.4" d="M172 75C172 73.9062 172.906 73 174 73H182C183.094 73 184 73.9062 184 75V83C184 84.0938 183.094 85 182 85H174C172.906 85 172 84.0938 172 83V75Z" fill="#146EBE"/>
<path d="M211 79C211 75.125 207.875 72 204 72C200.125 72 197 75.125 197 79C197 82.875 200.125 86 204 86C207.875 86 211 82.875 211 79ZM196 79C196 74.5938 199.594 71 204 71C208.406 71 212 74.5938 212 79C212 83.4062 208.406 87 204 87C199.594 87 196 83.4062 196 79ZM204 83.5C205.688 83.5 207.125 82.4688 207.719 81H200.281C200.875 82.4688 202.312 83.5 204 83.5ZM199.844 80H208.156C208.594 80 208.938 80.375 208.812 80.8125C208.25 82.9375 206.312 84.5 204 84.5C201.688 84.5 199.75 82.9375 199.188 80.8125C199.062 80.375 199.406 80 199.844 80ZM200.75 77C200.75 76.5938 201.094 76.25 201.5 76.25C201.906 76.25 202.25 76.5938 202.25 77C202.25 77.4062 201.906 77.75 201.5 77.75C201.094 77.75 200.75 77.4062 200.75 77ZM206.5 76.25C206.906 76.25 207.25 76.5938 207.25 77C207.25 77.4062 206.906 77.75 206.5 77.75C206.094 77.75 205.75 77.4062 205.75 77C205.75 76.5938 206.094 76.25 206.5 76.25Z" fill="#146EBE"/>
<path opacity="0.4" d="M197 79C197 75.125 200.125 72 204 72C207.875 72 211 75.125 211 79C211 82.875 207.875 86 204 86C200.125 86 197 82.875 197 79ZM199.188 80.8125C199.75 82.9375 201.688 84.5 204 84.5C206.312 84.5 208.25 82.9375 208.812 80.8125C208.938 80.375 208.594 80 208.156 80H199.844C199.406 80 199.062 80.375 199.188 80.8125ZM202.25 77C202.25 76.5938 201.906 76.25 201.5 76.25C201.094 76.25 200.75 76.5938 200.75 77C200.75 77.4062 201.094 77.75 201.5 77.75C201.906 77.75 202.25 77.4062 202.25 77ZM207.25 77C207.25 76.5938 206.906 76.25 206.5 76.25C206.094 76.25 205.75 76.5938 205.75 77C205.75 77.4062 206.094 77.75 206.5 77.75C206.906 77.75 207.25 77.4062 207.25 77Z" fill="#146EBE"/>
<path d="M235 75.1562C234.125 73.9062 232.906 72.9062 231.531 72.25C231.188 72.125 231.094 71.6875 231.406 71.5C231.875 71.1875 232.438 71 233.031 71C234.656 71 236 72.3438 236 73.9688C236 74.375 235.906 74.7812 235.75 75.1562C235.625 75.4688 235.188 75.4375 235 75.1562ZM220.25 75.1562C220.094 74.7812 220 74.375 220 73.9688C220 72.3438 221.344 71 222.969 71C223.594 71 224.156 71.1875 224.625 71.5C224.906 71.6875 224.812 72.125 224.5 72.25C223.094 72.9062 221.875 73.9062 221.031 75.1562C220.812 75.4375 220.375 75.4688 220.25 75.1562ZM228.75 76.75V79.6875L230.281 81.2188C230.562 81.5 230.562 82 230.281 82.2812C230 82.5625 229.5 82.5625 229.219 82.2812L227.469 80.5312C227.344 80.4062 227.25 80.1875 227.25 80V76.75C227.25 76.3438 227.594 76 228 76C228.406 76 228.75 76.3438 228.75 76.75Z" fill="#146EBE"/>
<path opacity="0.4" d="M221 80C221 76.125 224.125 73 228 73C231.875 73 235 76.125 235 80C235 81.5625 234.5 83.0312 233.625 84.1875L234.719 85.2812C235.094 85.6875 235.094 86.3125 234.719 86.7188C234.312 87.0938 233.688 87.0938 233.281 86.7188L232.188 85.625C231.031 86.5 229.562 87 228 87C226.438 87 224.969 86.5 223.812 85.625L222.719 86.7188C222.312 87.0938 221.688 87.0938 221.281 86.7188C220.906 86.3125 220.906 85.6875 221.281 85.2812L222.406 84.1875C221.531 83.0312 221 81.5625 221 80ZM227.25 76.75V80C227.25 80.1875 227.344 80.4062 227.469 80.5312L229.219 82.2812C229.5 82.5625 230 82.5625 230.281 82.2812C230.562 82 230.562 81.5312 230.281 81.2188L228.75 79.6875V76.75C228.75 76.3438 228.406 76 228 76C227.594 76 227.25 76.3438 227.25 76.75Z" fill="#146EBE"/>
<path d="M4.75 111C4.5625 111 4.375 110.938 4.21875 110.781C3.9375 110.5 3.9375 110 4.21875 109.719L13.7188 100.219C14 99.9375 14.5 99.9375 14.7812 100.219C15.0625 100.5 15.0625 101 14.7812 101.281L5.28125 110.781C5.125 110.938 4.9375 111 4.75 111Z" fill="#146EBE"/>
<path opacity="0.4" d="M6 105.312C6 103.188 6.84375 101.156 8.34375 99.6562L11.5938 96.4062C12.5 95.5 13.7188 95 15 95C16.2812 95 17.5 95.5 18.4062 96.4062L18.5625 96.5938C19.4688 97.5 20 98.7188 20 100C20 100.75 19.8125 101.469 19.5 102.156C19.4375 102.25 19.3125 102.344 19.1875 102.375L15.6875 103.438C15.5938 103.469 15.5 103.594 15.5 103.719C15.5 103.875 15.625 104 15.7812 104H16.7812C17.2188 104 17.4688 104.531 17.1562 104.844L16.4375 105.562C16.375 105.625 16.3125 105.656 16.2188 105.688L13.6875 106.438C13.5938 106.469 13.5 106.594 13.5 106.719C13.5 106.875 13.625 107 13.7812 107C14.1875 107 14.375 107.5 14.0312 107.719C12.75 108.562 11.25 109 9.6875 109H7.0625C9.625 106.438 12.2188 103.844 14.7812 101.281C15.0625 101 15.0625 100.5 14.7812 100.219C14.5 99.9375 14 99.9375 13.7188 100.219L6 107.938V105.312Z" fill="#146EBE"/>
<path d="M36 96C34.9062 96 34 96.9062 34 98V102C34 103.094 34.9062 104 36 104C37.0938 104 38 103.094 38 102V98C38 96.9062 37.0938 96 36 96ZM33 98C33 96.3438 34.3438 95 36 95C37.6562 95 39 96.3438 39 98V102C39 103.656 37.6562 105 36 105C34.3438 105 33 103.656 33 102V98ZM31 100.5V102C31 104.75 33.25 107 36 107C38.75 107 41 104.75 41 102V100.5C41 100.219 41.2188 100 41.5 100C41.7812 100 42 100.219 42 100.5V102C42 105.156 39.5938 107.719 36.5 107.969V110H38.5C38.7812 110 39 110.219 39 110.5C39 110.781 38.7812 111 38.5 111H33.5C33.2188 111 33 110.781 33 110.5C33 110.219 33.2188 110 33.5 110H35.5V107.969C32.4062 107.719 30 105.156 30 102V100.5C30 100.219 30.2188 100 30.5 100C30.7812 100 31 100.219 31 100.5Z" fill="#146EBE"/>
<path opacity="0.4" d="M34 98C34 96.9062 34.9062 96 36 96C37.0938 96 38 96.9062 38 98V102C38 103.094 37.0938 104 36 104C34.9062 104 34 103.094 34 102V98Z" fill="#146EBE"/>
<path d="M57.0625 106.906C56.4688 107.125 55.875 106.531 56.0938 105.938L57.8438 101.406C57.9375 101.156 58.1562 100.938 58.4062 100.844L62.9375 99.0938C63.5312 98.875 64.125 99.4688 63.9062 100.062L62.1562 104.594C62.0625 104.844 61.8438 105.062 61.5938 105.156L57.0625 106.906ZM60 102C59.4375 102 59 102.438 59 103C59 103.562 59.4375 104 60 104C60.5625 104 61 103.562 61 103C61 102.438 60.5625 102 60 102Z" fill="#146EBE"/>
<path opacity="0.4" d="M52 103C52 98.5938 55.5938 95 60 95C64.4062 95 68 98.5938 68 103C68 107.406 64.4062 111 60 111C55.5938 111 52 107.406 52 103ZM56.0938 105.938C55.875 106.531 56.4688 107.125 57.0625 106.906L61.5938 105.156C61.8438 105.062 62.0625 104.844 62.1562 104.594L63.9062 100.062C64.125 99.4688 63.5312 98.875 62.9375 99.0938L58.4062 100.844C58.1562 100.938 57.9375 101.156 57.8438 101.406L56.0938 105.938Z" fill="#146EBE"/>
<path d="M78.0625 97.8438L77.0938 104.5H80.25C80.5625 104.5 80.875 104.656 81.0625 104.938L81.7812 106H86.25L86.9375 104.938C87.125 104.656 87.4375 104.5 87.7812 104.5H90.9375L89.9375 97.8438C89.875 97.375 89.4688 97 88.9688 97H79.0625C78.5625 97 78.125 97.375 78.0625 97.8438ZM77 105.5V108C77 108.562 77.4375 109 78 109H90C90.5625 109 91 108.562 91 108V105.5H87.7812L87.0625 106.562C86.875 106.844 86.5625 107 86.2188 107H81.7812C81.4375 107 81.125 106.844 80.9375 106.562L80.2188 105.5H77ZM79.0625 96H88.9688C89.9375 96 90.7812 96.7188 90.9375 97.7188L91.9688 104.812C92 104.906 92 105 92 105.125V108C92 109.094 91.0938 110 90 110H78C76.9062 110 76 109.094 76 108V105.125C76 105 76 104.906 76.0312 104.812L77.0625 97.7188C77.2188 96.7188 78.0625 96 79.0625 96Z" fill="#146EBE"/>
<path opacity="0.4" d="M77 105.5H80.2188L80.9375 106.562C81.125 106.844 81.4375 107 81.7812 107H86.2188C86.5625 107 86.875 106.844 87.0625 106.562L87.7812 105.5H91V108C91 108.562 90.5625 109 90 109H78C77.4375 109 77 108.562 77 108V105.5Z" fill="#146EBE"/>
<path d="M103 98.5V96H104V98.5H112V96H113V98.5H115V99.5H108.5V102.5H115V103.5H113V106.5H115V107.5H108.5V110H107.5V107.5H101V106.5H103V103.5H101V102.5H107.5V99.5H101V98.5H103ZM112 106.5V103.5H104V106.5H112Z" fill="#146EBE"/>
<path opacity="0.4" d="M101 98C101 96.9062 101.906 96 103 96V98.5H101V98ZM101 99.5H107.5V102.5H101V99.5ZM101 103.5H103V106.5H101V103.5ZM101 107.5H107.5V110H103C101.906 110 101 109.094 101 108V107.5ZM104 96H112V98.5H104V96ZM104 103.5H112V106.5H104V103.5ZM108.5 99.5H115V102.5H108.5V99.5ZM108.5 107.5H115V108C115 109.094 114.094 110 113 110H108.5V107.5ZM113 96C114.094 96 115 96.9062 115 98V98.5H113V96ZM113 103.5H115V106.5H113V103.5Z" fill="#146EBE"/>
<path d="M126.5 97C125.688 97 125 97.6875 125 98.5V101.5C125 101.781 124.781 102 124.5 102C124.219 102 124 101.781 124 101.5V98.5C124 97.125 125.125 96 126.5 96H138.156C138.625 96 139 96.375 139 96.8438C139 96.9375 138.969 97.0625 138.938 97.1562L137.562 100.688C139.062 101.781 140 103.531 140 105.5V105.75C140 107.5 138.938 108.844 138.25 109.531C137.938 109.844 137.5 110 137.062 110H128.938C128.5 110 128.062 109.844 127.75 109.531C127.094 108.875 126 107.5 126 105.75V105.5C126 103.531 126.969 101.781 128.438 100.688L127 97H126.5ZM137.938 97H128.062L129.438 100.5H136.562L137.938 97ZM127.031 105C127 105.156 127 105.344 127 105.5V105.75C127 107.094 127.844 108.219 128.469 108.844C128.562 108.938 128.719 109 128.938 109H137.062C137.312 109 137.469 108.938 137.531 108.844C138.156 108.219 139 107.094 139 105.75V105.5C139 105.344 139 105.156 138.969 105H127.031ZM127.219 104H138.781C138.469 103 137.844 102.125 137 101.5H129C128.188 102.125 127.562 103 127.219 104Z" fill="#146EBE"/>
<path opacity="0.4" d="M127 105.5C127 105.344 127 105.156 127.031 105H138.969C139 105.156 139 105.344 139 105.5V105.75C139 107.094 138.156 108.219 137.531 108.844C137.469 108.938 137.312 109 137.062 109H128.938C128.719 109 128.562 108.938 128.469 108.844C127.844 108.219 127 107.094 127 105.75V105.5Z" fill="#146EBE"/>
<path d="M154 102C153.438 102 153 101.562 153 101C153 100.438 153.438 100 154 100C154.562 100 155 100.438 155 101C155 101.562 154.562 102 154 102ZM158 102C157.438 102 157 101.562 157 101C157 100.438 157.438 100 158 100C158.562 100 159 100.438 159 101C159 101.562 158.562 102 158 102Z" fill="#146EBE"/>
<path opacity="0.4" d="M150 101C150 97.6875 152.688 95 156 95C159.312 95 162 97.6875 162 101V109.438C162 109.75 161.75 110 161.438 110C161.312 110 161.188 109.969 161.094 109.875L160.75 109.594C160.344 109.25 159.719 109.312 159.375 109.719L158.406 110.812C158.312 110.938 158.156 111 158 111C157.844 111 157.688 110.938 157.594 110.812L156.75 109.875C156.344 109.406 155.656 109.406 155.25 109.875L154.406 110.812C154.312 110.938 154.156 111 154 111C153.844 111 153.688 110.938 153.594 110.812L152.625 109.719C152.281 109.312 151.688 109.25 151.25 109.594L150.906 109.875C150.812 109.969 150.688 110 150.562 110C150.25 110 150 109.75 150 109.438V101ZM155 101C155 100.438 154.562 100 154 100C153.438 100 153 100.438 153 101C153 101.562 153.438 102 154 102C154.562 102 155 101.562 155 101ZM159 101C159 100.438 158.562 100 158 100C157.438 100 157 100.438 157 101C157 101.562 157.438 102 158 102C158.562 102 159 101.562 159 101Z" fill="#146EBE"/>
<path d="M182 106H183.5C184.344 106 185 105.344 185 104.5V104H175V104.5C175 105.344 175.688 106 176.5 106H178C178.562 106 179 106.438 179 107V109C179 109.562 179.438 110 180 110C180.562 110 181 109.562 181 109V107C181 106.438 181.438 106 182 106ZM185 103V97C185 96.4375 184.562 96 184 96H181V98.5C181 98.7812 180.781 99 180.5 99C180.219 99 180 98.7812 180 98.5V96H178V99.5C178 99.7812 177.781 100 177.5 100C177.219 100 177 99.7812 177 99.5V96H176C175.438 96 175 96.4375 175 97V103H185ZM176.5 107C175.125 107 174 105.875 174 104.5V97C174 95.9062 174.906 95 176 95H184C185.094 95 186 95.9062 186 97V104.5C186 105.875 184.875 107 183.5 107H182V109C182 110.094 181.094 111 180 111C178.906 111 178 110.094 178 109V107H176.5Z" fill="#146EBE"/>
<path opacity="0.4" d="M175 97C175 96.4375 175.438 96 176 96H177V99.5C177 99.7812 177.219 100 177.5 100C177.781 100 178 99.7812 178 99.5V96H180V98.5C180 98.7812 180.219 99 180.5 99C180.781 99 181 98.7812 181 98.5V96H184C184.562 96 185 96.4375 185 97V103H175V97ZM175 104H185V104.5C185 105.344 184.344 106 183.5 106H182C181.438 106 181 106.438 181 107V109C181 109.562 180.562 110 180 110C179.438 110 179 109.562 179 109V107C179 106.438 178.562 106 178 106H176.5C175.688 106 175 105.344 175 104.5V104Z" fill="#146EBE"/>
<path d="M206.594 98.875C205.844 99.4375 204.969 100 204 100C203.031 100 202.156 99.4375 201.406 98.875C200.719 98.375 199.844 98.375 199.156 98.875C198.531 99.375 197.719 99.8438 196.844 99.9688C196.438 100 196.062 99.7188 196 99.3125C195.938 98.9062 196.25 98.5312 196.656 98.4688C197.156 98.4062 197.688 98.125 198.281 97.6875C199.469 96.7812 201.094 96.7812 202.312 97.6875C203.062 98.25 203.562 98.5 204 98.5C204.438 98.5 204.969 98.25 205.719 97.6875C206.906 96.7812 208.531 96.7812 209.75 97.6875C210.312 98.125 210.844 98.4062 211.344 98.4688C211.75 98.5312 212.062 98.9062 212 99.3125C211.938 99.7188 211.562 100 211.156 99.9688C210.281 99.8438 209.469 99.375 208.844 98.875C208.156 98.375 207.281 98.375 206.594 98.875ZM206.594 107.875C205.844 108.438 204.969 109 204 109C203.031 109 202.156 108.438 201.406 107.875C200.719 107.375 199.844 107.375 199.156 107.875C198.531 108.375 197.719 108.844 196.844 108.969C196.438 109 196.062 108.719 196 108.312C195.938 107.906 196.25 107.531 196.656 107.469C197.156 107.406 197.688 107.125 198.281 106.688C199.469 105.781 201.094 105.781 202.312 106.688C203.062 107.25 203.562 107.5 204 107.5C204.438 107.5 204.969 107.25 205.719 106.688C206.906 105.781 208.531 105.781 209.75 106.688C210.312 107.125 210.844 107.406 211.344 107.469C211.75 107.531 212.062 107.906 212 108.312C211.938 108.719 211.562 109 211.156 108.969C210.281 108.844 209.469 108.375 208.844 107.875C208.156 107.375 207.281 107.375 206.594 107.875Z" fill="#146EBE"/>
<path opacity="0.4" d="M196 103.812C195.938 103.406 196.25 103.031 196.656 102.969C197.156 102.906 197.688 102.625 198.281 102.188C199.469 101.281 201.094 101.281 202.312 102.188C203.062 102.75 203.562 103 204 103C204.438 103 204.969 102.75 205.719 102.188C206.906 101.281 208.531 101.281 209.75 102.188C210.312 102.625 210.844 102.906 211.344 102.969C211.75 103.031 212.062 103.406 212 103.812C211.938 104.219 211.562 104.5 211.156 104.469C210.281 104.344 209.469 103.875 208.844 103.375C208.156 102.875 207.281 102.875 206.594 103.375C205.844 103.938 204.969 104.5 204 104.5C203.031 104.5 202.156 103.938 201.406 103.375C200.719 102.875 199.844 102.875 199.156 103.375C198.531 103.875 197.719 104.344 196.844 104.469C196.438 104.5 196.062 104.219 196 103.812Z" fill="#146EBE"/>
<path d="M221 101V101.25C221 104.438 223.562 107 226.75 107C229.938 107 232.5 104.438 232.5 101.25V98.25C232.5 97 231.5 96 230.25 96C229 96 228 97 228 98.25V99C228 100.094 227.094 101 226 101H221ZM220 100.875C220 100.406 220.406 100 220.875 100H226C226.562 100 227 99.5625 227 99V98.25C227 96.4688 228.469 95 230.25 95C231.625 95 232.812 95.875 233.281 97.0938L235.75 98.5625C235.906 98.6562 236 98.8438 236 99C236 99.1875 235.906 99.3438 235.75 99.4375L233.5 100.781V101.25C233.5 104.031 231.844 106.406 229.438 107.438L230.938 110.281C231.062 110.5 230.969 110.812 230.75 110.938C230.5 111.062 230.188 110.969 230.062 110.75L228.5 107.781C227.938 107.938 227.344 108 226.75 108L227.938 110.281C228.062 110.5 227.969 110.812 227.75 110.938C227.5 111.062 227.188 110.969 227.062 110.75L225.562 107.906C222.406 107.344 220 104.562 220 101.25V100.875ZM234.531 99L233.5 98.375V99.625L234.531 99ZM230.25 99.5C229.844 99.5 229.5 99.1562 229.5 98.75C229.5 98.3438 229.844 98 230.25 98C230.656 98 231 98.3438 231 98.75C231 99.1562 230.656 99.5 230.25 99.5Z" fill="#146EBE"/>
<path opacity="0.4" d="M221 101H226C227.094 101 228 100.094 228 99V98.25C228 97 229 96 230.25 96C231.5 96 232.5 97 232.5 98.25V101.25C232.5 104.438 229.938 107 226.75 107C223.562 107 221 104.438 221 101.25V101ZM229.5 98.75C229.5 99.1562 229.844 99.5 230.25 99.5C230.656 99.5 231 99.1562 231 98.75C231 98.3438 230.656 98 230.25 98C229.844 98 229.5 98.3438 229.5 98.75ZM233.5 98.375L234.531 99L233.5 99.625V98.375Z" fill="#146EBE"/>
<path d="M9.96875 121.219C9.84375 121.438 9.59375 121.562 9.375 121.469C8.5625 121.219 7.6875 121.438 7.0625 122.062C6.4375 122.688 6.25 123.562 6.46875 124.375C6.5625 124.594 6.4375 124.844 6.25 124.969C5.5 125.344 5 126.125 5 127C5 127.875 5.5 128.656 6.25 129.031C6.4375 129.156 6.5625 129.406 6.46875 129.625C6.25 130.438 6.4375 131.312 7.0625 131.938C7.6875 132.562 8.5625 132.75 9.375 132.531C9.59375 132.438 9.84375 132.562 9.96875 132.75C10.3438 133.5 11.125 134 12 134C12.875 134 13.6562 133.5 14.0312 132.75C14.1562 132.562 14.4062 132.438 14.625 132.531C15.4375 132.75 16.3125 132.562 16.9375 131.938C17.5625 131.312 17.7812 130.438 17.5312 129.625C17.4375 129.406 17.5625 129.156 17.7812 129.031C18.5 128.656 19 127.875 19 127C19 126.125 18.5 125.344 17.7812 124.969C17.5625 124.844 17.4375 124.594 17.5312 124.375C17.7812 123.562 17.5625 122.688 16.9375 122.062C16.3125 121.438 15.4375 121.219 14.625 121.469C14.4062 121.562 14.1562 121.438 14.0312 121.219C13.6562 120.5 12.875 120 12 120C11.125 120 10.3438 120.5 9.96875 121.219ZM12 119C13.125 119 14.125 119.562 14.7188 120.438C15.75 120.25 16.8438 120.531 17.6562 121.344C18.4688 122.156 18.75 123.25 18.5625 124.281C19.4375 124.875 20 125.875 20 127C20 128.125 19.4375 129.125 18.5625 129.719C18.75 130.75 18.4688 131.844 17.6562 132.656C16.8438 133.469 15.75 133.75 14.7188 133.562C14.125 134.438 13.125 135 12 135C10.875 135 9.875 134.438 9.28125 133.562C8.25 133.75 7.15625 133.469 6.34375 132.656C5.53125 131.844 5.25 130.75 5.4375 129.719C4.5625 129.125 4 128.125 4 127C4 125.875 4.5625 124.875 5.4375 124.281C5.25 123.25 5.53125 122.156 6.34375 121.344C7.15625 120.531 8.25 120.25 9.28125 120.438C9.875 119.562 10.875 119 12 119ZM14.4375 124.781L11.9375 128.781C11.8438 128.906 11.6875 129 11.5312 129C11.375 129 11.2188 128.938 11.0938 128.812L9.59375 126.812C9.4375 126.594 9.46875 126.281 9.71875 126.094C9.9375 125.938 10.25 125.969 10.4062 126.219L11.4688 127.625L13.5938 124.25C13.7188 124 14.0312 123.938 14.2812 124.094C14.5 124.219 14.5625 124.531 14.4375 124.781Z" fill="#146EBE"/>
<path opacity="0.4" d="M5 127C5 126.125 5.5 125.344 6.21875 124.969C6.4375 124.844 6.5625 124.594 6.46875 124.375C6.21875 123.562 6.4375 122.688 7.0625 122.062C7.6875 121.438 8.5625 121.25 9.375 121.469C9.59375 121.562 9.84375 121.438 9.96875 121.25C10.3438 120.5 11.125 120 12 120C12.875 120 13.6562 120.5 14.0312 121.25C14.1562 121.438 14.4062 121.562 14.625 121.469C15.4375 121.25 16.3125 121.438 16.9375 122.062C17.5625 122.688 17.75 123.562 17.5312 124.375C17.4375 124.594 17.5625 124.844 17.75 124.969C18.5 125.344 19 126.125 19 127C19 127.875 18.5 128.656 17.75 129.031C17.5625 129.156 17.4375 129.406 17.5312 129.625C17.75 130.438 17.5625 131.312 16.9375 131.938C16.3125 132.562 15.4375 132.781 14.625 132.531C14.4062 132.438 14.1562 132.562 14.0312 132.781C13.6562 133.5 12.875 134 12 134C11.125 134 10.3438 133.5 9.96875 132.781C9.84375 132.562 9.59375 132.438 9.375 132.531C8.5625 132.781 7.6875 132.562 7.0625 131.938C6.4375 131.312 6.21875 130.438 6.46875 129.625C6.5625 129.406 6.4375 129.156 6.21875 129.031C5.5 128.656 5 127.875 5 127ZM9.59375 126.812L11.0938 128.812C11.1875 128.938 11.3438 129 11.5312 129C11.6875 129 11.8438 128.906 11.9375 128.75L14.4375 124.75C14.5625 124.531 14.5 124.219 14.25 124.062C14.0312 123.938 13.7188 124 13.5625 124.25L11.4688 127.625L10.4062 126.188C10.25 125.969 9.9375 125.938 9.6875 126.094C9.46875 126.281 9.4375 126.594 9.59375 126.812Z" fill="#146EBE"/>
<path d="M36 119V134.906C35.7188 134.906 35.4375 134.844 35.1875 134.719C29.8125 132.156 28.5312 126.469 28.5 123.375C28.5 122.562 29.0312 121.875 29.7188 121.594L35.5938 119.094C35.7188 119.031 35.875 119 36 119Z" fill="#146EBE"/>
<path opacity="0.4" d="M28.5 123.375C28.5 122.562 29.0312 121.875 29.7188 121.594L35.5938 119.094C35.7188 119.031 35.8438 119 36.0312 119C36.1875 119 36.3125 119.031 36.4375 119.094L42.3438 121.594C43.0312 121.875 43.5312 122.562 43.5312 123.375C43.5 126.469 42.25 132.156 36.8438 134.719C36.5938 134.844 36.3125 134.906 36 134.906C35.7188 134.906 35.4375 134.844 35.1875 134.719C29.8125 132.156 28.5312 126.469 28.5 123.375Z" fill="#146EBE"/>
<path d="M56 120C54.9062 120 54 120.906 54 122V123H66V122C66 120.906 65.0938 120 64 120H56ZM54 124V127H59.5V124H54ZM60.5 124V127H66V124H60.5ZM54 128V131C54 131.562 54.4375 132 55 132H65C65.5625 132 66 131.562 66 131V128H54ZM53 127V122C53 120.344 54.3438 119 56 119H64C65.6562 119 67 120.344 67 122V131C67 131.75 66.5938 132.375 66 132.719V134.5C66 134.781 65.7812 135 65.5 135C65.2188 135 65 134.781 65 134.5V133H55V134.5C55 134.781 54.7812 135 54.5 135C54.2188 135 54 134.781 54 134.5V132.719C53.4062 132.375 53 131.75 53 131V127ZM55.25 130C55.25 129.594 55.5938 129.25 56 129.25C56.4062 129.25 56.75 129.594 56.75 130C56.75 130.406 56.4062 130.75 56 130.75C55.5938 130.75 55.25 130.406 55.25 130ZM64 129.25C64.4062 129.25 64.75 129.594 64.75 130C64.75 130.406 64.4062 130.75 64 130.75C63.5938 130.75 63.25 130.406 63.25 130C63.25 129.594 63.5938 129.25 64 129.25ZM58.5 121H61.5C61.7812 121 62 121.219 62 121.5C62 121.781 61.7812 122 61.5 122H58.5C58.2188 122 58 121.781 58 121.5C58 121.219 58.2188 121 58.5 121Z" fill="#146EBE"/>
<path opacity="0.4" d="M54 122C54 120.906 54.9062 120 56 120H64C65.0938 120 66 120.906 66 122V123H54V122ZM54 128H66V131C66 131.562 65.5625 132 65 132H55C54.4375 132 54 131.562 54 131V128ZM55.25 130C55.25 130.406 55.5938 130.75 56 130.75C56.4062 130.75 56.75 130.406 56.75 130C56.75 129.594 56.4062 129.25 56 129.25C55.5938 129.25 55.25 129.594 55.25 130ZM58 121.5C58 121.781 58.2188 122 58.5 122H61.5C61.7812 122 62 121.781 62 121.5C62 121.219 61.7812 121 61.5 121H58.5C58.2188 121 58 121.219 58 121.5ZM63.25 130C63.25 130.406 63.5938 130.75 64 130.75C64.4062 130.75 64.75 130.406 64.75 130C64.75 129.594 64.4062 129.25 64 129.25C63.5938 129.25 63.25 129.594 63.25 130Z" fill="#146EBE"/>
<path d="M86 119H87.25C88.7812 119 90 120.219 90 121.75C90 123.281 88.7812 124.5 87.25 124.5H77C76.4375 124.5 76 124.062 76 123.5C76 122.938 76.4375 122.5 77 122.5H87.25C87.6562 122.5 88 122.156 88 121.75C88 121.344 87.6562 121 87.25 121H86C85.4375 121 85 120.562 85 120C85 119.438 85.4375 119 86 119ZM80 135C79.4375 135 79 134.562 79 134C79 133.438 79.4375 133 80 133H81.25C81.6562 133 82 132.656 82 132.25C82 131.844 81.6562 131.5 81.25 131.5H77C76.4375 131.5 76 131.062 76 130.5C76 129.938 76.4375 129.5 77 129.5H81.25C82.7812 129.5 84 130.719 84 132.25C84 133.781 82.7812 135 81.25 135H80Z" fill="#146EBE"/>
<path opacity="0.4" d="M76 127C76 126.438 76.4375 126 77 126H89C90.6562 126 92 127.344 92 129C92 130.656 90.6562 132 89 132H88C87.4375 132 87 131.562 87 131C87 130.438 87.4375 130 88 130H89C89.5625 130 90 129.562 90 129C90 128.438 89.5625 128 89 128H77C76.4375 128 76 127.562 76 127Z" fill="#146EBE"/>
<path d="M105.531 121.906C105.688 120.812 106.656 120 107.75 120C109.125 120 110.156 121.219 109.969 122.562L109.469 126.094C109.312 127.188 108.344 128 107.25 128C105.875 128 104.844 126.812 105.031 125.469L105.531 121.906ZM107.75 121C107.156 121 106.625 121.438 106.531 122.062L106.031 125.594C105.938 126.344 106.5 127 107.25 127C107.875 127 108.375 126.562 108.469 125.938L108.969 122.406C109.094 121.656 108.5 121 107.75 121ZM104.062 120.094C104.188 120.219 104.281 120.375 104.25 120.562L103 128.562C102.938 128.844 102.688 129.031 102.438 129C102.156 128.969 101.969 128.719 102 128.438L103.125 121.312L101.688 121.969C101.438 122.062 101.156 121.969 101.031 121.719C100.938 121.438 101.062 121.156 101.312 121.031L103.562 120.031C103.719 119.969 103.906 120 104.062 120.094ZM113.312 120C114.625 120 115.688 121.156 115.531 122.5L115.188 125.531C115.031 126.656 114.094 127.5 112.938 127.5C111.625 127.5 110.562 126.344 110.719 125L111.062 121.969C111.219 120.844 112.156 120 113.312 120ZM112.062 122.094L111.719 125.125C111.625 125.844 112.219 126.5 112.938 126.5C113.594 126.5 114.125 126.031 114.188 125.406L114.531 122.375C114.625 121.656 114.031 121 113.312 121C112.688 121 112.156 121.469 112.062 122.094ZM116 129.438C116.031 129.719 115.844 129.969 115.562 130L100.562 132C100.281 132.031 100.031 131.844 100 131.562C99.9688 131.312 100.156 131.031 100.438 131L115.438 129C115.719 128.969 115.969 129.156 116 129.438ZM114.562 133L106.562 134C106.281 134.031 106.031 133.844 106 133.562C105.969 133.281 106.156 133.031 106.438 133L114.438 132C114.719 131.969 114.969 132.156 115 132.438C115.031 132.719 114.844 132.969 114.562 133Z" fill="#146EBE"/>
<path d="M136 132C134.344 132 133 130.875 133 129.5C133 128.125 134.344 127 136 127C137.656 127 139 128.125 139 129.5C139 130.875 137.656 132 136 132ZM127 134C125.344 134 124 132.875 124 131.5C124 130.125 125.344 129 127 129C128.656 129 130 130.125 130 131.5C130 132.875 128.656 134 127 134Z" fill="#146EBE"/>
<path opacity="0.4" d="M128 122C128 121.531 128.312 121.125 128.781 121.031L137.781 119.031C138.094 118.969 138.375 119.031 138.625 119.219C138.875 119.406 139 119.688 139 120V129.5C139 128.406 138.156 127.5 137 127.156V123.5L130 125.062V131.5C130 130.406 129.156 129.5 128 129.156V122Z" fill="#146EBE"/>
<path d="M157.938 132.125C158.531 130.938 158.938 129.281 159 127.5H153C153.062 129.281 153.5 130.938 154.094 132.125C154.781 133.531 155.531 134 156 134C156.5 134 157.219 133.531 157.938 132.125ZM159 126.5C158.938 124.719 158.531 123.094 157.938 121.875C157.219 120.469 156.5 120 156 120C155.531 120 154.781 120.469 154.094 121.875C153.5 123.094 153.062 124.719 153 126.5H159ZM160 127.5C159.906 129.969 159.188 132.281 158.156 133.656C160.812 132.812 162.781 130.406 162.969 127.5H160ZM162.969 126.5C162.781 123.625 160.812 121.219 158.156 120.344C159.188 121.719 159.906 124.031 160 126.5H162.969ZM152 126.5C152.094 124.031 152.812 121.719 153.844 120.344C151.188 121.219 149.219 123.625 149.031 126.5H152ZM149.031 127.5C149.219 130.406 151.188 132.812 153.844 133.656C152.812 132.281 152.094 129.969 152 127.5H149.031ZM156 135C151.594 135 148 131.406 148 127C148 122.594 151.594 119 156 119C160.406 119 164 122.594 164 127C164 131.406 160.406 135 156 135Z" fill="#146EBE"/>
<path opacity="0.4" d="M149.031 126.5C149.219 123.625 151.188 121.219 153.844 120.344C152.812 121.719 152.094 124.031 152 126.5H149.031ZM149.031 127.5H152C152.094 129.969 152.812 132.281 153.844 133.656C151.188 132.812 149.219 130.406 149.031 127.5ZM153 126.5C153.062 124.719 153.5 123.094 154.094 121.875C154.781 120.469 155.531 120 156 120C156.5 120 157.219 120.469 157.938 121.875C158.531 123.094 158.938 124.719 159 126.5H153ZM153 127.5H159C158.938 129.281 158.531 130.938 157.938 132.125C157.219 133.531 156.5 134 156 134C155.531 134 154.781 133.531 154.094 132.125C153.5 130.938 153.062 129.281 153 127.5ZM158.156 120.344C160.812 121.219 162.781 123.625 162.969 126.5H160C159.906 124.031 159.188 121.719 158.156 120.344ZM158.156 133.656C159.188 132.281 159.906 129.969 160 127.5H162.969C162.781 130.406 160.812 132.812 158.156 133.656Z" fill="#146EBE"/>
<path d="M175 120H178V134H175C173.906 134 173 133.094 173 132V122C173 120.906 173.906 120 175 120ZM182 120H185C186.094 120 187 120.906 187 122V132C187 133.094 186.094 134 185 134H182V120ZM175 130C174.719 130 174.5 130.219 174.5 130.5V131.5C174.5 131.781 174.719 132 175 132H176C176.281 132 176.5 131.781 176.5 131.5V130.5C176.5 130.219 176.281 130 176 130H175ZM183.5 130.5V131.5C183.5 131.781 183.719 132 184 132H185C185.281 132 185.5 131.781 185.5 131.5V130.5C185.5 130.219 185.281 130 185 130H184C183.719 130 183.5 130.219 183.5 130.5ZM175 126C174.719 126 174.5 126.219 174.5 126.5V127.5C174.5 127.781 174.719 128 175 128H176C176.281 128 176.5 127.781 176.5 127.5V126.5C176.5 126.219 176.281 126 176 126H175ZM183.5 126.5V127.5C183.5 127.781 183.719 128 184 128H185C185.281 128 185.5 127.781 185.5 127.5V126.5C185.5 126.219 185.281 126 185 126H184C183.719 126 183.5 126.219 183.5 126.5ZM175 122C174.719 122 174.5 122.219 174.5 122.5V123.5C174.5 123.781 174.719 124 175 124H176C176.281 124 176.5 123.781 176.5 123.5V122.5C176.5 122.219 176.281 122 176 122H175ZM183.5 122.5V123.5C183.5 123.781 183.719 124 184 124H185C185.281 124 185.5 123.781 185.5 123.5V122.5C185.5 122.219 185.281 122 185 122H184C183.719 122 183.5 122.219 183.5 122.5Z" fill="#146EBE"/>
<path opacity="0.4" d="M178 120H182V134H178V120Z" fill="#146EBE"/>
<path d="M200 119.5C200 119.219 200.219 119 200.5 119H207.5C207.781 119 208 119.219 208 119.5C208 119.781 207.781 120 207.5 120H207V125.875L208.938 129.25L210.781 132.469C210.938 132.75 211 133.031 211 133.312C211 134.25 210.25 135 209.312 135H198.688C197.75 135 197 134.25 197 133.312C197 133.031 197.062 132.75 197.219 132.469L199.062 129.25L201 125.875V120H200.5C200.219 120 200 119.781 200 119.5ZM199.781 130L198.094 132.969C198.031 133.094 198 133.188 198 133.312C198 133.688 198.312 134 198.688 134H209.312C209.688 134 210 133.688 210 133.312C210 133.188 209.969 133.094 209.906 132.969L208.219 130H199.781ZM207.625 129L206.062 126.25C206.031 126.188 206 126.094 206 126V120H202V126C202 126.094 201.969 126.188 201.938 126.25L200.375 129H207.656H207.625Z" fill="#146EBE"/>
<path opacity="0.4" d="M198 133.312C198 133.188 198.031 133.094 198.094 132.969L199.781 130H208.219L209.906 132.969C209.969 133.094 210 133.188 210 133.312C210 133.688 209.688 134 209.312 134H198.688C198.312 134 198 133.688 198 133.312Z" fill="#146EBE"/>
<path d="M235.188 131.906L231 134V122L234.906 120.031C235.406 119.781 236 120.156 236 120.719V130.562C236 131.156 235.688 131.656 235.188 131.906ZM220.844 122.094L225 120V132L221.094 133.969C220.594 134.219 220 133.844 220 133.281V123.438C220 122.875 220.312 122.344 220.844 122.094Z" fill="#146EBE"/>
<path opacity="0.4" d="M225 120L231 122V134L225 132V120Z" fill="#146EBE"/>
<rect x="30.5" y="40" width="179" height="54" rx="16" fill="#183153"/>
<rect x="30.5" y="40" width="179" height="54" rx="16" stroke="#74C0FC" stroke-width="8"/>
<path d="M57.9958 58.16C63.1318 58.16 66.6118 61.328 66.6118 66.032C66.6118 70.736 63.0598 74 57.9958 74H54.4438C53.4838 74 52.7878 73.304 52.7878 72.344V59.816C52.7878 58.856 53.4838 58.16 54.4438 58.16H57.9958ZM57.9718 61.088H56.0278V71.072H57.9718C61.1638 71.072 63.2998 69.08 63.2998 66.032C63.2998 62.984 61.2598 61.088 57.9718 61.088ZM79.7981 74.288C75.7901 74.288 73.0781 71.528 73.0781 67.448V59.528C73.0781 58.592 73.7741 57.872 74.7101 57.872C75.6221 57.872 76.3181 58.592 76.3181 59.528V67.688C76.3181 69.896 77.6621 71.288 79.7981 71.288C81.9341 71.288 83.2781 69.896 83.2781 67.688V59.528C83.2781 58.592 83.9741 57.872 84.9101 57.872C85.8221 57.872 86.5181 58.592 86.5181 59.528V67.448C86.5181 71.528 83.8061 74.288 79.7981 74.288ZM101.355 57.872C106.083 57.872 109.803 61.496 109.803 66.08C109.803 70.664 106.083 74.288 101.355 74.288C96.6268 74.288 92.9548 70.688 92.9548 66.08C92.9548 61.472 96.6508 57.872 101.355 57.872ZM101.379 60.872C98.4028 60.872 96.2908 63.032 96.2908 66.08C96.2908 69.128 98.4028 71.288 101.379 71.288C104.331 71.288 106.467 69.104 106.467 66.08C106.467 63.056 104.331 60.872 101.379 60.872Z" fill="white"/>
<path d="M121.266 74.288C120.354 74.288 119.658 73.568 119.658 72.632V61.088H115.89C115.05 61.088 114.402 60.44 114.402 59.624C114.402 58.784 115.05 58.16 115.89 58.16H126.666C127.53 58.16 128.154 58.784 128.154 59.624C128.154 60.44 127.506 61.088 126.666 61.088H122.898V72.632C122.898 73.568 122.202 74.288 121.266 74.288ZM141.144 57.872C145.872 57.872 149.592 61.496 149.592 66.08C149.592 70.664 145.872 74.288 141.144 74.288C136.416 74.288 132.744 70.688 132.744 66.08C132.744 61.472 136.44 57.872 141.144 57.872ZM141.168 60.872C138.192 60.872 136.08 63.032 136.08 66.08C136.08 69.128 138.192 71.288 141.168 71.288C144.12 71.288 146.256 69.104 146.256 66.08C146.256 63.056 144.12 60.872 141.168 60.872ZM168.032 57.872C168.944 57.872 169.64 58.592 169.64 59.528V72.656C169.64 73.568 168.968 74.288 168.056 74.288C167.264 74.288 166.88 73.832 166.448 73.304L159.392 64.232V72.632C159.392 73.568 158.696 74.288 157.784 74.288C156.848 74.288 156.152 73.568 156.152 72.632V59.504C156.152 58.592 156.848 57.872 157.736 57.872C158.552 57.872 158.912 58.328 159.392 58.928L166.424 67.928L166.4 59.528C166.4 58.592 167.096 57.872 168.032 57.872ZM178.686 74C177.774 74 177.078 73.304 177.078 72.392V59.768C177.078 58.856 177.774 58.16 178.686 58.16H186.438C187.302 58.16 187.926 58.784 187.926 59.624C187.926 60.44 187.278 61.088 186.438 61.088H180.318V64.304H184.518C185.334 64.304 185.934 64.904 185.934 65.696C185.934 66.464 185.334 67.064 184.518 67.064H180.318V71.072H186.726C187.59 71.072 188.214 71.72 188.214 72.536C188.214 73.376 187.566 74 186.726 74H178.686Z" fill="#74C0FC"/>
</g>
</g>
<defs>
<clipPath id="clip0_169_11755">
<rect width="240" height="135" fill="white"/>
</clipPath>
<clipPath id="clip1_169_11755">
<rect width="720" height="135" fill="white" transform="translate(-240)"/>
</clipPath>
</defs>
</svg>
