<svg width="240" height="135" viewBox="0 0 240 135" fill="none" xmlns="http://www.w3.org/2000/svg">
<g clip-path="url(#clip0_169_11743)">
<rect width="240" height="135" fill="#E599F7"/>
<g clip-path="url(#clip1_169_11743)">
<rect width="720" height="135" transform="translate(-240)" fill="#E599F7"/>
<path d="M14 3C14 1.90625 13.125 1 12 1C10.9062 1 10 1.90625 10 3C10 4.09375 10.9062 5 12 5C13.125 5 14 4.09375 14 3ZM13.3438 5.6875C12.9375 5.90625 12.5 6 12 6C11.5312 6 11.0938 5.90625 10.6875 5.6875L8.46875 9.59375C9.5 10.1875 10.7188 10.5 12 10.5C14.7812 10.5 17.2188 9 18.5 6.75L19.375 7.25C17.9062 9.78125 15.1562 11.5 12 11.5C10.5312 11.5 9.15625 11.125 7.96875 10.4688L4.9375 15.75L4.6875 16.1875L3.8125 15.6875L4.0625 15.25L7.09375 9.9375C6.09375 9.25 5.25 8.3125 4.65625 7.25L5.5 6.75C6.03125 7.65625 6.75 8.46875 7.59375 9.0625L9.875 5.09375C9.34375 4.5625 9 3.8125 9 3C9 1.34375 10.3438 0 12 0C13.6562 0 15 1.34375 15 3C15 3.8125 14.6875 4.5625 14.1562 5.09375L15.6562 7.75C15.4062 7.96875 15.125 8.15625 14.8125 8.3125L13.3438 5.6875ZM19.9375 15.25L20.1875 15.6875L19.3125 16.1875L19.0625 15.75L16.8125 11.7812C17.0938 11.625 17.375 11.4375 17.6562 11.25L19.9375 15.25Z" fill="#9C36B5"/>
<path d="M40 6.5C40 3.46875 37.5312 1 34.5 1C31.4688 1 29 3.46875 29 6.5C29 9.53125 31.4688 12 34.5 12C37.5312 12 40 9.53125 40 6.5ZM38.75 11.4375C37.5938 12.4062 36.125 13 34.5 13C30.9062 13 28 10.0938 28 6.5C28 2.90625 30.9062 0 34.5 0C38.0938 0 41 2.90625 41 6.5C41 8.125 40.4062 9.59375 39.4375 10.7188L43.875 15.1562L44.2188 15.5L43.5 16.2188L43.1562 15.8438L38.75 11.4375Z" fill="#9C36B5"/>
<path d="M53 0H67V13H66V15H67V16H53V14V0.5V0ZM55 13C54.4375 13 54 13.4375 54 14V15H65V13H55ZM54 12.2812C54.2812 12.0938 54.625 12 55 12H66V1H54V12.2812ZM57.5 4H64V5H57V4H57.5ZM57.5 7H64V8H57V7H57.5Z" fill="#9C36B5"/>
<path d="M92 8C92 8.34375 91.9688 8.65625 91.9375 9C89.6875 9.78125 86.9375 10.25 84 10.25C81.0625 10.25 78.3125 9.78125 76.0625 9C76.0312 8.65625 76 8.34375 76 8C76 3.59375 79.5938 0 84 0C88.4062 0 92 3.59375 92 8ZM84 11.75C86.7188 11.75 89.2812 11.375 91.5312 10.7188C90.4375 13.7812 87.4688 16 84 16C80.5312 16 77.5938 13.7812 76.4688 10.7188C78.7188 11.375 81.2812 11.75 84 11.75ZM81 5C81 4.4375 81.4375 4 82 4C82.5625 4 83 4.4375 83 5C83 5.5625 82.5625 6 82 6C81.4375 6 81 5.5625 81 5ZM84.5 5C84.5 3.625 83.375 2.5 82 2.5C80.625 2.5 79.5 3.625 79.5 5C79.5 6.375 80.625 7.5 82 7.5C83.375 7.5 84.5 6.375 84.5 5Z" fill="#9C36B5"/>
<path d="M114 2H102V14H114V2ZM102 1H115V15H101V1H102ZM105.469 8.375L106 7.5C106.094 7.59375 106.625 8.03125 107.125 8.4375C107.281 8.15625 108.094 6.90625 109 5.5L109.562 6.46875L112.438 11.5L113 12.5H103L105.469 8.375ZM106.25 9.03125V9L104.781 11.5H111.281L108.938 7.4375C108.219 8.5625 107.688 9.375 107.344 9.9375C106.656 9.34375 106.281 9.0625 106.25 9.03125ZM105.5 5C105.5 4.71875 105.281 4.5 105 4.5C104.719 4.5 104.5 4.71875 104.5 5C104.5 5.28125 104.719 5.5 105 5.5C105.281 5.5 105.5 5.28125 105.5 5ZM105 3.5C105.844 3.5 106.5 4.15625 106.5 5C106.5 5.84375 105.844 6.5 105 6.5C104.156 6.5 103.5 5.84375 103.5 5C103.5 4.15625 104.156 3.5 105 3.5Z" fill="#9C36B5"/>
<path d="M127.875 8.5L125.406 14.5312L138.531 8.5H127.875ZM138.531 7.5L125.406 1.46875L127.875 7.5H138.531ZM123.5 -0.5L124.844 0.125L140.812 7.4375L142 8L140.812 8.5625L124.844 15.875L123.5 16.5L124.062 15.1562L127 8L124.062 0.84375L123.5 -0.5Z" fill="#9C36B5"/>
<path d="M157 0V1.09375C159.281 1.5625 161 3.59375 161 6V9L163.5 13H148.5L151 9V6C151 3.59375 152.719 1.5625 155 1.09375V0H157ZM154.062 14.5H157.938C157.719 15.375 156.938 16 156 16C155.062 16 154.281 15.375 154.062 14.5Z" fill="#9C36B5"/>
<path d="M182.062 2.15625L180.969 4H183.25C183.938 4 184.5 3.4375 184.5 2.75C184.5 2.0625 183.938 1.5 183.25 1.5H183.188C182.719 1.5 182.281 1.75 182.062 2.15625ZM177.969 2.15625C177.719 1.75 177.281 1.5 176.812 1.5H176.75C176.062 1.5 175.5 2.0625 175.5 2.75C175.5 3.4375 176.062 4 176.75 4H179.031L177.969 2.15625ZM180.75 1.40625V1.375C181.25 0.53125 182.188 0 183.188 0H183.25C184.781 0 186 1.21875 186 2.75C186 3.1875 185.906 3.625 185.688 4H188V7H187V15H173V7H172V4H174.312C174.125 3.625 174 3.1875 174 2.75C174 1.21875 175.219 0 176.75 0H176.812C177.812 0 178.75 0.53125 179.25 1.40625L180 2.6875L180.75 1.40625ZM174.5 7V13.5H179.25V7H174.5ZM180.75 7V13.5H185.5V7H180.75Z" fill="#9C36B5"/>
<path d="M201 1H207L208 3H212V15H196V3H200L201 1ZM208 4H207.375C207.281 3.78125 206.938 3.125 206.375 2H201.625C201.062 3.125 200.719 3.78125 200.625 4H197V14H211V4H208ZM204 5.5C205.938 5.5 207.5 7.0625 207.5 9C207.5 10.9375 205.938 12.5 204 12.5C202.062 12.5 200.5 10.9375 200.5 9C200.5 7.0625 202.062 5.5 204 5.5ZM206.5 9C206.5 7.625 205.375 6.5 204 6.5C202.625 6.5 201.5 7.625 201.5 9C201.5 10.375 202.625 11.5 204 11.5C205.375 11.5 206.5 10.375 206.5 9Z" fill="#9C36B5"/>
<path d="M234.5 -0.25V1.5H236.25V2.5H234.5V4.25H233.5V2.5H231.75V1.5H233.5V-0.25H234.5ZM229.844 2.65625L231.25 4.03125C231.531 3.78125 231.781 3.53125 232 3.28125L232.719 4C232.469 4.21875 232.219 4.46875 231.969 4.75C233.062 5.84375 233.656 6.4375 233.719 6.5C233.531 6.6875 233.188 7.03125 232.688 7.53125C232.906 8.15625 233 8.8125 233 9.5C233 13.0938 230.094 16 226.5 16C222.906 16 220 13.0938 220 9.5C220 5.90625 222.906 3 226.5 3C227.156 3 227.812 3.09375 228.438 3.28125C229 2.78125 229.344 2.46875 229.531 2.3125L229.844 2.65625ZM228.875 4.21875L228.656 4.4375L228.375 4.3125C227.781 4.125 227.156 4 226.5 4C223.469 4 221 6.46875 221 9.5C221 12.5312 223.469 15 226.5 15C229.531 15 232 12.5312 232 9.5C232 8.8125 231.875 8.15625 231.656 7.5625L231.531 7.25L232.281 6.5L229.469 3.6875L228.875 4.21875ZM223.5 9.5V10H222.5V9.5C222.5 7.28125 224.281 5.5 226.5 5.5H227V6.5H226.5C224.844 6.5 223.5 7.84375 223.5 9.5Z" fill="#9C36B5"/>
<path d="M7 31V32H10V39H8C6.34375 39 5 37.6562 5 36V31C5 27.125 8.125 24 12 24C15.875 24 19 27.125 19 31V36C19 37.6562 17.6562 39 16 39H14V32H17V31C17 28.25 14.75 26 12 26C9.25 26 7 28.25 7 31Z" fill="#9C36B5"/>
<path d="M36 23.8125L36.3438 24.125L43.8438 31.125L44.2188 31.4688L43.5312 32.2188C43.3438 32.0312 43 31.7188 42.5 31.25V40H29.5V31.25C29.0312 31.7188 28.6875 32.0312 28.4688 32.2188L27.7812 31.4688L28.1562 31.125L35.6562 24.125L36 23.8125ZM36 25.1875L30.5 30.3125V39H33.5V33.5H38.5V39H41.5V30.3125L36 25.1875ZM34.5 39H37.5V34.5H34.5V39Z" fill="#9C36B5"/>
<path d="M67 32C67 28.125 63.875 25 60 25C56.125 25 53 28.125 53 32C53 35.875 56.125 39 60 39C63.875 39 67 35.875 67 32ZM52 32C52 27.5938 55.5938 24 60 24C64.4062 24 68 27.5938 68 32C68 36.4062 64.4062 40 60 40C55.5938 40 52 36.4062 52 32ZM60 35.5C61.3438 35.5 62.5 34.8438 63.25 33.8438L64.0625 34.4375C63.125 35.6875 61.6562 36.5 60 36.5C58.3438 36.5 56.875 35.6875 55.9688 34.4375L56.75 33.8438C57.5 34.8438 58.6562 35.5 60 35.5ZM56.75 30.5C56.75 30.0938 57.0938 29.75 57.5 29.75C57.9062 29.75 58.25 30.0938 58.25 30.5C58.25 30.9062 57.9062 31.25 57.5 31.25C57.0938 31.25 56.75 30.9062 56.75 30.5ZM62.5 29.75C62.9062 29.75 63.25 30.0938 63.25 30.5C63.25 30.9062 62.9062 31.25 62.5 31.25C62.0938 31.25 61.75 30.9062 61.75 30.5C61.75 30.0938 62.0938 29.75 62.5 29.75Z" fill="#9C36B5"/>
<path d="M84 25H79V39H89V30H84V25ZM88.5938 29L85 25.4062V29H88.5938ZM79 24H85L90 29V40H78V24H79Z" fill="#9C36B5"/>
<path d="M114.5 32C114.5 28.4062 111.594 25.5 108 25.5C104.406 25.5 101.5 28.4062 101.5 32C101.5 35.4062 104.094 38.1875 107.406 38.4688L107.969 37.9062C107.656 37.375 107.5 36.75 107.5 36.125C107.5 34.125 109.125 32.5 111.125 32.5H114.5V32ZM110 38C109.281 38.7188 108.594 39.4062 108 40C103.594 40 100 36.4062 100 32C100 27.5938 103.594 24 108 24C112.406 24 116 27.5938 116 32V34H111.125C109.938 34 109 34.9375 109 36.125C109 36.6875 109.219 37.2188 109.625 37.625L110 38ZM108 29C107.438 29 107 28.5625 107 28C107 27.4375 107.438 27 108 27C108.562 27 109 27.4375 109 28C109 28.5625 108.562 29 108 29ZM106 29C106 29.5625 105.562 30 105 30C104.438 30 104 29.5625 104 29C104 28.4375 104.438 28 105 28C105.562 28 106 28.4375 106 29ZM105 32C105 32.5625 104.562 33 104 33C103.438 33 103 32.5625 103 32C103 31.4375 103.438 31 104 31C104.562 31 105 31.4375 105 32ZM112 29C112 29.5625 111.562 30 111 30C110.438 30 110 29.5625 110 29C110 28.4375 110.438 28 111 28C111.562 28 112 28.4375 112 29Z" fill="#9C36B5"/>
<path d="M132.094 23.9062L133.844 25.6562L134.562 24.9375C135.156 24.3438 135.969 24 136.812 24C138.562 24 140 25.4375 140 27.1875C140 28.0312 139.656 28.8438 139.062 29.4375L129.75 38.75C126.031 39.5625 124.125 39.9688 124 40C124.031 39.875 124.438 37.9688 125.25 34.25L133.156 26.3438L131.75 24.9688L128.094 28.5938L127.75 28.9688L127.031 28.25L127.406 27.9062L131.75 23.5312L132.094 23.9062ZM125.312 38.6875L129.25 37.8438L132.688 34.4062L129.594 31.3125L126.156 34.75L125.312 38.6875ZM138.375 28.7188C138.781 28.3125 139 27.75 139 27.1875C139 25.9688 138.031 25 136.812 25C136.25 25 135.688 25.2188 135.281 25.625L130.312 30.5938L133.406 33.6875L138.375 28.7188Z" fill="#9C36B5"/>
<path d="M155 25V31H149V25H155ZM155 33V39H149V33H155ZM157 25H163V31H157V25ZM163 33V39H157V33H163Z" fill="#9C36B5"/>
<path d="M171 32C171 28.6875 173.688 26 177 26H179V27H177C174.25 27 172 29.25 172 32C172 34.75 174.25 37 177 37H179V38H177C173.688 38 171 35.3125 171 32ZM176 31.5H184V32.5H176V31.5ZM183 26C186.312 26 189 28.6875 189 32C189 35.3125 186.312 38 183 38H181V37H183C185.75 37 188 34.75 188 32C188 29.25 185.75 27 183 27H181V26H183Z" fill="#9C36B5"/>
<path d="M208.406 30.1875L211.094 27.5L208.5 24.9062L205.812 27.5938L208.406 30.1875ZM207.906 31.125L204.875 28.0938L199.812 29.7812L197.281 38.0312L200.781 34.5312C200.594 34.2188 200.5 33.875 200.5 33.5C200.5 32.4062 201.406 31.5 202.5 31.5C203.594 31.5 204.5 32.4062 204.5 33.5C204.5 34.5938 203.594 35.5 202.5 35.5C202.125 35.5 201.781 35.4062 201.5 35.2188L197.969 38.7188L206.219 36.1875L207.906 31.125ZM207 37L197.25 40L196 38.75L199 29L205 27C207.219 24.7812 208.375 23.625 208.5 23.5C208.656 23.6562 209.75 24.75 211.781 26.7812L212.5 27.5C212.375 27.625 211.219 28.7812 209 31L207 37ZM201.5 33.5C201.5 34.0625 201.938 34.5 202.5 34.5C203.062 34.5 203.5 34.0625 203.5 33.5C203.5 32.9375 203.062 32.5 202.5 32.5C201.938 32.5 201.5 32.9375 201.5 33.5Z" fill="#9C36B5"/>
<path d="M222.781 35.8438C222.719 36 222.375 36.8125 221.75 38.3438L224.438 37.4062L224.812 37.3125L225.156 37.4375C226.031 37.8125 226.969 38 228 38C231.938 38 235 35.0312 235 31.5C235 27.9688 231.938 25 228 25C224.062 25 221 27.9688 221 31.5C221 32.9688 221.531 34.3125 222.406 35.4062L222.781 35.8438ZM221.25 39.5625L220 40C220.219 39.4375 220.781 38.0938 221.625 36.0312C220.594 34.7812 220 33.1875 220 31.5C220 27.375 223.594 24 228 24C232.406 24 236 27.375 236 31.5C236 35.6562 232.406 39 228 39C226.844 39 225.75 38.7812 224.781 38.375L221.25 39.5625Z" fill="#9C36B5"/>
<path d="M10.0312 48V48.75L9.8125 48.9062L7.40625 50.6875L6.8125 49.9062L8.03125 49H7.53125C6.3125 49 5.3125 49.875 5.0625 51H8.3125C8.53125 50.7812 8.78125 50.5312 9.03125 50.3125L9.71875 51L8.71875 52H5.03125V53.2188L7.96875 54.9062C8.5625 54.4375 9.25 54.125 10.0312 54.0312V52H11.0312V54H13.0312V52H14.0312V54.0312C14.7812 54.125 15.4688 54.4375 16.0625 54.9062L19 53.2188V52H15.3125L15.1562 51.8438C14.8125 51.5 14.5312 51.2188 14.3125 51L15.0312 50.2812C15.25 50.5312 15.5 50.7812 15.7188 51H18.9688C18.75 49.875 17.7188 49 16.5312 49H16.0312C16.625 49.4375 17.0312 49.75 17.2188 49.9062L16.625 50.7188L16.2188 50.4062L14.2188 48.9062L14 48.75V48H16.5C18.4375 48 20 49.5625 20 51.5V53.8125L19.75 53.9375L16.75 55.6562C16.9375 55.9062 17.0938 56.2188 17.2188 56.5H18.375C19.0625 56.1562 19.5 55.9375 19.7188 55.8438L20.1875 56.7188L19.7188 56.9688L18.625 57.5H17.4688C17.5 57.6562 17.5 57.8438 17.5 58V58.25L18.1875 58.5312L18.2812 58.5938L18.3438 58.6562L19.7188 60L19 60.7188L17.7188 59.4375L16.9062 59.0938L15.9375 60.0625L17.1875 60.5312L17.2812 60.5625L17.3438 60.6562L18.7188 62L18 62.7188L16.7188 61.4375L15.1562 60.8438L14.6875 61.3125L15.8125 62.0938L16 62.25V64H15V62.75L13.9375 62H10.0625L9 62.75V64H8V62.25L8.21875 62.0938L9.3125 61.3125L8.84375 60.8438L7.28125 61.4375C6.59375 62.1562 6.15625 62.5625 6 62.7188L5.3125 62C5.4375 61.875 5.875 61.4375 6.65625 60.6562L6.75 60.5625L6.84375 60.5312L8.0625 60.0625L7.09375 59.0938L6.3125 59.4375C5.59375 60.125 5.15625 60.5625 5 60.7188L4.3125 60C4.4375 59.875 4.875 59.4375 5.65625 58.6562L5.71875 58.5938L5.8125 58.5312L6.53125 58.25V58C6.53125 57.8438 6.53125 57.6562 6.5625 57.5H5.40625L5.28125 57.4375C4.53125 57.0625 4.0625 56.8438 3.84375 56.7188L4.3125 55.8438C4.53125 55.9375 4.96875 56.1562 5.625 56.5H6.8125C6.9375 56.1875 7.09375 55.9062 7.28125 55.6562L4.28125 53.9375L4.03125 53.7812V51.5C4.03125 49.5625 5.59375 48 7.53125 48H10.0312ZM7.53125 58.0938H7.5L10.4375 61H13.5938L16.5312 58.0938V58C16.5312 56.3438 15.1875 55 13.5312 55H10.5312C8.875 55 7.53125 56.3438 7.53125 58V58.0938Z" fill="#9C36B5"/>
<path d="M28.75 50H44V62H28V50H28.75ZM42.5 52V51.5H29.5V52.125L36 57.0625L42.5 52.125V52ZM42.5 54L36.4688 58.5938L36 58.9375L35.5625 58.5938L29.5 54V60.5H42.5V54Z" fill="#9C36B5"/>
<path d="M54.5 49H61.5C63.4375 49 65 50.5625 65 52.5C65 53.6562 64.4375 54.6875 63.5625 55.3125C65 55.9375 66 57.3438 66 59C66 61.2188 64.2188 63 62 63H54V62H56V50H54V49H54.5ZM57.5 62H62C63.6562 62 65 60.6562 65 59C65 57.3438 63.6562 56 62 56H57V62H57.5ZM57 50V55H61.5C62.875 55 64 53.875 64 52.5C64 51.125 62.875 50 61.5 50H57Z" fill="#9C36B5"/>
<path d="M91.25 54.25C92.2188 54.25 93 55.0312 93 56C93 56.9688 92.2188 57.75 91.25 57.75H87.2812L82 63.5H79.5L81.4062 57.75H78.3125L76.5 60H75L76 56L75 52H76.5L78.3125 54.25H81.4062L79.5 48.5H82L87.2812 54.25H91.25Z" fill="#9C36B5"/>
<path d="M108 59.8438L108.5 60.125L113 62.75V49H103V62.75L107.5 60.125L108 59.8438ZM103 63.9062L102 64.5V48H114V64.5L113 63.9062L108 61L103 63.9062Z" fill="#9C36B5"/>
<path d="M130.844 47.0625C131.281 47.4688 131.688 47.9062 132.062 48.375C132.5 48.9062 133 49.5625 133.5 50.375C133.656 50.1562 133.812 49.9688 133.938 49.8125C134.156 49.5312 134.406 49.2812 134.656 49.0625L135 48.6875L135.344 49.0625C135.594 49.3125 135.875 49.5625 136.094 49.8438C136.406 50.2188 136.844 50.7812 137.25 51.4688C138.125 52.8438 139 54.8125 139 57C139 60.875 135.875 64 132 64C128.125 64 125 60.875 125 57C125 54.1562 126.281 51.6875 127.531 49.9688C128.125 49.0938 128.75 48.4062 129.219 47.9375C129.531 47.625 129.844 47.3125 130.188 47.0312L130.531 46.75L130.844 47.0625ZM129.938 48.625C129.5 49.0938 128.906 49.75 128.344 50.5625C127.156 52.1875 126 54.4375 126 57C126 60.3125 128.688 63 132 63C135.312 63 138 60.3125 138 57C138 55.0625 137.219 53.3125 136.406 52C136 51.375 135.625 50.8438 135.312 50.5C135.219 50.375 135.125 50.25 135 50.125C134.906 50.25 134.812 50.3438 134.719 50.4688C134.594 50.5938 134.438 50.7812 134.281 50.9688C134 51.375 133.688 51.7812 133.406 52.1562C133.156 51.75 132.906 51.3125 132.625 50.9062C132.188 50.125 131.688 49.5 131.312 49C131.031 48.6875 130.781 48.4062 130.5 48.0938C130.312 48.2812 130.125 48.4375 129.938 48.625ZM130.562 53.3125L130.875 53.6875C130.969 53.8125 131.625 54.6562 132.281 55.5L133.219 56.6875L134.812 54.8125L135.188 55.3125C135.344 55.5312 135.438 55.75 135.531 55.9062C136.406 57.5625 136.031 59.6875 134.5 60.75C133.75 61.25 132.938 61.5 132.062 61.5C130.969 61.5 129.938 61.1562 129.188 60.4688C128.438 59.7812 128 58.7812 128 57.5938C128 56.4062 128.562 55.4062 129.094 54.7188C129.344 54.375 129.625 54.0938 129.812 53.9062C130.031 53.7188 130.25 53.5312 130.469 53.375C130.5 53.3438 130.531 53.3125 130.562 53.3125ZM129.875 55.3438C129.438 55.9375 129 56.7188 129 57.5938C129 58.5312 129.344 59.25 129.875 59.7188C130.406 60.2188 131.188 60.5 132.062 60.5C132.75 60.5 133.344 60.3125 133.938 59.9375C134.969 59.1875 135.312 57.7188 134.688 56.4688L133.188 58.25C133.062 58.0625 132.906 57.9062 132.781 57.75C132 56.75 131.219 55.7188 130.406 54.7188C130.25 54.875 130.062 55.0938 129.875 55.3438Z" fill="#9C36B5"/>
<path d="M156 49C152.125 49 149 52.125 149 56C149 59.875 152.125 63 156 63C159.875 63 163 59.875 163 56C163 52.125 159.875 49 156 49ZM156 64C151.594 64 148 60.4062 148 56C148 51.5938 151.594 48 156 48C160.406 48 164 51.5938 164 56C164 60.4062 160.406 64 156 64ZM156 58C155.438 58 155 58.4375 155 59C155 59.5625 155.438 60 156 60C156.562 60 157 59.5625 157 59C157 58.4375 156.562 58 156 58ZM156 61C154.906 61 154 60.0938 154 59C154 58.0625 154.625 57.2812 155.5 57.0625V51V50.5H156.5V57.0625C157.375 57.2812 158 58.0625 158 59C158 60.0938 157.094 61 156 61ZM152.5 53.25C152.094 53.25 151.75 52.9062 151.75 52.5C151.75 52.0938 152.094 51.75 152.5 51.75C152.906 51.75 153.25 52.0938 153.25 52.5C153.25 52.9062 152.906 53.25 152.5 53.25ZM151.75 56C151.75 56.4062 151.406 56.75 151 56.75C150.594 56.75 150.25 56.4062 150.25 56C150.25 55.5938 150.594 55.25 151 55.25C151.406 55.25 151.75 55.5938 151.75 56ZM161 56.75C160.594 56.75 160.25 56.4062 160.25 56C160.25 55.5938 160.594 55.25 161 55.25C161.406 55.25 161.75 55.5938 161.75 56C161.75 56.4062 161.406 56.75 161 56.75ZM160.25 52.5C160.25 52.9062 159.906 53.25 159.5 53.25C159.094 53.25 158.75 52.9062 158.75 52.5C158.75 52.0938 159.094 51.75 159.5 51.75C159.906 51.75 160.25 52.0938 160.25 52.5Z" fill="#9C36B5"/>
<path d="M199.5 49H208.875L208.969 49.3438L210.531 54H212V63H211V61H197V63H196V54H197.469L199.031 49.3438L199.156 49H199.5ZM209.469 54L208.125 50H199.875L198.531 54H209.469ZM197 55V60H211V55H197ZM199.25 58.25C198.844 58.25 198.5 57.9062 198.5 57.5C198.5 57.0938 198.844 56.75 199.25 56.75C199.656 56.75 200 57.0938 200 57.5C200 57.9062 199.656 58.25 199.25 58.25ZM209.5 57.5C209.5 57.9062 209.156 58.25 208.75 58.25C208.344 58.25 208 57.9062 208 57.5C208 57.0938 208.344 56.75 208.75 56.75C209.156 56.75 209.5 57.0938 209.5 57.5Z" fill="#9C36B5"/>
<path d="M236 51H234V61H236V62H234V64H233V62H223V64H222V62H220V61H222V51H220V50H222V48H223V50H233V48H234V50H236V51ZM233 51H223V61H233V51Z" fill="#9C36B5"/>
<path d="M12 73H15.4062C15.4375 73.0938 15.5625 73.7188 15.8125 74.875C17.8125 74.2188 18.875 73.8438 19 73.8125V78.6875C18.7812 78.625 17.9062 78.3438 16.4688 77.8438L16.75 79.1562L16.7812 79.375L16.6562 79.5625L13.4062 83.8125L13.25 84H9.75C9.75 84.0938 9.75 84.1562 9.75 84.25C9.75 85.7812 8.53125 87 7 87C5.46875 87 4.25 85.7812 4.25 84.25C4.25 84.1562 4.25 84.0938 4.25 84H3V82C3 79.7812 4.78125 78 7 78H10V83H12.75L15.7188 79.125L14.5938 74H12V73ZM16.2188 76.7188L18 77.3125V75.1875L16.0312 75.8438L16.2188 76.7188ZM9 80V79H7C5.34375 79 4 80.3438 4 82V83H9V80ZM10 76V77H5V76H10ZM5.25 84.25C5.25 85.2188 6.03125 86 7 86C7.96875 86 8.75 85.2188 8.75 84.25C8.75 84.1562 8.75 84.0938 8.71875 84H5.28125C5.25 84.0938 5.25 84.1562 5.25 84.25ZM19.75 84.25C19.75 83.2812 18.9688 82.5 18 82.5C17.0312 82.5 16.25 83.2812 16.25 84.25C16.25 85.2188 17.0312 86 18 86C18.9688 86 19.75 85.2188 19.75 84.25ZM15.25 84.25C15.25 82.7188 16.4688 81.5 18 81.5C19.5312 81.5 20.75 82.7188 20.75 84.25C20.75 85.7812 19.5312 87 18 87C16.4688 87 15.25 85.7812 15.25 84.25Z" fill="#9C36B5"/>
<path d="M43 80C43 76.125 39.875 73 36 73C32.125 73 29 76.125 29 80C29 82.125 29.9375 84 31.4062 85.2812L32.5 82H39.5L40.5938 85.2812C42.0625 84 43 82.0938 43 80ZM38.7812 83H33.2188L32.25 85.9062C33.3438 86.5938 34.625 87 36 87C37.375 87 38.6562 86.5938 39.75 85.9062L38.7812 83ZM28 80C28 75.5938 31.5938 72 36 72C40.4062 72 44 75.5938 44 80C44 84.4062 40.4062 88 36 88C31.5938 88 28 84.4062 28 80ZM34.5 78C34.5 78.8438 35.1562 79.5 36 79.5C36.8438 79.5 37.5 78.8438 37.5 78C37.5 77.1562 36.8438 76.5 36 76.5C35.1562 76.5 34.5 77.1562 34.5 78ZM36 80.5C34.625 80.5 33.5 79.375 33.5 78C33.5 76.625 34.625 75.5 36 75.5C37.375 75.5 38.5 76.625 38.5 78C38.5 79.375 37.375 80.5 36 80.5Z" fill="#9C36B5"/>
<path d="M85 74.5H92V86H76V73H83L85 74.5ZM91 75.5H84.6562L84.4062 75.3125L82.6562 74H77V85H91V75.5Z" fill="#9C36B5"/>
<path d="M106.5 74C104.562 74 103 75.5625 103 77.5V79L102.625 79.125C101.125 79.5 100 80.875 100 82.5V86H116V83C116 81.8125 115.312 80.7812 114.281 80.2812L114 80.1562V78.25C114 76.7188 112.781 75.5 111.25 75.5C110.812 75.5 110.438 75.5938 110.062 75.7812L109.688 75.9688L109.438 75.5938C108.812 74.625 107.719 74 106.5 74ZM102 77.5C102 75.0312 104.031 73 106.5 73C107.938 73 109.219 73.6562 110.031 74.7188C110.406 74.5625 110.812 74.5 111.25 74.5C113.312 74.5 115 76.1875 115 78.25V79.5312C116.188 80.2188 117 81.5312 117 83V87H99V82.5C99 80.5312 100.25 78.875 102 78.25V77.5Z" fill="#9C36B5"/>
<path d="M129.5 72.75V74H131.25V72H132.75V74H134.5V72H136V74H138V76H140V77.5H138V79.25H140V80.75H138V82.5H140V84H138V86H136V88H134.5V86H132.75V88H131.25V86H129.5V88H128V86H126V84H124V82.5H126V80.75H124V79.25H126V77.5H124V76H126V74H128V72H129.5V72.75ZM134.5 77.5V82.5H129.5V77.5H134.5ZM129.5 76H128V84H136V76H129.5Z" fill="#9C36B5"/>
<path d="M156 87.5C156 87.5 148 81.9688 148 77.25C148 74.9375 149.844 73 152.156 73C153.906 73 155.062 74.0625 156 75.375C156.969 74.0625 158.094 73 159.844 73C162.188 73 164 74.9375 164 77.25C164 81.9688 156 87.5 156 87.5ZM156 77.0938L154.719 75.3125C154.125 74.5 153.188 74 152.156 74C150.406 74 149 75.4062 149 77.1562C149 78.3125 149.5 79.375 150.094 80.3125C150.781 81.4062 151.75 82.4688 152.719 83.4375C153.656 84.375 154.656 85.1875 155.375 85.7812C155.625 85.9688 155.812 86.125 156 86.25C156.188 86.125 156.406 85.9688 156.625 85.7812C157.375 85.2188 158.344 84.375 159.312 83.4375C160.281 82.4688 161.219 81.4062 161.906 80.3125C162.5 79.375 163 78.3125 163 77.1562C163 75.4062 161.594 74 159.844 74C158.812 74 157.875 74.5 157.281 75.3125L156 77.0938Z" fill="#9C36B5"/>
<path d="M211 80C211 76.125 207.875 73 204 73C200.125 73 197 76.125 197 80C197 83.875 200.125 87 204 87C207.875 87 211 83.875 211 80ZM196 80C196 75.5938 199.594 72 204 72C208.406 72 212 75.5938 212 80C212 84.4062 208.406 88 204 88C199.594 88 196 84.4062 196 80ZM204 84.5C205.688 84.5 207.125 83.4688 207.719 82H200.281C200.875 83.4688 202.312 84.5 204 84.5ZM199.031 81H208.969C208.938 81.3438 208.875 81.6875 208.781 82C208.125 84.0312 206.25 85.5 204 85.5C201.75 85.5 199.875 84.0312 199.219 82C199.125 81.6875 199.062 81.3438 199.031 81ZM200.75 78C200.75 77.5938 201.094 77.25 201.5 77.25C201.906 77.25 202.25 77.5938 202.25 78C202.25 78.4062 201.906 78.75 201.5 78.75C201.094 78.75 200.75 78.4062 200.75 78ZM206.5 77.25C206.906 77.25 207.25 77.5938 207.25 78C207.25 78.4062 206.906 78.75 206.5 78.75C206.094 78.75 205.75 78.4062 205.75 78C205.75 77.5938 206.094 77.25 206.5 77.25Z" fill="#9C36B5"/>
<path d="M235.375 76.7812C234.375 75.0312 232.75 73.6562 230.812 72.9688C231.375 72.375 232.156 72 233.031 72C234.656 72 236 73.3438 236 74.9688C236 75.6562 235.781 76.2812 235.375 76.7812ZM220.625 76.7812C220.219 76.2812 220 75.6562 220 74.9688C220 73.3438 221.344 72 222.969 72C223.844 72 224.625 72.375 225.188 72.9688C223.25 73.6562 221.625 75.0312 220.625 76.7812ZM232.188 86.5938C231.031 87.4688 229.562 88 228 88C226.438 88 224.969 87.4688 223.812 86.5938C223 87.4062 222.406 88 222 88.4062L220.594 87C221 86.5938 221.594 86 222.406 85.1875C221.531 84.0312 221 82.5625 221 81C221 77.125 224.125 74 228 74C231.875 74 235 77.125 235 81C235 82.5625 234.469 84.0312 233.594 85.1875L235.406 87L234 88.4062L232.188 86.625V86.5938ZM227.25 77V81.3125L227.469 81.5312L229.719 83.7812L230.781 82.7188L228.75 80.6875V77H227.25Z" fill="#9C36B5"/>
<path d="M7.5625 110C6.59375 110.969 5.96875 111.594 5.75 111.812L4.6875 110.75L5.21875 110.219L12.9688 102.469L12.2812 101.781L11.9375 102.125L6 108.031V103L11.5938 97.4062C12.5 96.5 13.7188 96 15 96C16.2812 96 17.5 96.5 18.4062 97.4062L18.5938 97.5938C19.5 98.5 20 99.7188 20 101C20 101.812 19.7812 102.625 19.4062 103.344L15.5 104.5V105H18L16.375 106.656L13.5 107.5V108H15L13 110H7.5625Z" fill="#9C36B5"/>
<path d="M34 97V103C34 104.094 34.9062 105 36 105C37.0938 105 38 104.094 38 103V97H34ZM33 96H39V103C39 104.656 37.6562 106 36 106C34.3438 106 33 104.656 33 103V96ZM31 101.5V103C31 105.75 33.25 108 36 108C38.75 108 41 105.75 41 103V101H42V103C42 106.156 39.5938 108.719 36.5 108.969V111H39V112H33V111H35.5V108.969C32.4062 108.719 30 106.156 30 103V101H31V101.5Z" fill="#9C36B5"/>
<path d="M60 97C56.125 97 53 100.125 53 104C53 107.875 56.125 111 60 111C63.875 111 67 107.875 67 104C67 100.125 63.875 97 60 97ZM60 112C55.5938 112 52 108.406 52 104C52 99.5938 55.5938 96 60 96C64.4062 96 68 99.5938 68 104C68 108.406 64.4062 112 60 112ZM56.3125 106.875L57.75 101.75C61.8438 100.594 63.9062 100.031 64 100C63.9688 100.094 63.4062 102.156 62.25 106.25C58.1562 107.406 56.0938 107.969 56 108L56.3125 106.875ZM57.4375 106.562L61.4375 105.438L62.5625 101.438L58.5625 102.562L57.4375 106.562ZM60 104.75C59.5938 104.75 59.25 104.406 59.25 104C59.25 103.594 59.5938 103.25 60 103.25C60.4062 103.25 60.75 103.594 60.75 104C60.75 104.406 60.4062 104.75 60 104.75Z" fill="#9C36B5"/>
<path d="M77.5 106.5V109.5H90.5V106.5H87.9062C87.2812 107.406 86.9688 107.906 86.9062 108H81.0938C81.0312 107.906 80.7188 107.406 80.0938 106.5H77.5ZM90.5 105L89.6875 98.5H78.3125L77.5 105H80.9062C80.9688 105.094 81.2812 105.594 81.9062 106.5H86.0938C86.7188 105.594 87.0312 105.094 87.0938 105H90.5ZM76 105L77 97H91L92 105V111H76V105Z" fill="#9C36B5"/>
<path d="M105.25 98V100H110.75V98H105.25ZM104.25 100V98H102V100H104.25ZM102 101V103.5H107.5V101H102ZM102 107H104.25V104.5H102V107ZM102 108V110H107.5V108H102ZM105.25 107H110.75V104.5H105.25V107ZM111.75 107H114V104.5H111.75V107ZM114 108H108.5V110H114V108ZM114 101H108.5V103.5H114V101ZM114 100V98H111.75V100H114ZM101 97H115V111H101V97Z" fill="#9C36B5"/>
<path d="M124 97H139C138.938 97.2188 138.438 98.7812 137.531 101.656C139.031 102.75 140 104.5 140 106.5V106.75C140 109.25 137.75 111 137.75 111H128.25C128.25 111 126 109.25 126 106.75V106.5C126 104.531 126.969 102.781 128.438 101.688L127 98H125V103H124V97ZM129.438 101.5H136.531L137.625 98H128.062L129.438 101.5ZM127.031 106C127 106.156 127 106.344 127 106.5V106.75C127 107.688 127.438 108.562 127.938 109.219C128.156 109.531 128.406 109.781 128.594 109.969L128.625 110H137.375L137.406 109.969C137.594 109.781 137.844 109.531 138.062 109.219C138.562 108.562 139 107.688 139 106.75V106.5C139 106.344 139 106.156 138.969 106H127.031ZM127.219 105H138.781C138.469 104 137.844 103.125 137 102.5H129C128.188 103.125 127.562 104 127.219 105Z" fill="#9C36B5"/>
<path d="M162 109.312V111L160 110C159.531 110.531 158.938 111.219 158.25 112C157.5 111.344 156.75 110.656 156 110C155.25 110.656 154.5 111.344 153.75 112C153.062 111.219 152.469 110.531 152 110L150 111V102C150 98.6875 152.688 96 156 96C159.312 96 162 98.6875 162 102V109.312ZM160.5 108.562V102C160.5 99.5312 158.5 97.5 156 97.5C153.531 97.5 151.5 99.5312 151.5 102V108.562L152.375 108.156C152.875 108.719 153.375 109.312 153.875 109.875C154.656 109.188 155.344 108.562 156 108C156.656 108.562 157.344 109.188 158.125 109.875C158.625 109.312 159.125 108.719 159.625 108.156L160.5 108.562ZM153 102C153 101.438 153.438 101 154 101C154.562 101 155 101.438 155 102C155 102.562 154.562 103 154 103C153.438 103 153 102.562 153 102ZM158 101C158.562 101 159 101.438 159 102C159 102.562 158.562 103 158 103C157.438 103 157 102.562 157 102C157 101.438 157.438 101 158 101Z" fill="#9C36B5"/>
<path d="M180 98L181 96H186V104H174V96H176L177 98L178 96H179L180 98ZM174 105.5H186V108H182V112H178V108H174V105.5ZM180 110.5C180.281 110.5 180.5 110.281 180.5 110C180.5 109.719 180.281 109.5 180 109.5C179.719 109.5 179.5 109.719 179.5 110C179.5 110.281 179.719 110.5 180 110.5Z" fill="#9C36B5"/>
<path d="M200.031 98.2188L200.219 98.2812L204 99.7188L207.781 98.2812L207.969 98.2188L208.125 98.2812L212.094 99.7812L211.75 100.719L207.969 99.2812L204.188 100.719L204 100.781L203.812 100.719L200.031 99.2812L196.25 100.719L195.906 99.7812L199.875 98.2812L200.031 98.2188ZM200.031 102.719L200.219 102.781L204 104.219L207.781 102.781L207.969 102.719L208.125 102.781L212.094 104.281L211.75 105.219L207.969 103.781L204.188 105.219L204 105.281L203.812 105.219L200.031 103.781L196.25 105.219L195.906 104.281L199.875 102.781L200.031 102.719ZM200.219 107.281L204 108.719L207.781 107.281L207.969 107.219L208.125 107.281L212.094 108.781L211.75 109.719L207.969 108.281L204.188 109.719L204 109.781L203.812 109.719L200.031 108.281L196.25 109.719L195.906 108.781L199.875 107.281L200.031 107.219L200.219 107.281Z" fill="#9C36B5"/>
<path d="M227 102H221V102.25C221 105.438 223.562 108 226.75 108C229.938 108 232.5 105.438 232.5 102.25V99.25C232.5 98 231.5 97 230.25 97C229 97 228 98 228 99.25V102H227ZM220 102.25V101H227V99.25C227 97.4688 228.469 96 230.25 96C231.594 96 232.75 96.8125 233.25 98C235 99.2812 235.906 99.9375 236 99.9688C235.906 100.062 235.062 100.719 233.5 102V102.25C233.5 105.031 231.844 107.406 229.438 108.438L231.344 112H230.188L228.5 108.781C227.938 108.906 227.344 109 226.75 109L228.344 112H227.188L225.562 108.906C222.406 108.344 220 105.562 220 102.25ZM233.5 100.719L234.344 100.031L233.5 99.4062V100.719ZM229.5 99.75C229.5 99.3438 229.844 99 230.25 99C230.656 99 231 99.3438 231 99.75C231 100.156 230.656 100.5 230.25 100.5C229.844 100.5 229.5 100.156 229.5 99.75Z" fill="#9C36B5"/>
<path d="M10.25 122.562L9.96875 123.094L9.375 122.906C8.6875 122.719 7.9375 122.875 7.40625 123.406C6.875 123.938 6.71875 124.688 6.90625 125.375L7.09375 125.969L6.5625 126.25C5.9375 126.594 5.5 127.25 5.5 128C5.5 128.75 5.9375 129.406 6.5625 129.75L7.09375 130.031L6.90625 130.625C6.71875 131.312 6.875 132.062 7.40625 132.594C7.9375 133.125 8.6875 133.281 9.375 133.094L9.96875 132.906L10.25 133.469C10.5938 134.094 11.25 134.5 12 134.5C12.75 134.5 13.4062 134.094 13.75 133.469L14.0312 132.906L14.625 133.094C15.3125 133.281 16.0625 133.125 16.5938 132.594C17.125 132.062 17.2812 131.312 17.0938 130.625L16.9062 130.031L17.4688 129.75C18.0938 129.406 18.5 128.75 18.5 128C18.5 127.25 18.0938 126.594 17.4688 126.25L16.9062 125.969L17.0938 125.375C17.2812 124.688 17.125 123.938 16.5938 123.406C16.0625 122.875 15.3125 122.719 14.625 122.906L14.0312 123.094L13.75 122.562C13.4062 121.938 12.75 121.5 12 121.5C11.25 121.5 10.5938 121.938 10.25 122.562ZM12 120C13.125 120 14.125 120.531 14.75 121.344C15.7812 121.219 16.875 121.562 17.6562 122.344C18.4375 123.125 18.7812 124.219 18.6562 125.25C19.4688 125.875 20 126.875 20 128C20 129.125 19.4688 130.125 18.6562 130.75C18.7812 131.781 18.4688 132.875 17.6562 133.656C16.875 134.438 15.7812 134.781 14.75 134.656C14.125 135.469 13.125 136 12 136C10.875 136 9.875 135.469 9.25 134.656C8.21875 134.781 7.125 134.469 6.34375 133.656C5.5625 132.875 5.21875 131.781 5.34375 130.75C4.53125 130.125 4 129.125 4 128C4 126.875 4.53125 125.875 5.34375 125.25C5.21875 124.219 5.5625 123.125 6.34375 122.344C7.125 121.562 8.21875 121.219 9.25 121.344C9.875 120.531 10.875 120 12 120ZM15.0312 125.5L14.625 126.156L12.125 130.156L11.9062 130.5H11.125L10.9062 130.219C9.71875 128.625 9.0625 127.781 8.9375 127.594L10.1562 126.719C10.375 127.031 10.8125 127.594 11.4375 128.438C12.9688 125.969 13.75 124.75 13.75 124.719L15.0312 125.5Z" fill="#9C36B5"/>
<path d="M35.5 121.281L29.5312 123.594C29.4375 125.031 29.6562 127.25 30.5938 129.406C31.5 131.438 33 133.438 35.5 134.688V121.281ZM36.5 134.688C39 133.438 40.5 131.438 41.4062 129.406C42.3438 127.25 42.5625 125.031 42.5 123.594L36.5 121.281V134.688ZM43.5 123.531H43.4688C43.5625 125.094 43.3438 127.469 42.3125 129.812C41.2812 132.156 39.4688 134.5 36.4062 135.844L36 136L35.5938 135.844C32.5312 134.5 30.7188 132.156 29.6875 129.812C28.6875 127.469 28.4375 125.094 28.5312 123.531L28.5625 122.906L29.1562 122.656L35.6562 120.156L36 120L36.375 120.156L42.8438 122.656L43.4375 122.906L43.5 123.531Z" fill="#9C36B5"/>
<path d="M54 121V124H66V121H54ZM54 125V128H59.5V125H54ZM60.5 125V128H66V125H60.5ZM54 129V133H66V129H54ZM53 128V120H67V134H66V136H65V134H55V136H54V134H53V128ZM55.25 131C55.25 130.594 55.5938 130.25 56 130.25C56.4062 130.25 56.75 130.594 56.75 131C56.75 131.406 56.4062 131.75 56 131.75C55.5938 131.75 55.25 131.406 55.25 131ZM64 130.25C64.4062 130.25 64.75 130.594 64.75 131C64.75 131.406 64.4062 131.75 64 131.75C63.5938 131.75 63.25 131.406 63.25 131C63.25 130.594 63.5938 130.25 64 130.25ZM58.5 122H62V123H58V122H58.5Z" fill="#9C36B5"/>
<path d="M85 120H87.25C88.7812 120 90 121.219 90 122.75C90 124.281 88.7812 125.5 87.25 125.5H76V123.5H87.25C87.6562 123.5 88 123.156 88 122.75C88 122.344 87.6562 122 87.25 122H85V120ZM87 133V131H89C89.5625 131 90 130.562 90 130C90 129.438 89.5625 129 89 129H76V127H89C90.6562 127 92 128.344 92 130C92 131.656 90.6562 133 89 133H87ZM80 136H79V134H81.25C81.6562 134 82 133.656 82 133.25C82 132.844 81.6562 132.5 81.25 132.5H76V130.5H81.25C82.7812 130.5 84 131.719 84 133.25C84 134.781 82.7812 136 81.25 136H80Z" fill="#9C36B5"/>
<path d="M105.562 122.906C105.719 121.812 106.656 121 107.75 121C109.125 121 110.156 122.219 109.969 123.562L109.469 127.094C109.312 128.188 108.375 129 107.25 129C105.906 129 104.844 127.812 105.031 126.469L105.562 122.906ZM107.75 122C107.156 122 106.625 122.438 106.531 123.062L106.031 126.594C105.938 127.344 106.5 128 107.25 128C107.875 128 108.375 127.562 108.469 126.938L108.969 123.406C109.094 122.656 108.5 122 107.75 122ZM103.125 122.312C102 122.812 101.375 123.094 101.25 123.156L100.844 122.25C100.844 122.25 101.75 121.844 103.562 121.031L104.25 121.562L103 129.562L102.906 130.062L101.938 129.938L102 129.438L103.125 122.312ZM113.312 121C114.656 121 115.688 122.156 115.531 123.5L115.188 126.531C115.062 127.656 114.094 128.5 112.969 128.5C111.625 128.5 110.562 127.344 110.719 126L111.094 122.969C111.219 121.844 112.156 121 113.312 121ZM112.062 123.094L111.719 126.125C111.625 126.844 112.219 127.5 112.969 127.5C113.594 127.5 114.125 127.031 114.188 126.406L114.531 123.375C114.625 122.656 114.031 122 113.312 122C112.688 122 112.156 122.469 112.062 123.094ZM115.562 131L100.562 133L100.438 132L115.438 130L115.562 131ZM114.562 134L106.562 135L106.438 134L114.438 133L114.938 132.938L115.062 133.938L114.562 134Z" fill="#9C36B5"/>
<path d="M139 120.5V130.5C139 131.875 137.656 133 136 133C134.344 133 133 131.875 133 130.5C133 129.125 134.344 128 136 128C136.781 128 137.469 128.25 138 128.625V124.875L130 126.656V132.5C130 133.875 128.656 135 127 135C125.344 135 124 133.875 124 132.5C124 131.125 125.344 130 127 130C127.781 130 128.469 130.25 129 130.625V122.094L129.406 122L138.406 120L139 119.875V120.5ZM138 130.5C138 129.688 137.094 129 136 129C134.906 129 134 129.688 134 130.5C134 131.344 134.906 132 136 132C137.094 132 138 131.344 138 130.5ZM129 132.5C129 131.688 128.094 131 127 131C125.906 131 125 131.688 125 132.5C125 133.344 125.906 134 127 134C128.094 134 129 133.344 129 132.5ZM138 123.844V121.125L130 122.906V125.625L138 123.844Z" fill="#9C36B5"/>
<path d="M156 135C156.031 135 156.094 135 156.125 135C156.219 134.938 156.375 134.844 156.562 134.656C156.938 134.312 157.312 133.812 157.688 133.125C158.375 131.875 158.906 130.219 159 128.5H153C153.094 130.219 153.625 131.875 154.312 133.125C154.688 133.812 155.062 134.312 155.438 134.656C155.625 134.844 155.781 134.938 155.875 135C155.906 135 155.969 135 156 135ZM153 127.5H153.031H159C158.906 125.781 158.375 124.125 157.688 122.875C157.312 122.219 156.938 121.688 156.562 121.344C156.375 121.156 156.219 121.062 156.125 121C156.031 121 155.969 121 155.875 121C155.781 121.062 155.625 121.156 155.438 121.344C155.062 121.688 154.688 122.219 154.312 122.875C153.625 124.125 153.094 125.781 153 127.5ZM160 128.5C159.875 131.031 158.906 133.375 157.812 134.75C160.656 134 162.781 131.531 162.969 128.5H160ZM162.969 127.5C162.781 124.5 160.656 122 157.812 121.25C158.906 122.625 159.875 124.969 160 127.5H162.969ZM152 127.5C152.125 124.969 153.125 122.625 154.188 121.25C151.344 122 149.219 124.5 149.031 127.5H152ZM149.031 128.5C149.219 131.531 151.344 134 154.188 134.75C153.125 133.375 152.125 131.031 152 128.5H149.031ZM156 136C151.594 136 148 132.406 148 128C148 123.594 151.594 120 156 120C160.406 120 164 123.594 164 128C164 132.406 160.406 136 156 136Z" fill="#9C36B5"/>
<path d="M178 133.5H182V122.5H178V133.5ZM176.5 122.5H174.5V124H176.5V122.5ZM176.5 125.5H174.5V127.25H176.5V125.5ZM176.5 128.75H174.5V130.5H176.5V128.75ZM176.5 132H174.5V133.5H176.5V132ZM183.5 122.5V124H185.5V122.5H183.5ZM185.5 125.5H183.5V127.25H185.5V125.5ZM185.5 128.75H183.5V130.5H185.5V128.75ZM185.5 132H183.5V133.5H185.5V132ZM185.5 121H187V135H173V121H185.5Z" fill="#9C36B5"/>
<path d="M201 127V121H200V120H208V121H207V127L211 134V136H197V134L201 127ZM202 121V127.281L201.875 127.5L200.438 130H207.562L206.125 127.5L206 127.281V121H202ZM199.875 131L198 134.281V135H210V134.281L208.125 131H199.875Z" fill="#9C36B5"/>
<path d="M236 120.844V133.188L235.719 133.344L231.156 135.406L230.969 135.469L230.781 135.406L224.969 133.469L220.719 135.625L220 135.969V122.812L220.281 122.656L224.844 120.594L225.031 120.531L225.219 120.594L231.031 122.531L235.281 120.375L236 120.031V120.844ZM231.5 123.406V134.156L235 132.562V121.656L231.5 123.406ZM230.5 123.406L225.5 121.75V132.594L230.5 134.281V123.406ZM224.5 132.594V121.844L221 123.438V134.344L224.5 132.594Z" fill="#9C36B5"/>
<rect x="56" y="42" width="128" height="50" fill="#183153"/>
<rect x="56" y="42" width="128" height="50" stroke="#E599F7" stroke-width="4"/>
<path d="M81.1678 74.288C78.4318 74.288 76.2238 72.896 75.0478 70.784L77.2798 69.104C78.1438 70.304 79.2718 71.408 81.1678 71.408C82.5598 71.408 83.4238 70.76 83.4238 69.656C83.4238 68.624 82.6558 68.264 81.4078 67.688L79.7038 66.92C77.5198 65.936 75.8638 64.64 75.8638 62.36C75.8638 59.624 78.1438 57.872 81.1198 57.872C83.6398 57.872 85.4158 59.144 86.3518 60.872L84.1438 62.576C83.3758 61.424 82.4158 60.752 81.1198 60.752C80.0638 60.752 79.1518 61.232 79.1518 62.288C79.1518 63.2 79.8478 63.584 80.9998 64.112L82.7998 64.904C85.2958 66.008 86.7118 67.28 86.7118 69.536C86.7118 72.488 84.3118 74.288 81.1678 74.288ZM93.3981 74V58.16H96.6381V64.232H103.646V58.16H106.886V74H103.646V67.16H96.6381V74H93.3981ZM124.571 74L123.683 71.936H117.203L116.315 74H112.835L119.915 57.872H120.995L128.051 74H124.571ZM122.555 69.272L120.443 63.92L118.331 69.272H122.555ZM147.423 74H143.775L139.671 68.408H137.295V74H134.055V58.16H140.007C143.343 58.16 145.719 60.176 145.719 63.272C145.719 65.312 144.639 66.944 142.935 67.784L147.423 74ZM137.295 61.016V65.552H140.007C141.519 65.552 142.407 64.64 142.407 63.272C142.407 61.952 141.519 61.016 140.007 61.016H137.295ZM153.246 74V58.16H159.198C162.534 58.16 164.91 60.176 164.91 63.272C164.91 66.32 162.534 68.408 159.198 68.408H156.486V74H153.246ZM156.486 65.576H159.198C160.71 65.576 161.598 64.64 161.598 63.272C161.598 61.952 160.71 61.016 159.198 61.016H156.486V65.576Z" fill="white"/>
</g>
</g>
<defs>
<clipPath id="clip0_169_11743">
<rect width="240" height="135" fill="white"/>
</clipPath>
<clipPath id="clip1_169_11743">
<rect width="720" height="135" fill="white" transform="translate(-240)"/>
</clipPath>
</defs>
</svg>
