<svg width="240" height="135" viewBox="0 0 240 135" fill="none" xmlns="http://www.w3.org/2000/svg">
<g clip-path="url(#clip0_190_57885)">
<g clip-path="url(#clip1_190_57885)">
<rect width="720" height="135" transform="translate(-240)" fill="#B197FC"/>
<path d="M14.7188 4.25L16.9375 7.9375C16.1562 8.71875 15.2188 9.34375 14.125 9.6875L12 6L6.84375 14.875L4 16V13.0625L9.28125 4.25C9.09375 3.875 9 3.4375 9 3C9 1.34375 10.3438 0 12 0C13.6562 0 15 1.34375 15 3C15 3.4375 14.9062 3.875 14.7188 4.25ZM18 9.71875L20 13.0625V16L17.1562 14.875L15.1562 11.4375C16.2188 11.0312 17.1875 10.4375 18 9.71875ZM11 3C11 3.5625 11.4375 4 12 4C12.5625 4 13 3.5625 13 3C13 2.4375 12.5625 2 12 2C11.4375 2 11 2.4375 11 3Z" fill="#6741D9"/>
<path opacity="0.4" d="M4.21875 7.5L5.9375 6.5C6.25 7.03125 6.625 7.53125 7.0625 7.9375C6.71875 8.53125 6.34375 9.125 6 9.71875C5.28125 9.0625 4.6875 8.34375 4.21875 7.5ZM8.84375 11.4375L9.875 9.6875C10.5625 9.875 11.25 10 12 10C12.75 10 13.4688 9.875 14.125 9.6875C15.2188 9.34375 16.1562 8.71875 16.9375 7.9375C17.375 7.53125 17.75 7.03125 18.0625 6.5L19.7812 7.5C19.3125 8.34375 18.7188 9.0625 18 9.71875C17.1562 10.4375 16.2188 11.0312 15.1562 11.4375C14.1562 11.8125 13.0938 12 12 12C10.9062 12 9.84375 11.8125 8.84375 11.4375Z" fill="#6741D9"/>
<path d="M40 6.5C40 3.46875 37.5312 1 34.5 1C31.4688 1 29 3.46875 29 6.5C29 9.53125 31.4688 12 34.5 12C37.5312 12 40 9.53125 40 6.5ZM38.75 11.4375C37.5938 12.4062 36.125 13 34.5 13C30.9062 13 28 10.0938 28 6.5C28 2.90625 30.9062 0 34.5 0C38.0938 0 41 2.90625 41 6.5C41 8.125 40.4062 9.59375 39.4375 10.7188L43.875 15.1562L44.2188 15.5L43.5 16.2188L43.1562 15.8438L38.75 11.4375Z" fill="#6741D9"/>
<path opacity="0.4" d="M29 6.5C29 3.46875 31.4688 1 34.5 1C37.5312 1 40 3.46875 40 6.5C40 9.53125 37.5312 12 34.5 12C31.4688 12 29 9.53125 29 6.5Z" fill="#6741D9"/>
<path d="M64 4V5.5H57V4H64ZM64 7V8.5H57V7H64Z" fill="#6741D9"/>
<path opacity="0.4" d="M53 0H67V12H66V14H67V16H53V0ZM55 13V14H64V12H56C55.4375 12 55 12.4375 55 13ZM57 4V5.5H64V4H57ZM57 7V8.5H64V7H57Z" fill="#6741D9"/>
<path d="M77 8C77 8.46875 77.0625 8.90625 77.125 9.34375C77.1875 9.375 77.25 9.40625 77.3438 9.4375C78.4688 9.84375 80.4375 10.5312 84 10.5312C87.5625 10.5312 89.5312 9.84375 90.6562 9.4375C90.75 9.40625 90.8125 9.375 90.875 9.34375C90.9688 8.90625 91 8.46875 91 8C91 4.125 87.875 1 84 1C80.125 1 77 4.125 77 8ZM84 11.5312V11.5625C80.7188 11.5625 78.6875 10.9688 77.4688 10.5312C78.5 13.1562 81.0312 15 84 15C86.9688 15 89.5 13.1562 90.5312 10.5312C89.3125 10.9688 87.2812 11.5312 84 11.5312ZM84 0C88.4062 0 92 3.59375 92 8C92 12.4062 88.4062 16 84 16C79.5938 16 76 12.4062 76 8C76 3.59375 79.5938 0 84 0ZM80.25 5C80.25 5.96875 81.0312 6.75 82 6.75C82.9688 6.75 83.75 5.96875 83.75 5C83.75 4.03125 82.9688 3.25 82 3.25C81.0312 3.25 80.25 4.03125 80.25 5ZM84.75 5C84.75 6.53125 83.5312 7.75 82 7.75C80.4688 7.75 79.25 6.53125 79.25 5C79.25 3.46875 80.4688 2.25 82 2.25C83.5312 2.25 84.75 3.46875 84.75 5ZM82 5.75C81.5938 5.75 81.25 5.40625 81.25 5C81.25 4.59375 81.5938 4.25 82 4.25C82.4062 4.25 82.75 4.59375 82.75 5C82.75 5.40625 82.4062 5.75 82 5.75Z" fill="#6741D9"/>
<path opacity="0.4" d="M77 8C77 4.125 80.125 1 84 1C87.875 1 91 4.125 91 8C91 8.46875 90.9688 8.90625 90.875 9.34375C90.8125 9.375 90.75 9.40625 90.6562 9.4375C89.5312 9.84375 87.5625 10.5312 84 10.5312C80.4375 10.5312 78.4688 9.84375 77.3438 9.4375C77.25 9.40625 77.1875 9.375 77.125 9.34375C77.0625 8.90625 77 8.46875 77 8ZM77.4688 10.5312C78.6875 10.9688 80.7188 11.5625 84 11.5625C87.2812 11.5625 89.3125 10.9688 90.5312 10.5312C89.5 13.1562 86.9688 15 84 15C81.0312 15 78.5 13.1562 77.4688 10.5312ZM79.25 5C79.25 6.53125 80.4688 7.75 82 7.75C83.5312 7.75 84.75 6.53125 84.75 5C84.75 3.46875 83.5312 2.25 82 2.25C80.4688 2.25 79.25 3.46875 79.25 5Z" fill="#6741D9"/>
<path d="M113.5 13H102.5L105.5 8.5L106.938 10.6562L109.5 6.5L113.5 13Z" fill="#6741D9"/>
<path opacity="0.4" d="M101 1H115V15H101V1ZM102.5 13H113.5L109.5 6.5L106.938 10.6562L105.5 8.5L102.5 13ZM106.5 5C106.5 4.15625 105.844 3.5 105 3.5C104.156 3.5 103.5 4.15625 103.5 5C103.5 5.84375 104.156 6.5 105 6.5C105.844 6.5 106.5 5.84375 106.5 5Z" fill="#6741D9"/>
<path d="M127.875 8.5L125.406 14.5312L138.531 8.5H127.875ZM138.531 7.5L125.406 1.46875L127.875 7.5H138.531ZM123.5 -0.5L124.844 0.125L140.812 7.4375L142 8L140.812 8.5625L124.844 15.875L123.5 16.5L124.062 15.1562L127 8L124.062 0.84375L123.5 -0.5Z" fill="#6741D9"/>
<path opacity="0.4" d="M125.406 1.46875L138.531 7.5H127.875L125.406 1.46875ZM125.406 14.5312L127.875 8.5H138.531L125.406 14.5312Z" fill="#6741D9"/>
<path d="M154.062 14.5H157.938C157.719 15.375 156.938 16 156 16C155.062 16 154.281 15.375 154.062 14.5Z" fill="#6741D9"/>
<path opacity="0.4" d="M148.5 13L151 9V6C151 3.59375 152.719 1.5625 155 1.09375V0H157V1.09375C159.281 1.5625 161 3.59375 161 6V9L163.5 13H148.5Z" fill="#6741D9"/>
<path d="M181.656 1.84375L180.562 4H183C183.844 4 184.5 3.34375 184.5 2.5C184.5 1.6875 183.812 1 183 1C182.438 1 181.906 1.3125 181.656 1.84375ZM177 5H173V7H187V5H177ZM173 4H175C174.688 3.59375 174.5 3.0625 174.5 2.5C174.5 1.125 175.625 0 177 0C177.969 0 178.844 0.53125 179.25 1.375L180 2.875L180.75 1.375C181.188 0.53125 182.031 0 183 0C184.375 0 185.5 1.125 185.5 2.5C185.5 3.0625 185.312 3.59375 185 4H188V8H187V15H173V8H172V4H173ZM179.438 4L178.375 1.84375C178.094 1.3125 177.594 1 177 1C176.188 1 175.5 1.6875 175.5 2.5C175.5 3.34375 176.188 4 177 4H179.438ZM186 8H180.5V14H186V8ZM179.5 8H174V14H179.5V8Z" fill="#6741D9"/>
<path opacity="0.4" d="M173 5H187V7H173V5ZM174 8H179.5V14H174V8ZM180.5 8H186V14H180.5V8Z" fill="#6741D9"/>
<path d="M201 1H207L207.656 3H212V15H196V3H200.344L201 1ZM204 6C202.344 6 201 7.34375 201 9C201 10.6562 202.344 12 204 12C205.656 12 207 10.6562 207 9C207 7.34375 205.656 6 204 6Z" fill="#6741D9"/>
<path opacity="0.4" d="M201 9C201 7.34375 202.344 6 204 6C205.656 6 207 7.34375 207 9C207 10.6562 205.656 12 204 12C202.344 12 201 10.6562 201 9Z" fill="#6741D9"/>
<path d="M234.5 -0.25V1.5H236.25V2.5H234.5V4.25H233.5V2.5H231.75V1.5H233.5V-0.25H234.5ZM229.844 2.65625L231.25 4.03125C231.531 3.78125 231.781 3.53125 232 3.28125L232.719 4C232.469 4.21875 232.219 4.46875 231.969 4.75C233.062 5.84375 233.656 6.4375 233.719 6.5C233.531 6.6875 233.188 7.03125 232.688 7.53125C232.906 8.15625 233 8.8125 233 9.5C233 13.0938 230.094 16 226.5 16C222.906 16 220 13.0938 220 9.5C220 5.90625 222.906 3 226.5 3C227.156 3 227.812 3.09375 228.438 3.28125C229 2.78125 229.344 2.46875 229.531 2.3125L229.844 2.65625ZM228.875 4.21875L228.656 4.4375L228.375 4.3125C227.781 4.125 227.156 4 226.5 4C223.469 4 221 6.46875 221 9.5C221 12.5312 223.469 15 226.5 15C229.531 15 232 12.5312 232 9.5C232 8.8125 231.875 8.15625 231.656 7.5625L231.531 7.25L232.281 6.5L229.469 3.6875L228.875 4.21875ZM223.5 9.5V10H222.5V9.5C222.5 7.28125 224.281 5.5 226.5 5.5H227V6.5H226.5C224.844 6.5 223.5 7.84375 223.5 9.5Z" fill="#6741D9"/>
<path opacity="0.4" d="M221 9.5C221 6.46875 223.469 4 226.5 4C227.156 4 227.781 4.125 228.375 4.3125L228.656 4.4375C228.75 4.34375 229 4.09375 229.469 3.6875L232.281 6.5L231.531 7.25L231.656 7.5625C231.875 8.15625 232 8.8125 232 9.5C232 12.5312 229.531 15 226.5 15C223.469 15 221 12.5312 221 9.5ZM222.5 9.5V10H223.5V9.5C223.5 7.84375 224.844 6.5 226.5 6.5H227V5.5H226.5C224.281 5.5 222.5 7.28125 222.5 9.5Z" fill="#6741D9"/>
<path d="M6 31V32H10V39H8C6.34375 39 5 37.6562 5 36V31C5 27.125 8.125 24 12 24C15.875 24 19 27.125 19 31V36C19 37.6562 17.6562 39 16 39H14V32H18V31C18 27.6875 15.3125 25 12 25C8.6875 25 6 27.6875 6 31ZM6 33V36C6 37.0938 6.90625 38 8 38H9V33H6ZM18 33H15V38H16C17.0938 38 18 37.0938 18 36V33Z" fill="#6741D9"/>
<path opacity="0.4" d="M6 33H9V38H8C6.90625 38 6 37.0938 6 36V35.5C6 34.6562 6 33.8438 6 33ZM15 33H18C18 34.0312 18 35.0625 18 36.125C17.9375 37.1562 17.0625 38 16 38H15V33Z" fill="#6741D9"/>
<path d="M36.6875 24.7812L43.6875 31.2812L44.4062 31.9375L43.0625 33.4062L42.3125 32.75L36 26.875L29.6875 32.75L28.9688 33.4062L27.5938 31.9375L28.3125 31.2812L35.3125 24.7812L36 24.125L36.6875 24.7812ZM38 34.5V40H34V34.5H38Z" fill="#6741D9"/>
<path opacity="0.4" d="M29.5 32.9062L29.6875 32.7188L36 26.875L42.3125 32.7188L42.5 32.9062V40H38V34.5H34V40H29.5V32.9062Z" fill="#6741D9"/>
<path d="M67 32C67 28.125 63.875 25 60 25C56.125 25 53 28.125 53 32C53 35.875 56.125 39 60 39C63.875 39 67 35.875 67 32ZM52 32C52 27.5938 55.5938 24 60 24C64.4062 24 68 27.5938 68 32C68 36.4062 64.4062 40 60 40C55.5938 40 52 36.4062 52 32ZM60 35.5C61.3438 35.5 62.5 34.8438 63.25 33.8438L64.0625 34.4375C63.125 35.6875 61.6562 36.5 60 36.5C58.3438 36.5 56.875 35.6875 55.9688 34.4375L56.75 33.8438C57.5 34.8438 58.6562 35.5 60 35.5ZM56.75 30.5C56.75 30.0938 57.0938 29.75 57.5 29.75C57.9062 29.75 58.25 30.0938 58.25 30.5C58.25 30.9062 57.9062 31.25 57.5 31.25C57.0938 31.25 56.75 30.9062 56.75 30.5ZM62.5 29.75C62.9062 29.75 63.25 30.0938 63.25 30.5C63.25 30.9062 62.9062 31.25 62.5 31.25C62.0938 31.25 61.75 30.9062 61.75 30.5C61.75 30.0938 62.0938 29.75 62.5 29.75Z" fill="#6741D9"/>
<path opacity="0.4" d="M53 32C53 28.125 56.125 25 60 25C63.875 25 67 28.125 67 32C67 35.875 63.875 39 60 39C56.125 39 53 35.875 53 32ZM55.9688 34.4375C56.875 35.6875 58.3438 36.5 60 36.5C61.6562 36.5 63.125 35.6875 64.0625 34.4375L63.25 33.8438C62.5 34.8438 61.3438 35.5 60 35.5C58.6562 35.5 57.5 34.8438 56.75 33.8438L55.9688 34.4375ZM58.25 30.5C58.25 30.0938 57.9062 29.75 57.5 29.75C57.0938 29.75 56.75 30.0938 56.75 30.5C56.75 30.9062 57.0938 31.25 57.5 31.25C57.9062 31.25 58.25 30.9062 58.25 30.5ZM63.25 30.5C63.25 30.0938 62.9062 29.75 62.5 29.75C62.0938 29.75 61.75 30.0938 61.75 30.5C61.75 30.9062 62.0938 31.25 62.5 31.25C62.9062 31.25 63.25 30.9062 63.25 30.5Z" fill="#6741D9"/>
<path d="M177 26H179V28H177C174.781 28 173 29.7812 173 32C173 34.2188 174.781 36 177 36H179V38H177C173.688 38 171 35.3125 171 32C171 28.6875 173.688 26 177 26ZM183 26C186.312 26 189 28.6875 189 32C189 35.3125 186.312 38 183 38H181V36H183C185.219 36 187 34.2188 187 32C187 29.7812 185.219 28 183 28H181V26H183Z" fill="#6741D9"/>
<path opacity="0.4" d="M176 31H184V33H176V31Z" fill="#6741D9"/>
<path d="M208.406 30.1875L211.094 27.5L208.5 24.9062L205.812 27.5938L208.406 30.1875ZM207.906 31.125L204.875 28.0938L199.812 29.7812L197.281 38.0312L200.781 34.5312C200.594 34.2188 200.5 33.875 200.5 33.5C200.5 32.4062 201.406 31.5 202.5 31.5C203.594 31.5 204.5 32.4062 204.5 33.5C204.5 34.5938 203.594 35.5 202.5 35.5C202.125 35.5 201.781 35.4062 201.5 35.2188L197.969 38.7188L206.219 36.1875L207.906 31.125ZM207 37L197.25 40L196 38.75L199 29L205 27C207.219 24.7812 208.375 23.625 208.5 23.5C208.656 23.6562 209.75 24.75 211.781 26.7812L212.5 27.5C212.375 27.625 211.219 28.7812 209 31L207 37ZM201.5 33.5C201.5 34.0625 201.938 34.5 202.5 34.5C203.062 34.5 203.5 34.0625 203.5 33.5C203.5 32.9375 203.062 32.5 202.5 32.5C201.938 32.5 201.5 32.9375 201.5 33.5Z" fill="#6741D9"/>
<path opacity="0.4" d="M197.281 38.0312L199.812 29.7812L204.875 28.0938L207.906 31.125L206.219 36.1875L197.969 38.7188L201.5 35.2188C201.781 35.4062 202.125 35.5 202.5 35.5C203.594 35.5 204.5 34.5938 204.5 33.5C204.5 32.4062 203.594 31.5 202.5 31.5C201.406 31.5 200.5 32.4062 200.5 33.5C200.5 33.875 200.594 34.2188 200.781 34.5312L197.281 38.0312Z" fill="#6741D9"/>
<path opacity="0.4" d="M228 39C226.812 39 225.656 38.75 224.656 38.3125L220 40L221.75 36.1875C220.656 34.9062 220 33.2812 220 31.5C220 27.375 223.594 24 228 24C232.406 24 236 27.375 236 31.5C236 35.6562 232.406 39 228 39Z" fill="#6741D9"/>
<path d="M4.03125 52C4.03125 49.7812 5.8125 48 8.03125 48H10.0312L8.03125 50H10.0312C10.0312 51.0938 9.125 52 8.03125 52H5.53125V53.5312L8.1875 54.75C8.84375 54.2812 9.65625 54 10.5312 54H13.5312C14.375 54 15.1875 54.2812 15.8438 54.75L18.5312 53.5312V52H16.0312C14.9062 52 14.0312 51.0938 14.0312 50H16.0312L14.0312 48H16.0312C18.2188 48 20.0312 49.7812 20.0312 52V54.4688L19.5938 54.6875L16.9375 55.9062C17.3125 56.5312 17.5312 57.2188 17.5312 58V58.5L14.0312 62H10.0312L6.53125 58.5V58C6.53125 57.2188 6.71875 56.5312 7.09375 55.9062L4.4375 54.6875L4.03125 54.4688V52Z" fill="#6741D9"/>
<path opacity="0.4" d="M3.84375 56.7188L4.28125 55.8438C4.53125 55.9375 4.96875 56.1562 5.625 56.5H6.8125C6.6875 56.8125 6.59375 57.1562 6.53125 57.5H5.40625L5.28125 57.4375C4.53125 57.0625 4.0625 56.8438 3.84375 56.7188ZM4.3125 60C4.4375 59.875 4.875 59.4375 5.65625 58.6562L5.75 58.5625L5.84375 58.5312L6.53125 58.3125C6.53125 58.375 6.53125 58.4375 6.53125 58.5C6.71875 58.7188 6.9375 58.9375 7.15625 59.1562L6.28125 59.4375C5.59375 60.1562 5.15625 60.5625 5.03125 60.7188L4.3125 60ZM5.3125 62C5.4375 61.875 5.875 61.4375 6.65625 60.6562L6.75 60.5625L6.84375 60.5312L8.125 60.0938C8.375 60.375 8.65625 60.625 8.90625 60.9062L7.28125 61.4375C6.59375 62.1562 6.15625 62.5625 6.03125 62.7188L5.3125 62ZM8 62.2188L8.25 62.0625L9.40625 61.375C9.59375 61.5938 9.8125 61.7812 10.0312 62H10.3125L9.03125 62.7812V64H8.03125V62.2188H8ZM10 52H11V54H10.5C10.3438 54 10.1875 54 10 54.0312V52ZM13 52H14V54.0312C13.9375 54.0312 13.8438 54 13.7812 54C13.6875 54 13.5938 54 13.5 54H13V52ZM13.7188 62H14L14.625 61.375L15.7812 62.0625L16.0312 62.2188V64H15.0312V62.7812L13.7188 62ZM15.125 60.9062C15.375 60.625 15.6562 60.375 15.9062 60.0938L17.1562 60.5312L17.2812 60.5625L17.375 60.6562C18.1562 61.4375 18.5938 61.875 18.7188 62L18 62.7188C17.875 62.5625 17.4375 62.1562 16.75 61.4375L15.125 60.9062ZM16.875 59.1562C17.0938 58.9375 17.3125 58.7188 17.5 58.5C17.5 58.4375 17.5 58.375 17.5 58.3125L18.1562 58.5312L18.2812 58.5625L18.375 58.6562C19.1562 59.4375 19.5938 59.875 19.7188 60L19 60.7188C18.875 60.5625 18.4375 60.1562 17.75 59.4375L16.875 59.1562ZM17.2188 56.5H18.4062C19.0625 56.1562 19.5312 55.9375 19.75 55.8438L20.1875 56.7188C19.9688 56.8125 19.5 57.0625 18.75 57.4375L18.625 57.5H17.4688C17.4375 57.1562 17.3438 56.8125 17.2188 56.5Z" fill="#6741D9"/>
<path d="M28.5 50H44V62H28V50H28.5ZM43 51.75V51H29V52.25L36 57.375L43 52.25V51.75ZM43 53.5L36.3125 58.4062L36 58.625L35.7188 58.4062L29 53.5V61H43V53.5Z" fill="#6741D9"/>
<path opacity="0.4" d="M29 51H43V52.25L36 57.375L29 52.25V51ZM29 53.5L35.7188 58.4062L36 58.625L36.3125 58.4062L43 53.5V61H29V53.5Z" fill="#6741D9"/>
<path opacity="0.4" d="M55 49H61C63.2188 49 65 50.7812 65 53C65 53.9688 64.6562 54.875 64.0625 55.5625C65.2188 56.2812 66 57.5625 66 59C66 61.2188 64.2188 63 62 63H54V61H56V51H54V49H55ZM58 61H62C63.0938 61 64 60.0938 64 59C64 57.9062 63.0938 57 62 57H58V61ZM58 51V55H61C62.0938 55 63 54.0938 63 53C63 51.9062 62.0938 51 61 51H58Z" fill="#6741D9"/>
<path d="M91.0312 54C92.125 54 93.0312 54.9062 93.0312 56C93.0312 57.0938 92.125 58 91.0312 58H87.75L82.375 63.8438L82.25 64H78.8125L79.0312 63.3438L80.8125 58H79L77.1562 60.3125L77 60.5H74.625L74.7812 59.875L75.75 56L74.7812 52.125L74.625 51.5H77L77.1562 51.6875L79 54H80.8125L79.0312 48.6562L78.8125 48H82.25L82.375 48.1562L87.75 54H91.0312ZM92.0312 56C92.0312 55.4375 91.5625 55 91.0312 55H78.5312L78.375 54.8125L76.5312 52.5H75.9062L76.75 55.875L76.7812 56L76.75 56.125L75.9062 59.5H76.5312L78.375 57.1875L78.5312 57H91.0312C91.5625 57 92.0312 56.5625 92.0312 56ZM86.375 58H81.875L80.2188 63H81.8125L86.375 58ZM81.8125 49H80.2188L81.875 54H86.375L81.7812 49H81.8125Z" fill="#6741D9"/>
<path opacity="0.4" d="M75.9062 52.5H76.5312L78.375 54.8125L78.5312 55H91.0312C91.5625 55 92.0312 55.4375 92.0312 56C92.0312 56.5625 91.5625 57 91.0312 57H78.5312L78.375 57.1875L76.5312 59.5H75.9062L76.75 56.125L76.7812 56L76.75 55.875L75.9062 52.5ZM80.2188 49H81.7812L86.375 54H81.875L80.2188 49ZM80.2188 63L81.875 58H86.375L81.8125 63H80.2188Z" fill="#6741D9"/>
<path d="M108 57L105 59V48H111V59L108 57Z" fill="#6741D9"/>
<path opacity="0.4" d="M102 48H105V59L108 57L111 59V48H114V64.5L108 61L102 64.5V48Z" fill="#6741D9"/>
<path d="M130.844 47.0625C131.281 47.4688 131.688 47.9062 132.062 48.375C132.5 48.9062 133 49.5625 133.5 50.375C133.656 50.1562 133.812 49.9688 133.938 49.8125C134.156 49.5312 134.406 49.2812 134.656 49.0625L135 48.6875L135.344 49.0625C135.594 49.3125 135.875 49.5625 136.094 49.8438C136.406 50.2188 136.844 50.7812 137.25 51.4688C138.125 52.8438 139 54.8125 139 57C139 60.875 135.875 64 132 64C128.125 64 125 60.875 125 57C125 54.1562 126.281 51.6875 127.531 49.9688C128.125 49.0938 128.75 48.4062 129.219 47.9375C129.531 47.625 129.844 47.3125 130.188 47.0312L130.531 46.75L130.844 47.0625ZM129.938 48.625C129.5 49.0938 128.906 49.75 128.344 50.5625C127.156 52.1875 126 54.4375 126 57C126 60.3125 128.688 63 132 63C135.312 63 138 60.3125 138 57C138 55.0625 137.219 53.3125 136.406 52C136 51.375 135.625 50.8438 135.312 50.5C135.219 50.375 135.125 50.25 135 50.125C134.906 50.25 134.812 50.3438 134.719 50.4688C134.594 50.5938 134.438 50.7812 134.281 50.9688C134 51.375 133.688 51.7812 133.406 52.1562C133.156 51.75 132.906 51.3125 132.625 50.9062C132.188 50.125 131.688 49.5 131.312 49C131.031 48.6875 130.781 48.4062 130.5 48.0938C130.312 48.2812 130.125 48.4375 129.938 48.625ZM130.562 53.3125L130.875 53.6875C130.969 53.8125 131.625 54.6562 132.281 55.5L133.219 56.6875L134.812 54.8125L135.188 55.3125C135.344 55.5312 135.438 55.75 135.531 55.9062C136.406 57.5625 136.031 59.6875 134.5 60.75C133.75 61.25 132.938 61.5 132.062 61.5C130.969 61.5 129.938 61.1562 129.188 60.4688C128.438 59.7812 128 58.7812 128 57.5938C128 56.4062 128.562 55.4062 129.094 54.7188C129.344 54.375 129.625 54.0938 129.812 53.9062C130.031 53.7188 130.25 53.5312 130.469 53.375C130.5 53.3438 130.531 53.3125 130.562 53.3125ZM129.875 55.3438C129.438 55.9375 129 56.7188 129 57.5938C129 58.5312 129.344 59.25 129.875 59.7188C130.406 60.2188 131.188 60.5 132.062 60.5C132.75 60.5 133.344 60.3125 133.938 59.9375C134.969 59.1875 135.312 57.7188 134.688 56.4688L133.188 58.25C133.062 58.0625 132.906 57.9062 132.781 57.75C132 56.75 131.219 55.7188 130.406 54.7188C130.25 54.875 130.062 55.0938 129.875 55.3438Z" fill="#6741D9"/>
<path opacity="0.4" d="M126 57C126 54.4375 127.156 52.1875 128.344 50.5625C128.906 49.7188 129.5 49.0625 129.938 48.625C130.125 48.4375 130.312 48.2812 130.5 48.0938C130.781 48.375 131.031 48.6875 131.312 49C131.688 49.5 132.188 50.125 132.625 50.9062C132.906 51.3125 133.156 51.75 133.406 52.1562C133.688 51.75 134 51.375 134.281 50.9688C134.438 50.7812 134.594 50.5938 134.719 50.4688C134.812 50.3438 134.906 50.2188 135 50.125C135.125 50.25 135.219 50.375 135.312 50.4688C135.625 50.8438 136 51.375 136.406 52C137.219 53.3125 138 55.0625 138 57C138 60.3125 135.312 63 132 63C128.688 63 126 60.3125 126 57ZM128 57.5938C128 58.7812 128.438 59.7812 129.188 60.4688C129.938 61.1562 130.969 61.5 132.062 61.5C132.938 61.5 133.75 61.25 134.5 60.75C136.031 59.6875 136.406 57.5625 135.531 55.9062C135.438 55.75 135.344 55.5312 135.188 55.3125L134.812 54.8125L133.219 56.6562L132.281 55.5C131.625 54.6562 130.969 53.8125 130.875 53.6875L130.562 53.3125C130.531 53.3125 130.5 53.3438 130.469 53.375C130.25 53.5312 130.031 53.7188 129.812 53.9062C129.625 54.0938 129.344 54.375 129.094 54.7188C128.562 55.4062 128 56.4062 128 57.5938Z" fill="#6741D9"/>
<path d="M156.75 57.1562C157.5 57.4375 158 58.1562 158 59C158 60.0938 157.094 61 156 61C154.906 61 154 60.0938 154 59C154 58.1562 154.531 57.4375 155.25 57.1562V51H156.75V57.1562Z" fill="#6741D9"/>
<path opacity="0.4" d="M148 56C148 51.5938 151.594 48 156 48C160.406 48 164 51.5938 164 56C164 60.4062 160.406 64 156 64C151.594 64 148 60.4062 148 56ZM152 56C152 55.4375 151.562 55 151 55C150.438 55 150 55.4375 150 56C150 56.5625 150.438 57 151 57C151.562 57 152 56.5625 152 56ZM153.5 52.5C153.5 51.9375 153.062 51.5 152.5 51.5C151.938 51.5 151.5 51.9375 151.5 52.5C151.5 53.0625 151.938 53.5 152.5 53.5C153.062 53.5 153.5 53.0625 153.5 52.5ZM154 59C154 60.0938 154.906 61 156 61C157.094 61 158 60.0938 158 59C158 58.1562 157.5 57.4375 156.75 57.1562V51H155.25V57.1562C154.531 57.4375 154 58.1562 154 59ZM160.5 52.5C160.5 51.9375 160.062 51.5 159.5 51.5C158.938 51.5 158.5 51.9375 158.5 52.5C158.5 53.0625 158.938 53.5 159.5 53.5C160.062 53.5 160.5 53.0625 160.5 52.5ZM162 56C162 55.4375 161.562 55 161 55C160.438 55 160 55.4375 160 56C160 56.5625 160.438 57 161 57C161.562 57 162 56.5625 162 56Z" fill="#6741D9"/>
<path d="M177 48H183V51H188V63H172V51H177V48ZM182 49H178V51H182V49ZM175.5 52H173V62H175.5V52ZM176.5 62H183.5V52H176.5V62ZM184.5 52V62H187V52H184.5Z" fill="#6741D9"/>
<path opacity="0.4" d="M173 52H175.5V62H173V52ZM176.5 52H183.5V62H176.5V52ZM184.5 52H187V62H184.5V52Z" fill="#6741D9"/>
<path d="M199 61H196V54H197.281L198.812 49.6562L199.031 49H208.969L209.188 49.6562L210.719 54H212V61H199ZM207.531 51H200.469L199.406 54H208.594L207.531 51ZM199 56.5C198.438 56.5 198 56.9375 198 57.5C198 58.0625 198.438 58.5 199 58.5C199.562 58.5 200 58.0625 200 57.5C200 56.9375 199.562 56.5 199 56.5ZM208 57.5C208 58.0625 208.438 58.5 209 58.5C209.562 58.5 210 58.0625 210 57.5C210 56.9375 209.562 56.5 209 56.5C208.438 56.5 208 56.9375 208 57.5Z" fill="#6741D9"/>
<path opacity="0.4" d="M196 61H199V63H196V61ZM199.406 54L200.469 51H207.531L208.594 54H199.406ZM209 61H212V63H209V61Z" fill="#6741D9"/>
<path d="M236 51H234V61H236V62H234V64H233V62H223V64H222V62H220V61H222V51H220V50H222V48H223V50H233V48H234V50H236V51ZM233 51H223V61H233V51Z" fill="#6741D9"/>
<path opacity="0.4" d="M223 51H233V61H223V51Z" fill="#6741D9"/>
<path d="M12 73H15.4062C15.4375 73.0938 15.5625 73.7188 15.8125 74.875C17.8125 74.2188 18.875 73.8438 19 73.8125V78.6875C18.7812 78.625 17.9062 78.3438 16.4688 77.8438L16.75 79.1562L16.7812 79.375L16.6562 79.5625L13.4062 83.8125L13.25 84H9.75C9.75 84.0938 9.75 84.1562 9.75 84.25C9.75 85.7812 8.53125 87 7 87C5.46875 87 4.25 85.7812 4.25 84.25C4.25 84.1562 4.25 84.0938 4.25 84H3V82C3 79.7812 4.78125 78 7 78H10V83H12.75L15.7188 79.125L14.5938 74H12V73ZM16.2188 76.7188L18 77.3125V75.1875L16.0312 75.8438L16.2188 76.7188ZM9 80V79H7C5.34375 79 4 80.3438 4 82V83H9V80ZM10 76V77H5V76H10ZM5.25 84.25C5.25 85.2188 6.03125 86 7 86C7.96875 86 8.75 85.2188 8.75 84.25C8.75 84.1562 8.75 84.0938 8.71875 84H5.28125C5.25 84.0938 5.25 84.1562 5.25 84.25ZM19.75 84.25C19.75 83.2812 18.9688 82.5 18 82.5C17.0312 82.5 16.25 83.2812 16.25 84.25C16.25 85.2188 17.0312 86 18 86C18.9688 86 19.75 85.2188 19.75 84.25ZM15.25 84.25C15.25 82.7188 16.4688 81.5 18 81.5C19.5312 81.5 20.75 82.7188 20.75 84.25C20.75 85.7812 19.5312 87 18 87C16.4688 87 15.25 85.7812 15.25 84.25Z" fill="#6741D9"/>
<path opacity="0.4" d="M4 82C4 80.3438 5.34375 79 7 79H9V83H4V82ZM16.0312 75.8438L18 75.1875V77.3125L16.2188 76.7188L16.0312 75.8438Z" fill="#6741D9"/>
<path d="M36 86C34.3438 86 32.8438 85.3438 31.75 84.25L32.5 82H39.5L40.25 84.25C39.1562 85.3438 37.6562 86 36 86ZM36 80.5C34.75 80.5 33.75 79.5 33.75 78.25C33.75 77 34.75 76 36 76C37.25 76 38.25 77 38.25 78.25C38.25 79.5 37.25 80.5 36 80.5Z" fill="#6741D9"/>
<path opacity="0.4" d="M28 80C28 75.5938 31.5938 72 36 72C40.4062 72 44 75.5938 44 80C44 84.4062 40.4062 88 36 88C31.5938 88 28 84.4062 28 80ZM31.75 84.25C32.8438 85.3438 34.3438 86 36 86C37.6562 86 39.1562 85.3438 40.25 84.25L39.5 82H32.5L31.75 84.25ZM38.25 78.25C38.25 77 37.25 76 36 76C34.75 76 33.75 77 33.75 78.25C33.75 79.5 34.75 80.5 36 80.5C37.25 80.5 38.25 79.5 38.25 78.25Z" fill="#6741D9"/>
<path d="M60 78.9062L66.1562 76L60 73.0938L53.8438 76L60 78.9062ZM52.6875 76.5625L51.5 76L52.6875 75.4375L60 72L67.3125 75.4375L68.5 76L67.3125 76.5625L60 80L52.6875 76.5625ZM54 78.8125V78.8438L55.1562 79.375L53.8438 80L60 82.9062L66.1562 80L64.8438 79.375L66 78.8438C66.9062 79.25 67.75 79.6562 68.5 80L67.3125 80.5625L60 84L52.6875 80.5625L51.5 80C52.25 79.6562 53.0938 79.25 54 78.8125ZM52.6875 83.4375L54 82.8438L55.1562 83.375L53.8438 84L60 86.9062L66.1562 84L64.8438 83.375L66 82.8438C66.9062 83.25 67.75 83.6562 68.5 84L67.3125 84.5625L60 88L52.6875 84.5625L51.5 84L52.6875 83.4375Z" fill="#6741D9"/>
<path opacity="0.4" d="M53.8438 76L60 73.0938L66.1562 76L60 78.9062L53.8438 76ZM53.8438 80L55.1562 79.375C56.7812 80.125 58.375 80.9062 60 81.6562C61.625 80.9062 63.2188 80.1562 64.8438 79.375L66.1562 80L60 82.9062L53.8438 80ZM53.8438 84L55.1562 83.375C56.7812 84.125 58.375 84.9062 60 85.6562C61.625 84.9062 63.2188 84.1562 64.8438 83.375L66.1562 84L60 86.9062L53.8438 84Z" fill="#6741D9"/>
<path opacity="0.4" d="M76 86V73H83L85 74.5H92V86H76Z" fill="#6741D9"/>
<path d="M106.5 74C104.562 74 103 75.5625 103 77.5V79L102.625 79.125C101.125 79.5 100 80.875 100 82.5V86H116V83C116 81.8125 115.312 80.7812 114.281 80.2812L114 80.1562V78.25C114 76.7188 112.781 75.5 111.25 75.5C110.812 75.5 110.438 75.5938 110.062 75.7812L109.688 75.9688L109.438 75.5938C108.812 74.625 107.719 74 106.5 74ZM102 77.5C102 75.0312 104.031 73 106.5 73C107.938 73 109.219 73.6562 110.031 74.7188C110.406 74.5625 110.812 74.5 111.25 74.5C113.312 74.5 115 76.1875 115 78.25V79.5312C116.188 80.2188 117 81.5312 117 83V87H99V82.5C99 80.5312 100.25 78.875 102 78.25V77.5Z" fill="#6741D9"/>
<path opacity="0.4" d="M100 82.5C100 80.875 101.125 79.5 102.625 79.125L103 79V77.5C103 75.5625 104.562 74 106.5 74C107.719 74 108.812 74.625 109.438 75.5938L109.688 75.9688L110.062 75.7812C110.438 75.5938 110.812 75.5 111.25 75.5C112.781 75.5 114 76.7188 114 78.25V80.1562L114.281 80.2812C115.312 80.7812 116 81.8125 116 83V86H100V82.5Z" fill="#6741D9"/>
<path d="M138 74V86H126V74H138ZM136 76H128V84H136V76Z" fill="#6741D9"/>
<path opacity="0.4" d="M124 76H126V77.5H124V76ZM124 79.25H126V80.75H124V79.25ZM124 82.5H126V84H124V82.5ZM128 72H129.5V74H128V72ZM128 86H129.5V88H128V86ZM129.5 77.5H134.5V82.5H129.5V77.5ZM131.25 72H132.75V74H131.25V72ZM131.25 86H132.75V88H131.25V86ZM134.5 72H136V74H134.5V72ZM134.5 86H136V88H134.5V86ZM138 76H140V77.5H138V76ZM138 79.25H140V80.75H138V79.25ZM138 82.5H140V84H138V82.5Z" fill="#6741D9"/>
<path d="M156 87.5C156 87.5 148 81.9688 148 77.25C148 74.9375 149.844 73 152.156 73C153.906 73 155.062 74.0625 156 75.375C156.969 74.0625 158.094 73 159.844 73C162.188 73 164 74.9375 164 77.25C164 81.9688 156 87.5 156 87.5ZM156 77.0938L154.719 75.3125C154.125 74.5 153.188 74 152.156 74C150.406 74 149 75.4062 149 77.1562C149 78.3125 149.5 79.375 150.094 80.3125C150.781 81.4062 151.75 82.4688 152.719 83.4375C153.656 84.375 154.656 85.1875 155.375 85.7812C155.625 85.9688 155.812 86.125 156 86.25C156.188 86.125 156.406 85.9688 156.625 85.7812C157.375 85.2188 158.344 84.375 159.312 83.4375C160.281 82.4688 161.219 81.4062 161.906 80.3125C162.5 79.375 163 78.3125 163 77.1562C163 75.4062 161.594 74 159.844 74C158.812 74 157.875 74.5 157.281 75.3125L156 77.0938Z" fill="#6741D9"/>
<path opacity="0.4" d="M149 77.1562C149 75.4062 150.406 74 152.156 74C153.188 74 154.125 74.5 154.719 75.3125L156 77.0938L157.281 75.3125C157.875 74.5 158.812 74 159.844 74C161.594 74 163 75.4062 163 77.1562C163 78.3125 162.5 79.375 161.906 80.3125C161.219 81.4062 160.25 82.4688 159.281 83.4375C158.344 84.375 157.375 85.2188 156.625 85.7812C156.375 85.9688 156.188 86.125 156 86.25C155.812 86.125 155.594 85.9688 155.375 85.7812C154.625 85.1875 153.656 84.375 152.688 83.4375C151.719 82.4688 150.781 81.4062 150.094 80.3125C149.5 79.375 149 78.3125 149 77.1562Z" fill="#6741D9"/>
<path d="M184 82.3438V77.6562L188 75V85L184 82.3438Z" fill="#6741D9"/>
<path opacity="0.4" d="M172 74H184V86H172V74Z" fill="#6741D9"/>
<path d="M211 80C211 76.125 207.875 73 204 73C200.125 73 197 76.125 197 80C197 83.875 200.125 87 204 87C207.875 87 211 83.875 211 80ZM196 80C196 75.5938 199.594 72 204 72C208.406 72 212 75.5938 212 80C212 84.4062 208.406 88 204 88C199.594 88 196 84.4062 196 80ZM204 84.5C205.688 84.5 207.125 83.4688 207.719 82H200.281C200.875 83.4688 202.312 84.5 204 84.5ZM199.031 81H208.969C208.938 81.3438 208.875 81.6875 208.781 82C208.125 84.0312 206.25 85.5 204 85.5C201.75 85.5 199.875 84.0312 199.219 82C199.125 81.6875 199.062 81.3438 199.031 81ZM200.75 78C200.75 77.5938 201.094 77.25 201.5 77.25C201.906 77.25 202.25 77.5938 202.25 78C202.25 78.4062 201.906 78.75 201.5 78.75C201.094 78.75 200.75 78.4062 200.75 78ZM206.5 77.25C206.906 77.25 207.25 77.5938 207.25 78C207.25 78.4062 206.906 78.75 206.5 78.75C206.094 78.75 205.75 78.4062 205.75 78C205.75 77.5938 206.094 77.25 206.5 77.25Z" fill="#6741D9"/>
<path opacity="0.4" d="M197 80C197 76.125 200.125 73 204 73C207.875 73 211 76.125 211 80C211 83.875 207.875 87 204 87C200.125 87 197 83.875 197 80ZM199.031 81C199.062 81.3438 199.125 81.6875 199.219 82C199.875 84.0312 201.75 85.5 204 85.5C206.25 85.5 208.125 84.0312 208.781 82C208.875 81.6875 208.938 81.3438 208.969 81H199.031ZM202.25 78C202.25 77.5938 201.906 77.25 201.5 77.25C201.094 77.25 200.75 77.5938 200.75 78C200.75 78.4062 201.094 78.75 201.5 78.75C201.906 78.75 202.25 78.4062 202.25 78ZM207.25 78C207.25 77.5938 206.906 77.25 206.5 77.25C206.094 77.25 205.75 77.5938 205.75 78C205.75 78.4062 206.094 78.75 206.5 78.75C206.906 78.75 207.25 78.4062 207.25 78Z" fill="#6741D9"/>
<path d="M230.812 72.9688C231.375 72.375 232.156 72 233.031 72C234.656 72 236 73.3438 236 74.9688C236 75.6562 235.781 76.2812 235.375 76.7812C234.375 75.0312 232.75 73.6562 230.812 72.9688ZM220 74.9688C220 73.3438 221.344 72 222.969 72C223.844 72 224.625 72.375 225.188 72.9688C223.25 73.6562 221.625 75.0312 220.625 76.7812C220.219 76.2812 220 75.6562 220 74.9688ZM228.75 77.75V80.6875C229.938 81.875 230.625 82.5625 230.812 82.75L229.75 83.8125C229.594 83.6562 228.844 82.9062 227.469 81.5312L227.25 81.3125V77H228.75V77.75Z" fill="#6741D9"/>
<path opacity="0.4" d="M220.594 87C221 86.5938 221.594 86 222.406 85.1875C221.531 84.0312 221 82.5625 221 81C221 77.125 224.125 74 228 74C231.875 74 235 77.125 235 81C235 82.5625 234.5 84.0312 233.625 85.1875L235.406 87L234 88.4062L232.188 86.625C231.031 87.5 229.562 88 228 88C226.438 88 224.969 87.5 223.812 86.625C223 87.4062 222.406 88 222 88.4062L220.594 87ZM227.25 77V81.3125L227.469 81.5312C228.844 82.9062 229.594 83.6562 229.75 83.8125L230.812 82.75C230.625 82.5625 229.938 81.875 228.75 80.6875V77H227.25Z" fill="#6741D9"/>
<path d="M4.1875 110.75L4.71875 110.219L12.5 102.438L13.0312 101.906L14.0938 102.969L13.5625 103.5L5.78125 111.281L5.25 111.812L4.1875 110.75Z" fill="#6741D9"/>
<path opacity="0.4" d="M6 103L11.5938 97.4062C12.5 96.5 13.7188 96 15 96C16.2812 96 17.5 96.5 18.4062 97.4062L18.5938 97.5938C19.5 98.5 20 99.7188 20 101C20 101.812 19.7812 102.625 19.4062 103.344L15.5 104.5V105H18L16.3438 106.656L13.5 107.5V108H15L13 110H7.0625C9.21875 107.844 11.4062 105.656 13.5625 103.5C13.75 103.312 13.9062 103.156 14.0938 102.969L13.0312 101.906C12.8438 102.094 12.6875 102.281 12.5 102.438C10.3438 104.625 8.15625 106.781 6 108.938V103Z" fill="#6741D9"/>
<path d="M34 97V103C34 104.094 34.9062 105 36 105C37.0938 105 38 104.094 38 103V97H34ZM33 96H39V103C39 104.656 37.6562 106 36 106C34.3438 106 33 104.656 33 103V96ZM31 101.5V103C31 105.75 33.25 108 36 108C38.75 108 41 105.75 41 103V101H42V103C42 106.156 39.5938 108.719 36.5 108.969V111H39V112H33V111H35.5V108.969C32.4062 108.719 30 106.156 30 103V101H31V101.5Z" fill="#6741D9"/>
<path opacity="0.4" d="M34 97H38V103C38 104.094 37.0938 105 36 105C34.9062 105 34 104.094 34 103V97Z" fill="#6741D9"/>
<path d="M56 108L57.75 101.75L64 100L62.25 106.25L56 108ZM60 105C60.5625 105 61 104.562 61 104C61 103.438 60.5625 103 60 103C59.4375 103 59 103.438 59 104C59 104.562 59.4375 105 60 105Z" fill="#6741D9"/>
<path opacity="0.4" d="M52 104C52 99.5938 55.5938 96 60 96C64.4062 96 68 99.5938 68 104C68 108.406 64.4062 112 60 112C55.5938 112 52 108.406 52 104ZM56 108L62.25 106.25L64 100L57.75 101.75L56 108Z" fill="#6741D9"/>
<path d="M77 110H91V106.5H87.7812L86.9062 107.781L86.7812 108H81.25L81.0938 107.781L80.25 106.5H77V110ZM90.9375 105.5L90.0938 98H77.9062L77.0625 105.5H80.7812L80.9062 105.719L81.7812 107H86.2188L87.0938 105.719L87.2188 105.5H90.9375ZM76 106L77 97H91L92 106V111H76V106Z" fill="#6741D9"/>
<path opacity="0.4" d="M77 106.5H80.25L81.0938 107.781L81.25 108H86.7812L86.9062 107.781L87.7812 106.5H91V109.938C91 109.969 90.9688 110 90.9688 110H77.0625C77.0312 109.969 77.0312 109.969 77 109.938V106.5Z" fill="#6741D9"/>
<path d="M103 99.5V97H104V99.5H112V97H113V99.5H115V100.5H108.5V103.5H115V104.5H113V107.5H115V108.5H108.5V111H107.5V108.5H101V107.5H103V104.5H101V103.5H107.5V100.5H101V99.5H103ZM112 107.5V104.5H104V107.5H112Z" fill="#6741D9"/>
<path opacity="0.4" d="M101 97H103V99.5H101V97ZM101 100.5H107.5V103.5H101V100.5ZM101 104.5H103V107.5H101V104.5ZM101 108.5H107.5V111H101V108.5ZM104 97H112V99.5H104V97ZM104 104.5H112V107.5H104V104.5ZM108.5 100.5H115V103.5H108.5V100.5ZM108.5 108.5H115V111H108.5V108.5ZM113 97H115V99.5H113V97ZM113 104.5H115V107.5H113V104.5Z" fill="#6741D9"/>
<path d="M124 97H139C138.938 97.2188 138.438 98.7812 137.531 101.656C139.031 102.75 140 104.5 140 106.5V106.75C140 109.25 137.75 111 137.75 111H128.25C128.25 111 126 109.25 126 106.75V106.5C126 104.531 126.969 102.781 128.438 101.688L127 98H125V103H124V97ZM129.438 101.5H136.531L137.625 98H128.062L129.438 101.5ZM127.031 106C127 106.156 127 106.344 127 106.5V106.75C127 107.688 127.438 108.562 127.938 109.219C128.156 109.531 128.406 109.781 128.594 109.969L128.625 110H137.375L137.406 109.969C137.594 109.781 137.844 109.531 138.062 109.219C138.562 108.562 139 107.688 139 106.75V106.5C139 106.344 139 106.156 138.969 106H127.031ZM127.219 105H138.781C138.469 104 137.844 103.125 137 102.5H129C128.188 103.125 127.562 104 127.219 105Z" fill="#6741D9"/>
<path opacity="0.4" d="M127 106.5C127 106.344 127 106.156 127.031 106H138.969C139 106.156 139 106.344 139 106.5V106.75C139 107.688 138.562 108.562 138.062 109.219C137.844 109.531 137.594 109.781 137.406 109.969L137.375 110H128.625L128.594 109.969C128.406 109.781 128.156 109.531 127.938 109.219C127.438 108.562 127 107.688 127 106.75V106.5Z" fill="#6741D9"/>
<path d="M154 103C153.438 103 153 102.562 153 102C153 101.438 153.438 101 154 101C154.562 101 155 101.438 155 102C155 102.562 154.562 103 154 103ZM158 103C157.438 103 157 102.562 157 102C157 101.438 157.438 101 158 101C158.562 101 159 101.438 159 102C159 102.562 158.562 103 158 103Z" fill="#6741D9"/>
<path opacity="0.4" d="M150 102C150 98.6875 152.688 96 156 96C159.312 96 162 98.6875 162 102V111L160.5 110L158.25 112L156 110L153.75 112L151.5 110L150 111V102ZM155 102C155 101.438 154.562 101 154 101C153.438 101 153 101.438 153 102C153 102.562 153.438 103 154 103C154.562 103 155 102.562 155 102ZM159 102C159 101.438 158.562 101 158 101C157.438 101 157 101.438 157 102C157 102.562 157.438 103 158 103C158.562 103 159 102.562 159 102Z" fill="#6741D9"/>
<path d="M178 108H174V96H186V108H182V112H178V108ZM178 107H179V111H181V107H185V105H175V107H178ZM185 104V97H181V100H180V97H178V101H177V97H175V104H185Z" fill="#6741D9"/>
<path opacity="0.4" d="M175 97H177V101H178V97H180V100H181V97H185V104H175V97ZM175 105H185V107H181V111H179V107H175V105Z" fill="#6741D9"/>
<path d="M200.531 98.0625L204 99.4375L207.469 98.0625L207.75 97.9375L208.031 98.0625C210.625 99.0938 211.938 99.625 211.969 99.625L211.438 101.031C211.344 101 210.125 100.5 207.75 99.5625L204.281 100.938L204 101.062L203.719 100.938L200.25 99.5625C197.906 100.5 196.688 101 196.594 101.031L196.031 99.625C196.062 99.625 197.375 99.0938 199.969 98.0625L200.25 97.9375L200.531 98.0625ZM200.531 107.062L204 108.438L207.469 107.062L207.75 106.938L208.031 107.062C210.625 108.094 211.938 108.625 211.969 108.625L211.438 110.031C211.344 110 210.125 109.5 207.75 108.562L204.281 109.938L204 110.062L203.719 109.938L200.25 108.562C197.906 109.5 196.688 110 196.594 110.031L196.031 108.625C196.062 108.625 197.375 108.094 199.969 107.062L200.25 106.938L200.531 107.062Z" fill="#6741D9"/>
<path opacity="0.4" d="M196.031 104.125C196.062 104.125 197.375 103.594 199.969 102.562L200.25 102.438L200.531 102.562L204 103.938L207.469 102.562L207.75 102.438L208.031 102.562C210.625 103.594 211.938 104.125 211.969 104.125L211.438 105.531C211.344 105.5 210.125 105 207.75 104.062L204.281 105.438L204 105.562L203.719 105.438L200.25 104.062C197.906 105 196.688 105.5 196.594 105.531L196.031 104.125Z" fill="#6741D9"/>
<path d="M227 102H221V102.25C221 105.438 223.562 108 226.75 108C229.938 108 232.5 105.438 232.5 102.25V99.25C232.5 98 231.5 97 230.25 97C229 97 228 98 228 99.25V102H227ZM220 102.25V101H227V99.25C227 97.4688 228.469 96 230.25 96C231.594 96 232.75 96.8125 233.25 98C235 99.2812 235.906 99.9375 236 99.9688C235.906 100.062 235.062 100.719 233.5 102V102.25C233.5 105.031 231.844 107.406 229.438 108.438L231.344 112H230.188L228.5 108.781C227.938 108.906 227.344 109 226.75 109L228.344 112H227.188L225.562 108.906C222.406 108.344 220 105.562 220 102.25ZM233.5 100.719L234.344 100.031L233.5 99.4062V100.719ZM229.5 99.75C229.5 99.3438 229.844 99 230.25 99C230.656 99 231 99.3438 231 99.75C231 100.156 230.656 100.5 230.25 100.5C229.844 100.5 229.5 100.156 229.5 99.75Z" fill="#6741D9"/>
<path opacity="0.4" d="M221 102H228V99.25C228 98 229 97 230.25 97C231.5 97 232.5 98 232.5 99.25V102.25C232.5 105.438 229.938 108 226.75 108C223.562 108 221 105.438 221 102.25V102ZM231 99.75C231 99.3438 230.656 99 230.25 99C229.844 99 229.5 99.3438 229.5 99.75C229.5 100.156 229.844 100.5 230.25 100.5C230.656 100.5 231 100.156 231 99.75ZM233.5 99.4062L234.344 100.031L233.5 100.719V99.4062Z" fill="#6741D9"/>
<path d="M9.96875 122.219V122.25L9.75 122.594L9.375 122.469C8.5625 122.25 7.6875 122.438 7.0625 123.062C6.4375 123.688 6.21875 124.562 6.46875 125.375L6.59375 125.75L6.21875 125.969C5.5 126.344 5 127.125 5 128C5 128.875 5.5 129.656 6.25 130.062L6.59375 130.25L6.46875 130.625C6.25 131.438 6.4375 132.312 7.0625 132.938C7.6875 133.562 8.5625 133.781 9.375 133.531L9.75 133.406L9.96875 133.781C10.3438 134.5 11.125 135 12 135C12.875 135 13.6562 134.5 14.0625 133.781L14.25 133.406L14.625 133.531C15.4375 133.781 16.3125 133.562 16.9375 132.938C17.5625 132.312 17.7812 131.438 17.5312 130.625L17.4062 130.25L17.7812 130.031C18.5 129.656 19 128.875 19 128C19 127.125 18.5 126.344 17.7812 125.969L17.4062 125.75L17.5312 125.375C17.7812 124.562 17.5625 123.688 16.9375 123.062C16.3125 122.438 15.4375 122.219 14.625 122.469L14.25 122.594L14.0312 122.219C13.6562 121.5 12.875 121 12 121C11.125 121 10.3438 121.5 9.96875 122.219ZM12 120C13.125 120 14.125 120.562 14.7188 121.438C15.75 121.25 16.8438 121.531 17.6562 122.344C18.4688 123.156 18.75 124.25 18.5625 125.281C19.4375 125.875 20 126.875 20 128C20 129.125 19.4375 130.125 18.5625 130.719C18.75 131.75 18.4688 132.844 17.6562 133.656C16.8438 134.469 15.75 134.75 14.7188 134.562C14.125 135.438 13.125 136 12 136C10.875 136 9.875 135.438 9.28125 134.562C8.25 134.75 7.15625 134.469 6.34375 133.656C5.53125 132.844 5.25 131.75 5.4375 130.719C4.5625 130.125 4 129.125 4 128C4 126.875 4.5625 125.875 5.4375 125.281C5.25 124.25 5.53125 123.156 6.34375 122.344C7.15625 121.531 8.25 121.25 9.28125 121.438C9.875 120.562 10.875 120 12 120ZM14.6875 125.344L14.4375 125.781L11.9375 129.781L11.7812 130H11.25L11.0938 129.812L9.59375 127.812L9.3125 127.406L10.0938 126.812C10.1875 126.906 10.625 127.5 11.4688 128.625L13.5625 125.25L13.8438 124.812L14.6875 125.344Z" fill="#6741D9"/>
<path opacity="0.4" d="M5 128C5 127.125 5.5 126.344 6.25 125.969L6.59375 125.75L6.46875 125.375C6.25 124.562 6.4375 123.688 7.0625 123.062C7.6875 122.438 8.5625 122.219 9.375 122.469L9.75 122.594L9.96875 122.219C10.3438 121.5 11.125 121 12 121C12.875 121 13.6562 121.5 14.0625 122.25L14.25 122.594L14.625 122.469C15.4375 122.25 16.3125 122.438 16.9375 123.062C17.5625 123.688 17.7812 124.562 17.5312 125.375L17.4062 125.75L17.7812 125.969C18.5 126.344 19 127.125 19 128C19 128.875 18.5 129.656 17.7812 130.062L17.4062 130.25L17.5312 130.625C17.7812 131.438 17.5625 132.312 16.9375 132.938C16.3125 133.562 15.4375 133.781 14.625 133.531L14.25 133.406L14.0312 133.781C13.6562 134.5 12.875 135 12 135C11.125 135 10.3438 134.5 9.96875 133.781L9.75 133.406L9.375 133.531C8.5625 133.781 7.6875 133.562 7.0625 132.938C6.4375 132.312 6.21875 131.438 6.46875 130.625L6.59375 130.25L6.21875 130.031C5.5 129.656 5 128.875 5 128ZM9.3125 127.406L9.59375 127.812L11.0938 129.812L11.25 130H11.7812L11.9375 129.781L14.4375 125.781L14.6875 125.344L13.8438 124.812L13.5625 125.25L11.4688 128.625C10.625 127.5 10.1875 126.906 10.0938 126.812L9.3125 127.406Z" fill="#6741D9"/>
<path d="M36 120V136L35.625 135.844C32.5312 134.5 30.7188 132.156 29.6875 129.812C28.6875 127.469 28.4375 125.094 28.5312 123.531L28.5625 122.906L29.1562 122.656L35.6562 120.156L36 120Z" fill="#6741D9"/>
<path opacity="0.4" d="M36 120H36.0312L36.4062 120.156L42.875 122.656L43.4688 122.875L43.5 123.531C43.5938 125.094 43.375 127.469 42.3438 129.812C41.3125 132.156 39.5 134.5 36.4375 135.812L36.0312 136C36.0312 136 36.0312 136 36 136C36 130.656 36 125.344 36 120Z" fill="#6741D9"/>
<path d="M54 121V124H66V121H54ZM54 125V128H59.5V125H54ZM60.5 125V128H66V125H60.5ZM54 129V133H66V129H54ZM53 128V120H67V134H66V136H65V134H55V136H54V134H53V128ZM55.25 131C55.25 130.594 55.5938 130.25 56 130.25C56.4062 130.25 56.75 130.594 56.75 131C56.75 131.406 56.4062 131.75 56 131.75C55.5938 131.75 55.25 131.406 55.25 131ZM64 130.25C64.4062 130.25 64.75 130.594 64.75 131C64.75 131.406 64.4062 131.75 64 131.75C63.5938 131.75 63.25 131.406 63.25 131C63.25 130.594 63.5938 130.25 64 130.25ZM58.5 122H62V123H58V122H58.5Z" fill="#6741D9"/>
<path opacity="0.4" d="M54 121H66V124H54V121ZM54 129H66V133H54V129ZM55.25 131C55.25 131.406 55.5938 131.75 56 131.75C56.4062 131.75 56.75 131.406 56.75 131C56.75 130.594 56.4062 130.25 56 130.25C55.5938 130.25 55.25 130.594 55.25 131ZM58 122V123H62V122H58ZM63.25 131C63.25 131.406 63.5938 131.75 64 131.75C64.4062 131.75 64.75 131.406 64.75 131C64.75 130.594 64.4062 130.25 64 130.25C63.5938 130.25 63.25 130.594 63.25 131Z" fill="#6741D9"/>
<path d="M86 120H87.25C88.7812 120 90 121.219 90 122.75C90 124.281 88.7812 125.5 87.25 125.5H76V123.5H87.25C87.6562 123.5 88 123.156 88 122.75C88 122.344 87.6562 122 87.25 122H85V120H86ZM80 136H79V134H81.25C81.6562 134 82 133.656 82 133.25C82 132.844 81.6562 132.5 81.25 132.5H76V130.5H81.25C82.7812 130.5 84 131.719 84 133.25C84 134.781 82.7812 136 81.25 136H80Z" fill="#6741D9"/>
<path opacity="0.4" d="M76 127H89C90.6562 127 92 128.344 92 130C92 131.656 90.6562 133 89 133H87V131H89C89.5625 131 90 130.562 90 130C90 129.438 89.5625 129 89 129H76V127Z" fill="#6741D9"/>
<path d="M105.562 122.906C105.719 121.812 106.656 121 107.75 121C109.125 121 110.156 122.219 109.969 123.562L109.469 127.094C109.312 128.188 108.375 129 107.25 129C105.906 129 104.844 127.812 105.031 126.469L105.562 122.906ZM107.75 122C107.156 122 106.625 122.438 106.531 123.062L106.031 126.594C105.938 127.344 106.5 128 107.25 128C107.875 128 108.375 127.562 108.469 126.938L108.969 123.406C109.094 122.656 108.5 122 107.75 122ZM103.125 122.312C102 122.812 101.375 123.094 101.25 123.156L100.844 122.25C100.844 122.25 101.75 121.844 103.562 121.031L104.25 121.562L103 129.562L102.906 130.062L101.938 129.938L102 129.438L103.125 122.312ZM113.312 121C114.656 121 115.688 122.156 115.531 123.5L115.188 126.531C115.062 127.656 114.094 128.5 112.969 128.5C111.625 128.5 110.562 127.344 110.719 126L111.094 122.969C111.219 121.844 112.156 121 113.312 121ZM112.062 123.094L111.719 126.125C111.625 126.844 112.219 127.5 112.969 127.5C113.594 127.5 114.125 127.031 114.188 126.406L114.531 123.375C114.625 122.656 114.031 122 113.312 122C112.688 122 112.156 122.469 112.062 123.094ZM115.562 131L100.562 133L100.438 132L115.438 130L115.562 131ZM114.562 134L106.562 135L106.438 134L114.438 133L114.938 132.938L115.062 133.938L114.562 134Z" fill="#6741D9"/>
<path d="M136 133C134.344 133 133 131.875 133 130.5C133 129.125 134.344 128 136 128C137.656 128 139 129.125 139 130.5C139 131.875 137.656 133 136 133ZM127 135C125.344 135 124 133.875 124 132.5C124 131.125 125.344 130 127 130C128.656 130 130 131.125 130 132.5C130 133.875 128.656 135 127 135Z" fill="#6741D9"/>
<path opacity="0.4" d="M128 122.188L128.781 122.031L137.781 120.031L139 119.75V130.5C139 129.406 138.156 128.5 137 128.156V124.5L130 126.062V132.5C130 131.406 129.156 130.5 128 130.156V122.188Z" fill="#6741D9"/>
<path d="M156 135C156.031 135 156.094 135 156.125 135C156.219 134.938 156.375 134.844 156.562 134.656C156.938 134.312 157.312 133.812 157.688 133.125C158.375 131.875 158.906 130.219 159 128.5H153C153.094 130.219 153.625 131.875 154.312 133.125C154.688 133.812 155.062 134.312 155.438 134.656C155.625 134.844 155.781 134.938 155.875 135C155.906 135 155.969 135 156 135ZM153 127.5H153.031H159C158.906 125.781 158.375 124.125 157.688 122.875C157.312 122.219 156.938 121.688 156.562 121.344C156.375 121.156 156.219 121.062 156.125 121C156.031 121 155.969 121 155.875 121C155.781 121.062 155.625 121.156 155.438 121.344C155.062 121.688 154.688 122.219 154.312 122.875C153.625 124.125 153.094 125.781 153 127.5ZM160 128.5C159.875 131.031 158.906 133.375 157.812 134.75C160.656 134 162.781 131.531 162.969 128.5H160ZM162.969 127.5C162.781 124.5 160.656 122 157.812 121.25C158.906 122.625 159.875 124.969 160 127.5H162.969ZM152 127.5C152.125 124.969 153.125 122.625 154.188 121.25C151.344 122 149.219 124.5 149.031 127.5H152ZM149.031 128.5C149.219 131.531 151.344 134 154.188 134.75C153.125 133.375 152.125 131.031 152 128.5H149.031ZM156 136C151.594 136 148 132.406 148 128C148 123.594 151.594 120 156 120C160.406 120 164 123.594 164 128C164 132.406 160.406 136 156 136Z" fill="#6741D9"/>
<path opacity="0.4" d="M149.031 127.5C149.219 124.5 151.344 122 154.188 121.25C153.125 122.625 152.125 124.969 152 127.5H149.031ZM149.031 128.5H152C152.125 131.031 153.125 133.375 154.188 134.75C151.344 134 149.219 131.531 149.031 128.5ZM153 127.5C153.094 125.781 153.625 124.125 154.312 122.875C154.688 122.219 155.062 121.688 155.438 121.344C155.625 121.156 155.781 121.062 155.875 121C155.969 121 156.031 121 156.125 121C156.219 121.062 156.375 121.156 156.562 121.344C156.938 121.688 157.312 122.219 157.688 122.875C158.375 124.125 158.906 125.781 159 127.5H153ZM153 128.5H153.031H159C158.906 130.219 158.375 131.875 157.688 133.125C157.312 133.781 156.938 134.312 156.594 134.656C156.375 134.844 156.219 134.938 156.125 135C156.094 135 156.062 135 156 135C155.969 135 155.906 135 155.875 135C155.781 134.938 155.625 134.844 155.438 134.656C155.062 134.312 154.688 133.812 154.312 133.125C153.625 131.875 153.094 130.219 153 128.5ZM157.812 121.25C160.656 122 162.781 124.5 162.969 127.5H160C159.875 124.969 158.906 122.625 157.812 121.25ZM157.812 134.75C158.906 133.375 159.875 131.031 160 128.5H162.969C162.781 131.531 160.656 134 157.812 134.75Z" fill="#6741D9"/>
<path d="M178 121V135H173V121H178ZM182 121H187V135H182V121ZM176.5 131H174.5V133H176.5V131ZM183.5 131V133H185.5V131H183.5ZM176.5 127H174.5V129H176.5V127ZM183.5 127V129H185.5V127H183.5ZM176.5 123H174.5V125H176.5V123ZM183.5 123V125H185.5V123H183.5Z" fill="#6741D9"/>
<path opacity="0.4" d="M178 121H182V135H178V121Z" fill="#6741D9"/>
<path d="M201 127V121H200V120H208V121H207V127L211 134V136H197V134L201 127ZM202 121V127.281L201.875 127.5L200.438 130H207.562L206.125 127.5L206 127.281V121H202ZM199.875 131L198 134.281V135H210V134.281L208.125 131H199.875Z" fill="#6741D9"/>
<path opacity="0.4" d="M198 134.281L199.875 131H208.125L210 134.281V135H198V134.281Z" fill="#6741D9"/>
<path d="M236 132.5L231 135V123L236 120.5V132.5ZM220 123.5L225 121V133L220 135.5V123.5Z" fill="#6741D9"/>
<path opacity="0.4" d="M225 121L231 123V135L225 133V121Z" fill="#6741D9"/>
<rect x="30" y="41" width="179" height="54" fill="#183153"/>
<rect x="30" y="41" width="179" height="54" stroke="#B197FC" stroke-width="8"/>
<path d="M52.2884 75V59.16H57.4724C62.5604 59.16 66.1124 62.28 66.1124 67.032C66.1124 71.712 62.5604 75 57.4724 75H52.2884ZM55.5284 72.072H57.4484C60.6404 72.072 62.7764 70.08 62.7764 67.032C62.7764 63.912 60.6404 62.088 57.4484 62.088H55.5284V72.072ZM79.2747 75.288C75.4107 75.288 72.5547 72.696 72.5547 68.448V59.16H75.7947V68.688C75.7947 71.064 77.3067 72.288 79.2747 72.288C81.2667 72.288 82.7547 71.064 82.7547 68.688V59.16H85.9947V68.448C85.9947 72.696 83.1147 75.288 79.2747 75.288ZM100.831 75.288C96.1754 75.288 92.4314 71.736 92.4314 67.08C92.4314 62.424 96.1754 58.872 100.831 58.872C105.487 58.872 109.279 62.424 109.279 67.08C109.279 71.736 105.487 75.288 100.831 75.288ZM100.855 72.288C103.759 72.288 105.943 70.152 105.943 67.08C105.943 64.032 103.759 61.872 100.855 61.872C97.9034 61.872 95.7674 64.032 95.7674 67.08C95.7674 70.152 97.9034 72.288 100.855 72.288Z" fill="white"/>
<path d="M119.134 75V62.088H114.07V59.16H127.462V62.088H122.374V75H119.134ZM140.621 75.288C135.965 75.288 132.221 71.736 132.221 67.08C132.221 62.424 135.965 58.872 140.621 58.872C145.277 58.872 149.069 62.424 149.069 67.08C149.069 71.736 145.277 75.288 140.621 75.288ZM140.645 72.288C143.549 72.288 145.733 70.152 145.733 67.08C145.733 64.032 143.549 61.872 140.645 61.872C137.693 61.872 135.557 64.032 135.557 67.08C135.557 70.152 137.693 72.288 140.645 72.288ZM165.9 59.16H169.14V75.288H168.06L158.892 65.496V75H155.652V58.872H156.708L165.9 68.616V59.16ZM176.602 75V59.16H187.258V62.088H179.842V65.304H185.29V68.064H179.842V72.072H187.546V75H176.602Z" fill="#B197FC"/>
<rect width="82" height="27" transform="translate(79 23)" fill="#6741D9"/>
<path d="M100.584 40.144C99.2159 40.144 98.1119 39.448 97.5239 38.392L98.6399 37.552C99.0719 38.152 99.6359 38.704 100.584 38.704C101.28 38.704 101.712 38.38 101.712 37.828C101.712 37.312 101.328 37.132 100.704 36.844L99.8519 36.46C98.7599 35.968 97.9319 35.32 97.9319 34.18C97.9319 32.812 99.0719 31.936 100.56 31.936C101.82 31.936 102.708 32.572 103.176 33.436L102.072 34.288C101.688 33.712 101.208 33.376 100.56 33.376C100.032 33.376 99.5759 33.616 99.5759 34.144C99.5759 34.6 99.9239 34.792 100.5 35.056L101.4 35.452C102.648 36.004 103.356 36.64 103.356 37.768C103.356 39.244 102.156 40.144 100.584 40.144ZM106.699 40V32.08H108.319V35.116H111.823V32.08H113.443V40H111.823V36.58H108.319V40H106.699ZM122.286 40L121.842 38.968H118.602L118.158 40H116.418L119.958 31.936H120.498L124.026 40H122.286ZM121.278 37.636L120.222 34.96L119.166 37.636H121.278ZM133.711 40H131.887L129.835 37.204H128.647V40H127.027V32.08H130.003C131.671 32.08 132.859 33.088 132.859 34.636C132.859 35.656 132.319 36.472 131.467 36.892L133.711 40ZM128.647 33.508V35.776H130.003C130.759 35.776 131.203 35.32 131.203 34.636C131.203 33.976 130.759 33.508 130.003 33.508H128.647ZM136.623 40V32.08H139.599C141.267 32.08 142.455 33.088 142.455 34.636C142.455 36.16 141.267 37.204 139.599 37.204H138.243V40H136.623ZM138.243 35.788H139.599C140.355 35.788 140.799 35.32 140.799 34.636C140.799 33.976 140.355 33.508 139.599 33.508H138.243V35.788Z" fill="white"/>
</g>
</g>
<defs>
<clipPath id="clip0_190_57885">
<rect width="240" height="135" fill="white"/>
</clipPath>
<clipPath id="clip1_190_57885">
<rect width="720" height="135" fill="white" transform="translate(-240)"/>
</clipPath>
</defs>
</svg>
