<svg width="484" height="74" fill="none" xmlns="http://www.w3.org/2000/svg"><path fill-rule="evenodd" clip-rule="evenodd" d="M12.188 13.094a6.09 6.09 0 0 1-2.845 5.156h44.282a3.094 3.094 0 0 1 2.827 4.35L49.22 38.875l7.233 16.275a3.093 3.093 0 0 1-2.827 4.35H9.844V67h-7.5V17.897a6.094 6.094 0 1 1 9.844-4.804zm285.906 37.031c-2.401 0-5.263-.954-6.809-2.401-.724-.691-1.151-1.448-1.151-2.303.033-1.513 1.25-2.5 2.533-2.5.427 0 .888.132 1.283.395.083.055.191.144.324.254.66.542 1.933 1.588 3.82 1.588 1.513 0 2.237-.526 2.237-1.579 0-1.02-.691-1.349-2.204-2.007l-2.237-.986c-3.454-1.513-5.493-3.487-5.493-6.546 0-3.882 3.289-6.415 7.598-6.415 3.816-.032 5.658 1.875 6.185 2.5.493.56.657 1.152.657 1.678 0 1.447-1.282 2.533-2.532 2.533-.461 0-.954-.132-1.448-.494a8.624 8.624 0 0 1-.421-.312c-.579-.449-1.211-.938-2.375-.938-1.118 0-1.94.395-1.94 1.382 0 .822.526 1.217 1.874 1.776l2.5 1.053c3.619 1.513 5.56 3.355 5.56 6.546 0 4.276-3.487 6.776-7.961 6.776zm64.834-22.5c1.645 0 2.829 1.25 2.829 2.928v16.71c0 1.645-1.217 2.862-2.829 2.862s-2.829-1.217-2.829-2.862v-7.598l-2.829 4.506c-.789 1.25-1.513 1.744-2.566 1.744-1.052 0-1.776-.494-2.565-1.744l-2.829-4.506v7.598c0 1.645-1.217 2.862-2.829 2.862s-2.829-1.217-2.829-2.862v-16.71c0-1.678 1.184-2.928 2.829-2.928 1.151 0 1.94.56 2.862 2.073l5.361 8.618 5.362-8.618c.921-1.513 1.711-2.073 2.862-2.073zm12.599 19.243c0 1.645 1.217 2.862 2.862 2.862h10.328c1.481 0 2.599-1.085 2.599-2.566 0-1.447-1.085-2.532-2.599-2.532h-7.532v-3.783h4.539c1.382 0 2.401-1.02 2.401-2.369 0-1.348-1.019-2.368-2.401-2.368h-4.539v-2.993h7.138c1.48 0 2.598-1.086 2.598-2.566 0-1.447-1.085-2.533-2.598-2.533h-9.934c-1.645 0-2.862 1.217-2.862 2.862v15.986zm-39.399-7.993c0-6.282-5.165-11.25-11.744-11.25-6.545 0-11.677 4.935-11.677 11.25 0 6.316 5.099 11.25 11.677 11.25 6.579 0 11.744-4.934 11.744-11.25zm-17.632 0c0-3.585 2.402-6.052 5.921-6.052 3.454 0 5.921 2.533 5.921 6.052 0 3.553-2.434 6.053-5.921 6.053-3.552 0-5.921-2.434-5.921-6.053zm-49.26 10.855c-1.645 0-2.862-1.217-2.862-2.862V30.882c0-1.645 1.217-2.862 2.862-2.862h9.934c1.513 0 2.598 1.086 2.598 2.533 0 1.48-1.118 2.566-2.598 2.566h-7.138v2.993h4.539c1.382 0 2.401 1.02 2.401 2.368 0 1.349-1.019 2.369-2.401 2.369h-4.539v3.783h7.533c1.513 0 2.598 1.085 2.598 2.532 0 1.48-1.118 2.566-2.598 2.566h-10.329zm-13.063-22.104c1.546 0 2.829 1.25 2.829 2.763 0 .427-.099.789-.296 1.282l-6.414 16.546c-.461 1.25-1.382 1.908-2.632 1.908-1.217 0-2.138-.658-2.598-1.908l-3.849-10.427-3.849 10.427c-.46 1.25-1.381 1.908-2.598 1.908-1.25 0-2.171-.658-2.632-1.908l-6.414-16.546c-.23-.526-.296-.888-.296-1.282 0-1.514 1.283-2.764 2.829-2.764 1.217 0 2.204.658 2.598 1.777l3.948 10.822 3.618-10.46c.493-1.382 1.48-2.139 2.796-2.139 1.316 0 2.303.757 2.796 2.139l3.618 10.46 3.915-10.724c.427-1.184 1.414-1.875 2.631-1.875zm-32.482 18.42c.197.494.296.987.296 1.382 0 1.546-1.184 2.697-2.796 2.697-1.217 0-2.138-.69-2.665-2.04l-.46-1.15h-7.763l-.461 1.15c-.526 1.35-1.447 2.04-2.664 2.04-1.612 0-2.796-1.151-2.796-2.697 0-.395.099-.888.296-1.382l6.809-16.546c.493-1.217 1.414-1.875 2.697-1.875 1.283 0 2.204.658 2.698 1.875l6.809 16.546zm-9.507-10l-2.204 6.349h4.408l-2.204-6.349zm-54.052-5.559c0-1.644-1.217-2.861-2.829-2.861s-2.829 1.216-2.829 2.861v8.684l-7.895-9.736-.134-.165c-.7-.86-1.34-1.645-2.793-1.645-1.579 0-2.763 1.25-2.763 2.862v16.776c0 1.645 1.217 2.862 2.829 2.862 1.611 0 2.828-1.217 2.828-2.862v-8.717l7.895 9.77.076.093.058.07.001.002c.7.86 1.339 1.644 2.793 1.644 1.579 0 2.763-1.25 2.763-2.862V30.487zm17.066 19.638c-1.612 0-2.829-1.217-2.829-2.862V33.12h-4.244c-1.48 0-2.598-1.086-2.598-2.566 0-1.447 1.118-2.533 2.598-2.533h14.145c1.513 0 2.599 1.086 2.599 2.533 0 1.48-1.119 2.566-2.599 2.566h-4.243v14.144c0 1.645-1.217 2.862-2.829 2.862zm-55.584-22.5c6.579 0 11.743 4.968 11.743 11.25 0 6.316-5.164 11.25-11.743 11.25-6.579 0-11.677-4.934-11.677-11.25 0-6.315 5.131-11.25 11.677-11.25zm.033 5.198c-3.52 0-5.921 2.467-5.921 6.052 0 3.619 2.368 6.053 5.921 6.053 3.487 0 5.921-2.5 5.921-6.053 0-3.52-2.467-6.052-5.921-6.052zM91.423 50.125c-1.645 0-2.83-1.217-2.83-2.862V30.882c0-1.645 1.218-2.862 2.862-2.862h9.606c1.513 0 2.598 1.086 2.598 2.533 0 1.48-1.118 2.566-2.598 2.566h-6.81v4.144h5.1c1.512 0 2.598 1.086 2.598 2.533 0 1.48-1.119 2.566-2.599 2.566h-5.099v4.901c0 1.645-1.184 2.862-2.828 2.862zM483.316 37c0 16.569-13.431 30-30 30-16.568 0-30-13.431-30-30 0-16.569 13.432-30 30-30 16.569 0 30 13.431 30 30zm-22.14-12.4c.747 0 1.387.267 1.92.8.534.533.8 1.16.8 1.88 0 .507-.106.933-.32 1.28l-12 21.56c-.533.907-1.306 1.36-2.32 1.36a2.62 2.62 0 0 1-1.92-.8 2.62 2.62 0 0 1-.8-1.92c0-.4.12-.84.36-1.32l10.04-17.96h-9.08c-.72 0-1.32-.227-1.8-.68a2.394 2.394 0 0 1-.72-1.76c0-.693.24-1.267.72-1.72.48-.48 1.08-.72 1.8-.72h13.32z" fill="#183153"/></svg>