<svg width="240" height="135" viewBox="0 0 240 135" fill="none" xmlns="http://www.w3.org/2000/svg">
<g clip-path="url(#clip0_246_21551)">
<g clip-path="url(#clip1_246_21551)">
<rect width="720" height="135" transform="translate(-240)" fill="#001C40"/>
<path fill-rule="evenodd" clip-rule="evenodd" d="M83.25 35.25H96.75V43.5L98.25 46.875V48.75H81.75V46.875L83.25 43.5H93.1875C93.4982 43.5 93.75 43.2482 93.75 42.9375C93.75 42.6268 93.4982 42.375 93.1875 42.375H83.25V35.25Z" fill="#515E7B"/>
<path fill-rule="evenodd" clip-rule="evenodd" d="M83.25 35.25H96.75V43.5L98.25 46.875V48.75H81.75V46.875L83.25 43.5H93.1875C93.4982 43.5 93.75 43.2482 93.75 42.9375C93.75 42.6268 93.4982 42.375 93.1875 42.375H83.25V35.25Z" fill="url(#paint0_linear_246_21551)" fill-opacity="0.25" style="mix-blend-mode:hard-light"/>
<path fill-rule="evenodd" clip-rule="evenodd" d="M105 11.2225L101.212 8.12865L99.7884 9.87134L101.477 11.25H97.5V23.25H112.5V11.25H108.523L110.212 9.87134L108.788 8.12865L105 11.2225ZM100.312 13.5C100.002 13.5 99.75 13.7518 99.75 14.0625C99.75 14.3732 100.002 14.625 100.312 14.625H106.875V19.875H100.875V18.5625C100.875 18.2518 100.623 18 100.312 18C100.002 18 99.75 18.2518 99.75 18.5625V20.4375C99.75 20.7482 100.002 21 100.312 21H107.438C107.748 21 108 20.7482 108 20.4375V14.0625C108 13.7518 107.748 13.5 107.438 13.5H100.312ZM111 15C111 15.4142 110.664 15.75 110.25 15.75C109.836 15.75 109.5 15.4142 109.5 15C109.5 14.5858 109.836 14.25 110.25 14.25C110.664 14.25 111 14.5858 111 15ZM110.25 18.75C110.664 18.75 111 18.4142 111 18C111 17.5858 110.664 17.25 110.25 17.25C109.836 17.25 109.5 17.5858 109.5 18C109.5 18.4142 109.836 18.75 110.25 18.75Z" fill="#515E7B"/>
<path fill-rule="evenodd" clip-rule="evenodd" d="M105 11.2225L101.212 8.12865L99.7884 9.87134L101.477 11.25H97.5V23.25H112.5V11.25H108.523L110.212 9.87134L108.788 8.12865L105 11.2225ZM100.312 13.5C100.002 13.5 99.75 13.7518 99.75 14.0625C99.75 14.3732 100.002 14.625 100.312 14.625H106.875V19.875H100.875V18.5625C100.875 18.2518 100.623 18 100.312 18C100.002 18 99.75 18.2518 99.75 18.5625V20.4375C99.75 20.7482 100.002 21 100.312 21H107.438C107.748 21 108 20.7482 108 20.4375V14.0625C108 13.7518 107.748 13.5 107.438 13.5H100.312ZM111 15C111 15.4142 110.664 15.75 110.25 15.75C109.836 15.75 109.5 15.4142 109.5 15C109.5 14.5858 109.836 14.25 110.25 14.25C110.664 14.25 111 14.5858 111 15ZM110.25 18.75C110.664 18.75 111 18.4142 111 18C111 17.5858 110.664 17.25 110.25 17.25C109.836 17.25 109.5 17.5858 109.5 18C109.5 18.4142 109.836 18.75 110.25 18.75Z" fill="url(#paint1_linear_246_21551)" fill-opacity="0.25" style="mix-blend-mode:hard-light"/>
<path fill-rule="evenodd" clip-rule="evenodd" d="M51 38.9844C55.9792 34.0052 64.0208 34.0052 69 38.9844L60 48L57.0857 45.0807C57.832 44.3357 58.8622 43.875 60 43.875C60.0558 43.875 60.1114 43.8761 60.1667 43.8783C60.4771 43.8906 60.7387 43.6489 60.751 43.3385C60.7633 43.0281 60.5216 42.7665 60.2112 42.7542C60.1411 42.7514 60.0707 42.75 60 42.75C58.5519 42.75 57.2407 43.3363 56.2909 44.2845L53.9065 41.8959C55.4669 40.3382 57.6209 39.375 60 39.375C61.3229 39.375 62.5748 39.6725 63.6938 40.2036C63.9745 40.3368 64.31 40.2173 64.4432 39.9367C64.5764 39.656 64.4569 39.3205 64.1763 39.1873C62.9097 38.5861 61.4933 38.25 60 38.25C57.3106 38.25 54.8756 39.3389 53.1117 41.0998L51 38.9844Z" fill="#515E7B"/>
<path fill-rule="evenodd" clip-rule="evenodd" d="M51 38.9844C55.9792 34.0052 64.0208 34.0052 69 38.9844L60 48L57.0857 45.0807C57.832 44.3357 58.8622 43.875 60 43.875C60.0558 43.875 60.1114 43.8761 60.1667 43.8783C60.4771 43.8906 60.7387 43.6489 60.751 43.3385C60.7633 43.0281 60.5216 42.7665 60.2112 42.7542C60.1411 42.7514 60.0707 42.75 60 42.75C58.5519 42.75 57.2407 43.3363 56.2909 44.2845L53.9065 41.8959C55.4669 40.3382 57.6209 39.375 60 39.375C61.3229 39.375 62.5748 39.6725 63.6938 40.2036C63.9745 40.3368 64.31 40.2173 64.4432 39.9367C64.5764 39.656 64.4569 39.3205 64.1763 39.1873C62.9097 38.5861 61.4933 38.25 60 38.25C57.3106 38.25 54.8756 39.3389 53.1117 41.0998L51 38.9844Z" fill="url(#paint2_linear_246_21551)" fill-opacity="0.25" style="mix-blend-mode:hard-light"/>
<path fill-rule="evenodd" clip-rule="evenodd" d="M68.25 9.75H81.75V23.25H70.5455L74.4375 19.358L75.5398 20.4602C75.7594 20.6799 76.1156 20.6799 76.3352 20.4602L79.3352 17.4602C79.5549 17.2406 79.5549 16.8844 79.3352 16.6648C79.1156 16.4451 78.7594 16.4451 78.5398 16.6648L75.9375 19.267L74.8352 18.1648C74.6156 17.9451 74.2594 17.9451 74.0398 18.1648L68.9545 23.25H68.25V9.75ZM72.375 15C72.9963 15 73.5 14.4963 73.5 13.875C73.5 13.2537 72.9963 12.75 72.375 12.75C71.7537 12.75 71.25 13.2537 71.25 13.875C71.25 14.4963 71.7537 15 72.375 15Z" fill="#515E7B"/>
<path fill-rule="evenodd" clip-rule="evenodd" d="M68.25 9.75H81.75V23.25H70.5455L74.4375 19.358L75.5398 20.4602C75.7594 20.6799 76.1156 20.6799 76.3352 20.4602L79.3352 17.4602C79.5549 17.2406 79.5549 16.8844 79.3352 16.6648C79.1156 16.4451 78.7594 16.4451 78.5398 16.6648L75.9375 19.267L74.8352 18.1648C74.6156 17.9451 74.2594 17.9451 74.0398 18.1648L68.9545 23.25H68.25V9.75ZM72.375 15C72.9963 15 73.5 14.4963 73.5 13.875C73.5 13.2537 72.9963 12.75 72.375 12.75C71.7537 12.75 71.25 13.2537 71.25 13.875C71.25 14.4963 71.7537 15 72.375 15Z" fill="url(#paint3_linear_246_21551)" fill-opacity="0.25" style="mix-blend-mode:hard-light"/>
<path fill-rule="evenodd" clip-rule="evenodd" d="M23.25 35.25L26.5465 34.7791C27.8264 34.5962 29.1318 34.7527 30.3322 35.2329C31.5866 35.7346 32.9547 35.8825 34.2875 35.6604L36.75 35.25V45L34.2875 45.4104C32.9547 45.6325 31.5866 45.4846 30.3322 44.9829C29.3901 44.606 28.3833 44.4286 27.375 44.458V38.8125C27.375 38.5018 27.1232 38.25 26.8125 38.25C26.5018 38.25 26.25 38.5018 26.25 38.8125V44.5714V46.5V48.75H23.25V45V35.25Z" fill="#515E7B"/>
<path fill-rule="evenodd" clip-rule="evenodd" d="M23.25 35.25L26.5465 34.7791C27.8264 34.5962 29.1318 34.7527 30.3322 35.2329C31.5866 35.7346 32.9547 35.8825 34.2875 35.6604L36.75 35.25V45L34.2875 45.4104C32.9547 45.6325 31.5866 45.4846 30.3322 44.9829C29.3901 44.606 28.3833 44.4286 27.375 44.458V38.8125C27.375 38.5018 27.1232 38.25 26.8125 38.25C26.5018 38.25 26.25 38.5018 26.25 38.8125V44.5714V46.5V48.75H23.25V45V35.25Z" fill="url(#paint4_linear_246_21551)" fill-opacity="0.25" style="mix-blend-mode:hard-light"/>
<path fill-rule="evenodd" clip-rule="evenodd" d="M-0.5625 35.25H-6.75V41.4375H-2.0625C-1.75184 41.4375 -1.5 41.6893 -1.5 42C-1.5 42.3107 -1.75184 42.5625 -2.0625 42.5625H-6.75V48.75H-0.5625V44.0625C-0.5625 43.7518 -0.31066 43.5 0 43.5C0.31066 43.5 0.5625 43.7518 0.5625 44.0625V48.75H6.75V42.5625H2.0625C1.75184 42.5625 1.5 42.3107 1.5 42C1.5 41.6893 1.75184 41.4375 2.0625 41.4375H6.75V35.25H0.5625V39.9375C0.5625 40.2482 0.31066 40.5 0 40.5C-0.31066 40.5 -0.5625 40.2482 -0.5625 39.9375V35.25Z" fill="#515E7B"/>
<path fill-rule="evenodd" clip-rule="evenodd" d="M-0.5625 35.25H-6.75V41.4375H-2.0625C-1.75184 41.4375 -1.5 41.6893 -1.5 42C-1.5 42.3107 -1.75184 42.5625 -2.0625 42.5625H-6.75V48.75H-0.5625V44.0625C-0.5625 43.7518 -0.31066 43.5 0 43.5C0.31066 43.5 0.5625 43.7518 0.5625 44.0625V48.75H6.75V42.5625H2.0625C1.75184 42.5625 1.5 42.3107 1.5 42C1.5 41.6893 1.75184 41.4375 2.0625 41.4375H6.75V35.25H0.5625V39.9375C0.5625 40.2482 0.31066 40.5 0 40.5C-0.31066 40.5 -0.5625 40.2482 -0.5625 39.9375V35.25Z" fill="url(#paint5_linear_246_21551)" fill-opacity="0.25" style="mix-blend-mode:hard-light"/>
<path fill-rule="evenodd" clip-rule="evenodd" d="M45 24C49.1421 24 52.5 20.6421 52.5 16.5C52.5 12.3579 49.1421 9 45 9C40.8579 9 37.5 12.3579 37.5 16.5C37.5 20.6421 40.8579 24 45 24ZM48.7167 13.503C48.7906 13.298 48.7393 13.0688 48.5852 12.9148C48.4312 12.7607 48.202 12.7094 47.997 12.7833L44.8095 13.9308C44.5172 14.036 44.3655 14.3582 44.4708 14.6505C44.576 14.9428 44.8982 15.0945 45.1905 14.9892L47.2534 14.2466L46.0604 17.5604L42.7466 18.7534L43.4892 16.6905C43.5945 16.3982 43.4428 16.076 43.1505 15.9708C42.8582 15.8655 42.536 16.0172 42.4308 16.3095L41.2833 19.497C41.2094 19.702 41.2607 19.9312 41.4148 20.0852C41.5688 20.2393 41.798 20.2906 42.003 20.2167L46.6905 18.5292C46.8483 18.4725 46.9725 18.3483 47.0292 18.1905L48.7167 13.503Z" fill="#515E7B"/>
<path fill-rule="evenodd" clip-rule="evenodd" d="M45 24C49.1421 24 52.5 20.6421 52.5 16.5C52.5 12.3579 49.1421 9 45 9C40.8579 9 37.5 12.3579 37.5 16.5C37.5 20.6421 40.8579 24 45 24ZM48.7167 13.503C48.7906 13.298 48.7393 13.0688 48.5852 12.9148C48.4312 12.7607 48.202 12.7094 47.997 12.7833L44.8095 13.9308C44.5172 14.036 44.3655 14.3582 44.4708 14.6505C44.576 14.9428 44.8982 15.0945 45.1905 14.9892L47.2534 14.2466L46.0604 17.5604L42.7466 18.7534L43.4892 16.6905C43.5945 16.3982 43.4428 16.076 43.1505 15.9708C42.8582 15.8655 42.536 16.0172 42.4308 16.3095L41.2833 19.497C41.2094 19.702 41.2607 19.9312 41.4148 20.0852C41.5688 20.2393 41.798 20.2906 42.003 20.2167L46.6905 18.5292C46.8483 18.4725 46.9725 18.3483 47.0292 18.1905L48.7167 13.503Z" fill="url(#paint6_linear_246_21551)" fill-opacity="0.25" style="mix-blend-mode:hard-light"/>
<path fill-rule="evenodd" clip-rule="evenodd" d="M15 8.25C11.6863 8.25 9 9.59315 9 11.25V12.375C9 13.202 9.66941 13.9523 10.7574 14.4963C11.8431 15.0392 13.3431 15.375 15 15.375C15.8204 15.375 16.6056 15.2926 17.3226 15.142C17.6266 15.0781 17.9249 15.2728 17.9887 15.5768C18.0526 15.8808 17.8579 16.1791 17.5539 16.2429C16.7574 16.4103 15.8945 16.5 15 16.5C13.2064 16.5 11.5269 16.1389 10.2542 15.5026C9.81373 15.2823 9.37685 15.0032 9 14.665V17.25C9 18.077 9.66941 18.8273 10.7574 19.3713C11.8431 19.9142 13.3431 20.25 15 20.25C15.8204 20.25 16.6056 20.1676 17.3226 20.017C17.6266 19.9531 17.9249 20.1478 17.9887 20.4518C18.0526 20.7558 17.8579 21.0541 17.5539 21.1179C16.7574 21.2853 15.8945 21.375 15 21.375C13.2064 21.375 11.5269 21.0139 10.2542 20.3776C9.81373 20.1573 9.37685 19.8782 9 19.54V21.75C9 23.4069 11.6863 24.75 15 24.75C18.3137 24.75 21 23.4069 21 21.75V11.25C21 9.59315 18.3137 8.25 15 8.25Z" fill="#515E7B"/>
<path fill-rule="evenodd" clip-rule="evenodd" d="M15 8.25C11.6863 8.25 9 9.59315 9 11.25V12.375C9 13.202 9.66941 13.9523 10.7574 14.4963C11.8431 15.0392 13.3431 15.375 15 15.375C15.8204 15.375 16.6056 15.2926 17.3226 15.142C17.6266 15.0781 17.9249 15.2728 17.9887 15.5768C18.0526 15.8808 17.8579 16.1791 17.5539 16.2429C16.7574 16.4103 15.8945 16.5 15 16.5C13.2064 16.5 11.5269 16.1389 10.2542 15.5026C9.81373 15.2823 9.37685 15.0032 9 14.665V17.25C9 18.077 9.66941 18.8273 10.7574 19.3713C11.8431 19.9142 13.3431 20.25 15 20.25C15.8204 20.25 16.6056 20.1676 17.3226 20.017C17.6266 19.9531 17.9249 20.1478 17.9887 20.4518C18.0526 20.7558 17.8579 21.0541 17.5539 21.1179C16.7574 21.2853 15.8945 21.375 15 21.375C13.2064 21.375 11.5269 21.0139 10.2542 20.3776C9.81373 20.1573 9.37685 19.8782 9 19.54V21.75C9 23.4069 11.6863 24.75 15 24.75C18.3137 24.75 21 23.4069 21 21.75V11.25C21 9.59315 18.3137 8.25 15 8.25Z" fill="url(#paint7_linear_246_21551)" fill-opacity="0.25" style="mix-blend-mode:hard-light"/>
<path fill-rule="evenodd" clip-rule="evenodd" d="M71.4766 60.75C70.4582 60.75 69.5668 61.4341 69.3033 62.4178L68.6451 64.875H78.1875C78.4982 64.875 78.75 65.1268 78.75 65.4375C78.75 65.7482 78.4982 66 78.1875 66H68.3438H67.5H66.75V69H68.25V71.25V72.75V75H71.25V72.75H78.75V75H81.75V72.75V71.25V69H83.25V66H81.6562L80.6967 62.4178C80.4332 61.4341 79.5418 60.75 78.5234 60.75H71.4766ZM71.625 70.5C72.2463 70.5 72.75 69.9963 72.75 69.375C72.75 68.7537 72.2463 68.25 71.625 68.25C71.0037 68.25 70.5 68.7537 70.5 69.375C70.5 69.9963 71.0037 70.5 71.625 70.5ZM79.5 69.375C79.5 69.9963 78.9963 70.5 78.375 70.5C77.7537 70.5 77.25 69.9963 77.25 69.375C77.25 68.7537 77.7537 68.25 78.375 68.25C78.9963 68.25 79.5 68.7537 79.5 69.375Z" fill="#515E7B"/>
<path fill-rule="evenodd" clip-rule="evenodd" d="M71.4766 60.75C70.4582 60.75 69.5668 61.4341 69.3033 62.4178L68.6451 64.875H78.1875C78.4982 64.875 78.75 65.1268 78.75 65.4375C78.75 65.7482 78.4982 66 78.1875 66H68.3438H67.5H66.75V69H68.25V71.25V72.75V75H71.25V72.75H78.75V75H81.75V72.75V71.25V69H83.25V66H81.6562L80.6967 62.4178C80.4332 61.4341 79.5418 60.75 78.5234 60.75H71.4766ZM71.625 70.5C72.2463 70.5 72.75 69.9963 72.75 69.375C72.75 68.7537 72.2463 68.25 71.625 68.25C71.0037 68.25 70.5 68.7537 70.5 69.375C70.5 69.9963 71.0037 70.5 71.625 70.5ZM79.5 69.375C79.5 69.9963 78.9963 70.5 78.375 70.5C77.7537 70.5 77.25 69.9963 77.25 69.375C77.25 68.7537 77.7537 68.25 78.375 68.25C78.9963 68.25 79.5 68.7537 79.5 69.375Z" fill="url(#paint8_linear_246_21551)" fill-opacity="0.25" style="mix-blend-mode:hard-light"/>
<path fill-rule="evenodd" clip-rule="evenodd" d="M86.25 86.25H98.25V92.25V94.5V96.75L94.875 94.5V90.1875C94.875 89.8768 94.6232 89.625 94.3125 89.625H89.8125C89.5018 89.625 89.25 89.8768 89.25 90.1875C89.25 90.4982 89.5018 90.75 89.8125 90.75H93.75V94.5V95.25V99H88.125L84.75 101.25V99H81.75V90.75H86.25V86.25Z" fill="#515E7B"/>
<path fill-rule="evenodd" clip-rule="evenodd" d="M86.25 86.25H98.25V92.25V94.5V96.75L94.875 94.5V90.1875C94.875 89.8768 94.6232 89.625 94.3125 89.625H89.8125C89.5018 89.625 89.25 89.8768 89.25 90.1875C89.25 90.4982 89.5018 90.75 89.8125 90.75H93.75V94.5V95.25V99H88.125L84.75 101.25V99H81.75V90.75H86.25V86.25Z" fill="url(#paint9_linear_246_21551)" fill-opacity="0.25" style="mix-blend-mode:hard-light"/>
<path fill-rule="evenodd" clip-rule="evenodd" d="M52.5 88.5L59.6888 92.0944C59.9667 92.2333 60.0793 92.5712 59.9404 92.8491C59.8014 93.1269 59.4635 93.2395 59.1857 93.1006L55.7422 91.3789L52.5 93L59.6888 96.5944C59.9667 96.7333 60.0793 97.0712 59.9404 97.3491C59.8014 97.6269 59.4635 97.7395 59.1857 97.6006L55.7422 95.8789L52.5 97.5L60 101.25L67.5 97.5L63 95.25L67.5 93L63 90.75L67.5 88.5L60 84.75L52.5 88.5Z" fill="#515E7B"/>
<path fill-rule="evenodd" clip-rule="evenodd" d="M52.5 88.5L59.6888 92.0944C59.9667 92.2333 60.0793 92.5712 59.9404 92.8491C59.8014 93.1269 59.4635 93.2395 59.1857 93.1006L55.7422 91.3789L52.5 93L59.6888 96.5944C59.9667 96.7333 60.0793 97.0712 59.9404 97.3491C59.8014 97.6269 59.4635 97.7395 59.1857 97.6006L55.7422 95.8789L52.5 97.5L60 101.25L67.5 97.5L63 95.25L67.5 93L63 90.75L67.5 88.5L60 84.75L52.5 88.5Z" fill="url(#paint10_linear_246_21551)" fill-opacity="0.25" style="mix-blend-mode:hard-light"/>
<path fill-rule="evenodd" clip-rule="evenodd" d="M49.5 116.25C51.1569 116.25 52.5 114.907 52.5 113.25C52.5 111.593 51.1569 110.25 49.5 110.25C47.8729 110.25 46.5483 111.545 46.5013 113.161L42.4222 115.357C42.6134 115.52 42.7895 115.7 42.9481 115.894C43.1444 116.135 43.1084 116.49 42.8677 116.686C42.627 116.882 42.2726 116.846 42.0763 116.606C41.8651 116.347 41.6118 116.124 41.3269 115.947L41.3268 115.947C40.9011 115.684 40.4045 115.524 39.8723 115.502C39.8317 115.501 39.7909 115.5 39.75 115.5C38.0931 115.5 36.75 116.843 36.75 118.5C36.75 120.157 38.0931 121.5 39.75 121.5C40.3284 121.5 40.8686 121.336 41.3268 121.053L45.4053 123.249C45.446 122.918 45.5264 122.594 45.6444 122.283C45.7547 121.993 46.0796 121.847 46.37 121.957C46.6604 122.067 46.8064 122.392 46.6961 122.683C46.5564 123.05 46.4892 123.443 46.5005 123.839L46.5013 123.839C46.5096 124.124 46.5576 124.399 46.64 124.659C46.7045 124.861 46.7914 125.059 46.9018 125.25C46.905 125.256 46.9082 125.261 46.9112 125.267C47.4322 126.154 48.3965 126.75 49.5 126.75C51.1569 126.75 52.5 125.407 52.5 123.75C52.5 122.093 51.1569 120.75 49.5 120.75C48.9216 120.75 48.3814 120.914 47.9232 121.197L42.9139 118.5L47.9232 115.803C48.3814 116.086 48.9216 116.25 49.5 116.25Z" fill="#515E7B"/>
<path fill-rule="evenodd" clip-rule="evenodd" d="M49.5 116.25C51.1569 116.25 52.5 114.907 52.5 113.25C52.5 111.593 51.1569 110.25 49.5 110.25C47.8729 110.25 46.5483 111.545 46.5013 113.161L42.4222 115.357C42.6134 115.52 42.7895 115.7 42.9481 115.894C43.1444 116.135 43.1084 116.49 42.8677 116.686C42.627 116.882 42.2726 116.846 42.0763 116.606C41.8651 116.347 41.6118 116.124 41.3269 115.947L41.3268 115.947C40.9011 115.684 40.4045 115.524 39.8723 115.502C39.8317 115.501 39.7909 115.5 39.75 115.5C38.0931 115.5 36.75 116.843 36.75 118.5C36.75 120.157 38.0931 121.5 39.75 121.5C40.3284 121.5 40.8686 121.336 41.3268 121.053L45.4053 123.249C45.446 122.918 45.5264 122.594 45.6444 122.283C45.7547 121.993 46.0796 121.847 46.37 121.957C46.6604 122.067 46.8064 122.392 46.6961 122.683C46.5564 123.05 46.4892 123.443 46.5005 123.839L46.5013 123.839C46.5096 124.124 46.5576 124.399 46.64 124.659C46.7045 124.861 46.7914 125.059 46.9018 125.25C46.905 125.256 46.9082 125.261 46.9112 125.267C47.4322 126.154 48.3965 126.75 49.5 126.75C51.1569 126.75 52.5 125.407 52.5 123.75C52.5 122.093 51.1569 120.75 49.5 120.75C48.9216 120.75 48.3814 120.914 47.9232 121.197L42.9139 118.5L47.9232 115.803C48.3814 116.086 48.9216 116.25 49.5 116.25Z" fill="url(#paint11_linear_246_21551)" fill-opacity="0.25" style="mix-blend-mode:hard-light"/>
<path fill-rule="evenodd" clip-rule="evenodd" d="M10.125 112.5H7.5V116.25C7.5 117.493 8.50736 118.5 9.75 118.5H10.7561C11.208 119.779 12.2214 120.792 13.5 121.244V123H12H10.5V126H12H15H18H19.5V123H18H16.5V121.244C17.7786 120.792 18.792 119.779 19.2439 118.5H20.25C21.4926 118.5 22.5 117.493 22.5 116.25V112.5H19.875V115.688C19.875 115.998 19.6232 116.25 19.3125 116.25C19.0018 116.25 18.75 115.998 18.75 115.688V111H11.25V115.688C11.25 115.998 10.9982 116.25 10.6875 116.25C10.3768 116.25 10.125 115.998 10.125 115.688V112.5Z" fill="#515E7B"/>
<path fill-rule="evenodd" clip-rule="evenodd" d="M10.125 112.5H7.5V116.25C7.5 117.493 8.50736 118.5 9.75 118.5H10.7561C11.208 119.779 12.2214 120.792 13.5 121.244V123H12H10.5V126H12H15H18H19.5V123H18H16.5V121.244C17.7786 120.792 18.792 119.779 19.2439 118.5H20.25C21.4926 118.5 22.5 117.493 22.5 116.25V112.5H19.875V115.688C19.875 115.998 19.6232 116.25 19.3125 116.25C19.0018 116.25 18.75 115.998 18.75 115.688V111H11.25V115.688C11.25 115.998 10.9982 116.25 10.6875 116.25C10.3768 116.25 10.125 115.998 10.125 115.688V112.5Z" fill="url(#paint12_linear_246_21551)" fill-opacity="0.25" style="mix-blend-mode:hard-light"/>
<path fill-rule="evenodd" clip-rule="evenodd" d="M75 110.25L67.5 115.5H68.25H69H72.5625H77.4375C77.7482 115.5 78 115.752 78 116.062V120.938C78 121.248 77.7482 121.5 77.4375 121.5C77.1268 121.5 76.875 121.248 76.875 120.938V116.625H73.125V120.938C73.125 121.248 72.8732 121.5 72.5625 121.5C72.2518 121.5 72 121.248 72 120.938V116.625H69V123L67.5 125.25H82.5L81 123V115.5H82.5L75 110.25Z" fill="#515E7B"/>
<path fill-rule="evenodd" clip-rule="evenodd" d="M75 110.25L67.5 115.5H68.25H69H72.5625H77.4375C77.7482 115.5 78 115.752 78 116.062V120.938C78 121.248 77.7482 121.5 77.4375 121.5C77.1268 121.5 76.875 121.248 76.875 120.938V116.625H73.125V120.938C73.125 121.248 72.8732 121.5 72.5625 121.5C72.2518 121.5 72 121.248 72 120.938V116.625H69V123L67.5 125.25H82.5L81 123V115.5H82.5L75 110.25Z" fill="url(#paint13_linear_246_21551)" fill-opacity="0.25" style="mix-blend-mode:hard-light"/>
<path fill-rule="evenodd" clip-rule="evenodd" d="M128.25 111H135V120V120.75V122.438C135 122.748 135.252 123 135.562 123C135.873 123 136.125 122.748 136.125 122.438V120.75V120V112.5L141.75 114.75V126H137.25H136.125H135H132.75H132.188V123.562C132.188 123.252 131.936 123 131.625 123C131.314 123 131.062 123.252 131.062 123.562V126H128.25V111ZM131.625 113.25C131.936 113.25 132.188 113.502 132.188 113.812V114.938C132.188 115.248 131.936 115.5 131.625 115.5C131.314 115.5 131.062 115.248 131.062 114.938V113.812C131.062 113.502 131.314 113.25 131.625 113.25ZM131.625 117C131.936 117 132.188 117.252 132.188 117.562V118.688C132.188 118.998 131.936 119.25 131.625 119.25C131.314 119.25 131.062 118.998 131.062 118.688V117.562C131.062 117.252 131.314 117 131.625 117ZM139.5 116.25C139.5 115.939 139.248 115.688 138.938 115.688C138.627 115.688 138.375 115.939 138.375 116.25V117.188C138.375 117.498 138.627 117.75 138.938 117.75C139.248 117.75 139.5 117.498 139.5 117.188V116.25ZM139.5 119.812C139.5 119.502 139.248 119.25 138.938 119.25C138.627 119.25 138.375 119.502 138.375 119.812V120.938C138.375 121.248 138.627 121.5 138.938 121.5C139.248 121.5 139.5 121.248 139.5 120.938V119.812Z" fill="#515E7B"/>
<path fill-rule="evenodd" clip-rule="evenodd" d="M128.25 111H135V120V120.75V122.438C135 122.748 135.252 123 135.562 123C135.873 123 136.125 122.748 136.125 122.438V120.75V120V112.5L141.75 114.75V126H137.25H136.125H135H132.75H132.188V123.562C132.188 123.252 131.936 123 131.625 123C131.314 123 131.062 123.252 131.062 123.562V126H128.25V111ZM131.625 113.25C131.936 113.25 132.188 113.502 132.188 113.812V114.938C132.188 115.248 131.936 115.5 131.625 115.5C131.314 115.5 131.062 115.248 131.062 114.938V113.812C131.062 113.502 131.314 113.25 131.625 113.25ZM131.625 117C131.936 117 132.188 117.252 132.188 117.562V118.688C132.188 118.998 131.936 119.25 131.625 119.25C131.314 119.25 131.062 118.998 131.062 118.688V117.562C131.062 117.252 131.314 117 131.625 117ZM139.5 116.25C139.5 115.939 139.248 115.688 138.938 115.688C138.627 115.688 138.375 115.939 138.375 116.25V117.188C138.375 117.498 138.627 117.75 138.938 117.75C139.248 117.75 139.5 117.498 139.5 117.188V116.25ZM139.5 119.812C139.5 119.502 139.248 119.25 138.938 119.25C138.627 119.25 138.375 119.502 138.375 119.812V120.938C138.375 121.248 138.627 121.5 138.938 121.5C139.248 121.5 139.5 121.248 139.5 120.938V119.812Z" fill="url(#paint14_linear_246_21551)" fill-opacity="0.25" style="mix-blend-mode:hard-light"/>
<path fill-rule="evenodd" clip-rule="evenodd" d="M97.5 111.75H112.5V121.5H109.5V125.25H100.5V122.625H105.938C106.248 122.625 106.5 122.373 106.5 122.062C106.5 121.752 106.248 121.5 105.938 121.5H100.5H99.75H97.5V111.75Z" fill="#515E7B"/>
<path fill-rule="evenodd" clip-rule="evenodd" d="M97.5 111.75H112.5V121.5H109.5V125.25H100.5V122.625H105.938C106.248 122.625 106.5 122.373 106.5 122.062C106.5 121.752 106.248 121.5 105.938 121.5H100.5H99.75H97.5V111.75Z" fill="url(#paint15_linear_246_21551)" fill-opacity="0.25" style="mix-blend-mode:hard-light"/>
<path fill-rule="evenodd" clip-rule="evenodd" d="M157.5 112.5H168V115.875L172.5 113.25V123.75L169.125 121.781V119.062C169.125 118.752 168.873 118.5 168.562 118.5C168.252 118.5 168 118.752 168 119.062V121.125V122.812V124.5H157.5V112.5Z" fill="#515E7B"/>
<path fill-rule="evenodd" clip-rule="evenodd" d="M157.5 112.5H168V115.875L172.5 113.25V123.75L169.125 121.781V119.062C169.125 118.752 168.873 118.5 168.562 118.5C168.252 118.5 168 118.752 168 119.062V121.125V122.812V124.5H157.5V112.5Z" fill="url(#paint16_linear_246_21551)" fill-opacity="0.25" style="mix-blend-mode:hard-light"/>
<path fill-rule="evenodd" clip-rule="evenodd" d="M202.355 119.974C202.45 119.497 202.5 119.004 202.5 118.5C202.5 114.358 199.142 111 195 111C190.858 111 187.5 114.358 187.5 118.5C187.5 122.642 190.858 126 195 126C197.84 126 200.312 124.421 201.585 122.093C201.283 122.195 200.961 122.25 200.625 122.25C198.968 122.25 197.625 120.907 197.625 119.25V118.5C197.625 117.05 196.45 115.875 195 115.875C193.55 115.875 192.375 117.05 192.375 118.5C192.375 119.95 193.55 121.125 195 121.125H195.188C195.498 121.125 195.75 121.377 195.75 121.688C195.75 121.998 195.498 122.25 195.188 122.25H195C192.929 122.25 191.25 120.571 191.25 118.5C191.25 116.429 192.929 114.75 195 114.75C197.071 114.75 198.75 116.429 198.75 118.5V119.25C198.75 120.286 199.589 121.125 200.625 121.125C201.404 121.125 202.072 120.65 202.355 119.974Z" fill="#515E7B"/>
<path fill-rule="evenodd" clip-rule="evenodd" d="M202.355 119.974C202.45 119.497 202.5 119.004 202.5 118.5C202.5 114.358 199.142 111 195 111C190.858 111 187.5 114.358 187.5 118.5C187.5 122.642 190.858 126 195 126C197.84 126 200.312 124.421 201.585 122.093C201.283 122.195 200.961 122.25 200.625 122.25C198.968 122.25 197.625 120.907 197.625 119.25V118.5C197.625 117.05 196.45 115.875 195 115.875C193.55 115.875 192.375 117.05 192.375 118.5C192.375 119.95 193.55 121.125 195 121.125H195.188C195.498 121.125 195.75 121.377 195.75 121.688C195.75 121.998 195.498 122.25 195.188 122.25H195C192.929 122.25 191.25 120.571 191.25 118.5C191.25 116.429 192.929 114.75 195 114.75C197.071 114.75 198.75 116.429 198.75 118.5V119.25C198.75 120.286 199.589 121.125 200.625 121.125C201.404 121.125 202.072 120.65 202.355 119.974Z" fill="url(#paint17_linear_246_21551)" fill-opacity="0.25" style="mix-blend-mode:hard-light"/>
<path fill-rule="evenodd" clip-rule="evenodd" d="M222.75 110.25H228L231.75 114V123H227.25V126.75H218.25V114H221.25H222.75H223.455L227.25 117.795V120.188C227.25 120.498 227.502 120.75 227.812 120.75C228.123 120.75 228.375 120.498 228.375 120.188V117.562C228.375 117.413 228.316 117.27 228.21 117.165L224.085 113.04C223.98 112.934 223.837 112.875 223.688 112.875H222.75V110.25Z" fill="#515E7B"/>
<path fill-rule="evenodd" clip-rule="evenodd" d="M222.75 110.25H228L231.75 114V123H227.25V126.75H218.25V114H221.25H222.75H223.455L227.25 117.795V120.188C227.25 120.498 227.502 120.75 227.812 120.75C228.123 120.75 228.375 120.498 228.375 120.188V117.562C228.375 117.413 228.316 117.27 228.21 117.165L224.085 113.04C223.98 112.934 223.837 112.875 223.688 112.875H222.75V110.25Z" fill="url(#paint18_linear_246_21551)" fill-opacity="0.25" style="mix-blend-mode:hard-light"/>
<path fill-rule="evenodd" clip-rule="evenodd" d="M38.25 86.25H21.75V89.25H22.6875H23.25H33.1875C33.4982 89.25 33.75 89.5018 33.75 89.8125C33.75 90.1232 33.4982 90.375 33.1875 90.375H23.25V99.75H36.75V89.25H38.25V86.25ZM27.75 93.5625C27.75 93.2518 28.0018 93 28.3125 93H31.6875C31.9982 93 32.25 93.2518 32.25 93.5625C32.25 93.8732 31.9982 94.125 31.6875 94.125H28.3125C28.0018 94.125 27.75 93.8732 27.75 93.5625Z" fill="#515E7B"/>
<path fill-rule="evenodd" clip-rule="evenodd" d="M38.25 86.25H21.75V89.25H22.6875H23.25H33.1875C33.4982 89.25 33.75 89.5018 33.75 89.8125C33.75 90.1232 33.4982 90.375 33.1875 90.375H23.25V99.75H36.75V89.25H38.25V86.25ZM27.75 93.5625C27.75 93.2518 28.0018 93 28.3125 93H31.6875C31.9982 93 32.25 93.2518 32.25 93.5625C32.25 93.8732 31.9982 94.125 31.6875 94.125H28.3125C28.0018 94.125 27.75 93.8732 27.75 93.5625Z" fill="url(#paint19_linear_246_21551)" fill-opacity="0.25" style="mix-blend-mode:hard-light"/>
<path fill-rule="evenodd" clip-rule="evenodd" d="M-5.25 90C-5.25 87.1005 -2.89949 84.75 0 84.75C2.8995 84.75 5.25 87.1005 5.25 90V94.5L7.5 97.5H3.75C3.75 99.5711 2.07107 101.25 0 101.25C-1.67912 101.25 -3.10048 100.146 -3.57832 98.625H0.1875C0.49816 98.625 0.75 98.3732 0.75 98.0625C0.75 97.7518 0.49816 97.5 0.1875 97.5H-3.75H-5.25H-7.5L-5.25 94.5V90Z" fill="#515E7B"/>
<path fill-rule="evenodd" clip-rule="evenodd" d="M-5.25 90C-5.25 87.1005 -2.89949 84.75 0 84.75C2.8995 84.75 5.25 87.1005 5.25 90V94.5L7.5 97.5H3.75C3.75 99.5711 2.07107 101.25 0 101.25C-1.67912 101.25 -3.10048 100.146 -3.57832 98.625H0.1875C0.49816 98.625 0.75 98.3732 0.75 98.0625C0.75 97.7518 0.49816 97.5 0.1875 97.5H-3.75H-5.25H-7.5L-5.25 94.5V90Z" fill="url(#paint20_linear_246_21551)" fill-opacity="0.25" style="mix-blend-mode:hard-light"/>
<path fill-rule="evenodd" clip-rule="evenodd" d="M116.625 95.346V86.25H119.25V92.25C119.25 92.5607 119.502 92.8125 119.812 92.8125C120.123 92.8125 120.375 92.5607 120.375 92.25V84.75H123V92.25C123 92.5607 123.252 92.8125 123.562 92.8125C123.873 92.8125 124.125 92.5607 124.125 92.25V87.75H126.75V93.75V94.1751C126.75 97.6682 123.918 100.5 120.425 100.5C118.953 100.5 117.527 99.9864 116.393 99.0478L112.294 95.6556L114.206 93.3444L116.625 95.346Z" fill="#515E7B"/>
<path fill-rule="evenodd" clip-rule="evenodd" d="M116.625 95.346V86.25H119.25V92.25C119.25 92.5607 119.502 92.8125 119.812 92.8125C120.123 92.8125 120.375 92.5607 120.375 92.25V84.75H123V92.25C123 92.5607 123.252 92.8125 123.562 92.8125C123.873 92.8125 124.125 92.5607 124.125 92.25V87.75H126.75V93.75V94.1751C126.75 97.6682 123.918 100.5 120.425 100.5C118.953 100.5 117.527 99.9864 116.393 99.0478L112.294 95.6556L114.206 93.3444L116.625 95.346Z" fill="url(#paint21_linear_246_21551)" fill-opacity="0.25" style="mix-blend-mode:hard-light"/>
<path fill-rule="evenodd" clip-rule="evenodd" d="M146.25 85.5C145.007 85.5 144 86.5074 144 87.75V98.25C144 99.4926 145.007 100.5 146.25 100.5H156V98.25H146.812C146.502 98.25 146.25 97.9982 146.25 97.6875C146.25 97.3768 146.502 97.125 146.812 97.125H156V85.5H146.25ZM149.062 89.625C148.752 89.625 148.5 89.8768 148.5 90.1875C148.5 90.4982 148.752 90.75 149.062 90.75H153.188C153.498 90.75 153.75 90.4982 153.75 90.1875C153.75 89.8768 153.498 89.625 153.188 89.625H149.062Z" fill="#515E7B"/>
<path fill-rule="evenodd" clip-rule="evenodd" d="M146.25 85.5C145.007 85.5 144 86.5074 144 87.75V98.25C144 99.4926 145.007 100.5 146.25 100.5H156V98.25H146.812C146.502 98.25 146.25 97.9982 146.25 97.6875C146.25 97.3768 146.502 97.125 146.812 97.125H156V85.5H146.25ZM149.062 89.625C148.752 89.625 148.5 89.8768 148.5 90.1875C148.5 90.4982 148.752 90.75 149.062 90.75H153.188C153.498 90.75 153.75 90.4982 153.75 90.1875C153.75 89.8768 153.498 89.625 153.188 89.625H149.062Z" fill="url(#paint22_linear_246_21551)" fill-opacity="0.25" style="mix-blend-mode:hard-light"/>
<path fill-rule="evenodd" clip-rule="evenodd" d="M181.5 90.3487C182.397 89.8299 183 88.8604 183 87.75C183 86.0931 181.657 84.75 180 84.75C178.343 84.75 177 86.0931 177 87.75C177 88.8604 177.603 89.8299 178.5 90.3487V93.75V94.5V97.6875C178.5 97.9982 178.248 98.25 177.938 98.25C177.627 98.25 177.375 97.9982 177.375 97.6875V94.3125L173.25 92.25V97.5C173.25 99.1569 174.593 100.5 176.25 100.5H183.75C185.407 100.5 186.75 99.1569 186.75 97.5V92.25L182.625 94.3125V97.6875C182.625 97.9982 182.373 98.25 182.062 98.25C181.752 98.25 181.5 97.9982 181.5 97.6875V94.5V93.75V90.3487Z" fill="#515E7B"/>
<path fill-rule="evenodd" clip-rule="evenodd" d="M181.5 90.3487C182.397 89.8299 183 88.8604 183 87.75C183 86.0931 181.657 84.75 180 84.75C178.343 84.75 177 86.0931 177 87.75C177 88.8604 177.603 89.8299 178.5 90.3487V93.75V94.5V97.6875C178.5 97.9982 178.248 98.25 177.938 98.25C177.627 98.25 177.375 97.9982 177.375 97.6875V94.3125L173.25 92.25V97.5C173.25 99.1569 174.593 100.5 176.25 100.5H183.75C185.407 100.5 186.75 99.1569 186.75 97.5V92.25L182.625 94.3125V97.6875C182.625 97.9982 182.373 98.25 182.062 98.25C181.752 98.25 181.5 97.9982 181.5 97.6875V94.5V93.75V90.3487Z" fill="url(#paint23_linear_246_21551)" fill-opacity="0.25" style="mix-blend-mode:hard-light"/>
<path fill-rule="evenodd" clip-rule="evenodd" d="M210.562 99.75H216.75V90.75L210 84.75L203.25 90.75V99.75H209.438V95.0625C209.438 94.7518 209.689 94.5 210 94.5C210.311 94.5 210.562 94.7518 210.562 95.0625V99.75Z" fill="#515E7B"/>
<path fill-rule="evenodd" clip-rule="evenodd" d="M210.562 99.75H216.75V90.75L210 84.75L203.25 90.75V99.75H209.438V95.0625C209.438 94.7518 209.689 94.5 210 94.5C210.311 94.5 210.562 94.7518 210.562 95.0625V99.75Z" fill="url(#paint24_linear_246_21551)" fill-opacity="0.25" style="mix-blend-mode:hard-light"/>
<path fill-rule="evenodd" clip-rule="evenodd" d="M243.75 89.25C243.75 90.3358 243.289 91.3139 242.551 91.9987C245.014 93.0049 246.75 95.4247 246.75 98.25V99.75H233.25V98.25C233.25 95.8451 234.508 93.734 236.401 92.5384C237.292 93.5134 238.575 94.125 240 94.125H240.188C240.498 94.125 240.75 93.8732 240.75 93.5625C240.75 93.2518 240.498 93 240.188 93H240C239.015 93 238.118 92.62 237.449 91.9987C236.711 91.3139 236.25 90.3358 236.25 89.25C236.25 87.1789 237.929 85.5 240 85.5C242.071 85.5 243.75 87.1789 243.75 89.25Z" fill="#515E7B"/>
<path fill-rule="evenodd" clip-rule="evenodd" d="M243.75 89.25C243.75 90.3358 243.289 91.3139 242.551 91.9987C245.014 93.0049 246.75 95.4247 246.75 98.25V99.75H233.25V98.25C233.25 95.8451 234.508 93.734 236.401 92.5384C237.292 93.5134 238.575 94.125 240 94.125H240.188C240.498 94.125 240.75 93.8732 240.75 93.5625C240.75 93.2518 240.498 93 240.188 93H240C239.015 93 238.118 92.62 237.449 91.9987C236.711 91.3139 236.25 90.3358 236.25 89.25C236.25 87.1789 237.929 85.5 240 85.5C242.071 85.5 243.75 87.1789 243.75 89.25Z" fill="url(#paint25_linear_246_21551)" fill-opacity="0.25" style="mix-blend-mode:hard-light"/>
<path fill-rule="evenodd" clip-rule="evenodd" d="M37.5 73.875V61.125H42.75L44.25 62.625H51.75V66H41.8124C41.5703 66 41.3554 66.1549 41.2788 66.3846L40.0288 70.1346C39.9306 70.4293 40.0898 70.7479 40.3846 70.8461C40.6793 70.9444 40.9978 70.7851 41.0961 70.4904L42.2179 67.125H51.75H52.4999H54L51.75 73.875H37.5Z" fill="#515E7B"/>
<path fill-rule="evenodd" clip-rule="evenodd" d="M37.5 73.875V61.125H42.75L44.25 62.625H51.75V66H41.8124C41.5703 66 41.3554 66.1549 41.2788 66.3846L40.0288 70.1346C39.9306 70.4293 40.0898 70.7479 40.3846 70.8461C40.6793 70.9444 40.9978 70.7851 41.0961 70.4904L42.2179 67.125H51.75H52.4999H54L51.75 73.875H37.5Z" fill="url(#paint26_linear_246_21551)" fill-opacity="0.25" style="mix-blend-mode:hard-light"/>
<path fill-rule="evenodd" clip-rule="evenodd" d="M17.625 70.875C20.7316 70.875 23.25 68.3566 23.25 65.25C23.25 62.1434 20.7316 59.625 17.625 59.625C14.5184 59.625 12 62.1434 12 65.25C12 65.8183 12.0843 66.3669 12.241 66.884L6.75 72.375V76.125H10.5L11.6023 75.0227L10.6648 74.0852C10.4451 73.8656 10.4451 73.5094 10.6648 73.2898C10.8844 73.0701 11.2406 73.0701 11.4602 73.2898L12.3977 74.2273L13.8523 72.7727L12.9148 71.8352C12.6951 71.6156 12.6951 71.2594 12.9148 71.0398C13.1344 70.8201 13.4906 70.8201 13.7102 71.0398L14.6477 71.9773L15.991 70.634C16.5081 70.7907 17.0567 70.875 17.625 70.875ZM17.625 63.75C18.4534 63.75 19.125 64.4216 19.125 65.25C19.125 66.0784 18.4534 66.75 17.625 66.75C17.3143 66.75 17.0625 67.0018 17.0625 67.3125C17.0625 67.6232 17.3143 67.875 17.625 67.875C19.0747 67.875 20.25 66.6997 20.25 65.25C20.25 63.8003 19.0747 62.625 17.625 62.625C16.1753 62.625 15 63.8003 15 65.25C15 65.5607 15.2518 65.8125 15.5625 65.8125C15.8732 65.8125 16.125 65.5607 16.125 65.25C16.125 64.4216 16.7966 63.75 17.625 63.75Z" fill="#515E7B"/>
<path fill-rule="evenodd" clip-rule="evenodd" d="M17.625 70.875C20.7316 70.875 23.25 68.3566 23.25 65.25C23.25 62.1434 20.7316 59.625 17.625 59.625C14.5184 59.625 12 62.1434 12 65.25C12 65.8183 12.0843 66.3669 12.241 66.884L6.75 72.375V76.125H10.5L11.6023 75.0227L10.6648 74.0852C10.4451 73.8656 10.4451 73.5094 10.6648 73.2898C10.8844 73.0701 11.2406 73.0701 11.4602 73.2898L12.3977 74.2273L13.8523 72.7727L12.9148 71.8352C12.6951 71.6156 12.6951 71.2594 12.9148 71.0398C13.1344 70.8201 13.4906 70.8201 13.7102 71.0398L14.6477 71.9773L15.991 70.634C16.5081 70.7907 17.0567 70.875 17.625 70.875ZM17.625 63.75C18.4534 63.75 19.125 64.4216 19.125 65.25C19.125 66.0784 18.4534 66.75 17.625 66.75C17.3143 66.75 17.0625 67.0018 17.0625 67.3125C17.0625 67.6232 17.3143 67.875 17.625 67.875C19.0747 67.875 20.25 66.6997 20.25 65.25C20.25 63.8003 19.0747 62.625 17.625 62.625C16.1753 62.625 15 63.8003 15 65.25C15 65.5607 15.2518 65.8125 15.5625 65.8125C15.8732 65.8125 16.125 65.5607 16.125 65.25C16.125 64.4216 16.7966 63.75 17.625 63.75Z" fill="url(#paint27_linear_246_21551)" fill-opacity="0.25" style="mix-blend-mode:hard-light"/>
<path fill-rule="evenodd" clip-rule="evenodd" d="M161.25 59.25H168.75V61.875H164.062C163.752 61.875 163.5 62.1268 163.5 62.4375C163.5 62.7482 163.752 63 164.062 63H168.75H169.5H172.5V71.25H168.75V74.25H161.25V72V71.25V69H169.688C169.998 69 170.25 68.7482 170.25 68.4375C170.25 68.1268 169.998 67.875 169.688 67.875H160.688C160.377 67.875 160.125 68.1268 160.125 68.4375V71.25H157.5V63H161.25V59.25Z" fill="#515E7B"/>
<path fill-rule="evenodd" clip-rule="evenodd" d="M161.25 59.25H168.75V61.875H164.062C163.752 61.875 163.5 62.1268 163.5 62.4375C163.5 62.7482 163.752 63 164.062 63H168.75H169.5H172.5V71.25H168.75V74.25H161.25V72V71.25V69H169.688C169.998 69 170.25 68.7482 170.25 68.4375C170.25 68.1268 169.998 67.875 169.688 67.875H160.688C160.377 67.875 160.125 68.1268 160.125 68.4375V71.25H157.5V63H161.25V59.25Z" fill="url(#paint28_linear_246_21551)" fill-opacity="0.25" style="mix-blend-mode:hard-light"/>
<path fill-rule="evenodd" clip-rule="evenodd" d="M202.5 73.5V67.5L200.25 60H189.75L187.612 67.125H191.063C191.24 67.125 191.406 67.2084 191.513 67.35L193.031 69.375H196.969L198.488 67.35C198.674 67.1015 199.026 67.0511 199.275 67.2375C199.524 67.4239 199.574 67.7765 199.388 68.025L197.7 70.275C197.594 70.4166 197.427 70.5 197.25 70.5H192.75C192.573 70.5 192.406 70.4166 192.3 70.275L190.781 68.25H187.5L187.5 73.5L202.5 73.5Z" fill="#515E7B"/>
<path fill-rule="evenodd" clip-rule="evenodd" d="M202.5 73.5V67.5L200.25 60H189.75L187.612 67.125H191.063C191.24 67.125 191.406 67.2084 191.513 67.35L193.031 69.375H196.969L198.488 67.35C198.674 67.1015 199.026 67.0511 199.275 67.2375C199.524 67.4239 199.574 67.7765 199.388 68.025L197.7 70.275C197.594 70.4166 197.427 70.5 197.25 70.5H192.75C192.573 70.5 192.406 70.4166 192.3 70.275L190.781 68.25H187.5L187.5 73.5L202.5 73.5Z" fill="url(#paint29_linear_246_21551)" fill-opacity="0.25" style="mix-blend-mode:hard-light"/>
<path fill-rule="evenodd" clip-rule="evenodd" d="M225 58.5C222.929 58.5 221.25 60.1789 221.25 62.25V66.75V67.5C221.25 68.9218 222.041 70.1596 223.21 70.7959C223.482 70.9445 223.583 71.2861 223.435 71.5589C223.286 71.8318 222.944 71.9325 222.672 71.7839C221.156 70.9585 220.125 69.35 220.125 67.5V66.75H217.5V67.5C217.5 71.6421 220.858 75 225 75C229.142 75 232.5 71.6421 232.5 67.5V66.75H229.875V67.5C229.875 69.35 228.844 70.9585 227.328 71.7839C227.056 71.9325 226.714 71.8318 226.565 71.5589C226.417 71.2861 226.518 70.9445 226.79 70.7959C227.959 70.1596 228.75 68.9218 228.75 67.5H226.312C226.002 67.5 225.75 67.2482 225.75 66.9375C225.75 66.6268 226.002 66.375 226.312 66.375H228.75V64.125H226.312C226.002 64.125 225.75 63.8732 225.75 63.5625C225.75 63.2518 226.002 63 226.312 63H228.75V62.25C228.75 60.1789 227.071 58.5 225 58.5Z" fill="#515E7B"/>
<path fill-rule="evenodd" clip-rule="evenodd" d="M225 58.5C222.929 58.5 221.25 60.1789 221.25 62.25V66.75V67.5C221.25 68.9218 222.041 70.1596 223.21 70.7959C223.482 70.9445 223.583 71.2861 223.435 71.5589C223.286 71.8318 222.944 71.9325 222.672 71.7839C221.156 70.9585 220.125 69.35 220.125 67.5V66.75H217.5V67.5C217.5 71.6421 220.858 75 225 75C229.142 75 232.5 71.6421 232.5 67.5V66.75H229.875V67.5C229.875 69.35 228.844 70.9585 227.328 71.7839C227.056 71.9325 226.714 71.8318 226.565 71.5589C226.417 71.2861 226.518 70.9445 226.79 70.7959C227.959 70.1596 228.75 68.9218 228.75 67.5H226.312C226.002 67.5 225.75 67.2482 225.75 66.9375C225.75 66.6268 226.002 66.375 226.312 66.375H228.75V64.125H226.312C226.002 64.125 225.75 63.8732 225.75 63.5625C225.75 63.2518 226.002 63 226.312 63H228.75V62.25C228.75 60.1789 227.071 58.5 225 58.5Z" fill="url(#paint30_linear_246_21551)" fill-opacity="0.25" style="mix-blend-mode:hard-light"/>
<path d="M149.25 34.5H148.5L144.75 38.25H142.5V45.75H144.75L148.5 49.5H150C154.142 49.5 157.5 46.1421 157.5 42C157.5 37.9836 154.343 34.7046 150.375 34.5092V36.7632C153.099 36.9555 155.25 39.2266 155.25 42C155.25 44.8995 152.899 47.25 150 47.25H149.812C149.502 47.25 149.25 46.9982 149.25 46.6875V41.0625C149.25 40.7518 149.502 40.5 149.812 40.5C150.123 40.5 150.375 40.7518 150.375 41.0625V46.1082C152.477 45.9187 154.125 44.1518 154.125 42C154.125 39.7218 152.278 37.875 150 37.875H149.812C149.502 37.875 149.25 37.6232 149.25 37.3125V34.5Z" fill="#515E7B"/>
<path d="M149.25 34.5H148.5L144.75 38.25H142.5V45.75H144.75L148.5 49.5H150C154.142 49.5 157.5 46.1421 157.5 42C157.5 37.9836 154.343 34.7046 150.375 34.5092V36.7632C153.099 36.9555 155.25 39.2266 155.25 42C155.25 44.8995 152.899 47.25 150 47.25H149.812C149.502 47.25 149.25 46.9982 149.25 46.6875V41.0625C149.25 40.7518 149.502 40.5 149.812 40.5C150.123 40.5 150.375 40.7518 150.375 41.0625V46.1082C152.477 45.9187 154.125 44.1518 154.125 42C154.125 39.7218 152.278 37.875 150 37.875H149.812C149.502 37.875 149.25 37.6232 149.25 37.3125V34.5Z" fill="url(#paint31_linear_246_21551)" fill-opacity="0.25" style="mix-blend-mode:hard-light"/>
<path fill-rule="evenodd" clip-rule="evenodd" d="M157.5 24V19.5L164.602 12.3977L167.04 14.8352C167.259 15.0549 167.616 15.0549 167.835 14.8352C168.055 14.6156 168.055 14.2594 167.835 14.0398L165.398 11.6023L168.75 8.25L173.25 12.75L162 24H157.5Z" fill="#515E7B"/>
<path fill-rule="evenodd" clip-rule="evenodd" d="M157.5 24V19.5L164.602 12.3977L167.04 14.8352C167.259 15.0549 167.616 15.0549 167.835 14.8352C168.055 14.6156 168.055 14.2594 167.835 14.0398L165.398 11.6023L168.75 8.25L173.25 12.75L162 24H157.5Z" fill="url(#paint32_linear_246_21551)" fill-opacity="0.25" style="mix-blend-mode:hard-light"/>
<path fill-rule="evenodd" clip-rule="evenodd" d="M185.25 36H171.75V48H185.25V46.5V45.75V42.5625C185.25 42.2518 185.502 42 185.812 42C186.123 42 186.375 42.2518 186.375 42.5625V45.75H189V38.25H185.25V36ZM179.062 39.5625C179.062 39.3551 178.948 39.1644 178.765 39.0666C178.583 38.9687 178.361 38.9794 178.188 39.0945L174.25 41.7195C173.992 41.8918 173.922 42.241 174.094 42.4995C174.267 42.758 174.616 42.8279 174.875 42.6555L177.938 40.6135V44.4375C177.938 44.6449 178.052 44.8356 178.235 44.9334C178.417 45.0313 178.639 45.0206 178.812 44.9055L182.75 42.2805C183.008 42.1082 183.078 41.759 182.906 41.5005C182.733 41.242 182.384 41.1721 182.125 41.3445L179.062 43.3865V39.5625Z" fill="#515E7B"/>
<path fill-rule="evenodd" clip-rule="evenodd" d="M185.25 36H171.75V48H185.25V46.5V45.75V42.5625C185.25 42.2518 185.502 42 185.812 42C186.123 42 186.375 42.2518 186.375 42.5625V45.75H189V38.25H185.25V36ZM179.062 39.5625C179.062 39.3551 178.948 39.1644 178.765 39.0666C178.583 38.9687 178.361 38.9794 178.188 39.0945L174.25 41.7195C173.992 41.8918 173.922 42.241 174.094 42.4995C174.267 42.758 174.616 42.8279 174.875 42.6555L177.938 40.6135V44.4375C177.938 44.6449 178.052 44.8356 178.235 44.9334C178.417 45.0313 178.639 45.0206 178.812 44.9055L182.75 42.2805C183.008 42.1082 183.078 41.759 182.906 41.5005C182.733 41.242 182.384 41.1721 182.125 41.3445L179.062 43.3865V39.5625Z" fill="url(#paint33_linear_246_21551)" fill-opacity="0.25" style="mix-blend-mode:hard-light"/>
<path fill-rule="evenodd" clip-rule="evenodd" d="M189.87 19.3803L194.086 15.1636C194.306 14.9439 194.306 14.5877 194.086 14.3681C193.867 14.1484 193.511 14.1484 193.291 14.3681L191.955 15.7045L189.879 13.6287C189.316 13.0661 189 12.303 189 11.5074V9H201V11.5074C201 12.303 200.684 13.0661 200.121 13.6287L197.25 16.5L195.914 17.8364C195.694 18.0561 195.694 18.4123 195.914 18.6319C196.133 18.8516 196.489 18.8516 196.709 18.6319L198.046 17.2955L200.121 19.3713C200.684 19.9339 201 20.697 201 21.4926V24H189V21.4926C189 20.7012 189.313 19.9421 189.87 19.3803Z" fill="#515E7B"/>
<path fill-rule="evenodd" clip-rule="evenodd" d="M189.87 19.3803L194.086 15.1636C194.306 14.9439 194.306 14.5877 194.086 14.3681C193.867 14.1484 193.511 14.1484 193.291 14.3681L191.955 15.7045L189.879 13.6287C189.316 13.0661 189 12.303 189 11.5074V9H201V11.5074C201 12.303 200.684 13.0661 200.121 13.6287L197.25 16.5L195.914 17.8364C195.694 18.0561 195.694 18.4123 195.914 18.6319C196.133 18.8516 196.489 18.8516 196.709 18.6319L198.046 17.2955L200.121 19.3713C200.684 19.9339 201 20.697 201 21.4926V24H189V21.4926C189 20.7012 189.313 19.9421 189.87 19.3803Z" fill="url(#paint34_linear_246_21551)" fill-opacity="0.25" style="mix-blend-mode:hard-light"/>
<path fill-rule="evenodd" clip-rule="evenodd" d="M209.438 34.5H207C205.343 34.5 204 35.8431 204 37.5V38.25H202.5V43.5H204V46.5V48V49.5H207V48H213V49.5H216V48V46.5V43.5H217.5V38.25H216V37.5C216 35.8431 214.657 34.5 213 34.5H210.562V40.125H213.188C213.498 40.125 213.75 40.3768 213.75 40.6875C213.75 40.9982 213.498 41.25 213.188 41.25H210H206.812C206.502 41.25 206.25 40.9982 206.25 40.6875C206.25 40.3768 206.502 40.125 206.812 40.125H209.438V34.5ZM207.375 45.75C207.996 45.75 208.5 45.2463 208.5 44.625C208.5 44.0037 207.996 43.5 207.375 43.5C206.754 43.5 206.25 44.0037 206.25 44.625C206.25 45.2463 206.754 45.75 207.375 45.75ZM213.75 44.625C213.75 45.2463 213.246 45.75 212.625 45.75C212.004 45.75 211.5 45.2463 211.5 44.625C211.5 44.0037 212.004 43.5 212.625 43.5C213.246 43.5 213.75 44.0037 213.75 44.625Z" fill="#515E7B"/>
<path fill-rule="evenodd" clip-rule="evenodd" d="M209.438 34.5H207C205.343 34.5 204 35.8431 204 37.5V38.25H202.5V43.5H204V46.5V48V49.5H207V48H213V49.5H216V48V46.5V43.5H217.5V38.25H216V37.5C216 35.8431 214.657 34.5 213 34.5H210.562V40.125H213.188C213.498 40.125 213.75 40.3768 213.75 40.6875C213.75 40.9982 213.498 41.25 213.188 41.25H210H206.812C206.502 41.25 206.25 40.9982 206.25 40.6875C206.25 40.3768 206.502 40.125 206.812 40.125H209.438V34.5ZM207.375 45.75C207.996 45.75 208.5 45.2463 208.5 44.625C208.5 44.0037 207.996 43.5 207.375 43.5C206.754 43.5 206.25 44.0037 206.25 44.625C206.25 45.2463 206.754 45.75 207.375 45.75ZM213.75 44.625C213.75 45.2463 213.246 45.75 212.625 45.75C212.004 45.75 211.5 45.2463 211.5 44.625C211.5 44.0037 212.004 43.5 212.625 43.5C213.246 43.5 213.75 44.0037 213.75 44.625Z" fill="url(#paint35_linear_246_21551)" fill-opacity="0.25" style="mix-blend-mode:hard-light"/>
<path fill-rule="evenodd" clip-rule="evenodd" d="M240 49.5C244.142 49.5 247.5 46.1421 247.5 42C247.5 37.8579 244.142 34.5 240 34.5C235.858 34.5 232.5 37.8579 232.5 42C232.5 46.1421 235.858 49.5 240 49.5ZM237.375 41.25C237.996 41.25 238.5 40.7463 238.5 40.125C238.5 39.5037 237.996 39 237.375 39C236.754 39 236.25 39.5037 236.25 40.125C236.25 40.7463 236.754 41.25 237.375 41.25ZM243.75 40.125C243.75 40.7463 243.246 41.25 242.625 41.25C242.004 41.25 241.5 40.7463 241.5 40.125C241.5 39.5037 242.004 39 242.625 39C243.246 39 243.75 39.5037 243.75 40.125ZM236.812 42.75C236.502 42.75 236.25 43.0018 236.25 43.3125V43.5C236.25 45.5711 237.929 47.25 240 47.25C242.071 47.25 243.75 45.5711 243.75 43.5V43.3125C243.75 43.0018 243.498 42.75 243.188 42.75C242.877 42.75 242.625 43.0018 242.625 43.3125V43.5C242.625 44.9497 241.45 46.125 240 46.125C238.678 46.125 237.584 45.1471 237.402 43.875H240.188C240.498 43.875 240.75 43.6232 240.75 43.3125C240.75 43.0018 240.498 42.75 240.188 42.75H236.812Z" fill="#515E7B"/>
<path fill-rule="evenodd" clip-rule="evenodd" d="M240 49.5C244.142 49.5 247.5 46.1421 247.5 42C247.5 37.8579 244.142 34.5 240 34.5C235.858 34.5 232.5 37.8579 232.5 42C232.5 46.1421 235.858 49.5 240 49.5ZM237.375 41.25C237.996 41.25 238.5 40.7463 238.5 40.125C238.5 39.5037 237.996 39 237.375 39C236.754 39 236.25 39.5037 236.25 40.125C236.25 40.7463 236.754 41.25 237.375 41.25ZM243.75 40.125C243.75 40.7463 243.246 41.25 242.625 41.25C242.004 41.25 241.5 40.7463 241.5 40.125C241.5 39.5037 242.004 39 242.625 39C243.246 39 243.75 39.5037 243.75 40.125ZM236.812 42.75C236.502 42.75 236.25 43.0018 236.25 43.3125V43.5C236.25 45.5711 237.929 47.25 240 47.25C242.071 47.25 243.75 45.5711 243.75 43.5V43.3125C243.75 43.0018 243.498 42.75 243.188 42.75C242.877 42.75 242.625 43.0018 242.625 43.3125V43.5C242.625 44.9497 241.45 46.125 240 46.125C238.678 46.125 237.584 45.1471 237.402 43.875H240.188C240.498 43.875 240.75 43.6232 240.75 43.3125C240.75 43.0018 240.498 42.75 240.188 42.75H236.812Z" fill="url(#paint36_linear_246_21551)" fill-opacity="0.25" style="mix-blend-mode:hard-light"/>
<path fill-rule="evenodd" clip-rule="evenodd" d="M222.75 13.5833L231 9V24L223.875 20.0417V17.0625C223.875 16.7518 223.623 16.5 223.312 16.5C223.002 16.5 222.75 16.7518 222.75 17.0625V19.4167V21V24H219V17.3333V15.6667V9H222.75V13.5833Z" fill="#515E7B"/>
<path fill-rule="evenodd" clip-rule="evenodd" d="M222.75 13.5833L231 9V24L223.875 20.0417V17.0625C223.875 16.7518 223.623 16.5 223.312 16.5C223.002 16.5 222.75 16.7518 222.75 17.0625V19.4167V21V24H219V17.3333V15.6667V9H222.75V13.5833Z" fill="url(#paint37_linear_246_21551)" fill-opacity="0.25" style="mix-blend-mode:hard-light"/>
<path fill-rule="evenodd" clip-rule="evenodd" d="M127.5 48L127.5 36H112.5V38.2167L120 42.478L124.408 39.9736C124.678 39.8201 125.021 39.9146 125.175 40.1847C125.328 40.4549 125.234 40.7982 124.964 40.9517L120.278 43.6141C120.106 43.712 119.894 43.712 119.722 43.6141L112.5 39.5106V48L127.5 48Z" fill="#515E7B"/>
<path fill-rule="evenodd" clip-rule="evenodd" d="M127.5 48L127.5 36H112.5V38.2167L120 42.478L124.408 39.9736C124.678 39.8201 125.021 39.9146 125.175 40.1847C125.328 40.4549 125.234 40.7982 124.964 40.9517L120.278 43.6141C120.106 43.712 119.894 43.712 119.722 43.6141L112.5 39.5106V48L127.5 48Z" fill="url(#paint38_linear_246_21551)" fill-opacity="0.25" style="mix-blend-mode:hard-light"/>
<path fill-rule="evenodd" clip-rule="evenodd" d="M139.5 9H130.5V12V12.75V19.6875C130.5 19.9982 130.248 20.25 129.938 20.25C129.627 20.25 129.375 19.9982 129.375 19.6875V12.75H126.75V23.25H143.25V12.75H140.625V19.6875C140.625 19.9982 140.373 20.25 140.062 20.25C139.752 20.25 139.5 19.9982 139.5 19.6875V12.75V12V9ZM133.312 11.625C133.002 11.625 132.75 11.8768 132.75 12.1875C132.75 12.4982 133.002 12.75 133.312 12.75H136.688C136.998 12.75 137.25 12.4982 137.25 12.1875C137.25 11.8768 136.998 11.625 136.688 11.625H133.312Z" fill="#515E7B"/>
<path fill-rule="evenodd" clip-rule="evenodd" d="M139.5 9H130.5V12V12.75V19.6875C130.5 19.9982 130.248 20.25 129.938 20.25C129.627 20.25 129.375 19.9982 129.375 19.6875V12.75H126.75V23.25H143.25V12.75H140.625V19.6875C140.625 19.9982 140.373 20.25 140.062 20.25C139.752 20.25 139.5 19.9982 139.5 19.6875V12.75V12V9ZM133.312 11.625C133.002 11.625 132.75 11.8768 132.75 12.1875C132.75 12.4982 133.002 12.75 133.312 12.75H136.688C136.998 12.75 137.25 12.4982 137.25 12.1875C137.25 11.8768 136.998 11.625 136.688 11.625H133.312Z" fill="url(#paint39_linear_246_21551)" fill-opacity="0.25" style="mix-blend-mode:hard-light"/>
<path d="M106.5 56.75H112.5V59.75H119.438V64.4375H113.25C112.939 64.4375 112.688 64.6893 112.688 65V69.6875C112.688 69.9982 112.939 70.25 113.25 70.25C113.561 70.25 113.812 69.9982 113.812 69.6875V65.5625H120C120.311 65.5625 120.562 65.3107 120.562 65V59.75H139.688V64.4375C139.688 64.7482 139.939 65 140.25 65C140.561 65 140.812 64.7482 140.812 64.4375V59.75H147V73.25H140.812V68.5625C140.812 68.2518 140.561 68 140.25 68C139.939 68 139.688 68.2518 139.688 68.5625V73.25H134.062V66.5C134.062 66.1893 133.811 65.9375 133.5 65.9375H127.312V63.3125C127.312 63.0018 127.061 62.75 126.75 62.75C126.439 62.75 126.188 63.0018 126.188 63.3125V69.6875C126.188 69.9982 126.439 70.25 126.75 70.25C127.061 70.25 127.312 69.9982 127.312 69.6875V67.0625H132.938V73.25H106.5V69.125C106.5 68.8143 106.248 68.5625 105.938 68.5625H99.75C99.4393 68.5625 99.1875 68.8143 99.1875 69.125C99.1875 69.4357 99.4393 69.6875 99.75 69.6875H105.375V73.25H93V59.75H105.375V64.0625H99.75C99.4393 64.0625 99.1875 64.3143 99.1875 64.625C99.1875 64.9357 99.4393 65.1875 99.75 65.1875H105.938C106.248 65.1875 106.5 64.9357 106.5 64.625V56.75Z" fill="#002555"/>
<path d="M106.5 57.75H112.5V60.75H119.438V65.4375H113.25C112.939 65.4375 112.688 65.6893 112.688 66V70.6875C112.688 70.9982 112.939 71.25 113.25 71.25C113.561 71.25 113.812 70.9982 113.812 70.6875V66.5625H120C120.311 66.5625 120.562 66.3107 120.562 66V60.75H139.688V65.4375C139.688 65.7482 139.939 66 140.25 66C140.561 66 140.812 65.7482 140.812 65.4375V60.75H147V74.25H140.812V69.5625C140.812 69.2518 140.561 69 140.25 69C139.939 69 139.688 69.2518 139.688 69.5625V74.25H134.062V67.5C134.062 67.1893 133.811 66.9375 133.5 66.9375H127.312V64.3125C127.312 64.0018 127.061 63.75 126.75 63.75C126.439 63.75 126.188 64.0018 126.188 64.3125V70.6875C126.188 70.9982 126.439 71.25 126.75 71.25C127.061 71.25 127.312 70.9982 127.312 70.6875V68.0625H132.938V74.25H106.5V70.125C106.5 69.8143 106.248 69.5625 105.938 69.5625H99.75C99.4393 69.5625 99.1875 69.8143 99.1875 70.125C99.1875 70.4357 99.4393 70.6875 99.75 70.6875H105.375V74.25H93V60.75H105.375V65.0625H99.75C99.4393 65.0625 99.1875 65.3143 99.1875 65.625C99.1875 65.9357 99.4393 66.1875 99.75 66.1875H105.938C106.248 66.1875 106.5 65.9357 106.5 65.625V57.75Z" fill="white"/>
<path d="M106.5 57.75H112.5V60.75H119.438V65.4375H113.25C112.939 65.4375 112.688 65.6893 112.688 66V70.6875C112.688 70.9982 112.939 71.25 113.25 71.25C113.561 71.25 113.812 70.9982 113.812 70.6875V66.5625H120C120.311 66.5625 120.562 66.3107 120.562 66V60.75H139.688V65.4375C139.688 65.7482 139.939 66 140.25 66C140.561 66 140.812 65.7482 140.812 65.4375V60.75H147V74.25H140.812V69.5625C140.812 69.2518 140.561 69 140.25 69C139.939 69 139.688 69.2518 139.688 69.5625V74.25H134.062V67.5C134.062 67.1893 133.811 66.9375 133.5 66.9375H127.312V64.3125C127.312 64.0018 127.061 63.75 126.75 63.75C126.439 63.75 126.188 64.0018 126.188 64.3125V70.6875C126.188 70.9982 126.439 71.25 126.75 71.25C127.061 71.25 127.312 70.9982 127.312 70.6875V68.0625H132.938V74.25H106.5V70.125C106.5 69.8143 106.248 69.5625 105.938 69.5625H99.75C99.4393 69.5625 99.1875 69.8143 99.1875 70.125C99.1875 70.4357 99.4393 70.6875 99.75 70.6875H105.375V74.25H93V60.75H105.375V65.0625H99.75C99.4393 65.0625 99.1875 65.3143 99.1875 65.625C99.1875 65.9357 99.4393 66.1875 99.75 66.1875H105.938C106.248 66.1875 106.5 65.9357 106.5 65.625V57.75Z" fill="url(#paint40_linear_246_21551)" fill-opacity="0.4"/>
<path d="M106.5 57.75H112.5V60.75H119.438V65.4375H113.25C112.939 65.4375 112.688 65.6893 112.688 66V70.6875C112.688 70.9982 112.939 71.25 113.25 71.25C113.561 71.25 113.812 70.9982 113.812 70.6875V66.5625H120C120.311 66.5625 120.562 66.3107 120.562 66V60.75H139.688V65.4375C139.688 65.7482 139.939 66 140.25 66C140.561 66 140.812 65.7482 140.812 65.4375V60.75H147V74.25H140.812V69.5625C140.812 69.2518 140.561 69 140.25 69C139.939 69 139.688 69.2518 139.688 69.5625V74.25H134.062V67.5C134.062 67.1893 133.811 66.9375 133.5 66.9375H127.312V64.3125C127.312 64.0018 127.061 63.75 126.75 63.75C126.439 63.75 126.188 64.0018 126.188 64.3125V70.6875C126.188 70.9982 126.439 71.25 126.75 71.25C127.061 71.25 127.312 70.9982 127.312 70.6875V68.0625H132.938V74.25H106.5V70.125C106.5 69.8143 106.248 69.5625 105.938 69.5625H99.75C99.4393 69.5625 99.1875 69.8143 99.1875 70.125C99.1875 70.4357 99.4393 70.6875 99.75 70.6875H105.375V74.25H93V60.75H105.375V65.0625H99.75C99.4393 65.0625 99.1875 65.3143 99.1875 65.625C99.1875 65.9357 99.4393 66.1875 99.75 66.1875H105.938C106.248 66.1875 106.5 65.9357 106.5 65.625V57.75Z" fill="url(#paint41_linear_246_21551)" fill-opacity="0.25" style="mix-blend-mode:hard-light"/>
<path d="M112.125 60.75V61.125H112.5H119.062V65.0625H113.25C112.732 65.0625 112.312 65.4822 112.312 66V70.6875C112.312 71.2053 112.732 71.625 113.25 71.625C113.768 71.625 114.188 71.2053 114.188 70.6875V66.9375H120C120.518 66.9375 120.938 66.5178 120.938 66V61.125H139.312V65.4375C139.312 65.9553 139.732 66.375 140.25 66.375C140.768 66.375 141.188 65.9553 141.188 65.4375V61.125H146.625V73.875H141.188V69.5625C141.188 69.0447 140.768 68.625 140.25 68.625C139.732 68.625 139.312 69.0447 139.312 69.5625V73.875H134.438V67.5C134.438 66.9822 134.018 66.5625 133.5 66.5625H127.688V64.3125C127.688 63.7947 127.268 63.375 126.75 63.375C126.232 63.375 125.812 63.7947 125.812 64.3125V70.6875C125.812 71.2053 126.232 71.625 126.75 71.625C127.268 71.625 127.688 71.2053 127.688 70.6875V68.4375H132.562V73.875H106.875V70.125C106.875 69.6072 106.455 69.1875 105.938 69.1875H99.75C99.2322 69.1875 98.8125 69.6072 98.8125 70.125C98.8125 70.6428 99.2322 71.0625 99.75 71.0625H105V73.875H93.375V61.125H105V64.6875H99.75C99.2322 64.6875 98.8125 65.1072 98.8125 65.625C98.8125 66.1428 99.2322 66.5625 99.75 66.5625H105.938C106.455 66.5625 106.875 66.1428 106.875 65.625V58.125H112.125V60.75Z" stroke="#4E4C4C" stroke-width="0.75" style="mix-blend-mode:soft-light"/>
</g>
</g>
<defs>
<linearGradient id="paint0_linear_246_21551" x1="90" y1="35.25" x2="90" y2="48.75" gradientUnits="userSpaceOnUse">
<stop stop-color="#001C40"/>
<stop offset="0.333333" stop-color="#616D8A"/>
<stop offset="0.677083" stop-color="#001C40"/>
<stop offset="1" stop-color="#515E7B"/>
</linearGradient>
<linearGradient id="paint1_linear_246_21551" x1="105" y1="8.12865" x2="105" y2="23.25" gradientUnits="userSpaceOnUse">
<stop stop-color="#001C40"/>
<stop offset="0.333333" stop-color="#616D8A"/>
<stop offset="0.677083" stop-color="#001C40"/>
<stop offset="1" stop-color="#515E7B"/>
</linearGradient>
<linearGradient id="paint2_linear_246_21551" x1="60" y1="35.25" x2="60" y2="48" gradientUnits="userSpaceOnUse">
<stop stop-color="#001C40"/>
<stop offset="0.333333" stop-color="#616D8A"/>
<stop offset="0.677083" stop-color="#001C40"/>
<stop offset="1" stop-color="#515E7B"/>
</linearGradient>
<linearGradient id="paint3_linear_246_21551" x1="75" y1="9.75" x2="75" y2="23.25" gradientUnits="userSpaceOnUse">
<stop stop-color="#001C40"/>
<stop offset="0.333333" stop-color="#616D8A"/>
<stop offset="0.677083" stop-color="#001C40"/>
<stop offset="1" stop-color="#515E7B"/>
</linearGradient>
<linearGradient id="paint4_linear_246_21551" x1="30" y1="34.7049" x2="30" y2="48.75" gradientUnits="userSpaceOnUse">
<stop stop-color="#001C40"/>
<stop offset="0.333333" stop-color="#616D8A"/>
<stop offset="0.677083" stop-color="#001C40"/>
<stop offset="1" stop-color="#515E7B"/>
</linearGradient>
<linearGradient id="paint5_linear_246_21551" x1="0" y1="35.25" x2="0" y2="48.75" gradientUnits="userSpaceOnUse">
<stop stop-color="#001C40"/>
<stop offset="0.333333" stop-color="#616D8A"/>
<stop offset="0.677083" stop-color="#001C40"/>
<stop offset="1" stop-color="#515E7B"/>
</linearGradient>
<linearGradient id="paint6_linear_246_21551" x1="45" y1="9" x2="45" y2="24" gradientUnits="userSpaceOnUse">
<stop stop-color="#001C40"/>
<stop offset="0.333333" stop-color="#616D8A"/>
<stop offset="0.677083" stop-color="#001C40"/>
<stop offset="1" stop-color="#515E7B"/>
</linearGradient>
<linearGradient id="paint7_linear_246_21551" x1="15" y1="8.25" x2="15" y2="24.75" gradientUnits="userSpaceOnUse">
<stop stop-color="#001C40"/>
<stop offset="0.333333" stop-color="#616D8A"/>
<stop offset="0.677083" stop-color="#001C40"/>
<stop offset="1" stop-color="#515E7B"/>
</linearGradient>
<linearGradient id="paint8_linear_246_21551" x1="75" y1="60.75" x2="75" y2="75" gradientUnits="userSpaceOnUse">
<stop stop-color="#001C40"/>
<stop offset="0.333333" stop-color="#616D8A"/>
<stop offset="0.677083" stop-color="#001C40"/>
<stop offset="1" stop-color="#515E7B"/>
</linearGradient>
<linearGradient id="paint9_linear_246_21551" x1="90" y1="86.25" x2="90" y2="101.25" gradientUnits="userSpaceOnUse">
<stop stop-color="#001C40"/>
<stop offset="0.333333" stop-color="#616D8A"/>
<stop offset="0.677083" stop-color="#001C40"/>
<stop offset="1" stop-color="#515E7B"/>
</linearGradient>
<linearGradient id="paint10_linear_246_21551" x1="60" y1="84.75" x2="60" y2="101.25" gradientUnits="userSpaceOnUse">
<stop stop-color="#001C40"/>
<stop offset="0.333333" stop-color="#616D8A"/>
<stop offset="0.677083" stop-color="#001C40"/>
<stop offset="1" stop-color="#515E7B"/>
</linearGradient>
<linearGradient id="paint11_linear_246_21551" x1="44.625" y1="110.25" x2="44.625" y2="126.75" gradientUnits="userSpaceOnUse">
<stop stop-color="#001C40"/>
<stop offset="0.333333" stop-color="#616D8A"/>
<stop offset="0.677083" stop-color="#001C40"/>
<stop offset="1" stop-color="#515E7B"/>
</linearGradient>
<linearGradient id="paint12_linear_246_21551" x1="15" y1="111" x2="15" y2="126" gradientUnits="userSpaceOnUse">
<stop stop-color="#001C40"/>
<stop offset="0.333333" stop-color="#616D8A"/>
<stop offset="0.677083" stop-color="#001C40"/>
<stop offset="1" stop-color="#515E7B"/>
</linearGradient>
<linearGradient id="paint13_linear_246_21551" x1="75" y1="110.25" x2="75" y2="125.25" gradientUnits="userSpaceOnUse">
<stop stop-color="#001C40"/>
<stop offset="0.333333" stop-color="#616D8A"/>
<stop offset="0.677083" stop-color="#001C40"/>
<stop offset="1" stop-color="#515E7B"/>
</linearGradient>
<linearGradient id="paint14_linear_246_21551" x1="135" y1="111" x2="135" y2="126" gradientUnits="userSpaceOnUse">
<stop stop-color="#001C40"/>
<stop offset="0.333333" stop-color="#616D8A"/>
<stop offset="0.677083" stop-color="#001C40"/>
<stop offset="1" stop-color="#515E7B"/>
</linearGradient>
<linearGradient id="paint15_linear_246_21551" x1="105" y1="111.75" x2="105" y2="125.25" gradientUnits="userSpaceOnUse">
<stop stop-color="#001C40"/>
<stop offset="0.333333" stop-color="#616D8A"/>
<stop offset="0.677083" stop-color="#001C40"/>
<stop offset="1" stop-color="#515E7B"/>
</linearGradient>
<linearGradient id="paint16_linear_246_21551" x1="165" y1="112.5" x2="165" y2="124.5" gradientUnits="userSpaceOnUse">
<stop stop-color="#001C40"/>
<stop offset="0.333333" stop-color="#616D8A"/>
<stop offset="0.677083" stop-color="#001C40"/>
<stop offset="1" stop-color="#515E7B"/>
</linearGradient>
<linearGradient id="paint17_linear_246_21551" x1="195" y1="111" x2="195" y2="126" gradientUnits="userSpaceOnUse">
<stop stop-color="#001C40"/>
<stop offset="0.333333" stop-color="#616D8A"/>
<stop offset="0.677083" stop-color="#001C40"/>
<stop offset="1" stop-color="#515E7B"/>
</linearGradient>
<linearGradient id="paint18_linear_246_21551" x1="225" y1="110.25" x2="225" y2="126.75" gradientUnits="userSpaceOnUse">
<stop stop-color="#001C40"/>
<stop offset="0.333333" stop-color="#616D8A"/>
<stop offset="0.677083" stop-color="#001C40"/>
<stop offset="1" stop-color="#515E7B"/>
</linearGradient>
<linearGradient id="paint19_linear_246_21551" x1="30" y1="86.25" x2="30" y2="99.75" gradientUnits="userSpaceOnUse">
<stop stop-color="#001C40"/>
<stop offset="0.333333" stop-color="#616D8A"/>
<stop offset="0.677083" stop-color="#001C40"/>
<stop offset="1" stop-color="#515E7B"/>
</linearGradient>
<linearGradient id="paint20_linear_246_21551" x1="0" y1="84.75" x2="0" y2="101.25" gradientUnits="userSpaceOnUse">
<stop stop-color="#001C40"/>
<stop offset="0.333333" stop-color="#616D8A"/>
<stop offset="0.677083" stop-color="#001C40"/>
<stop offset="1" stop-color="#515E7B"/>
</linearGradient>
<linearGradient id="paint21_linear_246_21551" x1="119.522" y1="84.75" x2="119.522" y2="100.5" gradientUnits="userSpaceOnUse">
<stop stop-color="#001C40"/>
<stop offset="0.333333" stop-color="#616D8A"/>
<stop offset="0.677083" stop-color="#001C40"/>
<stop offset="1" stop-color="#515E7B"/>
</linearGradient>
<linearGradient id="paint22_linear_246_21551" x1="150" y1="85.5" x2="150" y2="100.5" gradientUnits="userSpaceOnUse">
<stop stop-color="#001C40"/>
<stop offset="0.333333" stop-color="#616D8A"/>
<stop offset="0.677083" stop-color="#001C40"/>
<stop offset="1" stop-color="#515E7B"/>
</linearGradient>
<linearGradient id="paint23_linear_246_21551" x1="180" y1="84.75" x2="180" y2="100.5" gradientUnits="userSpaceOnUse">
<stop stop-color="#001C40"/>
<stop offset="0.333333" stop-color="#616D8A"/>
<stop offset="0.677083" stop-color="#001C40"/>
<stop offset="1" stop-color="#515E7B"/>
</linearGradient>
<linearGradient id="paint24_linear_246_21551" x1="210" y1="84.75" x2="210" y2="99.75" gradientUnits="userSpaceOnUse">
<stop stop-color="#001C40"/>
<stop offset="0.333333" stop-color="#616D8A"/>
<stop offset="0.677083" stop-color="#001C40"/>
<stop offset="1" stop-color="#515E7B"/>
</linearGradient>
<linearGradient id="paint25_linear_246_21551" x1="240" y1="85.5" x2="240" y2="99.75" gradientUnits="userSpaceOnUse">
<stop stop-color="#001C40"/>
<stop offset="0.333333" stop-color="#616D8A"/>
<stop offset="0.677083" stop-color="#001C40"/>
<stop offset="1" stop-color="#515E7B"/>
</linearGradient>
<linearGradient id="paint26_linear_246_21551" x1="45.75" y1="61.125" x2="45.75" y2="73.875" gradientUnits="userSpaceOnUse">
<stop stop-color="#001C40"/>
<stop offset="0.333333" stop-color="#616D8A"/>
<stop offset="0.677083" stop-color="#001C40"/>
<stop offset="1" stop-color="#515E7B"/>
</linearGradient>
<linearGradient id="paint27_linear_246_21551" x1="15" y1="59.625" x2="15" y2="76.125" gradientUnits="userSpaceOnUse">
<stop stop-color="#001C40"/>
<stop offset="0.333333" stop-color="#616D8A"/>
<stop offset="0.677083" stop-color="#001C40"/>
<stop offset="1" stop-color="#515E7B"/>
</linearGradient>
<linearGradient id="paint28_linear_246_21551" x1="165" y1="59.25" x2="165" y2="74.25" gradientUnits="userSpaceOnUse">
<stop stop-color="#001C40"/>
<stop offset="0.333333" stop-color="#616D8A"/>
<stop offset="0.677083" stop-color="#001C40"/>
<stop offset="1" stop-color="#515E7B"/>
</linearGradient>
<linearGradient id="paint29_linear_246_21551" x1="195" y1="60" x2="195" y2="73.5" gradientUnits="userSpaceOnUse">
<stop stop-color="#001C40"/>
<stop offset="0.333333" stop-color="#616D8A"/>
<stop offset="0.677083" stop-color="#001C40"/>
<stop offset="1" stop-color="#515E7B"/>
</linearGradient>
<linearGradient id="paint30_linear_246_21551" x1="225" y1="58.5" x2="225" y2="75" gradientUnits="userSpaceOnUse">
<stop stop-color="#001C40"/>
<stop offset="0.333333" stop-color="#616D8A"/>
<stop offset="0.677083" stop-color="#001C40"/>
<stop offset="1" stop-color="#515E7B"/>
</linearGradient>
<linearGradient id="paint31_linear_246_21551" x1="150" y1="34.5" x2="150" y2="49.5" gradientUnits="userSpaceOnUse">
<stop stop-color="#001C40"/>
<stop offset="0.333333" stop-color="#616D8A"/>
<stop offset="0.677083" stop-color="#001C40"/>
<stop offset="1" stop-color="#515E7B"/>
</linearGradient>
<linearGradient id="paint32_linear_246_21551" x1="165.375" y1="8.25" x2="165.375" y2="24" gradientUnits="userSpaceOnUse">
<stop stop-color="#001C40"/>
<stop offset="0.333333" stop-color="#616D8A"/>
<stop offset="0.677083" stop-color="#001C40"/>
<stop offset="1" stop-color="#515E7B"/>
</linearGradient>
<linearGradient id="paint33_linear_246_21551" x1="180.375" y1="36" x2="180.375" y2="48" gradientUnits="userSpaceOnUse">
<stop stop-color="#001C40"/>
<stop offset="0.333333" stop-color="#616D8A"/>
<stop offset="0.677083" stop-color="#001C40"/>
<stop offset="1" stop-color="#515E7B"/>
</linearGradient>
<linearGradient id="paint34_linear_246_21551" x1="195" y1="9" x2="195" y2="24" gradientUnits="userSpaceOnUse">
<stop stop-color="#001C40"/>
<stop offset="0.333333" stop-color="#616D8A"/>
<stop offset="0.677083" stop-color="#001C40"/>
<stop offset="1" stop-color="#515E7B"/>
</linearGradient>
<linearGradient id="paint35_linear_246_21551" x1="210" y1="34.5" x2="210" y2="49.5" gradientUnits="userSpaceOnUse">
<stop stop-color="#001C40"/>
<stop offset="0.333333" stop-color="#616D8A"/>
<stop offset="0.677083" stop-color="#001C40"/>
<stop offset="1" stop-color="#515E7B"/>
</linearGradient>
<linearGradient id="paint36_linear_246_21551" x1="240" y1="34.5" x2="240" y2="49.5" gradientUnits="userSpaceOnUse">
<stop stop-color="#001C40"/>
<stop offset="0.333333" stop-color="#616D8A"/>
<stop offset="0.677083" stop-color="#001C40"/>
<stop offset="1" stop-color="#515E7B"/>
</linearGradient>
<linearGradient id="paint37_linear_246_21551" x1="225" y1="9" x2="225" y2="24" gradientUnits="userSpaceOnUse">
<stop stop-color="#001C40"/>
<stop offset="0.333333" stop-color="#616D8A"/>
<stop offset="0.677083" stop-color="#001C40"/>
<stop offset="1" stop-color="#515E7B"/>
</linearGradient>
<linearGradient id="paint38_linear_246_21551" x1="120" y1="36" x2="120" y2="48" gradientUnits="userSpaceOnUse">
<stop stop-color="#001C40"/>
<stop offset="0.333333" stop-color="#616D8A"/>
<stop offset="0.677083" stop-color="#001C40"/>
<stop offset="1" stop-color="#515E7B"/>
</linearGradient>
<linearGradient id="paint39_linear_246_21551" x1="135" y1="9" x2="135" y2="23.25" gradientUnits="userSpaceOnUse">
<stop stop-color="#001C40"/>
<stop offset="0.333333" stop-color="#616D8A"/>
<stop offset="0.677083" stop-color="#001C40"/>
<stop offset="1" stop-color="#515E7B"/>
</linearGradient>
<linearGradient id="paint40_linear_246_21551" x1="120" y1="74.25" x2="120" y2="57.75" gradientUnits="userSpaceOnUse">
<stop stop-color="#D6D7D8"/>
<stop offset="0.307292" stop-color="#9DA4B5"/>
<stop offset="0.71875" stop-color="#9DA4B5"/>
<stop offset="1" stop-color="white"/>
</linearGradient>
<linearGradient id="paint41_linear_246_21551" x1="120" y1="57.75" x2="120" y2="74.25" gradientUnits="userSpaceOnUse">
<stop stop-color="#303030"/>
<stop offset="0.333333" stop-color="white"/>
<stop offset="0.677083" stop-color="#303030"/>
<stop offset="1" stop-color="#979797"/>
</linearGradient>
<clipPath id="clip0_246_21551">
<rect width="240" height="135" fill="white"/>
</clipPath>
<clipPath id="clip1_246_21551">
<rect width="720" height="135" fill="white" transform="translate(-240)"/>
</clipPath>
</defs>
</svg>
