<svg fill="none" height="135" viewBox="0 0 240 135" width="240" xmlns="http://www.w3.org/2000/svg" xmlns:xlink="http://www.w3.org/1999/xlink"><clipPath id="a"><path d="m0 0h240v135h-240z"/></clipPath><clipPath id="b"><path d="m-240 0h720v135h-720z"/></clipPath><g clip-path="url(#a)"><g clip-path="url(#b)"><path d="m0 0h720v135h-720z" fill="#b197fc" transform="translate(-240)"/><g clip-rule="evenodd" fill-rule="evenodd"><path d="m-3-1.5c.7969 0 1.62046-.19978 2.220564-.85691.581194-.63642.779436-1.51608.779436-2.47642l-.00000095-3.33334c0-.96034-.19824205-1.84003-.77943505-2.47643-.600104-.6571-1.423664-.8569-2.220564-.8569s-1.62046.1998-2.22056.8569c-.5812.6364-.77944 1.51609-.77944 2.47643v.66667h-2c-.55228 0-1 .44772-1 1s.44772 1 1 1h2v.66667c0 .96034.19824 1.84.77944 2.47642.6001.65713 1.42366.85691 2.22056.85691zm10.22056 9.14309c-.6001.65713-1.42366.85691-2.22056.85691s-1.62046-.19978-2.22056-.85691c-.5812-.63642-.77944-1.51608-.77944-2.47642v-3.33334c0-.960337.19824-1.83999523.77944-2.47642.6001-.65713 1.42366-.85691 2.22056-.85691s1.62046.19978 2.22056.856911c.5812.63642377.77944 1.516082.77944 2.476419v.66667h2c.5523 0 1 .44771 1 1s-.4477 1-1 1h-2v.66667c0 .96034-.19824 1.84-.77944 2.47642zm-16.22056-4.14309c0-.55229.44772-1 1-1h7c.552284 0 1 .44771 1 1s-.447716 1-1 1h-7c-.55228 0-1-.44771-1-1zm12-11c-.55229 0-1 .44772-1 1s.44771 1 1 1h7c.5523 0 1-.44772 1-1s-.4477-1-1-1z" fill="#fff"/><path d="m28.9991-8.5c-.1723 0-.2931.10456-.3293.23041-.5038 1.7499-1.504 5.68898-1.6522 9.7696 2.8071.00172 4.9919.39532 6.5116 1.19942.5906.31245 1.0836.69025 1.4699 1.12646.3863-.43621.8793-.81401 1.4698-1.12646 1.5197-.8041 3.7045-1.1977 6.5117-1.19942-.1483-4.08062-1.1485-8.0197-1.6522-9.7696-.0363-.12585-.157-.23041-.3293-.23041-2.7341 0-3.8988.40416-4.4128.84351-.438.37434-.5869.93728-.5872 2.15236v.00413 6c0 .55228-.4477 1-1 1s-1-.44772-1-1v-6c0-1.21794-.1488-1.78173-.5872-2.15649-.5141-.43935-1.6787-.84351-4.4128-.84351z" fill="#6741d9" opacity=".3"/><path d="m28.671-8.26959c.0363-.12585.1571-.23041.3293-.23041 2.7342 0 3.8988.40416 4.4128.84351.4385.37476.5872.93855.5872 2.15649v6c0 .55228.4478 1 1 1 .5523 0 1-.44772 1-1v-6-.00413c.0004-1.21508.1493-1.77802.5873-2.15236.514-.43935 1.6786-.84351 4.4127-.84351.1723 0 .2931.10456.3294.23041.5037 1.7499 1.5039 5.68898 1.6521 9.7696-2.8071.00172-4.9919.39532-6.5116 1.19942-.5905.31245-1.0835.69025-1.4699 1.12646-.3863-.43621-.8793-.81401-1.4698-1.12646-1.5197-.8041-3.7045-1.1977-6.5116-1.19942.1482-4.08062 1.1484-8.0197 1.6521-9.7696zm6.0416-.90725c.104.08893.1997.18111.2877.27611.0881-.095.1838-.18718.2878-.27611 1.111-.94956 2.9464-1.32316 5.7122-1.32316 1.0221 0 1.9571.6552 2.2513 1.67711.5226 1.8154 1.5781 5.9543 1.7303 10.28787.04 1.14016-.886 2.03502-1.9816 2.03502-2.6839 0-4.4929.38421-5.5948.96723-.5737.30357-.9425.64961-1.1577 1.03277h6.7525c.5523 0 1 .44772 1 1s-.4477 1-1 1h-8-8c-.5522 0-1-.44772-1-1s.4478-1 1-1h6.7526c-.2152-.38316-.584-.7292-1.1577-1.03277-1.1019-.58302-2.9109-.96723-5.5949-.96723-1.0955 0-2.0215-.89486-1.9815-2.03502.1522-4.33357 1.2077-8.47247 1.7303-10.28787.2942-1.02191 1.2292-1.67711 2.2512-1.67711 2.7659 0 4.6013.3736 5.7123 1.32316z" fill="#6741d9"/><path d="m61-1.5c0-2.53453.8021-4.5129 2.1446-5.85539 1.3425-1.3425 3.3209-2.14461 5.8554-2.14461s4.5129.80211 5.8554 2.14461c1.3425 1.34249 2.1446 3.32086 2.1446 5.85539 0 1.343455-.2262 2.52996-.635 3.54469-.2065.51226.0415 1.09486.5537 1.30128.5123.20641 1.0949-.04152 1.3013-.55378.516-1.28039.78-2.7247032.78-4.29219 0-2.96547-.9479-5.4871-2.7304-7.26961-1.7825-1.78249-4.3041-2.73039-7.2696-2.73039s-5.4871.9479-7.2696 2.73039c-1.7825 1.78251-2.7304 4.30414-2.7304 7.26961 0 1.5674868.264 3.0118.78 4.29219.2064.51226.789.76019 1.3013.55378.5122-.20642.7602-.78902.5537-1.30128-.4088-1.01473-.635-2.201235-.635-3.54469zm6.5196-3.48039c-.3008.30082-.5196.77919-.5196 1.48039s.2188 1.17957.5196 1.48039c.3008.30083.7792.51961 1.4804.51961s1.1796-.21878 1.4804-.51961c.3008-.30082.5196-.77919.5196-1.48039s-.2188-1.17957-.5196-1.48039c-.3008-.30083-.7792-.51961-1.4804-.51961s-1.1796.21878-1.4804.51961zm-1.4142-1.41422c.7408-.74084 1.7625-1.10539 2.8946-1.10539s2.1538.36455 2.8946 1.10539 1.1054 1.76248 1.1054 2.89461-.3646 2.15377-1.1054 2.894608c-.7408.74084-1.7625 1.105392-2.8946 1.105392s-2.1538-.364552-2.8946-1.105392c-.7408-.740838-1.1054-1.762478-1.1054-2.894608s.3646-2.15377 1.1054-2.89461zm-2.0823 9.09749c1.0164-.5433 2.3974-.70288 4.1198-.70288h1.7142c1.7225 0 3.1034.15958 4.1198.70288 1.1246.60118 1.6575 1.58268 1.8774 2.79305.0987.54339-.2618 1.06391-.8052 1.16262s-1.0639-.26178-1.1626-.80517c-.1447-.79642-.4139-1.15224-.8525-1.38669-.5469-.29234-1.4903-.46669-3.1769-.46669h-1.7142c-1.6866 0-2.63.17435-3.1769.46669-.4386.23445-.7078.59027-.8525 1.38669-.0987.54339-.6192.90388-1.1626.80517s-.9039-.61923-.8052-1.16262c.2199-1.21037.7528-2.19187 1.8774-2.79305z" fill="#183153"/><path d="m97.1326-10.0171c1.4178-.2477 3.4104-.4829 5.8674-.4829s4.45.2352 5.867.4829c1.913.33417 3.216 1.88376 3.541 3.66844l1.512 8.318c.053.29306.08.59033.08.8882v.22825c0 1.17072-.465 2.29349-1.293 3.12132l-.359.35924c-.598.59781-1.409.93365-2.254.93365-1.004 0-1.948-.47239-2.55-1.27507l-1.843-2.45727c-.001-.00073-.004-.00455-.013-.01048-.009-.00632-.026-.01514-.051-.02265-.054-.01607-.124-.01913-.192-.00276-.574.13982-1.39.26823-2.445.26823s-1.871-.12841-2.445-.26823c-.068-.01637-.138-.01331-.192.00276-.025.00751-.042.01633-.051.02265-.009.00593-.012.00975-.013.01048l-1.8427 2.45727c-.602.80268-1.5468 1.27507-2.5501 1.27507-.8455 0-1.6563-.33584-2.2541-.93365l-.3592-.35924c-.8278-.82783-1.2929-1.9506-1.2929-3.12132v-.22825c0-.29787.0268-.59514.0801-.8882l1.5124-8.31799c.3244-1.78469 1.6275-3.33428 3.5401-3.66845zm9.8674 9.5171c.611 0 1-.388889 1-1 0-.61111-.389-1-1-1s-1 .38889-1 1c0 .611111.389 1 1 1zm1-5c0 .61111-.389 1-1 1s-1-.38889-1-1 .389-1 1-1 1 .38889 1 1zm-3 3c.611 0 1-.38889 1-1s-.389-1-1-1-1 .38889-1 1 .389 1 1 1zm5-1c0 .61111-.389 1-1 1s-1-.38889-1-1 .389-1 1-1 1 .38889 1 1zm-10.5-2c0-.55228-.4477-1-1-1s-1 .44772-1 1v.5h-.5c-.5523 0-1 .44772-1 1s.4477 1 1 1h.5v.5c0 .55228.4477 1 1 1s1-.44772 1-1v-.5h.5c.552 0 1-.44772 1-1s-.448-1-1-1h-.5z" fill="#fff"/><path d="m136.332-8.16789c-.822.82166-1.332 2.05002-1.332 3.66789 0 .28822.016.5641.048.82732.036.30434-.07.60847-.286.82519l-5.469 5.46881c-.188.18754-.293.44189-.293.70711v2.17157c0 .55228.448 1 1 1h2.172c.265 0 .519-.10536.707-.29289l.121.12132-.121-.12132.121-.12133v-1.58578c0-.55229.448-1 1-1h1.586l.414-.41421v-1.58579c0-.552285.448-1 1-1h3c1.618 0 2.846-.5104475 3.668-1.332107.822-.821663 1.332-2.050023 1.332-3.667893s-.51-2.84623-1.332-3.66789-2.05-1.33211-3.668-1.33211-2.846.51045-3.668 1.33211zm6.668 2.16789c0 .91667-.583 1.5-1.5 1.5s-1.5-.58333-1.5-1.5.583-1.5 1.5-1.5 1.5.58333 1.5 1.5z" fill="#6741d9" opacity=".3"/><path d="m135-4.5c0-1.61787.51-2.84623 1.332-3.66789s2.05-1.33211 3.668-1.33211 2.846.51045 3.668 1.33211 1.332 2.05002 1.332 3.66789-.51 2.84623-1.332 3.667893c-.822.8216595-2.05 1.332107-3.668 1.332107h-3c-.552 0-1 .447715-1 1v1.58579l-.414.41421h-1.586c-.552 0-1 .44771-1 1v1.58578l-.121.12133.121.12132-.121-.12132c-.188.18753-.442.29289-.707.29289h-2.172c-.552 0-1-.44772-1-1v-2.17157c0-.26522.105-.51957.293-.70711l5.469-5.46881c.216-.21672.322-.52085.286-.82519-.032-.26322-.048-.5391-.048-.82732zm5-7c-2.049 0-3.82.6562-5.082 1.91789-1.262 1.26168-1.918 3.03331-1.918 5.08211 0 .19202.006.3816.017.56859l-5.138 5.13852c-.563.56261-.879 1.32567-.879 2.12132v2.17157c0 1.65685 1.343 3 3 3h2.172c.795 0 1.558-.31607 2.121-.87868l.414-.41421c.188-.18754.293-.44189.293-.70711v-1h1c.265 0 .52-.10536.707-.29289l1-1c.188-.18754.293-.44189.293-.70711v-1h2c2.049 0 3.82-.65622 5.082-1.917893 1.262-1.261674 1.918-3.033307 1.918-5.082107s-.656-3.82043-1.918-5.08211c-1.262-1.26169-3.033-1.91789-5.082-1.91789zm1.5 7c.917 0 1.5-.58333 1.5-1.5s-.583-1.5-1.5-1.5-1.5.58333-1.5 1.5.583 1.5 1.5 1.5z" fill="#6741d9"/><path d="m167.263-10.5c-1.782 0-3.369 1.18326-3.817 2.93777-.246.96578-.535 2.1541-.788 3.35593-.114.5404.232 1.07085.772 1.18479.541.11394 1.071-.23178 1.185-.77219.246-1.1656.527-2.325.769-3.27392.215-.84116.982-1.43238 1.879-1.43238h7.474c.897 0 1.664.59122 1.879 1.43238.242.94892.523 2.10832.769 3.27392.114.54041.644.88613 1.185.77219.54-.11394.886-.64439.772-1.18479-.253-1.20183-.542-2.39015-.788-3.35593-.448-1.75451-2.035-2.93777-3.817-2.93777zm-2.644 8.78474c-1.305-.19054-2.619.791201-2.619 2.21526 0 1.26981.062 2.35501.257 3.25771.197.91395.544 1.70739 1.161 2.3244.617.617 1.41.96391 2.324 1.16103.903.19471 1.988.25686 3.258.25686h4c1.27 0 2.355-.06215 3.258-.25686.914-.19712 1.707-.54403 2.324-1.16103.617-.61701.964-1.41045 1.161-2.3244.195-.9027.257-1.9879.257-3.25771 0-1.42406-1.314-2.4058-2.619-2.21526-.551.0806-1.235.15753-1.992.19371-.861.04112-1.703.44087-2.251 1.171069l-.338.450481c-.189.251806-.485.4-.8.4h-2c-.315 0-.611-.148194-.8-.4l-.338-.450481c-.548-.730199-1.39-1.129949-2.251-1.171069-.757-.03618-1.441-.11311-1.992-.19371zm-.619 2.21526c0-.052414.022-.112463.089-.166698.069-.05662.157-.081712.241-.069567.603.088193 1.352.172619 2.186.212435.317.015155.586.159877.746.373349l.338.450481c.567.75542 1.456 1.2 2.4 1.2h2c.944 0 1.833-.44458 2.4-1.2l.338-.450481c.16-.213472.429-.358194.746-.373349.834-.039816 1.583-.124242 2.186-.212435.084-.012145.172.012947.241.069567.067.054235.089.114283.089.166698 0 1.23019-.063 2.14499-.212 2.83604-.147.6798-.362 1.07386-.62 1.33185-.258.258-.652.47359-1.332.62021-.691.14905-1.606.2119-2.836.2119h-4c-1.23 0-2.145-.06285-2.836-.2119-.68-.14662-1.074-.36221-1.332-.62021-.258-.25799-.473-.65205-.62-1.33185-.149-.69105-.212-1.60585-.212-2.83604z" fill="#183153"/><path d="m201-1.5c.797 0 1.62-.19978 2.221-.85691.581-.63642.779-1.51608.779-2.47642v-3.33334c0-.96034-.198-1.84003-.779-2.47643-.601-.6571-1.424-.8569-2.221-.8569s-1.62.1998-2.221.8569c-.581.6364-.779 1.51609-.779 2.47643v.66667h-2c-.552 0-1 .44772-1 1s.448 1 1 1h2v.66667c0 .96034.198 1.84.779 2.47642.601.65713 1.424.85691 2.221.85691zm10.221 9.14309c-.601.65713-1.424.85691-2.221.85691s-1.62-.19978-2.221-.85691c-.581-.63642-.779-1.51608-.779-2.47642v-3.33334c0-.960337.198-1.83999523.779-2.47642.601-.65713 1.424-.85691 2.221-.85691s1.62.19978 2.221.856911c.581.63642377.779 1.516082.779 2.476419v.66667h2c.552 0 1 .44771 1 1s-.448 1-1 1h-2v.66667c0 .96034-.198 1.84-.779 2.47642zm-16.221-4.14309c0-.55229.448-1 1-1h7c.552 0 1 .44771 1 1s-.448 1-1 1h-7c-.552 0-1-.44771-1-1zm12-11c-.552 0-1 .44772-1 1s.448 1 1 1h7c.552 0 1-.44772 1-1s-.448-1-1-1z" fill="#fff"/><path d="m236.393-4.40744c-.463-.38677-.88-.80474-1.231-1.27811 1.162.10977 2.462.1855 3.838.1855s2.676-.07571 3.838-.18545c-.14.18826-.29.36717-.448.53844-1.005 1.08906-2.367 1.8923-3.894 2.78325l-.062.03649-.001.00018c-.138.08094-.279.16269-.42.24551-.504-.30317-.998-.6151-1.468-.94928.325-.42312.261-1.03135-.152-1.37653zm5.465 6.03134c-.933-.07553-1.903-.12395-2.858-.12395s-1.925.04843-2.858.12398c-.187.16756-.364.34133-.532.52307-.827.89521-1.423 1.99912-1.573 3.5571 1.427-.10806 3.192-.20413 4.963-.20413s3.536.09607 4.963.20412c-.178-1.84388-.983-3.07509-2.105-4.08019z" fill="#6741d9" opacity=".3"/><path d="m230.876-9.00762.124-.99227c-.124.99227-.124.99228-.124.99229v.00004l.001.00009.003.00034.01.00119.036.00442c.032.00383.078.00937.138.01637.12.01401.295.0339.517.05769.13.01392.276.02919.437.04541.163 2.79223 1.434 4.62467 3.093 6.00991.424.35398 1.055.29729 1.409-.12664.354-.42392.297-1.05454-.127-1.40853-1.252-1.04523-2.165-2.31831-2.356-4.29671 1.427.10806 3.192.20413 4.963.20413s3.536-.09608 4.963-.20413c-.15 1.55798-.746 2.66189-1.573 3.5571-1.005 1.08906-2.366 1.8923-3.894 2.78325l-.062.03648c-1.457.84941-3.067 1.788389-4.294 3.117765-1.181 1.279585-1.994 2.899395-2.122 5.091685-.161.01622-.307.03149-.437.04541-.222.0238-.397.04368-.517.05769-.06.007-.106.01254-.138.01637l-.036.00442-.01.0012-.003.00033-.001.00009v.00004c0 .00001 0 .00002.124.99229l-.124-.99227c-.548.0685-.937.56829-.868 1.11631.068.54799.568.93671 1.116.86825v-.00001-.00003l.002-.00021.008-.00095.032-.00394c.029-.00349.073-.0087.13-.01537.114-.01333.283-.03251.498-.05559.431-.04617 1.048-.10789 1.789-.16964 1.485-.12372 3.455-.24653 5.417-.24655 1.962 0 3.932.12283 5.417.24655.741.06175 1.358.12347 1.789.16964.215.02308.384.04226.499.05559.057.00667.1.01188.129.01537l.032.00394.008.00095.002.00021v.00003.00001c.548.06846 1.048-.32026 1.116-.86825.069-.54802-.32-1.04781-.868-1.11631l-.123.9838c.123-.9838.123-.98381.123-.98382v-.00004l-.001-.00009-.003-.00033-.009-.0012-.037-.00442c-.031-.00383-.078-.00937-.138-.01637-.12-.01401-.295-.03389-.517-.05769-.13-.01392-.276-.02919-.437-.04541-.163-2.79223-1.434-4.62467-3.093-6.009907-.424-.353987-1.054-.297293-1.408.1266322-.354.4239238-.298 1.0545448.126 1.4085348 1.252 1.04523 2.165 2.31831 2.356 4.29671-1.427-.10805-3.192-.20413-4.963-.20413s-3.536.09608-4.963.20413c.151-1.55798.747-2.66189 1.573-3.5571 1.005-1.08906 2.367-1.892295 3.894-2.783246l.063-.036486c1.456-.849408 3.066-1.788388 4.293-3.117758 1.181-1.27958 1.994-2.8994 2.122-5.09169.161-.01622.307-.03149.437-.04541.222-.02379.397-.04368.517-.05769.06-.007.107-.01254.138-.01637l.037-.00442.009-.00119.003-.00034.001-.00009v-.00004c0-.00001 0-.00002-.123-.98382l.123.9838c.548-.0685.937-.56829.868-1.11628-.068-.548-.568-.9367-1.116-.8683v.0001l-.002.0002-.008.0009-.032.004c-.029.0035-.072.0087-.129.0153-.115.0134-.284.0325-.499.0556-.431.0462-1.048.1079-1.789.1697-1.485.1237-3.455.2465-5.417.2465s-3.932-.1228-5.417-.2465c-.741-.0618-1.358-.1235-1.789-.1697-.215-.0231-.384-.0422-.498-.0556-.057-.0066-.101-.0118-.13-.0153l-.032-.004-.008-.0009-.002-.0002v-.0001c-.548-.0684-1.048.3203-1.116.8683-.069.54799.32 1.04778.868 1.11628z" fill="#6741d9"/><path d="m-1 39.5v-13.5c0-.8821.159918-1.152.253982-1.246.094062-.0941.363915-.254 1.246017-.254h1.000001c.8821 0 1.15195.1599 1.24602.254.09406.094.25398.3639.25398 1.246v5 8.5zm-2 0v-4.5c0-.8821-.15992-1.152-.25398-1.246-.09407-.0941-.36392-.254-1.24602-.254h-1c-.8821 0-1.15195.1599-1.24602.254-.09406.094-.25398.3639-.25398 1.246v3c0 .8821.15992 1.152.25398 1.246.09407.0941.36392.254 1.24602.254h1zm8 0h1.5 1c.8821 0 1.15195-.1599 1.24602-.254.09406-.094.25398-.3639.25398-1.246v-7c0-.8821-.15992-1.152-.25398-1.246-.09407-.0941-.36392-.254-1.24602-.254h-1c-.8821 0-1.15195.1599-1.24602.254-.09406.094-.25398.3639-.25398 1.246zm0-11.8223c.47023-.1364.98339-.1777 1.5-.1777h1c.9929 0 1.97305.1526 2.6602.8398.6872.6872.8398 1.6673.8398 2.6602v7c0 .9929-.1526 1.973-.8398 2.6602-.68715.6872-1.6673.8398-2.6602.8398h-1-11-1c-.9929 0-1.97305-.1526-2.66023-.8398-.68719-.6872-.83977-1.6673-.83977-2.6602v-3c0-.9929.15258-1.973.83977-2.6602.68718-.6872 1.66733-.8398 2.66023-.8398h1c.51661 0 1.02976.0413 1.5.1777v-5.6777c0-.9929.15258-1.973.83977-2.6602.68718-.6872 1.66733-.8398 2.660228-.8398h1.000002c.9929 0 1.97304.1526 2.66023.8398s.83977 1.6673.83977 2.6602z" fill="#183153"/><path d="m35 22.5c-1.5246 0-2.7173.0863-3.5781.1838-1.4723.1667-2.4219 1.4313-2.4219 2.795v1.0212h-2.3355c-1.4716 0-2.6645 1.1929-2.6645 2.6645 0 1.7389.5918 3.4261 1.6781 4.7839l.541.6763c.345.4313.9743.5012 1.4056.1562s.5012-.9743.1562-1.4056l-.5411-.6763c-.8025-1.0032-1.2398-2.2497-1.2398-3.5345 0-.367.2975-.6645.6645-.6645h2.3355v2.9231c0 1.7623.5561 3.3013 1.6417 4.4036.8741.8875 2.0303 1.4296 3.3583 1.608v2.5924c-.8809.045-1.7585.1391-2.4717.2311-.4963.0641-.9205.1281-1.2214.1762-.1506.0241-.2706.0443-.3536.0586l-.0961.0167-.0259.0046-.0071.0013-.002.0003-.0007.0002h-.0002c-.0001 0-.0002 0 .1787.9839l-.1789-.9839c-.5434.0988-.9038.6194-.805 1.1628.0988.5433.6193.9037 1.1627.805h.0001l.0009-.0002.0048-.0009.0211-.0037.0862-.015c.0761-.0131.1885-.032.3309-.0548.2851-.0456.6889-.1066 1.1614-.1675.9523-.1229 2.1536-.2418 3.2158-.2418 1.4452 0 2.6474.1205 3.4836.24.4178.0596.7432.1189.9609.1625.1088.0217.1906.0395.2434.0515.0265.0059.0456.0104.0573.0132l.0118.0028.0005.0001.0003.0001.0002.0001.0004.0001h.0001.0001c.5354.1332 1.0777-.1924 1.2115-.7279.134-.5358-.1918-1.0787-.7276-1.2126l-.2425.9701c.2425-.9701.2424-.9702.2422-.9702l-.0004-.0001-.001-.0003-.0024-.0006-.0071-.0017-.0229-.0055c-.0191-.0046-.0458-.0108-.0799-.0185-.0683-.0154-.1662-.0367-.2918-.0618-.251-.0502-.6131-.1159-1.0703-.1813-.7101-.1014-1.6521-.2022-2.7664-.2421v-2.5832c1.328-.1784 2.4842-.7205 3.3583-1.608 1.0856-1.1023 1.6417-2.6413 1.6417-4.4036v-2.9231h2.3355c.367 0 .6645.2975.6645.6645 0 1.2848-.4373 2.5313-1.2398 3.5345l-.5411.6763c-.345.4313-.2751 1.0606.1562 1.4056s1.0606.2751 1.4056-.1562l.541-.6763c1.0863-1.3578 1.6781-3.045 1.6781-4.7839 0-1.4716-1.1929-2.6645-2.6645-2.6645h-2.3355v-1.0212c0-1.3637-.9496-2.6283-2.4219-2.795-.8608-.0975-2.0535-.1838-3.5781-.1838z" fill="#fff"/><path d="m69 41.5c4.8889 0 8-3.1111 8-8 0-3.9712-2.2079-6.0499-3.1164-6.7373-.2442-.1847-.5447-.2627-.8509-.2627-.3473 0-.6872.1012-.943.3362-.4722.4338-1.2575 1.3026-1.8397 2.6923-.5416-2.0147-1.2588-3.8129-1.7363-4.9102-.3018-.6933-.9914-1.1183-1.7476-1.1183-.4932 0-.9672.1798-1.3088.5356-1.2947 1.3485-4.4573 5.0902-4.4573 9.4644 0 4.8889 3.1111 8 8 8zm3-4c0 1.8333-1.1667 3-3 3s-3-1.1667-3-3c0-.0028 0-.0057 0-.0085-.047-.0063-.094-.016-.141-.0293-.5314-.1504-.8402-.7032-.6898-1.2346.49-1.731 1.9687-2.7276 3.8308-2.7276 1.862 0 3.3407.9966 3.8308 2.7276.1504.5314-.1585 1.0842-.6899 1.2346-.0469.0133-.094.023-.1409.0293z" fill="#6741d9" opacity=".3"/><path d="m66.1786 24.7282c.1322-.1377.335-.2282.5875-.2282.3834 0 .6975.2115.8306.5174.4662 1.0709 1.1632 2.8201 1.6876 4.7707.111.4129.4721.7095.8987.7382.4265.0286.8241-.2171.9893-.6114.5151-1.2292 1.2036-1.9837 1.594-2.3423.0284-.0262.1047-.0726.2664-.0726.1419 0 .2153.0359.2476.0602.7636.5777 2.7197 2.3935 2.7197 5.9398 0 2.229-.7049 3.9573-1.8738 5.1262s-2.8972 1.8738-5.1262 1.8738-3.9573-.7049-5.1262-1.8738-1.8738-2.8972-1.8738-5.1262c0-1.9504.7077-3.8045 1.6093-5.367.8987-1.5576 1.9555-2.7655 2.5693-3.4048zm.5875-2.2282c-.7339 0-1.4792.2692-2.0302.8431-.6809.7091-1.8527 2.0464-2.8589 3.7903-1.0034 1.739-1.877 3.9428-1.877 6.3666 0 2.6599.8507 4.9315 2.4596 6.5404s3.8805 2.4596 6.5404 2.4596 4.9315-.8507 6.5404-2.4596 2.4596-3.8805 2.4596-6.5404c0-4.3961-2.4596-6.7378-3.5131-7.5348-.4562-.345-.9836-.4652-1.4542-.4652-.533 0-1.1364.1559-1.6196.5998-.2445.2247-.553.5418-.8771.9591-.396-1.1496-.7993-2.1364-1.1054-2.8396-.4705-1.0809-1.5355-1.7193-2.6645-1.7193zm.3275 14.2724c.2159-.7628.8225-1.2724 1.9064-1.2724s1.6904.5096 1.9064 1.2724c.1504.5314.7031.8402 1.2345.6898s.8403-.7032.6899-1.2346c-.4901-1.731-1.9688-2.7276-3.8308-2.7276-1.8621 0-3.3408.9966-3.8308 2.7276-.1504.5314.1584 1.0842.6898 1.2346s1.0842-.1584 1.2346-.6898z" fill="#6741d9"/><path d="m105.235 25.3221c.128-.5226.547-.8221.87-.8221.374 0 .659.3358.597.7047l-.688 4.1309c-.049.29.033.5865.223.8108s.469.3536.763.3536h2.757c.261 0 .472.0579.612.1374.128.0722.2.1605.238.277.191.5801.393 1.5556.393 3.0856 0 1.9315-.685 3.3402-1.195 4.122-.168.2564-.488.4445-.919.4725-1.87.1215-3.408-.0205-4.469-.1904-.531-.0849-.942-.1767-1.215-.2455-.136-.0344-.238-.063-.303-.0822-.033-.0095-.056-.0167-.07-.0211l-.013-.004-.304.9121c.304-.9121.304-.9122.304-.9122l-.002-.0005c-.523-.1733-1.088.1098-1.263.6331-.174.5239.109 1.0902.633 1.2649l.316-.9487c-.316.9487-.316.9488-.316.9489l.001.0002.001.0004.004.0012.009.0031.031.0097c.025.008.06.0187.105.0318.089.0262.216.0617.379.1027.325.082.793.186 1.387.2809 1.186.1899 2.874.344 4.914.2114.929-.0603 1.887-.4907 2.464-1.3752.66-1.0107 1.521-2.7945 1.521-5.2151 0-1.7044-.225-2.8958-.493-3.7111-.437-1.3255-1.718-1.7889-2.75-1.7889h-1.577l.495-2.9665c.265-1.588-.96-3.0335-2.57-3.0335-1.45 0-2.518 1.1456-2.812 2.3448-.254 1.0339-.816 2.5211-2.061 4.015-.354.4243-.296 1.0549.128 1.4084.424.3536 1.055.2963 1.408-.128 1.478-1.7734 2.156-3.5535 2.467-4.8181zm-9.0921 3.1779c-.8519 0-1.8338.06-2.4776.7611-.3239.3527-.4805.7787-.5625 1.193-.0808.4078-.1028.8751-.1028 1.3792v6.3334c0 .5041.022.9714.1028 1.3792.082.4143.2386.8403.5625 1.193.6438.7011 1.6257.7611 2.4776.7611h.7142c.8519 0 1.8338-.06 2.4776-.7611.3239-.3527.4805-.7787.5625-1.193.0808-.4078.1028-.8751.1028-1.3792v-6.3334c0-.5041-.022-.9714-.1028-1.3792-.082-.4143-.2386-.8403-.5625-1.193-.6438-.7011-1.6257-.7611-2.4776-.7611zm-1.1429 3.3333c0-.4681.0226-.7785.0646-.9906.0307-.1546.0634-.2131.0728-.2273.0139-.0088.0542-.0292.1459-.0507.1703-.04.4349-.0647.8596-.0647h.7142c.4247 0 .6893.0247.8596.0647.0917.0215.132.0419.1459.0507.0094.0142.0421.0727.0728.2273.042.2121.0646.5225.0646.9906v6.3334c0 .4681-.0226.7785-.0646.9906-.0307.1546-.0634.2131-.0728.2273-.0139.0088-.0542.0292-.1459.0507-.1703.04-.4349.0647-.8596.0647h-.7142c-.4247 0-.6893-.0247-.8596-.0647-.0917-.0215-.132-.0419-.1459-.0507-.0094-.0142-.0421-.0727-.0728-.2273-.042-.2121-.0646-.5225-.0646-.9906zm.1389-1.2201.0012-.0015s-.0001.0001-.0004.0005c-.0002.0002-.0004.0005-.0008.001zm-.0029.0031c-.0026.0026-.0043.0037-.0045.0036s.0011-.0013.0045-.0036zm2.731.0027c.0009.0007.0014.0009.0015.0009.0002-.0001-.0011-.0013-.0045-.0036.0013.0012.0023.0021.003.0027zm-.0071-.0073.0012.0015c-.0006-.0007-.0009-.0012-.0011-.0014-.0001 0-.0001-.0001-.0001-.0001zm0 8.7766.0012-.0015c-.0008.001-.0012.0015-.0012.0015zm.0061-.0065c-.0005.0005-.0012.0011-.002.0019.0034-.0023.0047-.0035.0045-.0036s-.001.0005-.0025.0017zm-2.7345-.0017c.0002-.0001.0019.001.0045.0036-.0034-.0023-.0047-.0035-.0045-.0036zm.0074.0067.0012.0015s-.0004-.0005-.0012-.0015z" fill="#183153"/><path d="m137 22.5c-2.965 0-5.487.9479-7.27 2.7304-1.782 1.7825-2.73 4.3041-2.73 7.2696s.948 5.4871 2.73 7.2696c1.783 1.7825 4.305 2.7304 7.27 2.7304s5.487-.9479 7.27-2.7304c1.782-1.7825 2.73-4.3041 2.73-7.2696s-.948-5.4871-2.73-7.2696c-1.783-1.7825-4.305-2.7304-7.27-2.7304zm-5 7c0-.5523.448-1 1-1h1c.552 0 1 .4477 1 1s-.448 1-1 1v1c0 .5523-.448 1-1 1s-1-.4477-1-1zm5 0c0-.5523.448-1 1-1h1c.552 0 1 .4477 1 1s-.448 1-1 1v1c0 .5523-.448 1-1 1s-1-.4477-1-1zm-2 5c-.552 0-1 .4477-1 1s.448 1 1 1h5c.552 0 1-.4477 1-1s-.448-1-1-1z" fill="#fff"/><path d="m168.393 29.5926c-.463-.3868-.88-.8048-1.231-1.2781 1.162.1097 2.462.1854 3.838.1854s2.676-.0757 3.838-.1854c-.14.1883-.29.3672-.448.5384-1.005 1.0891-2.367 1.8923-3.894 2.7833l-.062.0365-.001.0002c-.138.0809-.279.1626-.42.2455-.504-.3032-.998-.6151-1.468-.9493.325-.4231.261-1.0314-.152-1.3765zm5.465 6.0313c-.933-.0755-1.903-.124-2.858-.124s-1.925.0485-2.858.124c-.187.1676-.364.3414-.532.5231-.827.8952-1.423 1.9991-1.573 3.5571 1.427-.1081 3.192-.2041 4.963-.2041s3.536.096 4.963.2041c-.178-1.8439-.983-3.0751-2.105-4.0802z" fill="#6741d9" opacity=".3"/><path d="m162.876 24.9924.124-.9923c-.124.9923-.124.9923-.124.9923l.001.0001.003.0004.01.0012.036.0044c.032.0038.078.0093.138.0164.12.014.295.0338.517.0576.13.014.276.0292.437.0454.163 2.7923 1.434 4.6247 3.093 6.01.424.3539 1.055.2972 1.409-.1267s.297-1.0545-.127-1.4085c-1.252-1.0452-2.165-2.3183-2.356-4.2967 1.427.108 3.192.2041 4.963.2041s3.536-.0961 4.963-.2041c-.15 1.558-.746 2.6619-1.573 3.5571-1.005 1.089-2.366 1.8923-3.894 2.7832l-.062.0365c-1.457.8494-3.067 1.7884-4.294 3.1178-1.181 1.2796-1.994 2.8994-2.122 5.0917-.161.0162-.307.0314-.437.0454-.222.0238-.397.0436-.517.0577-.06.007-.106.0125-.138.0163l-.036.0045-.01.0011-.003.0004-.001.0001s0 0 .124.9923l-.124-.9923c-.548.0685-.937.5683-.868 1.1163.068.548.568.9368 1.116.8683l.002-.0003.008-.0009.032-.0039c.029-.0035.073-.0088.13-.0154.114-.0134.283-.0325.498-.0556.431-.0462 1.048-.1079 1.789-.1696 1.485-.1238 3.455-.2466 5.417-.2466s3.932.1228 5.417.2466c.741.0617 1.358.1234 1.789.1696.215.0231.384.0422.499.0556.057.0066.1.0119.129.0154l.032.0039.008.0009.002.0003c.548.0685 1.048-.3203 1.116-.8683.069-.548-.32-1.0478-.868-1.1163l-.123.9838c.123-.9838.123-.9838.123-.9838l-.001-.0001-.003-.0004-.009-.0011-.037-.0045c-.031-.0038-.078-.0093-.138-.0163-.12-.0141-.295-.0339-.517-.0577-.13-.014-.276-.0292-.437-.0454-.163-2.7923-1.434-4.6247-3.093-6.0099-.424-.354-1.054-.2973-1.408.1266s-.298 1.0545.126 1.4085c1.252 1.0452 2.165 2.3183 2.356 4.2967-1.427-.108-3.192-.2041-4.963-.2041s-3.536.0961-4.963.2041c.151-1.5579.747-2.6619 1.573-3.5571 1.005-1.089 2.367-1.8923 3.894-2.7832l.063-.0365c1.456-.8494 3.066-1.7884 4.293-3.1178 1.181-1.2795 1.994-2.8994 2.122-5.0916.161-.0163.307-.0315.437-.0455.222-.0238.397-.0436.517-.0576.06-.0071.107-.0126.138-.0164l.037-.0044.009-.0012.003-.0004.001-.0001s0 0-.123-.9838l.123.9838c.548-.0685.937-.5683.868-1.1163-.068-.548-.568-.9367-1.116-.8683v.0001l-.002.0002-.008.0009-.032.004c-.029.0035-.072.0087-.129.0153-.115.0134-.284.0325-.499.0556-.431.0462-1.048.1079-1.789.1697-1.485.1237-3.455.2465-5.417.2465s-3.932-.1228-5.417-.2465c-.741-.0618-1.358-.1235-1.789-.1697-.215-.0231-.384-.0422-.498-.0556-.057-.0066-.101-.0118-.13-.0153l-.032-.004-.008-.0009-.002-.0002v-.0001c-.548-.0684-1.048.3203-1.116.8683-.069.548.32 1.0478.868 1.1163z" fill="#6741d9"/><path d="m203 39.5v-13.5c0-.8821.16-1.152.254-1.246.094-.0941.364-.254 1.246-.254h1c.882 0 1.152.1599 1.246.254.094.094.254.3639.254 1.246v5 8.5zm-2 0v-4.5c0-.8821-.16-1.152-.254-1.246-.094-.0941-.364-.254-1.246-.254h-1c-.882 0-1.152.1599-1.246.254-.094.094-.254.3639-.254 1.246v3c0 .8821.16 1.152.254 1.246.094.0941.364.254 1.246.254h1zm8 0h1.5 1c.882 0 1.152-.1599 1.246-.254.094-.094.254-.3639.254-1.246v-7c0-.8821-.16-1.152-.254-1.246-.094-.0941-.364-.254-1.246-.254h-1c-.882 0-1.152.1599-1.246.254-.094.094-.254.3639-.254 1.246zm0-11.8223c.47-.1364.983-.1777 1.5-.1777h1c.993 0 1.973.1526 2.66.8398s.84 1.6673.84 2.6602v7c0 .9929-.153 1.973-.84 2.6602s-1.667.8398-2.66.8398h-1-11-1c-.993 0-1.973-.1526-2.66-.8398s-.84-1.6673-.84-2.6602v-3c0-.9929.153-1.973.84-2.6602s1.667-.8398 2.66-.8398h1c.517 0 1.03.0413 1.5.1777v-5.6777c0-.9929.153-1.973.84-2.6602s1.667-.8398 2.66-.8398h1c.993 0 1.973.1526 2.66.8398s.84 1.6673.84 2.6602z" fill="#183153"/><path d="m234.2 21.9001c.331-.4419.958-.5314 1.4-.2l3.4 2.55 3.4-2.55c.442-.3314 1.069-.2419 1.4.2.331.4418.242 1.0686-.2 1.4l-1.62 1.2147c.858.028 1.617.0995 2.278.2421.914.1971 1.707.544 2.324 1.1611.617.617.964 1.4104 1.161 2.3243.195.9027.257 1.9879.257 3.2578v3c0 1.2698-.062 2.355-.257 3.2577-.197.9139-.544 1.7074-1.161 2.3244s-1.41.9639-2.324 1.161c-.903.1947-1.988.2569-3.258.2569h-4c-1.27 0-2.355-.0622-3.258-.2569-.914-.1971-1.707-.544-2.324-1.161s-.964-1.4105-1.161-2.3244c-.195-.9027-.257-1.9879-.257-3.2577v-3c0-1.2699.062-2.3551.257-3.2578.197-.9139.544-1.7073 1.161-2.3243.617-.6171 1.41-.964 2.324-1.1611.661-.1426 1.42-.2141 2.278-.2421l-1.62-1.2147c-.442-.3314-.531-.9582-.2-1.4zm10.8 10.6c.552 0 1-.4478 1-1 0-.5523-.448-1-1-1s-1 .4477-1 1c0 .5522.448 1 1 1zm1 2c0 .5522-.448 1-1 1s-1-.4478-1-1c0-.5523.448-1 1-1s1 .4477 1 1zm-4 0c0 2.5-.5 3-3 3h-3c-2.5 0-3-.5-3-3v-3c0-2.5.5-3 3-3h3c2.5 0 3 .5 3 3z" fill="#fff"/><path d="m-1.60715 63.5926c-.46319-.3868-.87997-.8048-1.23095-1.2781 1.16196.1097 2.462179.1854 3.83812.1854 1.37577 0 2.67583-.0757 3.83768-.1854-.13972.1883-.28939.3672-.44748.5384-1.00529 1.0891-2.36673 1.8923-3.894071 2.7833l-.062551.0365-.000311.0002c-.13877.0809-.278934.1626-.4200285.2455-.5038355-.3032-.9981265-.6151-1.4681285-.9493.32529-.4231.2611-1.0314-.15228-1.3765zm5.46485 6.0313c-.93281-.0755-1.90307-.124-2.85768-.124-.9547338 0-1.92513.0485-2.85805.124-.18671.1676-.36439.3414-.53215.5231-.82634.8952-1.42233 1.9991-1.57271 3.5571 1.42656-.1081 3.191768-.2041 4.96291-.2041 1.77113 0 3.53632.096 4.96288.2041-.17815-1.8439-.98318-3.0751-2.1052-4.0802z" fill="#6741d9" opacity=".3"/><path d="m-7.12393 58.9924.12404-.9923c-.12404.9923-.12396.9923-.12387.9923h.00025l.00079.0001.00267.0004.00966.0012.0363.0044c.03163.0038.07796.0093.138.0164.12008.014.29508.0338.51716.0576.12995.014.27606.0292.43678.0454.16317 2.7923 1.43427 4.6247 3.09318 6.01.42392.3539 1.05455.2972 1.40853-.1267.35399-.4239.2973-1.0545-.12663-1.4085-1.25173-1.0452-2.16456-2.3183-2.3557-4.2967 1.42656.108 3.191748.2041 4.96287.2041 1.77115 0 3.53635-.0961 4.96292-.2041-.15039 1.558-.74638 2.6619-1.57272 3.5571-1.00529 1.089-2.36672 1.8923-3.894066 2.7832l-.062552.0365c-1.456352.8494-3.066262 1.7884-4.293382 3.1178-1.18115 1.2796-1.99416 2.8994-2.12243 5.0917-.16072.0162-.30685.0314-.4368.0454-.22208.0238-.39708.0436-.51716.0577-.06004.007-.10637.0125-.138.0163l-.0363.0045-.00966.0011-.00267.0004-.00079.0001h-.00025c-.00009 0-.00017 0 .12387.9923l-.12404-.9923c-.54802.0685-.93675.5683-.86824 1.1163.0685.548.56825.9368 1.11624.8683h.00001.00006.00025l.0017-.0003.00771-.0009.0323-.0039c.02891-.0035.07243-.0088.12957-.0154.1143-.0134.28305-.0325.49847-.0556.43095-.0462 1.04802-.1079 1.78901-.1696 1.48459-.1238 3.454553-.2466 5.416679-.2466h.000039.000232c1.96222 0 3.9323.1228 5.41696.2466.74099.0617 1.35806.1234 1.78901.1696.21542.0231.38417.0422.49847.0556.05714.0066.10066.0119.12957.0154l.0323.0039.00771.0009.0017.0003h.00025.00007c.54799.0685 1.04774-.3203 1.11624-.8683.06852-.548-.32022-1.0478-.86824-1.1163l-.12298.9838c.12298-.9838.12291-.9838.12281-.9838h-.00025l-.00079-.0001-.00267-.0004-.00966-.0011-.0363-.0045c-.03163-.0038-.07796-.0093-.138-.0163-.12008-.0141-.29508-.0339-.51716-.0577-.12995-.014-.27606-.0292-.43678-.0454-.16317-2.7923-1.43427-4.6247-3.09318-6.0099-.42393-.354-1.05455-.2973-1.40853.1266-.35399.4239-.2973 1.0545.12663 1.4085 1.25173 1.0452 2.16456 2.3183 2.3557 4.2967-1.42656-.108-3.19175-.2041-4.96288-.2041-1.771137 0-3.53634.0961-4.96291.2041.15039-1.5579.74638-2.6619 1.57272-3.5571 1.00529-1.089 2.3667212-1.8923 3.89407-2.7832l.06255-.0365c1.45635-.8494 3.06626-1.7884 4.29338-3.1178 1.18115-1.2795 1.99416-2.8994 2.12243-5.0916.16072-.0163.30685-.0315.4368-.0455.22208-.0238.39708-.0436.51716-.0576.06004-.0071.10637-.0126.138-.0164l.0363-.0044.00966-.0012.00267-.0004.00079-.0001h.00025c.0001 0 .00017 0-.12281-.9838l.12298.9838c.54802-.0685.93676-.5683.86824-1.1163-.0685-.548-.56825-.9367-1.11624-.8683h-.00007l-.00025.0001-.0017.0002-.00771.0009-.0323.004c-.02891.0035-.07243.0087-.12957.0153-.1143.0134-.28305.0325-.49847.0556-.43095.0462-1.04802.1079-1.78901.1697-1.48466.1237-3.45474.2465-5.41696.2465h-.000237-.000037c-1.962125 0-3.932086-.1228-5.416676-.2465-.74099-.0618-1.35806-.1235-1.78901-.1697-.21542-.0231-.38417-.0422-.49847-.0556-.05714-.0066-.10066-.0118-.12957-.0153l-.0323-.004-.00771-.0009-.0017-.0002-.00025-.0001h-.00006-.00001c-.54799-.0684-1.04774.3203-1.11624.8683-.06851.548.32022 1.0478.86824 1.1163z" fill="#6741d9"/><path d="m34.7907 58.2904c-.4745.4745-.7905 1.2028-.7905 2.2096v10c0 .3956.1216.624.2488.7512s.3556.2488.7512.2488c.3957 0 .624-.1216.7512-.2488.1273-.1272.2488-.3556.2488-.7512v-10c0-.5523.4477-1 1-1s1 .4477 1 1v10c0 .8266-.2673 1.5982-.8345 2.1654-.5673.5673-1.3389.8346-2.1655.8346s-1.5982-.2673-2.1654-.8346c-.5673-.5672-.8346-1.3388-.8346-2.1654v-10c0-1.4377.4618-2.7093 1.3762-3.6238.9145-.9144 2.1861-1.3762 3.6238-1.3762s2.7093.4618 3.6238 1.3762c.9144.9145 1.3762 2.1861 1.3762 3.6238v10c0 2.0488-.6562 3.8204-1.9179 5.0821-1.2616 1.2617-3.0333 1.9179-5.0821 1.9179s-3.8204-.6562-5.0821-1.9179-1.9179-3.0333-1.9179-5.0821c0-2.9454-.2455-4.8786-.4806-6.0539-.1174-.5873-.2321-.9845-.3118-1.2236-.0399-.1196-.071-.1996-.0893-.2441-.0092-.0223-.0151-.0356-.0174-.0407-.0002-.0003-.0003-.0006-.0004-.0009-.2391-.492-.0382-1.086.4523-1.3312.494-.247 1.0947-.0468 1.3416.4472l-.8944.4472c.8944-.4472.8947-.4467.895-.4461l.0005.0011.0012.0023.0026.0053.0062.0128c.0045.0096.0099.0211.0161.0347.0124.0272.0279.0627.0461.1068.0363.0883.0833.2114.1373.3731.1077.3234.2431.8012.3756 1.4639.2649 1.3247.5194 3.3915.5194 6.4461 0 1.6179.5105 2.8462 1.3321 3.6679.8217.8217 2.0501 1.3321 3.6679 1.3321 1.6179 0 2.8463-.5104 3.6679-1.3321.8217-.8217 1.3321-2.05 1.3321-3.6679v-10c0-1.0068-.316-1.7351-.7904-2.2096-.4745-.4744-1.2028-.7904-2.2096-.7904-1.0067 0-1.7351.316-2.2095.7904z" fill="#183153"/><path d="m203.52 60.0196c-.301.3008-.52.7792-.52 1.4804s.219 1.1796.52 1.4804c.3.3008.779.5196 1.48.5196s1.18-.2188 1.48-.5196c.301-.3008.52-.7792.52-1.4804s-.219-1.1796-.52-1.4804c-.3-.3008-.779-.5196-1.48-.5196s-1.18.2188-1.48.5196zm.361 7.5929c.357-.075.732-.1125 1.119-.1125s.762.0375 1.119.1125c.222-.2249.381-.5785.381-1.1125 0-.5446-.166-.9016-.395-1.1258-.351.084-.722.1258-1.105.1258s-.754-.0418-1.105-.1258c-.229.2242-.395.5812-.395 1.1258 0 .534.159.8876.381 1.1125zm-1.381 4.3875c0-.854.267-1.4573.655-1.845.388-.3876.991-.655 1.845-.655s1.457.2674 1.845.655c.388.3877.655.991.655 1.845s-.267 1.4573-.655 1.845c-.388.3876-.991.655-1.845.655s-1.457-.2674-1.845-.655c-.388-.3877-.655-.991-.655-1.845z" fill="#6741d9" opacity=".3"/><path d="m202.832 56.9454c-.306-.4595-.927-.5837-1.387-.2773-.459.3063-.583.9272-.277 1.3867l.615.9219c-.524.695-.783 1.57-.783 2.5234 0 1.1321.365 2.1538 1.106 2.8946l.005.0054c-.407.5885-.611 1.3151-.611 2.1 0 .7316.178 1.4125.531 1.9782-.101.0823-.197.1699-.29.2626-.828.8277-1.241 1.9743-1.241 3.2592s.413 2.4316 1.241 3.2592 1.974 1.2408 3.259 1.2408 2.432-.4132 3.259-1.2408c.828-.8276 1.241-1.9743 1.241-3.2592s-.413-2.4315-1.241-3.2592c-.092-.0927-.189-.1803-.29-.2626.354-.5657.531-1.2466.531-1.9782 0-.7849-.204-1.5115-.611-2.1l.006-.0054c.741-.7408 1.105-1.7625 1.105-2.8946 0-.9534-.258-1.8284-.782-2.5234l.614-.9219c.307-.4595.182-1.0804-.277-1.3867-.46-.3064-1.081-.1822-1.387.2773l-.557.8359c-.494-.188-1.038-.2812-1.611-.2812-.572 0-1.117.0932-1.611.2812zm.168 4.5547c0-.7012.219-1.1796.52-1.4804s.779-.5196 1.48-.5196 1.18.2188 1.481.5196c.3.3008.519.7792.519 1.4804s-.219 1.1796-.519 1.4804c-.301.3008-.78.5196-1.481.5196s-1.179-.2188-1.48-.5196-.52-.7792-.52-1.4804zm2 6c-.387 0-.761.0375-1.118.1125-.223-.2249-.382-.5785-.382-1.1125 0-.5446.166-.9016.395-1.1258.351.084.722.1258 1.105.1258s.754-.0418 1.105-.1258c.23.2242.395.5812.395 1.1258 0 .534-.159.8876-.381 1.1125-.357-.075-.732-.1125-1.119-.1125zm-1.845 2.655c-.387.3877-.655.991-.655 1.845s.268 1.4574.655 1.845c.388.3876.991.655 1.845.655s1.458-.2674 1.845-.655c.388-.3876.655-.991.655-1.845s-.267-1.4573-.655-1.845c-.387-.3876-.991-.655-1.845-.655s-1.457.2674-1.845.655zm-4.155-10.655c0-.5523-.448-1-1-1s-1 .4477-1 1v3.3585c0 1.3934.821 2.6561 2.094 3.222.505.2243 1.096-.003 1.32-.5077s-.003-1.0956-.508-1.3199c-.551-.2449-.906-.7914-.906-1.3944zm13-1c-.552 0-1 .4477-1 1v3.3585c0 .603-.355 1.1495-.906 1.3944-.505.2243-.732.8152-.508 1.3199.225.5047.816.732 1.32.5077 1.274-.5659 2.094-1.8286 2.094-3.222v-3.3585c0-.5523-.448-1-1-1zm-15.98 14.8039c-.109.5416.243 1.0684.784 1.1767.542.1083 1.068-.2429 1.177-.7845l.695-3.4775c.128-.6365.556-1.1717 1.149-1.4354l.081-.036c.505-.2244.732-.8153.508-1.32s-.815-.732-1.32-.5077l-.081.0361c-1.187.5273-2.043 1.5977-2.298 2.8708zm17.176 1.1767c.542-.1083.893-.6351.785-1.1767l-.696-3.4775c-.254-1.2731-1.111-2.3435-2.297-2.8708l-.082-.0361c-.504-.2243-1.095.003-1.32.5077-.224.5047.003 1.0956.508 1.32l.081.036c.593.2637 1.022.7989 1.149 1.4354l.696 3.4775c.108.5416.635.8928 1.176.7845z" fill="#6741d9"/><path d="m235.943 58.5898c.808-.0485 1.85-.0898 3.057-.0898s2.249.0413 3.057.0898c.718.0432 1.347.5348 1.592 1.2701l.576 1.7278c-.657-.0611-1.397-.0877-2.225-.0877h-6c-.828 0-1.568.0266-2.225.0877l.576-1.7278c.245-.7353.874-1.2269 1.592-1.2701zm-4.432 3.4641.942-2.8265c.486-1.4567 1.782-2.5385 3.37-2.634.843-.0506 1.925-.0934 3.177-.0934s2.334.0428 3.177.0934c1.588.0955 2.884 1.1773 3.37 2.634l.942 2.8265c.355.1344.678.3009.967.5074 1.297.926 1.544 2.3793 1.544 3.9387 0 1.3166-.176 2.5575-1.011 3.4694-.038.8626-.162 2.0146-.272 2.9304-.181 1.5028-1.463 2.6002-2.952 2.6002h-.823c-1.267 0-2.516-.8252-2.769-2.2208-.094-.5194-.173-1.1416-.173-1.7792h-4c0 .6376-.079 1.2598-.173 1.7792-.041.2262-.11.4416-.204.6429-.47 1.0098-1.505 1.5779-2.565 1.5779h-.823c-1.489 0-2.771-1.0974-2.952-2.6002-.11-.9158-.234-2.0678-.272-2.9304-.835-.9119-1.011-2.1528-1.011-3.4694 0-1.5594.247-3.0127 1.544-3.9387.289-.2065.612-.373.967-.5074zm-.006 6.5827c-.326-.3463-.505-.9257-.505-2.1366 0-1.4406.253-1.9873.706-2.3113.271-.1935.704-.3743 1.421-.5008.714-.1261 1.648-.1879 2.873-.1879h6c1.225 0 2.159.0618 2.873.1879.717.1265 1.15.3073 1.421.5008.453.324.706.8707.706 2.3113 0 1.2109-.179 1.7903-.505 2.1366-.095.0556-.18.1263-.251.2089-.273.1805-.697.3476-1.371.4666-.714.1261-1.648.1879-2.873.1879h-6c-1.225 0-2.159-.0618-2.873-.1879-.674-.119-1.098-.2861-1.371-.4666-.071-.0826-.156-.1533-.251-.2089zm2.995-.6366c.828 0 1.5-.6716 1.5-1.5s-.672-1.5-1.5-1.5-1.5.6716-1.5 1.5.672 1.5 1.5 1.5zm11.398 3.1342c-.217.0574-.443.1061-.677.1475-.639.1127-1.377.1769-2.221.2035v.0148c0 .4816.06.9787.141 1.4227.054.2987.345.5773.801.5773h.823c.502 0 .909-.3658.966-.8393.06-.4923.119-1.0237.167-1.5265zm-10.898.351v.0148c0 .4816-.06.9787-.141 1.4227-.01.0571-.027.1086-.049.1552-.104.2246-.377.4221-.752.4221h-.823c-.502 0-.909-.3658-.966-.8393-.06-.4923-.119-1.0237-.167-1.5265.217.0574.443.1061.677.1475.639.1127 1.377.1769 2.221.2035zm10-4.9852c0 .8284-.672 1.5-1.5 1.5s-1.5-.6716-1.5-1.5.672-1.5 1.5-1.5 1.5.6716 1.5 1.5z" fill="#183153"/><path d="m1 90.5c-2.96547 0-5.4871.9479-7.26961 2.7304-1.7825 1.7825-2.73039 4.3041-2.73039 7.2696 0 2.555.70294 4.781 2.04126 6.491.05445.07.09065.152.1057.239.18815 1.088.61112 2.001 1.55641 2.578.21536.131.44897.238.69939.326.30107.105.59724-.135.59724-.454v-1.18c0-.552.44772-1 1-1s1 .448 1 1v1.505c0 .272.21797.495.4903.495h.0097.002l.999002-.002c.275751-.001.498998-.224.498998-.5v-1.498c0-.552.447715-1 1-1 .55229 0 1 .448 1 1v1.301c0 .309.27864.547.57594.464.74867-.211 1.2188-.551 1.53771-.966.60352-.787.88635-2.108.88635-4.299v-.5c0-.552.44772-1 1-1 .55229 0 1 .448 1 1v.5c0 1.015-.05348 1.969-.21025 2.834-.08332.46.4194.849.78407.556.24279-.194.47481-.402.6955-.623 1.78278-1.781 2.73068-4.301 2.73068-7.267 0-2.9655-.9479-5.4871-2.73039-7.2696-1.78251-1.7825-4.30414-2.7304-7.26961-2.7304zm-3 8.5c0 .8284-.67157 1.5-1.5 1.5s-1.5-.6716-1.5-1.5.67157-1.5 1.5-1.5 1.5.6716 1.5 1.5zm3.5 1.5c.82843 0 1.5-.6716 1.5-1.5s-.67157-1.5-1.5-1.5c-.828427 0-1.5.6716-1.5 1.5s.671573 1.5 1.5 1.5zm-2.5 1c.378772 0 .725035.214.894427.553l.5 1c.154994.31.138431.678-.043776.973s-.504073.474-.850651.474h-1c-.34658 0-.66844-.179-.85065-.474s-.19877-.663-.04378-.973l.5-1c.16939-.339.51566-.553.89443-.553z" fill="#fff"/><path d="m30.715 100.534c-.5.429-.9671.858-1.3897 1.264.3837.388.3847 1.014 0 1.404-.5636.571-1.001 1.052-1.2673 1.354-.0327.037-.058.092-.058.169 0 .149.0923.227.1761.242 1.2222.213 3.5918.533 6.8239.533s5.6017-.32 6.8239-.533c.0838-.015.1761-.093.1761-.242 0-.077-.0253-.132-.058-.169-.2663-.302-.7037-.783-1.2673-1.354-.3847-.39-.3837-1.016 0-1.404-.4226-.406-.8897-.835-1.3897-1.264-1.0952.123-2.5096.216-4.285.216s-3.1898-.093-4.285-.216zm10.285-2.5698c0-.1025-.0304-.1809-.0707-.234-.7472-.9856-2.9741-3.6846-5.9186-5.2293-.0015-.0003-.005-.0009-.0107-.0009s-.0092.0006-.0107.0009c-2.9445 1.5447-5.1714 4.2437-5.9186 5.2293-.0403.0531-.0707.1315-.0707.234 0 .1037.0324.1822.0693.2311.034.045.0761.0727.1332.0845.9774.2016 2.8354.4702 5.7975.4702s4.82-.2686 5.7975-.4702c.0571-.0118.0992-.0395.1332-.0845.0369-.0489.0693-.1274.0693-.2311z" fill="#6741d9" opacity=".3"/><path d="m43 97.9642c0-.5022-.1518-1.0135-.4769-1.4423-.7933-1.0463-3.2387-4.0384-6.5861-5.7935-.2972-.1559-.6206-.2284-.937-.2284s-.6398.0725-.937.2284c-3.3474 1.7551-5.7928 4.7472-6.5861 5.7935-.3251.4288-.4769.9401-.4769 1.4423 0 1.033.6633 2.0398 1.7985 2.2748 1.1244.231 3.1188.511 6.2015.511s5.0771-.28 6.2015-.511c1.1352-.235 1.7985-1.2418 1.7985-2.2748zm-2.0707-.234c.0403.0531.0707.1315.0707.234 0 .1037-.0324.1822-.0693.2311-.034.045-.0761.0727-.1332.0845-.9775.2016-2.8354.4702-5.7975.4702s-4.8201-.2686-5.7975-.4702c-.0571-.0118-.0992-.0395-.1332-.0845-.0369-.0489-.0693-.1274-.0693-.2311 0-.1025.0304-.1809.0707-.234.7472-.9856 2.9741-3.6846 5.9186-5.2293.0015-.0003.005-.0009.0107-.0009s.0092.0006.0107.0009c2.9445 1.5447 5.1714 4.2437 5.9186 5.2293zm-11.6135 4.0578c.3931.388.3974 1.021.0095 1.414-.5636.571-1.001 1.052-1.2673 1.354-.0327.037-.058.092-.058.169 0 .149.0923.227.1761.242 1.2222.213 3.5918.533 6.8239.533s5.6017-.32 6.8239-.533c.0838-.015.1761-.093.1761-.242 0-.077-.0253-.132-.058-.169-.2663-.302-.7037-.783-1.2673-1.354-.3879-.393-.3836-1.026.0095-1.414s1.0263-.383 1.4142.01c.5936.601 1.0561 1.11 1.3419 1.433.3741.423.5597.957.5597 1.494 0 1.056-.7288 2.019-1.8317 2.212-1.1851.207-3.311.496-6.1683.553v2.01c0 .552-.4477 1-1 1s-1-.448-1-1v-2.01c-2.8573-.057-4.9832-.346-6.1683-.553-1.1029-.193-1.8317-1.156-1.8317-2.212 0-.537.1856-1.071.5597-1.494.2858-.323.7483-.832 1.3419-1.433.3879-.393 1.021-.398 1.4142-.01z" fill="#6741d9"/><path d="m69 92.5c-3.1905 0-5.1197.2063-6.0598.346-.3449.0512-.6236.1906-.8181.3916-.5446.5631-1.1221 1.3911-1.1221 2.2624 0 .7012.2188 1.1796.5196 1.4804s.7792.5196 1.4804.5196 1.1796-.2188 1.4804-.5196.5196-.7792.5196-1.4804c0-.5523.4477-1 1-1s1 .4477 1 1c0 .7012.2188 1.1796.5196 1.4804s.7792.5196 1.4804.5196 1.1796-.2188 1.4804-.5196.5196-.7792.5196-1.4804c0-.5523.4477-1 1-1s1 .4477 1 1c0 .7012.2188 1.1796.5196 1.4804s.7792.5196 1.4804.5196 1.1796-.2188 1.4804-.5196.5196-.7792.5196-1.4804c0-.8713-.5775-1.6993-1.1221-2.2624-.1945-.201-.4732-.3404-.8181-.3916-.9401-.1397-2.8693-.346-6.0598-.346zm3 5.7846c.0342.0373.0694.074.1054.11.7408.7408 1.7625 1.1054 2.8946 1.1054s2.1538-.3646 2.8946-1.1054 1.1054-1.7625 1.1054-2.8946c0-1.6806-1.0506-2.9974-1.6847-3.6529-.5468-.5653-1.2519-.874-1.9617-.9794-1.0493-.1559-3.0777-.3677-6.3536-.3677s-5.3043.2118-6.3537.3677c-.7097.1054-1.4148.4141-1.9616.9794-.6341.6555-1.6847 1.9723-1.6847 3.6529 0 1.1321.3646 2.1538 1.1054 2.8946s1.7625 1.1054 2.8946 1.1054 2.1538-.3646 2.8946-1.1054c.036-.036.0712-.0727.1054-.11.0342.0373.0694.074.1054.11.7408.7408 1.7625 1.1054 2.8946 1.1054s2.1538-.3646 2.8946-1.1054c.036-.036.0712-.0727.1054-.11zm-10.7431 8.4734c-.1947-.903-.2569-1.988-.2569-3.258v-1.5c0-.552.4477-1 1-1s1 .448 1 1v1.5c0 1.23.0628 2.145.2119 2.836.1466.68.3622 1.074.6202 1.332s.6521.473 1.3319.62c.2483.054.5256.096.836.128v-3.916c0-1.657 1.3431-3 3-3s3 1.343 3 3v3.916c.3104-.032.5877-.074.836-.128.6798-.147 1.0739-.362 1.3319-.62s.4736-.652.6202-1.332c.1491-.691.2119-1.606.2119-2.836v-1.5c0-.552.4477-1 1-1s1 .448 1 1v1.5c0 1.27-.0622 2.355-.2569 3.258-.1971.914-.544 1.707-1.161 2.324s-1.4104.964-2.3244 1.161c-.9027.195-1.9879.257-3.2577.257h-2c-1.2698 0-2.355-.062-3.2577-.257-.914-.197-1.7074-.544-2.3244-1.161s-.9639-1.41-1.161-2.324zm8.7431 1.742v-4c0-.552-.4477-1-1-1s-1 .448-1 1v4z" fill="#183153"/><path d="m95.517 103.268c-.6409.322-1.517-.051-1.517-.768v-4c0-1.2698.0622-2.355.2569-3.2577.1971-.914.544-1.7074 1.161-2.3244s1.4104-.9639 2.3244-1.161c.9027-.1947 1.9879-.2569 3.2577-.2569h4c1.27 0 2.355.0622 3.258.2569.914.1971 1.707.544 2.324 1.161s.964 1.4104 1.161 2.3244c.195.9027.257 1.9879.257 3.2577v.7702c0 .2512-.232.4379-.48.3956-.127-.0218-.256-.0414-.386-.059-.001 0-.001 0-.001-.0001-.46-.0621-.935-.0972-1.423-.105-.07-.0011-.14-.0017-.21-.0017-2.994 0-5.505 1.022-7.197 2.902-.298.331-.761.466-1.192.355-.66-.171-1.3677-.257-2.111-.257-1.1662 0-2.2433.212-3.1887.63-.0996.043-.1977.09-.2943.138zm-.6796 3.165c-.1686.249-.1815.573-.0336.835.1672.297.3694.569.6141.814.617.617 1.4104.964 2.3244 1.161.9027.195 1.9879.257 3.2577.257h2.562c.242 0 .44-.196.425-.438-.009-.149-.022-.294-.04-.436 0-.001 0-.001 0-.001-.077-.603-.232-1.143-.457-1.618-.394-.83-.999-1.457-1.756-1.873-.007-.004-.015-.008-.023-.013-.722-.392-1.629-.621-2.711-.621-.9244 0-1.7211.167-2.3864.462-.5012.222-.9288.517-1.2815.87-.1806.181-.3462.381-.4947.601zm11.0936 1.942h-.001c.023.179.04.361.052.545.019.308.274.557.582.538.623-.038 1.187-.106 1.694-.215.914-.197 1.707-.544 2.324-1.161s.964-1.41 1.161-2.324c.195-.903.257-1.988.257-3.258v-.18c0-.297-.198-.56-.488-.621-.209-.044-.425-.081-.645-.11h-.001c-.373-.051-.762-.08-1.168-.087-.065-.001-.131-.002-.198-.002-2.314 0-4.138.709-5.403 1.924-.298.286-.241.759.047 1.055.468.482.852 1.039 1.146 1.659.322.675.538 1.426.641 2.236zm-6.431-9.875c.917 0 1.5-.5833 1.5-1.5s-.583-1.5-1.5-1.5c-.9167 0-1.5.5833-1.5 1.5s.5833 1.5 1.5 1.5z" fill="#fff"/><path d="m135.52 94.0196c-.301.3008-.52.7792-.52 1.4804s.219 1.1796.52 1.4804c.3.3008.779.5196 1.48.5196s1.18-.2188 1.48-.5196c.301-.3008.52-.7792.52-1.4804s-.219-1.1796-.52-1.4804c-.3-.3008-.779-.5196-1.48-.5196s-1.18.2188-1.48.5196zm.361 7.5924c.357-.075.732-.112 1.119-.112s.762.037 1.119.112c.222-.224.381-.578.381-1.112 0-.5446-.166-.9016-.395-1.1258-.351.084-.722.1258-1.105.1258s-.754-.0418-1.105-.1258c-.229.2242-.395.5812-.395 1.1258 0 .534.159.888.381 1.112zm-1.381 4.388c0-.854.267-1.457.655-1.845s.991-.655 1.845-.655 1.457.267 1.845.655.655.991.655 1.845-.267 1.457-.655 1.845-.991.655-1.845.655-1.457-.267-1.845-.655-.655-.991-.655-1.845z" fill="#6741d9" opacity=".3"/><path d="m134.832 90.9454c-.306-.4595-.927-.5837-1.387-.2773-.459.3063-.583.9272-.277 1.3867l.615.9219c-.524.695-.783 1.57-.783 2.5234 0 1.1321.365 2.1538 1.106 2.8946l.005.0054c-.407.5885-.611 1.3151-.611 2.0999 0 .732.178 1.413.531 1.978-.101.083-.197.17-.29.263-.828.828-1.241 1.974-1.241 3.259s.413 2.432 1.241 3.259c.828.828 1.974 1.241 3.259 1.241s2.432-.413 3.259-1.241c.828-.827 1.241-1.974 1.241-3.259s-.413-2.431-1.241-3.259c-.092-.093-.189-.18-.29-.263.354-.565.531-1.246.531-1.978 0-.7848-.204-1.5114-.611-2.0999l.006-.0054c.741-.7408 1.105-1.7625 1.105-2.8946 0-.9534-.258-1.8284-.782-2.5234l.614-.9219c.307-.4595.182-1.0804-.277-1.3867-.46-.3064-1.081-.1822-1.387.2773l-.557.8359c-.494-.188-1.038-.2812-1.611-.2812-.572 0-1.117.0932-1.611.2812zm.168 4.5547c0-.7012.219-1.1796.52-1.4804s.779-.5196 1.48-.5196 1.18.2188 1.481.5196c.3.3008.519.7792.519 1.4804s-.219 1.1796-.519 1.4804c-.301.3008-.78.5196-1.481.5196s-1.179-.2188-1.48-.5196-.52-.7792-.52-1.4804zm2 5.9999c-.387 0-.761.038-1.118.113-.223-.225-.382-.579-.382-1.113 0-.5445.166-.9015.395-1.1257.351.084.722.1258 1.105.1258s.754-.0418 1.105-.1258c.23.2242.395.5812.395 1.1257 0 .534-.159.888-.381 1.113-.357-.075-.732-.113-1.119-.113zm-1.845 2.655c-.387.388-.655.991-.655 1.845s.268 1.457.655 1.845c.388.388.991.655 1.845.655s1.458-.267 1.845-.655c.388-.388.655-.991.655-1.845s-.267-1.457-.655-1.845c-.387-.388-.991-.655-1.845-.655s-1.457.267-1.845.655zm-4.155-10.6549c0-.5523-.448-1-1-1s-1 .4477-1 1v3.3585c0 1.3934.821 2.6561 2.094 3.2224.505.224 1.096-.003 1.32-.5081.224-.5047-.003-1.0956-.508-1.3199-.551-.2449-.906-.7914-.906-1.3944zm13-1c-.552 0-1 .4477-1 1v3.3585c0 .603-.355 1.1495-.906 1.3944-.505.2243-.732.8152-.508 1.3199.225.5051.816.7321 1.32.5081 1.274-.5663 2.094-1.829 2.094-3.2224v-3.3585c0-.5523-.448-1-1-1zm-15.98 14.8039c-.109.542.243 1.068.784 1.177.542.108 1.068-.243 1.177-.785l.695-3.477c.128-.637.556-1.172 1.149-1.436l.081-.036c.505-.224.732-.815.508-1.32-.224-.504-.815-.732-1.32-.507l-.081.036c-1.187.527-2.043 1.597-2.298 2.87zm17.176 1.177c.542-.109.893-.635.785-1.177l-.696-3.478c-.254-1.273-1.111-2.343-2.297-2.87l-.082-.036c-.504-.225-1.095.003-1.32.507-.224.505.003 1.096.508 1.32l.081.036c.593.264 1.022.799 1.149 1.436l.696 3.477c.108.542.635.893 1.176.785z" fill="#6741d9"/><path d="m166.742 90.7569c.903-.1947 1.988-.2569 3.258-.2569h2c1.27 0 2.355.0622 3.258.2569.914.1971 1.707.544 2.324 1.161s.964 1.4104 1.161 2.3244c.195.9027.257 1.9879.257 3.2577v8.25c0 .552-.448 1-1 1s-1-.448-1-1v-8.25c0-1.2302-.063-2.145-.212-2.836-.146-.6798-.362-1.0739-.62-1.3319s-.652-.4736-1.332-.6202c-.691-.1491-1.606-.2119-2.836-.2119h-2c-1.23 0-2.145.0628-2.836.2119-.68.1466-1.074.3622-1.332.6202s-.473.6521-.62 1.3319c-.149.691-.212 1.6058-.212 2.836v8.25c0 .552-.448 1-1 1s-1-.448-1-1v-8.25c0-1.2698.062-2.355.257-3.2577.197-.914.544-1.7074 1.161-2.3244s1.41-.9639 2.324-1.161zm-5.733 18.1111c.073-.548.576-.932 1.123-.859 0 0 0 0-.132.991l-.132.991c-.547-.073-.932-.576-.859-1.123zm18.991.132c.132.991.132.991.132.991h-.001l-.003.001-.01.001-.035.005c-.031.004-.075.009-.134.016-.117.014-.288.034-.509.058-.443.048-1.085.112-1.893.175-1.614.127-3.891.253-6.547.253s-4.932-.126-6.547-.253c-.807-.063-1.45-.127-1.892-.175-.222-.024-.393-.044-.51-.058-.058-.007-.103-.012-.134-.016l-.035-.005-.01-.001-.003-.001h-.001s0 0 .132-.991l.132-.991h.002l.006.001.03.004c.027.003.067.008.122.015.109.013.271.032.484.055.424.046 1.047.107 1.834.169 1.573.123 3.796.247 6.39.247s4.818-.124 6.391-.247c.786-.062 1.409-.123 1.834-.169.212-.023.375-.042.483-.055.055-.007.096-.012.122-.015l.03-.004.007-.001h.001zm0 0-.132-.991c.547-.073 1.05.311 1.123.859.073.547-.311 1.05-.859 1.123zm-6.5-6.5c.829 0 1.5-.672 1.5-1.5s-.671-1.5-1.5-1.5c-.828 0-1.5.672-1.5 1.5s.672 1.5 1.5 1.5z" fill="#183153"/><path d="m205 90.5c-2.965 0-5.487.9479-7.27 2.7304-1.782 1.7825-2.73 4.3041-2.73 7.2696 0 2.555.703 4.781 2.041 6.491.055.07.091.152.106.239.188 1.088.611 2.001 1.556 2.578.216.131.449.238.7.326.301.105.597-.135.597-.454v-1.18c0-.552.448-1 1-1s1 .448 1 1v1.505c0 .272.218.495.49.495h.01.002l.999-.002c.276-.001.499-.224.499-.5v-1.498c0-.552.448-1 1-1s1 .448 1 1v1.301c0 .309.279.547.576.464.749-.211 1.219-.551 1.538-.966.603-.787.886-2.108.886-4.299v-.5c0-.552.448-1 1-1s1 .448 1 1v.5c0 1.015-.053 1.969-.21 2.834-.084.46.419.849.784.556.243-.194.475-.402.695-.623 1.783-1.781 2.731-4.301 2.731-7.267 0-2.9655-.948-5.4871-2.73-7.2696-1.783-1.7825-4.305-2.7304-7.27-2.7304zm-3 8.5c0 .8284-.672 1.5-1.5 1.5s-1.5-.6716-1.5-1.5.672-1.5 1.5-1.5 1.5.6716 1.5 1.5zm3.5 1.5c.828 0 1.5-.6716 1.5-1.5s-.672-1.5-1.5-1.5-1.5.6716-1.5 1.5.672 1.5 1.5 1.5zm-2.5 1c.379 0 .725.214.894.553l.5 1c.155.31.139.678-.043.973-.183.295-.504.474-.851.474h-1c-.347 0-.668-.179-.851-.474-.182-.295-.198-.663-.043-.973l.5-1c.169-.339.515-.553.894-.553z" fill="#fff"/><path d="m235 94.5843c-.999.1037-1.604.303-1.995.5974-.516.389-.868 1.1217-.972 2.9552 1.453.1462 4.094.3631 6.967.3631 2.872 0 5.513-.2169 6.966-.3631-.103-1.8335-.455-2.5662-.972-2.9552-.391-.2944-.995-.4937-1.994-.5974v.9157c0 .5523-.448 1-1 1-.553 0-1-.4477-1-1v-1h-4v1c0 .5523-.448 1-1 1-.553 0-1-.4477-1-1z" fill="#6741d9" opacity=".3"/><path d="m237 91.5c0-.5523-.448-1-1-1s-1 .4477-1 1v1.0735c-1.303.1162-2.381.3957-3.197 1.0104-1.286.9678-1.664 2.5402-1.769 4.4903-.057 1.059.737 1.9448 1.764 2.0488 1.483.15 4.215.377 7.202.377s5.719-.227 7.202-.377c1.027-.104 1.821-.9898 1.764-2.0488-.105-1.9501-.483-3.5225-1.769-4.4903-.816-.6147-1.894-.8942-3.197-1.0104v-1.0735c0-.5523-.448-1-1-1s-1 .4477-1 1v1h-4zm-2 3.0843v.9157c0 .5523.448 1 1 1s1-.4477 1-1v-1h4v1c0 .5523.448 1 1 1s1-.4477 1-1v-.9157c.999.1037 1.603.303 1.995.5974.516.389.868 1.1217.972 2.9552-1.454.1462-4.095.3631-6.967.3631s-5.513-.2169-6.967-.3631c.104-1.8335.456-2.5662.972-2.9552.392-.2944.996-.4937 1.995-.5974zm13 7.9157c0-.552-.448-1-1-1s-1 .448-1 1c0 1.23-.063 2.145-.212 2.836-.147.68-.362 1.074-.62 1.332s-.652.473-1.332.62c-.691.149-1.606.212-2.836.212h-4c-1.23 0-2.145-.063-2.836-.212-.68-.147-1.074-.362-1.332-.62s-.473-.652-.62-1.332c-.149-.691-.212-1.606-.212-2.836 0-.552-.448-1-1-1s-1 .448-1 1c0 1.27.062 2.355.257 3.258.197.914.544 1.707 1.161 2.324s1.41.964 2.324 1.161c.903.195 1.988.257 3.258.257h4c1.27 0 2.355-.062 3.258-.257.914-.197 1.707-.544 2.324-1.161s.964-1.41 1.161-2.324c.195-.903.257-1.988.257-3.258z" fill="#6741d9"/><path d="m.790659 126.29c-.474437.475-.79043991 1.203-.79043991 2.21v10c0 .396.12155791.624.24877391.751.127215.127.355582.249.751227.249.39564 0 .62401-.122.75123-.249.12721-.127.24877-.355.24877-.751v-10c0-.552.44771-1 1-1 .55228 0 1 .448 1 1v10c0 .827-.26733 1.598-.83456 2.165-.56723.568-1.33886.835-2.16544.835-.826579 0-1.598212-.267-2.16544-.835-.56723-.567-.83456-1.338-.83456-2.165v-10c0-1.438.46177-2.709 1.376226-3.624.914451-.914 2.186084-1.376 3.623774-1.376s2.70932.462 3.62377 1.376c.91445.915 1.37623 2.186 1.37623 3.624v10c0 2.049-.65622 3.82-1.91789 5.082-1.26168 1.262-3.03331 1.918-5.08211 1.918s-3.82043-.656-5.08211-1.918c-1.26167-1.262-1.91789-3.033-1.91789-5.082 0-2.945-.24552-4.879-.48058-6.054-.11747-.587-.23215-.984-.31185-1.224-.03985-.119-.07095-.199-.08928-.244-.00917-.022-.01514-.035-.01743-.04-.00015-.001-.00029-.001-.00041-.001-.23905-.492-.03818-1.086.45234-1.331.49397-.247 1.09465-.047 1.34164.447l-.89443.447c.89443-.447.89469-.447.89496-.446l.00056.001.00117.002.0026.006.00618.012c.00455.01.00994.022.01613.035.01236.027.02787.063.04605.107.03635.088.08338.211.13728.373.1078.323.24312.801.37565 1.464.26494 1.325.51942 3.391.51942 6.446 0 1.618.51045 2.846 1.33211 3.668s2.050023 1.332 3.66789 1.332c1.61786 0 2.84623-.51 3.66789-1.332s1.33211-2.05 1.33211-3.668v-10c0-1.007-.316-1.735-.79044-2.21-.47444-.474-1.20281-.79-2.20956-.79-1.00676 0-1.73512.316-2.209561.79z" fill="#183153"/><path d="m43.2025 125.867c-.3494-.427-.9793-.491-1.407-.141-.4277.349-.4912.979-.1418 1.407 1.4866 1.819 2.3463 4.309 2.3463 7.367s-.8597 5.548-2.3463 7.367c-.3494.428-.2859 1.058.1418 1.407.4277.35 1.0576.286 1.407-.141 1.8268-2.236 2.7975-5.196 2.7975-8.633s-.9707-6.397-2.7975-8.633zm-2.7991 3.12c-.3173-.452-.941-.561-1.393-.243-.452.317-.5612.941-.2438 1.393.7778 1.108 1.2334 2.573 1.2334 4.363s-.4556 3.256-1.2334 4.363c-.3174.452-.2082 1.076.2438 1.393.452.318 1.0757.209 1.393-.243 1.0515-1.498 1.5966-3.382 1.5966-5.513s-.5451-4.015-1.5966-5.513zm-16.4034 5.763v-.5c0-.801.0387-1.511.169-2.115.1326-.615.3741-1.186.827-1.639.453-.453 1.0237-.694 1.6389-.827.54-.116 1.1651-.16 1.8641-.168l2.101-2.801c.5666-.755 1.4557-1.2 2.4-1.2h.582c1.2659 0 2.4645.818 2.7554 2.159.3004 1.384.6626 3.704.6626 6.841s-.3622 5.457-.6626 6.841c-.2909 1.341-1.4895 2.159-2.7554 2.159h-.582c-.9443 0-1.8334-.445-2.4-1.2l-2.101-2.801c-.699-.008-1.3241-.051-1.8641-.168-.6152-.133-1.1859-.374-1.6389-.827-.4529-.453-.6944-1.024-.827-1.639-.1303-.604-.169-1.314-.169-2.115z" fill="#fff"/><path d="m67.5196 128.02c-.3008.3-.5196.779-.5196 1.48s.2188 1.18.5196 1.48c.3008.301.7792.52 1.4804.52s1.1796-.219 1.4804-.52c.3008-.3.5196-.779.5196-1.48s-.2188-1.18-.5196-1.48c-.3008-.301-.7792-.52-1.4804-.52s-1.1796.219-1.4804.52zm.3619 7.592c.357-.075.7315-.112 1.1185-.112s.7615.037 1.1185.112c.2224-.224.3815-.578.3815-1.112 0-.545-.1655-.902-.3948-1.126-.3514.084-.7219.126-1.1052.126s-.7538-.042-1.1052-.126c-.2293.224-.3948.581-.3948 1.126 0 .534.1591.888.3815 1.112zm-1.3815 4.388c0-.854.2674-1.457.655-1.845.3877-.388.991-.655 1.845-.655s1.4573.267 1.845.655c.3876.388.655.991.655 1.845s-.2674 1.457-.655 1.845c-.3877.388-.991.655-1.845.655s-1.4573-.267-1.845-.655c-.3876-.388-.655-.991-.655-1.845z" fill="#6741d9" opacity=".3"/><path d="m66.8322 124.945c-.3063-.459-.9272-.583-1.3867-.277s-.5837.927-.2774 1.387l.6147.922c-.5241.695-.7826 1.57-.7826 2.523 0 1.132.3645 2.154 1.1054 2.895l.0054.005c-.4065.589-.6108 1.315-.6108 2.1 0 .732.1775 1.413.5308 1.978-.1005.083-.1973.17-.29.263-.8276.828-1.2408 1.974-1.2408 3.259s.4132 2.432 1.2408 3.259c.8276.828 1.9743 1.241 3.2592 1.241s2.4315-.413 3.2592-1.241c.8276-.827 1.2408-1.974 1.2408-3.259s-.4132-2.431-1.2408-3.259c-.0928-.093-.1895-.18-.29-.263.3533-.565.5308-1.246.5308-1.978 0-.785-.2043-1.511-.6108-2.1l.0054-.005c.7408-.741 1.1054-1.763 1.1054-2.895 0-.953-.2585-1.828-.7826-2.523l.6146-.922c.3064-.46.1822-1.081-.2773-1.387s-1.0804-.182-1.3868.277l-.5572.836c-.494-.188-1.0382-.281-1.6107-.281s-1.1167.093-1.6107.281zm.168 4.555c0-.701.2188-1.179.5196-1.48s.7792-.52 1.4804-.52 1.1796.219 1.4804.52.5196.779.5196 1.48-.2188 1.18-.5196 1.48c-.3008.301-.7792.52-1.4804.52s-1.1796-.219-1.4804-.52c-.3008-.3-.5196-.779-.5196-1.48zm2 6c-.387 0-.7615.038-1.1185.113-.2224-.225-.3815-.579-.3815-1.113 0-.545.1655-.902.3948-1.126.3513.084.7219.126 1.1052.126.3832 0 .7538-.042 1.1052-.126.2293.224.3948.581.3948 1.126 0 .534-.1591.888-.3815 1.113-.357-.075-.7315-.113-1.1185-.113zm-1.845 2.655c-.3876.388-.655.991-.655 1.845s.2674 1.457.655 1.845.991.655 1.845.655 1.4573-.267 1.845-.655c.3876-.388.655-.991.655-1.845s-.2674-1.457-.655-1.845c-.3877-.388-.991-.655-1.845-.655s-1.4574.267-1.845.655zm-4.155-10.655c0-.552-.4477-1-1-1s-1 .448-1 1v3.359c0 1.393.8206 2.656 2.0939 3.222.5046.224 1.0956-.003 1.3199-.508s-.003-1.096-.5077-1.32c-.551-.245-.9061-.791-.9061-1.394zm13-1c-.5523 0-1 .448-1 1v3.359c0 .603-.3551 1.149-.9061 1.394-.5047.224-.732.815-.5077 1.32s.8152.732 1.3199.508c1.2733-.566 2.0939-1.829 2.0939-3.222v-3.359c0-.552-.4477-1-1-1zm-15.9806 14.804c-.1083.542.2429 1.068.7845 1.177.5415.108 1.0684-.243 1.1767-.785l.6955-3.477c.1273-.637.5556-1.172 1.1489-1.436l.0811-.036c.5047-.224.732-.815.5077-1.32-.2243-.504-.8153-.732-1.3199-.507l-.0812.036c-1.1865.527-2.0432 1.597-2.2978 2.87zm17.1767 1.177c.5416-.109.8928-.635.7845-1.177l-.6955-3.478c-.2547-1.273-1.1114-2.343-2.2978-2.87l-.0812-.036c-.5047-.225-1.0956.003-1.3199.507-.2243.505.003 1.096.5077 1.32l.0811.036c.5932.264 1.0216.799 1.1489 1.436l.6955 3.477c.1083.542.6351.893 1.1767.785z" fill="#6741d9"/><path d="m109.169 126.419c.646-.111 1.382.097 2.099.813.717.717.924 1.453.813 2.099-.093.544.272 1.061.816 1.155.545.093 1.062-.272 1.155-.817.24-1.397-.28-2.761-1.37-3.851-1.089-1.089-2.454-1.61-3.851-1.37-.544.094-.91.611-.816 1.155.093.544.61.91 1.154.816zm-14.4366.813c-.7168.717-.9239 1.453-.8131 2.099.0935.544-.272 1.061-.8163 1.155-.5443.093-1.0613-.272-1.1548-.817-.24-1.397.2806-2.761 1.37-3.851 1.0894-1.089 2.4537-1.61 3.8512-1.37.5443.094.9098.611.8163 1.155-.0934.544-.6105.91-1.1548.816-.6457-.111-1.3817.097-2.0985.813zm3.1415 3.142c-1.1688 1.169-1.8737 2.897-1.8737 5.126s.7049 3.957 1.8737 5.126c1.1689 1.169 2.8971 1.874 5.1261 1.874s3.958-.705 5.126-1.874c1.169-1.169 1.874-2.897 1.874-5.126s-.705-3.957-1.874-5.126c-1.168-1.169-2.897-1.874-5.126-1.874s-3.9572.705-5.1261 1.874zm-1.4142-1.414c1.6089-1.609 3.8803-2.46 6.5403-2.46s4.932.851 6.541 2.46c1.608 1.609 2.459 3.88 2.459 6.54 0 2.268-.618 4.254-1.798 5.788l1.505 1.505c.391.391.391 1.024 0 1.414-.39.391-1.023.391-1.414 0l-1.505-1.505c-1.534 1.18-3.52 1.798-5.788 1.798s-4.2539-.618-5.7872-1.798l-1.5055 1.505c-.3906.391-1.0237.391-1.4142 0-.3906-.39-.3906-1.023 0-1.414l1.5054-1.505c-1.1798-1.534-1.7983-3.52-1.7983-5.788 0-2.66.8506-4.931 2.4595-6.54zm7.5403 2.54c0-.552-.448-1-1-1s-1 .448-1 1v3.172c0 .795.316 1.558.879 2.121l1.414 1.414c.391.391 1.024.391 1.414 0 .391-.39.391-1.023 0-1.414l-1.414-1.414c-.187-.188-.293-.442-.293-.707z" fill="#183153"/><path d="m133.001 125.5c0-.552-.448-1-1-1s-1 .448-1 1v3.206c-.088.016-.174.033-.258.051-.914.197-1.707.544-2.324 1.161s-.964 1.41-1.161 2.324c-.085.391-.144.816-.184 1.275-.047.536.388.983.927.983 1.047 0 1.793-.341 2.268-.851.189-.203.454-.319.732-.319.277 0 .543.116.732.319.474.51 1.221.851 2.268.851s1.793-.341 2.268-.851c.189-.203.454-.319.732-.319.277 0 .543.116.732.319.474.51 1.221.851 2.268.851s1.793-.341 2.268-.851c.189-.203.454-.319.732-.319.277 0 .543.116.732.319.474.51 1.221.851 2.268.851.538 0 .974-.447.927-.983-.04-.459-.1-.884-.184-1.275-.197-.914-.544-1.707-1.161-2.324s-1.411-.964-2.324-1.161c-.085-.018-.171-.035-.258-.051v-3.206c0-.552-.448-1-1-1s-1 .448-1 1v3.015c-.32-.01-.653-.015-1-.015h-2v-3c0-.552-.448-1-1-1s-1 .448-1 1v3h-2c-.347 0-.681.005-1 .015zm-5.985 12c-.018-.552.433-1 .985-1 .88 0 1.697-.173 2.408-.516.371-.18.812-.18 1.184 0 .711.343 1.528.516 2.408.516s1.697-.173 2.408-.516c.371-.18.812-.18 1.184 0 .711.343 1.528.516 2.408.516s1.697-.173 2.408-.516c.371-.18.812-.18 1.184 0 .711.343 1.528.516 2.408.516.552 0 1.003.448.984 1-.028.849-.1 1.602-.241 2.258-.197.914-.544 1.707-1.161 2.324s-1.411.964-2.324 1.161c-.903.195-1.988.257-3.258.257h-6c-1.27 0-2.355-.062-3.258-.257-.914-.197-1.707-.544-2.324-1.161s-.964-1.41-1.161-2.324c-.142-.656-.213-1.409-.242-2.258z" fill="#fff"/><path d="m168.393 131.593c-.463-.387-.88-.805-1.231-1.279 1.162.11 2.462.186 3.838.186s2.676-.076 3.838-.186c-.14.189-.29.368-.448.539-1.005 1.089-2.367 1.892-3.894 2.783l-.062.037h-.001c-.138.081-.279.163-.42.245-.504-.303-.998-.615-1.468-.949.325-.423.261-1.031-.152-1.376zm5.465 6.031c-.933-.076-1.903-.124-2.858-.124s-1.925.048-2.858.124c-.187.167-.364.341-.532.523-.827.895-1.423 1.999-1.573 3.557 1.427-.108 3.192-.204 4.963-.204s3.536.096 4.963.204c-.178-1.844-.983-3.075-2.105-4.08z" fill="#6741d9" opacity=".3"/><path d="m162.876 126.992.124-.992c-.124.992-.124.992-.124.992l.001.001h.003l.01.001.036.004c.032.004.078.01.138.017.12.014.295.034.517.058.13.013.276.029.437.045.163 2.792 1.434 4.625 3.093 6.01.424.354 1.055.297 1.409-.127s.297-1.054-.127-1.408c-1.252-1.046-2.165-2.319-2.356-4.297 1.427.108 3.192.204 4.963.204s3.536-.096 4.963-.204c-.15 1.558-.746 2.662-1.573 3.557-1.005 1.089-2.366 1.892-3.894 2.783l-.062.037c-1.457.849-3.067 1.788-4.294 3.118-1.181 1.279-1.994 2.899-2.122 5.091-.161.016-.307.032-.437.046-.222.023-.397.043-.517.057-.06.007-.106.013-.138.017l-.036.004-.01.001-.003.001h-.001s0 0 .124.992l-.124-.992c-.548.068-.937.568-.868 1.116.068.548.568.937 1.116.868h.002l.008-.001.032-.004c.029-.003.073-.008.13-.015.114-.013.283-.033.498-.056.431-.046 1.048-.108 1.789-.169 1.485-.124 3.455-.247 5.417-.247s3.932.123 5.417.247c.741.061 1.358.123 1.789.169.215.023.384.043.499.056.057.007.1.012.129.015l.032.004.008.001h.002c.548.069 1.048-.32 1.116-.868.069-.548-.32-1.048-.868-1.116l-.123.984c.123-.984.123-.984.123-.984h-.001l-.003-.001-.009-.001-.037-.004c-.031-.004-.078-.01-.138-.017-.12-.014-.295-.034-.517-.057-.13-.014-.276-.03-.437-.046-.163-2.792-1.434-4.624-3.093-6.01-.424-.354-1.054-.297-1.408.127s-.298 1.055.126 1.409c1.252 1.045 2.165 2.318 2.356 4.296-1.427-.108-3.192-.204-4.963-.204s-3.536.096-4.963.204c.151-1.558.747-2.662 1.573-3.557 1.005-1.089 2.367-1.892 3.894-2.783l.063-.037c1.456-.849 3.066-1.788 4.293-3.117 1.181-1.28 1.994-2.9 2.122-5.092.161-.016.307-.032.437-.045.222-.024.397-.044.517-.058.06-.007.107-.013.138-.017l.037-.004.009-.001h.003l.001-.001s0 0-.123-.983l.123.983c.548-.068.937-.568.868-1.116-.068-.548-.568-.937-1.116-.868h-.002l-.008.001-.032.004c-.029.003-.072.009-.129.015-.115.014-.284.033-.499.056-.431.046-1.048.108-1.789.17-1.485.123-3.455.246-5.417.246s-3.932-.123-5.417-.246c-.741-.062-1.358-.124-1.789-.17-.215-.023-.384-.042-.498-.056-.057-.006-.101-.012-.13-.015l-.032-.004-.008-.001h-.002c-.548-.069-1.048.32-1.116.868-.069.548.32 1.048.868 1.116z" fill="#6741d9"/><path d="m204.791 126.29c-.475.475-.791 1.203-.791 2.21v10c0 .396.122.624.249.751s.356.249.751.249c.396 0 .624-.122.751-.249.128-.127.249-.355.249-.751v-10c0-.552.448-1 1-1 .553 0 1 .448 1 1v10c0 .827-.267 1.598-.834 2.165-.568.568-1.339.835-2.166.835-.826 0-1.598-.267-2.165-.835-.567-.567-.835-1.338-.835-2.165v-10c0-1.438.462-2.709 1.376-3.624.915-.914 2.187-1.376 3.624-1.376 1.438 0 2.71.462 3.624 1.376.914.915 1.376 2.186 1.376 3.624v10c0 2.049-.656 3.82-1.918 5.082-1.261 1.262-3.033 1.918-5.082 1.918s-3.82-.656-5.082-1.918-1.918-3.033-1.918-5.082c0-2.945-.245-4.879-.48-6.054-.118-.587-.233-.984-.312-1.224-.04-.119-.071-.199-.089-.244-.01-.022-.016-.035-.018-.04 0-.001 0-.001 0-.001-.239-.492-.039-1.086.452-1.331.494-.247 1.095-.047 1.342.447l-.895.447c.895-.447.895-.447.895-.446l.001.001.001.002.003.006.006.012c.004.01.01.022.016.035.012.027.028.063.046.107.036.088.083.211.137.373.108.323.243.801.376 1.464.265 1.325.519 3.391.519 6.446 0 1.618.511 2.846 1.332 3.668.822.822 2.05 1.332 3.668 1.332s2.846-.51 3.668-1.332 1.332-2.05 1.332-3.668v-10c0-1.007-.316-1.735-.79-2.21-.475-.474-1.203-.79-2.21-.79s-1.735.316-2.209.79z" fill="#183153"/><path d="m247.203 125.867c-.35-.427-.98-.491-1.408-.141-.427.349-.491.979-.141 1.407 1.486 1.819 2.346 4.309 2.346 7.367s-.86 5.548-2.346 7.367c-.35.428-.286 1.058.141 1.407.428.35 1.058.286 1.408-.141 1.826-2.236 2.797-5.196 2.797-8.633s-.971-6.397-2.797-8.633zm-2.8 3.12c-.317-.452-.941-.561-1.393-.243-.452.317-.561.941-.243 1.393.777 1.108 1.233 2.573 1.233 4.363s-.456 3.256-1.233 4.363c-.318.452-.209 1.076.243 1.393.452.318 1.076.209 1.393-.243 1.052-1.498 1.597-3.382 1.597-5.513s-.545-4.015-1.597-5.513zm-16.403 5.763v-.5c0-.801.039-1.511.169-2.115.133-.615.374-1.186.827-1.639s1.024-.694 1.639-.827c.54-.116 1.165-.16 1.864-.168l2.101-2.801c.567-.755 1.456-1.2 2.4-1.2h.582c1.266 0 2.464.818 2.755 2.159.301 1.384.663 3.704.663 6.841s-.362 5.457-.663 6.841c-.291 1.341-1.489 2.159-2.755 2.159h-.582c-.944 0-1.833-.445-2.4-1.2l-2.101-2.801c-.699-.008-1.324-.051-1.864-.168-.615-.133-1.186-.374-1.639-.827s-.694-1.024-.827-1.639c-.13-.604-.169-1.314-.169-2.115z" fill="#fff"/></g><g stroke="#fff" stroke-linecap="round" stroke-width="2"><path d="m75 70c0 5 1 6 6 6h2c5 0 6-1 6-6v-6-6"/><path d="m108 70c0 5-1 6-6 6h-2c-5 0-6-1-6-6v-3m14-3c0-5-1-6-6-6h-2c-5 0-6 1-6 6v3m0 0h9"/><path d="m127 70c0 5-1 6-6 6h-2c-5 0-6-1-6-6v-6-6"/><path d="m146 70c0 5-1 6-6 6h-2c-5 0-6-1-6-6v-6-6"/><path d="m151 70c0 5 1 6 6 6h2c5 0 6-1 6-6v-11m-14-1v2.5c0 5 1 6 6 6h2c5 0 6-1 6-6v-2.5"/></g></g></g></svg>