<svg width="282" height="212" fill="none" xmlns="http://www.w3.org/2000/svg"><g clip-path="url(#clip0_3835_45342)"><g filter="url(#filter0_i_3835_45342)"><circle cx="145" cy="106" r="86" fill="#FFD43B"/></g><path d="M146.5 99L39 206.5M137 132l-35 35M130 94l-35 35" stroke="#fff" stroke-width="8" stroke-linecap="round"/><circle cx="203.5" cy="41.5" r="13.5" fill="#fff"/><path d="M164.661 87.89l-8.765-8.593c-1.547-1.719-2.063-3.953-1.032-6.016 3.094-7.219 10.657-24.234 16.844-33.172 14.094-20.797 35.063-21.484 47.438-19.078 2.062.344 3.609 1.89 3.953 3.953 2.406 12.375 1.719 33.344-19.078 47.438-9.11 6.187-26.125 13.578-33.344 16.672-2.063.86-4.469.344-6.016-1.203zm37.469-39.015c2.406 0 4.641-1.203 5.844-3.438 1.203-2.062 1.203-4.64 0-6.874-1.203-2.063-3.438-3.438-5.844-3.438a6.934 6.934 0 0 0-6.016 3.438c-1.203 2.234-1.203 4.812 0 6.874 1.204 2.235 3.438 3.438 6.016 3.438z" fill="#183153"/><path d="M136.646 67.438c-.86-1.204-.688-2.922 0-4.126l9.109-14.953c2.234-3.609 6.188-6.015 10.484-6.015h13.922c-4.812 7.906-10.312 19.765-13.75 27.156h-16.156c-1.547 0-2.922-.688-3.609-2.063zm37.984 19.937c7.563-3.266 19.25-8.594 27.156-13.406V87.89c0 4.296-2.406 8.25-6.015 10.484l-14.953 9.109c-.688.344-1.375.516-2.063.516-.859 0-1.547-.172-2.062-.516-1.375-.687-2.063-2.062-2.063-3.609v-16.5z" fill="#616D8A"/><path d="M0 57c0-11.625 7.5-21.75 18-25.313V30C18 13.5 31.313 0 48 0c11.063 0 20.813 6.188 25.875 15.188C76.688 13.124 80.25 12 84 12c9.938 0 18 8.063 18 18 0 2.438-.562 4.5-1.312 6.563C111.75 38.813 120 48.563 120 60c0 13.313-10.875 24-24 24H27C12 84 0 72 0 57zM282 185c0-11.625-7.5-21.75-18-25.312V158c0-16.5-13.312-30-30-30-11.062 0-20.812 6.188-25.875 15.188C205.312 141.125 201.75 140 198 140c-9.938 0-18 8.062-18 18 0 2.438.562 4.5 1.312 6.562C170.25 166.812 162 176.562 162 188c0 13.312 10.875 24 24 24h69c15 0 27-12 27-27z" fill="#F0F1F3"/></g><defs><filter id="filter0_i_3835_45342" x="59" y="20" width="172" height="172" filterUnits="userSpaceOnUse" color-interpolation-filters="sRGB"><feFlood flood-opacity="0" result="BackgroundImageFix"/><feBlend in="SourceGraphic" in2="BackgroundImageFix" result="shape"/><feColorMatrix in="SourceAlpha" values="0 0 0 0 0 0 0 0 0 0 0 0 0 0 0 0 0 0 127 0" result="hardAlpha"/><feOffset dx="-24" dy="-24"/><feComposite in2="hardAlpha" operator="arithmetic" k2="-1" k3="1"/><feColorMatrix values="0 0 0 0 0.921569 0 0 0 0 0.615686 0 0 0 0 0.247059 0 0 0 0.15 0"/><feBlend in2="shape" result="effect1_innerShadow_3835_45342"/></filter><clipPath id="clip0_3835_45342"><path fill="#fff" d="M0 0h282v212H0z"/></clipPath></defs></svg>