<svg fill="none" height="135" viewBox="0 0 248 135" width="248" xmlns="http://www.w3.org/2000/svg"><path d="m4 0h240v135h-240z" fill="#fff"/><g clip-rule="evenodd" fill-rule="evenodd"><path d="m30.8066 39.2412 4.902 4.657c.7237.6875 1.8591.6875 2.5828 0l4.902-4.657c.8343-.7925 1.3066-1.8927 1.3066-3.0434v-.1679c0-2.2257-1.8042-4.0299-4.0299-4.0299-.7956 0-1.5733.2355-2.2353.6768l-1.1308.7539c-.063.0419-.145.0419-.208 0l-1.1308-.7539c-.662-.4413-1.4397-.6768-2.2353-.6768-2.2257 0-4.0299 1.8042-4.0299 4.0299v.1679c0 1.1507.4723 2.2509 1.3066 3.0434zm182.8904 23.3043c-.439-.4393-1.151-.4393-1.591 0-.231.231-.576.2971-.889.2038-.544-.1622-1.12-.2493-1.717-.2493-3.314 0-6 2.6863-6 6s2.686 6 6 6 6-2.6863 6-6c0-.7193-.127-1.409-.359-2.0481-.091-.2509-.042-.5356.147-.7244.44-.4393.44-1.1517 0-1.591zm-54.697 31.3221c0-.7956-.316-1.5587-.879-2.1213l-2.367-2.3676c-.563-.5626-1.326-.8787-2.122-.8787h-3.632c-1.657 0-3 1.3431-3 3v9c0 1.657 1.343 3 3 3h6c1.657 0 3-1.343 3-3z" fill="#ff8787"/><path d="m215.5 7.5v3.75c0 2.8995-2.351 5.25-5.25 5.25s-5.25-2.3505-5.25-5.25v-2.25c0-.82843.672-1.5 1.5-1.5zm20 35c-1.657 0-3-1.3431-3-3v-2.25c0-1.6569 1.343-3 3-3h9c1.657 0 3 1.3431 3 3v2.25c0 1.6569-1.343 3-3 3zm-166.5 60.25h-6c-1.6569 0-3-1.343-3-3v-5.25c0-1.6569 1.3431-3 3-3h6c1.6569 0 3 1.3431 3 3v5.25c0 1.657-1.3431 3-3 3zm53.386-13.684-3.649 4.2222c-.257.2979-.399.6784-.399 1.0721 0 .9056.734 1.6397 1.64 1.6397h.111l-2.819 3.2887c-.255.2977-.395.6768-.395 1.0693 0 .907.735 1.642 1.642 1.642h10.216c.907 0 1.642-.735 1.642-1.642 0-.3925-.14-.7716-.395-1.0693l-2.819-3.2887h.072c.907 0 1.642-.7353 1.642-1.6424 0-.3921-.14-.7712-.395-1.0689l-3.616-4.2178c-.31-.3623-.764-.5709-1.241-.5709-.475 0-.927.2066-1.237.566zm64.679.2831-5.251.3089c-3.265.1921-5.814 2.8955-5.814 6.1657 0 3.4111 2.765 6.1763 6.176 6.1763 3.271 0 5.974-2.5491 6.166-5.8136l.309-5.2518c.053-.8966-.689-1.6382-1.586-1.5855z" fill="#63e6be"/><path d="m32.3428 3.75h10.8216c.7377 0 1.3356.59796 1.3356 1.33558 0 .1092-.0134.21799-.0399.32393l-1.0695 4.27822c-.2295.91817-1.0545 1.56227-2.0009 1.56227h-7.9782c-.0928 0-.1717-.0679-.1854-.1597l-1.0688-7.12499c-.017-.11336.0708-.21531.1855-.21531zm99.1572 3.75c0-1.65685-1.343-3-3-3h-9c-1.657 0-3 1.34315-3 3v4.5c0 1.6569 1.343 3 3 3h9c1.657 0 3-1.3431 3-3zm25.25 28.5v-4h-7.5v4c0 .3246-.105.6404-.3.9l-1.65 2.2c-.195.2596-.3.5754-.3.9v.25c0 .8284.672 1.5 1.5 1.5h9c.828 0 1.5-.6716 1.5-1.5v-.25c0-.3246-.105-.6404-.3-.9l-1.65-2.2c-.195-.2596-.3-.5754-.3-.9zm-55.75 55.1168v.3832 9 .383c0 .617-.5 1.117-1.1168 1.117-.2483 0-.4896-.083-.6856-.235l-5.8556-4.5545c-.3735-.2906-.592-.7373-.592-1.2105s.2185-.9199.592-1.2105l5.8556-4.5542c.196-.1525.4373-.2353.6856-.2353.6168 0 1.1168.5 1.1168 1.1168zm113.75 1.1332c1.657 0 3 1.3431 3 3v4.5c0 1.657-1.343 3-3 3h-7.5c-1.657 0-3-1.343-3-3v-4.5c0-1.6569 1.343-3 3-3zm-116 38h-7.5c-2.071 0-3.75-1.679-3.75-3.75 0-1.832 1.3144-3.358 3.0518-3.685.33-2.16 2.1959-3.815 4.4482-3.815 2.2524 0 4.1182 1.655 4.4482 3.815 1.7378.327 3.0518 1.853 3.0518 3.685 0 2.071-1.679 3.75-3.75 3.75z" fill="#e599f7"/><path d="m65.25 4.875c0 1.86396-1.511 3.375-3.375 3.375s-3.375-1.51104-3.375-3.375 1.511-3.375 3.375-3.375 3.375 1.51104 3.375 3.375zm0 8.25c0 1.864-1.511 3.375-3.375 3.375s-3.375-1.511-3.375-3.375 1.511-3.375 3.375-3.375 3.375 1.511 3.375 3.375zm124.25-6.375c0-1.65686-1.343-3-3-3h-9c-1.657 0-3 1.34315-3 3v6c0 1.6569 1.343 3 3 3h9c1.657 0 3-1.3431 3-3zm-186.82919 26.1584c.50818-1.0164 1.54697-1.6584 2.68328-1.6584h5.29181c1.1363 0 2.1751.642 2.6833 1.6584l1.4208 2.8416v6c0 1.6569-1.3431 3-3 3h-7.5c-1.65685 0-3-1.3431-3-3v-6zm232.45419 33.3416c1.036 0 1.875.8395 1.875 1.875v3.75c0 1.0355-.839 1.875-1.875 1.875s-1.875-.8395-1.875-1.875v-3.75c0-1.0355.839-1.875 1.875-1.875zm9.75 0c1.036 0 1.875.8395 1.875 1.875v3.75c0 1.0355-.839 1.875-1.875 1.875s-1.875-.8395-1.875-1.875v-3.75c0-1.0355.839-1.875 1.875-1.875zm-201.875 63.25c0 1.657-1.3431 3-3 3h-6c-1.6569 0-3-1.343-3-3v-9c0-1.657 1.3431-3 3-3h6c1.6569 0 3 1.343 3 3zm144.25.75h-10.5c-1.243 0-2.25-1.007-2.25-2.25v-2.818c0-.597.237-1.169.659-1.591l.841-.841v-2.25c0-1.657 1.343-3 3-3h6c1.657 0 3 1.343 3 3v2.25l.841.841c.422.422.659.994.659 1.591v2.818c0 1.243-1.007 2.25-2.25 2.25z" fill="#b197fc"/><path d="m95 45.5c4.1421 0 7.5-3.3579 7.5-7.5s-3.3579-7.5-7.5-7.5-7.5 3.3579-7.5 7.5 3.3579 7.5 7.5 7.5zm115.897 0h1.603c2.485 0 4.5-2.0147 4.5-4.5v-4.125c0-2.6924-2.183-4.875-4.875-4.875h-1.875c-1.657 0-3 1.3431-3 3v4.125l-1.196-1.4948c-.192-.2403-.483-.3802-.791-.3802h-.038c-.539 0-.975.4364-.975.9747 0 .0996.015.1986.045.2936l.881 2.7885c.788 2.4962 3.104 4.1932 5.721 4.1932zm-210.397 21.5v4.4324c0 1.28 1.03764 2.3176 2.31763 2.3176.87785 0 1.68036-.496 2.07295-1.2812l.10942-.2188c.45965-.9193 1.39924-1.5 2.42705-1.5h1.1459c1.02781 0 1.96735.5807 2.42705 1.5l.1094.2188c.3926.7852 1.1951 1.2812 2.073 1.2812 1.28 0 2.3176-1.0376 2.3176-2.3176v-4.4324c0-3.3137-2.6863-6-6-6h-3c-3.31371 0-6 2.6863-6 6zm42.5 23.75v.0018 10.4982c0 1.243-2.6863 2.25-6 2.25s-6-1.007-6-2.25v-10.5c0-1.2426 2.6863-2.25 6-2.25s6 1.0074 6 2.25zm195.842-1.5926c.6-.7291 1.716-.7291 2.316 0l.607.7377c.318.3857.806.5881 1.304.5398l.95-.0923c.94-.0913 1.73.6981 1.638 1.6379l-.092.951c-.048.4971.154.9857.54 1.3032l.738.6071c.729.6.729 1.7164 0 2.3164l-.738.6071c-.386.3174-.588.8061-.54 1.3032l.092.9505c.092.94-.698 1.73-1.638 1.638l-.95-.092c-.498-.048-.986.154-1.304.54l-.607.738c-.6.729-1.716.729-2.316 0l-.607-.738c-.318-.386-.806-.588-1.304-.54l-.95.092c-.94.092-1.73-.698-1.638-1.638l.092-.9505c.048-.4971-.154-.9858-.54-1.3032l-.738-.6071c-.729-.6-.729-1.7164 0-2.3164l.738-.6071c.386-.3174.588-.8061.54-1.3032l-.092-.951c-.092-.9398.698-1.7292 1.638-1.6379l.95.0923c.498.0483.986-.1541 1.304-.5398zm-237.59199 36.8396.00231.003.00231.002c.13265 3.611 3.1019 6.498 6.74537 6.498 3.7278 0 6.7498-3.022 6.75-6.75 0-1.461-.4737-2.882-1.35-4.05l-1.1149-1.487c-.455-.606-1.3651-.606-1.8202 0-.47096.628-1.4213.602-1.85669-.051l-.95379-1.431c-.56792-.852-1.80354-.897-2.43211-.089l-2.591 3.332c-.88929 1.143-1.38079 2.58-1.3813 4.023zm115.24999-3.997c0-1.657 1.343-3 3-3h9c1.657 0 3 1.343 3 3v6c0 1.657-1.343 3-3 3h-9c-1.657 0-3-1.343-3-3zm101.25.118c0-.796-.316-1.559-.879-2.122l-1.617-1.617c-.563-.563-1.326-.879-2.122-.879h-2.882c-1.657 0-3 1.343-3 3v7.5c0 1.657 1.343 3 3 3h4.5c1.657 0 3-1.343 3-3z" fill="#ffd43b"/><path d="m14 9c.8284 0 1.5156-.67834 1.3519-1.49042-.6912-3.42813-3.7201-6.00958-7.35191-6.00958-3.63182 0-6.66071 2.58145-7.351908 6.00958-.163737.81208.523488 1.49042 1.351908 1.49042zm86.25 5.25h-7.5c-1.6569 0-3-1.3431-3-3v-6c0-1.65685 1.3431-3 3-3h1.8678c.8409 0 1.6432.35294 2.2115.97283l.2789.30434c.5683.61989 1.3706.97283 2.2115.97283h.9303c1.657 0 3 1.34315 3 3v3.75c0 1.6569-1.343 3-3 3zm45.517-6.85449c.957-3.0612 3.792-5.14551 6.999-5.14551h.234.234c3.207 0 6.042 2.08431 6.999 5.14552l.043.13862c.149.47449.224.96874.224 1.46586s-.075.99137-.224 1.4659l-.043.1386c-.957 3.0612-3.792 5.1455-6.999 5.1455h-.234-.234c-3.207 0-6.042-2.0843-6.999-5.1455l-.043-.1386c-.149-.47453-.224-.96878-.224-1.4659s.075-.99137.224-1.46586zm94.608 9.10449c3.521 0 6.375-2.8542 6.375-6.375 0-3.52081-2.854-6.375-6.375-6.375s-6.375 2.85419-6.375 6.375c0 3.5208 2.854 6.375 6.375 6.375zm-176.625 29h-.3033c-.6609 0-1.1967-.5358-1.1967-1.1967 0-.1991.0496-.395.1445-.57l4.3733-8.0738c.2201-.4064.6451-.6595 1.1072-.6595s.8871.2531 1.1072.6595l4.3733 8.0738c.0948.175.1445.3709.1445.57 0 .6609-.5358 1.1967-1.1967 1.1967h-.3033zm60.25 0c4.142 0 7.5-3.3579 7.5-7.5s-3.358-7.5-7.5-7.5-7.5 3.3579-7.5 7.5 3.358 7.5 7.5 7.5zm58-15c2.071 0 3.75 1.6789 3.75 3.75v3c0 2.0711-1.679 3.75-3.75 3.75s-3.75-1.6789-3.75-3.75v-3c0-2.0711 1.679-3.75 3.75-3.75zm-139.3021 32.2133c-.2594-1.4264-1.5018-2.4633-2.9516-2.4633h-5.4926c-1.4498 0-2.6922 1.0369-2.9516 2.4633l-1.0037 5.5206c-.0322.177-.0484.3566-.0484.5366v1.9795c0 1.6569 1.3431 3 3 3h7.5c1.6569 0 3-1.3431 3-3v-1.9795c0-.18-.0162-.3596-.0484-.5366zm-42.1979 29.2502v8.9955c0 .512.50152.874.98717.712l3.26093-1.087c.16298-.054.33966-.051.50052.009l5.39168 2.022c.2258.085.4787.056.6794-.078l3.8463-2.5644c.2087-.1391.334-.3732.334-.624v-8.8851c0-.5575-.5867-.9201-1.0854-.6708l-3.1221 1.561c-.1865.0933-.4035.1047-.5987.0315l-5.38757-2.0204c-.19527-.0732-.41222-.0618-.59875.0315l-3.79289 1.8964c-.254088.127-.41459.3867-.41459.6708zm61.75 34.0555v-4.905c0-.6.3576-1.142.9091-1.379l1.1499-.492c.3734-.16.7755-.243 1.1818-.243h3.8397c1.1702 0 2.2335.68 2.7239 1.743l1.1867 2.571c.1706.37.2589.772.2589 1.179v1.632c0 1.036-.8395 1.875-1.875 1.875h-3.75v2.512c0 .684-.5542 1.238-1.2379 1.238-.3998 0-.775-.193-1.0074-.518l-3.1003-4.341c-.1817-.254-.2794-.559-.2794-.872zm95.25-2.295v-1.724c0-2.485-2.015-4.5-4.5-4.5s-4.5 2.015-4.5 4.5v1.724c0 .34-.116.671-.329.937l-2.428 3.035c-.157.197-.243.441-.243.694 0 .613.497 1.11 1.11 1.11h12.78c.613 0 1.11-.497 1.11-1.11 0-.253-.086-.497-.243-.694l-2.428-3.035c-.213-.266-.329-.597-.329-.937zm81.768-5.309-4.051 5.064c-.788.985-1.217 2.208-1.217 3.469 0 3.066 2.486 5.552 5.552 5.552h.896c3.066 0 5.552-2.486 5.552-5.552 0-1.261-.429-2.484-1.217-3.469l-4.051-5.064c-.375-.469-1.089-.469-1.464 0z" fill="#74c0fc"/><path d="m181.792 3.53564c.126.08398.29.08398.416 0l2.959-1.97265c.172-.11488.405-.06832.52.10401.115.17232.068.40515-.104.52003l-2.959 1.97265c-.378.25192-.87.25192-1.248 0l-2.959-1.97265c-.172-.11488-.219-.34771-.104-.52003.115-.17233.348-.21889.52-.10401zm.958 3.21437h-4.5c-.414 0-.75.33579-.75.75v4.49999c0 .4142.336.75.75.75h4.5c.414 0 .75-.3358.75-.75v-4.49999c0-.41421-.336-.75-.75-.75zm-4.5-.75c-.828 0-1.5.67157-1.5 1.5v4.49999c0 .8284.672 1.5 1.5 1.5h4.5c.828 0 1.5-.6716 1.5-1.5v-4.49999c0-.82843-.672-1.5-1.5-1.5zm8.25 1.875c0-.2071.168-.375.375-.375s.375.1679.375.375c0 .20711-.168.375-.375.375s-.375-.16789-.375-.375zm.375-1.125c-.621 0-1.125.50368-1.125 1.125s.504 1.125 1.125 1.125 1.125-.50368 1.125-1.125-.504-1.125-1.125-1.125zm-.375 4.87499c0-.2071.168-.375.375-.375s.375.1679.375.375-.168.375-.375.375-.375-.1679-.375-.375zm.375-1.125c-.621 0-1.125.5037-1.125 1.125s.504 1.125 1.125 1.125 1.125-.5037 1.125-1.125-.504-1.125-1.125-1.125zm-65.125-7.5c0-.41421.336-.75.75-.75h3c.414 0 .75.33579.75.75v1.875c0 .20711.168.375.375.375s.375-.16789.375-.375v-1.875c0-.82843-.672-1.5-1.5-1.5h-3c-.828 0-1.5.67157-1.5 1.5v1.875c0 .20711.168.375.375.375s.375-.16789.375-.375zm-2.25 1.5c0-.2071-.168-.375-.375-.375s-.375.1679-.375.375v10.5c0 .2071.168.375.375.375s.375-.1679.375-.375zm9.75 0c0-.2071-.168-.375-.375-.375s-.375.1679-.375.375v10.5c0 .2071.168.375.375.375s.375-.1679.375-.375zm-99.375-2.25c-.2071 0-.375.16789-.375.375s.1679.375.375.375h1.0707c.2776 0 .5137.20256.556.47697l1.182 7.68313c.1407.9147.9277 1.5899 1.8532 1.5899h8.0881c.2071 0 .375-.1679.375-.375s-.1679-.375-.375-.375h-8.0881c-.5553 0-1.0275-.4051-1.1119-.9539l-1.1821-7.68317c-.0985-.64028-.6494-1.11293-1.2972-1.11293zm5.625 12.75c0 .4142-.3358.75-.75.75s-.75-.3358-.75-.75.3358-.75.75-.75.75.3358.75.75zm.75 0c0 .8284-.6716 1.5-1.5 1.5s-1.5-.6716-1.5-1.5.6716-1.5 1.5-1.5 1.5.6716 1.5 1.5zm5.25.75c.4142 0 .75-.3358.75-.75s-.3358-.75-.75-.75-.75.3358-.75.75.3358.75.75.75zm0 .75c.8284 0 1.5-.6716 1.5-1.5s-.6716-1.5-1.5-1.5-1.5.6716-1.5 1.5.6716 1.5 1.5 1.5zm-33.875-9c0-.20711.16789-.375.375-.375s.375.16789.375.375v5.4375c0 .7249.58763 1.3125 1.3125 1.3125.7249 0 1.3125-.5876 1.3125-1.3125v-.5625c0-.2071.1679-.375.375-.375s.375.1679.375.375v.5625c0 1.1391-.9234 2.0625-2.0625 2.0625-1.13909 0-2.0625-.9234-2.0625-2.0625zm53.9476-2.84674c.1225-.16701.3572-.20311.5242-.08064l5.4032 3.96238 5.4033-3.96238c.167-.12247.4017-.08637.5241.08064.1225.16702.0864.40169-.0806.52417l-5.2126 3.8226 5.2126 3.82257c.167.1225.2031.3572.0806.5242-.1224.167-.3571.2031-.5241.0806l-5.4033-3.96235-5.4032 3.96235c-.167.1225-.4017.0864-.5242-.0806s-.0863-.4017.0807-.5242l5.2126-3.82257-5.2126-3.8226c-.167-.12248-.2032-.35715-.0807-.52417zm37.1774 11.47174c0 .2071-.1679.375-.375.375h-9c-1.864 0-3.375-1.511-3.375-3.375v-6c0-1.44975 1.1753-2.625 2.625-2.625.2071 0 .375.16789.375.375s-.1679.375-.375.375c-1.0355 0-1.875.83946-1.875 1.875v6c0 1.4497 1.1753 2.625 2.625 2.625h9c.2071 0 .375.1679.375.375zm-9.375-9.75c0-.20711.1679-.375.375-.375h13.5c.207 0 .375.16789.375.375 0 .2071-.168.375-.375.375h-13.5c-.2071 0-.375-.1679-.375-.375zm63.625-4.125c-4.849 0-6.775 3.79167-7.131 5.69411-.039.20356-.235.33764-.438.29947-.204-.03817-.338-.23413-.3-.43769.394-2.09755 2.518-6.30589 7.869-6.30589s7.475 4.20834 7.869 6.30589c.038.20356-.096.39952-.3.43769-.203.03817-.399-.09591-.438-.29947-.356-1.90244-2.282-5.69411-7.131-5.69411zm0 9c1.243 0 2.25-1.0074 2.25-2.25 0-1.24264-1.007-2.25-2.25-2.25s-2.25 1.00736-2.25 2.25c0 1.2426 1.007 2.25 2.25 2.25zm0 .75c1.657 0 3-1.3431 3-3 0-1.65685-1.343-3-3-3s-3 1.34315-3 3c0 1.6569 1.343 3 3 3zm54.25-10.125c0-.20711-.168-.375-.375-.375s-.375.16789-.375.375v.19302c0 .69619.277 1.36387.769 1.85616l.182.18198c.351.35163.549.82854.549 1.32582v.19302c0 .20711.168.375.375.375s.375-.16789.375-.375v-.19302c0-.69619-.277-1.36387-.769-1.85615l-.182-.18198c-.351-.35163-.549-.82855-.549-1.32583zm7.875 5.625c-.207 0-.375.1679-.375.375 0 .20711.168.375.375.375h.375c1.243 0 2.25 1.00736 2.25 2.25 0 1.2426-1.007 2.25-2.25 2.25h-.375c-.207 0-.375.1679-.375.375s.168.375.375.375h.375c1.657 0 3-1.3431 3-3 0-1.65685-1.343-3-3-3zm-4.5-6c.207 0 .375.16789.375.375v.19302c0 .49728.198.9742.549 1.32583l.182.18198c.492.49228.769 1.15996.769 1.85615v.19302c0 .20711-.168.375-.375.375s-.375-.16789-.375-.375v-.19302c0-.49728-.198-.97419-.549-1.32582l-.182-.18198c-.492-.49229-.769-1.15997-.769-1.85616v-.19302c0-.20711.168-.375.375-.375zm27.875 0c-.207 0-.375.16789-.375.375s.168.375.375.375h1.5v1.5c0 .20711.168.375.375.375s.375-.16789.375-.375v-1.5h1.5c.207 0 .375-.16789.375-.375s-.168-.375-.375-.375h-1.875zm7.765 3.26517c.147-.14645.147-.38389 0-.53033-.146-.14645-.384-.14645-.53 0l-1.5 1.5c-.147.14644-.147.38388 0 .53033.146.14644.384.14644.53 0zm-5.515 1.98483c0-.20711-.168-.375-.375-.375s-.375.16789-.375.375v3.75c0 .2071.168.375.375.375s.375-.1679.375-.375zm-239.5 28.5312c.20711 0 .375.1679.375.375 0 .7249.58763 1.3125 1.3125 1.3125s1.3125-.5876 1.3125-1.3125h.75c0 .7249.58763 1.3125 1.3125 1.3125s1.3125-.5876 1.3125-1.3125h.75c0 .7249.58763 1.3125 1.31251 1.3125.72489 0 1.31249-.5876 1.31249-1.3125h.75c0 .7249.5876 1.3125 1.3125 1.3125s1.3125-.5876 1.3125-1.3125c0-.2071.1679-.375.375-.375s.375.1679.375.375c0 1.1391-.9234 2.0625-2.0625 2.0625-.6975 0-1.3142-.3462-1.6875-.8763-.3733.5301-.9899.8763-1.68749.8763-.69756 0-1.31424-.3462-1.68751-.8763-.37326.5301-.98994.8763-1.6875.8763s-1.31424-.3462-1.6875-.8763c-.37326.5301-.98994.8763-1.6875.8763-1.13909 0-2.0625-.9234-2.0625-2.0625 0-.2071.16789-.375.375-.375zm5.62501 4.9688c-.62132 0-1.125.5037-1.125 1.125v3.375c0 .2071-.1679.375-.375.375-.20711 0-.375-.1679-.375-.375v-3.375c0-1.0355.83946-1.875 1.875-1.875h2.25c1.03549 0 1.87499.8395 1.87499 1.875v3.375c0 .2071-.1679.375-.375.375s-.375-.1679-.375-.375v-3.375c0-.6213-.50367-1.125-1.12499-1.125zm26.65489-6c-.983 0-1.7799.7969-1.7799 1.7799v.1679c0 .5339.2192 1.0445.6063 1.4122.1501.1426.1562.38.0136.5302-.1427.1501-.38.1562-.5302.0135-.5361-.5093-.8397-1.2164-.8397-1.9559v-.1679c0-1.3972 1.1327-2.5299 2.5299-2.5299.4994 0 .9877.1478 1.4033.4249.1723.1149.2189.3477.104.52s-.3477.2189-.5201.104c-.2923-.1949-.6359-.2989-.9872-.2989zm29.0679-3.75c.2071 0 .375.1679.375.375v1.125h2.2772 1.1462c.2071 0 .375.1679.375.375s-.1679.375-.375.375h-.8419l-.1573.7483c-.3615 1.7196-1.2327 3.2615-2.4661 4.4463.8028.6705 1.7635 1.1577 2.8196 1.4014l.7088.1636c.2018.0466.3276.2479.2811.4497-.0466.2018-.2479.3277-.4498.2811l-.7088-.1636c-1.212-.2797-2.311-.8482-3.2202-1.6316-.6074.4885-1.285.8978-2.0191 1.2111l-1.3203.5636c-.1905.0813-.4108-.0072-.4921-.1977s.0072-.4108.1977-.4921l1.3203-.5636c.639-.2727 1.2311-.6251 1.7654-1.0438-.8403-.8858-1.4673-1.9781-1.8003-3.199-.0545-.1998.0633-.406.2631-.4605s.406.0633.4605.2631c.3029 1.1109.8764 2.1035 1.645 2.9056 1.1419-1.0855 1.9483-2.5042 2.2813-4.0879l.1248-.594h-2.1901-3.7228c-.2071 0-.375-.1679-.375-.375s.1679-.375.375-.375h3.3478v-1.125c0-.2071.1679-.375.375-.375zm30.7147 5.25c0 .3107-.2518.5625-.5625.5625s-.5625-.2518-.5625-.5625.2518-.5625.5625-.5625.5625.2518.5625.5625zm4.5 0c0 .3107-.2518.5625-.5625.5625s-.5625-.2518-.5625-.5625.2518-.5625.5625-.5625.5625.2518.5625.5625zm1.3125 2.625c0-.2071-.1679-.375-.375-.375h-7.5c-.2071 0-.375.1679-.375.375 0 2.2782 1.8468 4.125 4.125 4.125s4.125-1.8468 4.125-4.125zm-4.125 3.375c-1.7372 0-3.1679-1.3125-3.3544-3h6.7088c-.1865 1.6875-1.6172 3-3.3544 3zm31.741-7.4754c.622-.2666 1.251.3625.984.9848l-1.526 3.5611c-.265.6196-.759 1.1132-1.378 1.3787l-3.562 1.5262c-.622.2667-1.251-.3625-.984-.9848l1.526-3.5611c.265-.6195.759-1.1132 1.379-1.3787zm.295.6894-3.561 1.5262c-.443.1896-.795.5423-.985.9848l-1.526 3.561 3.561-1.5261c.443-.1897.795-.5423.985-.9848zm-3.036 2.4735c.311 0 .563.2519.563.5625 0 .3107-.252.5625-.563.5625s-.562-.2518-.562-.5625c0-.3106.251-.5625.562-.5625zm33.5-6.1875c.207 0 .375.1679.375.375s-.168.375-.375.375h-9c-.207 0-.375-.1679-.375-.375s.168-.375.375-.375zm-4.875 6c0-.2071.168-.375.375-.375s.375.1679.375.375v7.125c0 .2071-.168.375-.375.375s-.375-.1679-.375-.375zm22.14-7.0152c-.146-.1464-.384-.1464-.53 0-.147.1465-.147.3839 0 .5304l15 15c.146.1464.384.1464.53 0 .147-.1465.147-.3839 0-.5304zm8.762 7.0152c-.1 0-.195-.0395-.266-.1098-.236-.2363-.068-.6402.266-.6402h2.223c.207 0 .375.1679.375.375s-.168.375-.375.375zm-6.881-2.4825c.042.0423.081.0903.095.1485.006.027.009.0551.009.084v2.25c0 2.8995 2.351 5.25 5.25 5.25.613 0 1.202-.1052 1.749-.2984.147-.0518.311-.0199.421.09.189.1887.133.507-.118.5983-.528.1923-1.091.3124-1.677.3486v1.5115h3c.207 0 .375.1679.375.375s-.168.375-.375.375h-6.75c-.207 0-.375-.1679-.375-.375s.168-.375.375-.375h3v-1.5115c-3.139-.1936-5.625-2.8007-5.625-5.9885v-2.25c0-.2071.168-.375.375-.375.029 0 .057.0033.084.0094.058.0134.106.0521.148.0944zm10.474 5.6125c-.122.1994-.397.2214-.563.0559-.129-.1291-.146-.3313-.052-.4879.473-.7885.745-1.7115.745-2.698v-2.25c0-.2071.168-.375.375-.375s.375.1679.375.375v2.25c0 1.1469-.322 2.2187-.88 3.13zm-5.12-5.755c0-.2071.168-.375.375-.375h3.375c.207 0 .375.1679.375.375s-.168.375-.375.375h-3.375c-.207 0-.375-.1679-.375-.375zm27.875-3c.207 0 .375.1679.375.375v6.375c0 .2071-.168.375-.375.375s-.375-.1679-.375-.375v-6.375c0-.2071.168-.375.375-.375zm2.25 0c.207 0 .375.1679.375.375v6.375c0 .2071-.168.375-.375.375s-.375-.1679-.375-.375v-6.375c0-.2071.168-.375.375-.375zm2.625 1.125c0-.2071-.168-.375-.375-.375s-.375.1679-.375.375v5.625c0 .2071.168.375.375.375s.375-.1679.375-.375zm22.25-.75c0-.4142.336-.75.75-.75h4.5c.414 0 .75.3358.75.75v2.25c0 .2071.168.375.375.375s.375-.1679.375-.375v-2.25c0-.8284-.672-1.5-1.5-1.5h-4.5c-.828 0-1.5.6716-1.5 1.5v2.25c0 .2071.168.375.375.375s.375-.1679.375-.375zm6 8.25c.414 0 .75.3358.75.75v3c0 .4142-.336.75-.75.75h-6c-.414 0-.75-.3358-.75-.75v-3c0-.4142.336-.75.75-.75zm0-.75c.828 0 1.5.6716 1.5 1.5v3c0 .8284-.672 1.5-1.5 1.5h-6c-.828 0-1.5-.6716-1.5-1.5v-3c0-.8284.672-1.5 1.5-1.5zm-8.25-2.8125c.311 0 .562.2518.562.5625s-.251.5625-.562.5625-.562-.2518-.562-.5625.251-.5625.562-.5625zm-224.875 28.8125c.2071 0 .375-.1679.375-.375s-.1679-.375-.375-.375-.375.1679-.375.375.1679.375.375.375zm0 .75c.6213 0 1.125-.5037 1.125-1.125s-.5037-1.125-1.125-1.125c-.62132 0-1.125.5037-1.125 1.125s.50368 1.125 1.125 1.125zm-4.875-1.5c0-.2071-.16789-.375-.375-.375s-.375.1679-.375.375v1.5h-1.5c-.20711 0-.375.1679-.375.375s.16789.375.375.375h1.5v1.5c0 .2071.16789.375.375.375s.375-.1679.375-.375v-1.5h1.5c.20711 0 .375-.1679.375-.375s-.16789-.375-.375-.375h-1.5zm7.5 3.375c0 .2071-.1679.375-.375.375s-.375-.1679-.375-.375.1679-.375.375-.375.375.1679.375.375zm.75 0c0 .6213-.5037 1.125-1.125 1.125s-1.125-.5037-1.125-1.125.5037-1.125 1.125-1.125 1.125.5037 1.125 1.125zm17 .375c-.2071 0-.375.1679-.375.375s.1679.375.375.375h.0095.0095.0095.0096.0096.0096.0097.0097.0098.0097.0099.0098.0099.01.0099.01.0101.01.0101.0102.0101.0102.0103.0102.0103.0104.0103.0104.0104.0105.0105.0105.0106.0106.0106.0106.0107.0107.0107.0108.0108.0108.0108.0109.0109.011.0109.011.011.0111.011.0111.0112.0111.0112.0112.0112.0113.0112.0113.0114.0113.0114.0114.0114.0114.0115.0115.0115.0116.0115.0116.0116.0116.0117.0117.0116.0118.0117.0117.0118.0118.0118.0118.0119.0119.0119.0119.0119.0119.012.012.012.012.012.0121.0121.012.0121.0121.0122.0121.0122.0122.0122.0122.0122.0122.0123.0122.0123.0123.0123.0123.0124.0123.0124.0123.0124.0124.0124.0124.0124.0125.0124.0125.0124.0125.0125.0125.0125.0125.0125.0126.0125.0126.0125.0126.0126.0125.0126.0126.0126.0126.0126.0126.0127.0126.0126.0127.0126.0127.0126.0127.0126.0127.0127.0126.0127.0127.0127.0127.0126.0127.0127.0127.0127.0127.0127.0127.0127.0127.0127.0127.0127.0127.0127.0126.0127.0127.0127.0127.0127.0127.0126.0127.0127.0127.0126.0127.0126.0127.0127.0126.0126.0127.0126.0126.0126.0127.0126.0126.0126.0125.0126.0126.0126.0125.0126.0125.0126.0125.0125.0125.0125.0125.0125.0124.0125.0124.0125.0124.0124.0124.0124.0124.0124.0123.0124.0123.0123.0123.0123.0123.0123.0122.0123.0122.0122.0122.0122.0122.0121.0122.0121.0121.0121.012.0121.012.0121.012.0119.012.012.0119.0119.0119.0119.0118.0119.0118.0118.0118.0117.0118.0117.0117.0116.0117.0116.0116.0116.0116.0115.0116.0115.0114.0115.0114.0114.0114.0114.0113.0113.0113.0112.0113.0112.0112.0111.0111.0112.011.0111.011.011.011.0109.0109.0109.0109.0108.0108.0108.0107.0107.0107.0106.0107.0105.0106.0105.0105.0105.0104.0104.0104.0104.0103.0102.0103.0102.0102.0101.0101.0101.0101.01.0099.01.0099.0098.0099.0098.0097.0098.0097.0096.0096.0096.0095.0096.0094.0095.0093.0094.0093.0093.0092.0092.0092.0091.0091.009.009.009.0089.0089.0088.0088.0088.0087.0087.0086.0086.0085.0085.0085.0084.0084.0083.0083.0082.0082.0081.0082.008.008.008.0079.0079.0078.0078.0078.0076.0077.0076.0075.0075.0075.0074.0074.0073.0072.0072.0072.0071.0071.007.007.0069.0068.0068.0068.0067.0011c0 1.2426 1.0074 2.25 2.25 2.25s2.25-1.0074 2.25-2.25h4.5c.2071 0 .375-.1679.375-.375s-.1679-.375-.375-.375h-4.875c-.2071 0-.375.1679-.375.375v.375c0 .8284-.6716 1.5-1.5 1.5s-1.5-.6716-1.5-1.5v-.375c0-.2071-.1679-.375-.375-.375h-.0001-.0002-.0003-.0003-.0004-.0005-.0006-.0006-.0007-.0008-.0008-.0009-.001-.0011-.0011-.0012-.0013-.0013-.0014-.0015-.0016-.0016-.0017-.0018-.0018-.0019-.002-.002-.0021-.0022-.0023-.0023-.0023-.0025-.0025-.0026-.0026-.0027-.0028-.0029-.0029-.003-.003-.0031-.0032-.0032-.0033-.0034-.0034-.0035-.0036-.0036-.0037-.0037-.0038-.0039-.0039-.004-.0041-.0041-.0042-.0042-.0043-.0044-.0044-.0045-.0045-.0046-.0047-.0047-.0048-.0048-.0049-.005-.005-.0051-.0051-.0052-.0052-.0053-.0054-.0054-.0055-.0055-.0056-.0056-.0057-.0058-.0058-.0058-.0059-.006-.006-.0061-.0061-.0062-.0063-.0063-.0063-.0064-.0065-.0065-.0065-.0066-.0067-.0067-.0068-.0068-.0068-.0069-.007-.007-.0071-.0071-.0072-.0072-.0072-.0073-.0074-.0074-.0075-.0075-.0075-.0076-.0077-.0076-.0078-.0078-.0078-.0079-.0079-.008-.008-.008-.0082-.0081-.0082-.0082-.0083-.0083-.0084-.0084-.0085-.0085-.0085-.0086-.0086-.0087-.0087-.0088-.0088-.0088-.0089-.0089-.009-.009-.009-.0091-.0091-.0092-.0092-.0092-.0093-.0093-.0094-.0093-.0095-.0094-.0096-.0095-.0096-.0096-.0096-.0097-.0098-.0097-.0098-.0099-.0098-.0099-.01-.0099-.01-.0101-.0101-.0101-.0101-.0102-.0102-.0103-.0102-.0103-.0104-.0104-.0104-.0104-.0105-.0105-.0105-.0106-.0105-.0107-.0106-.0107-.0107-.0107-.0108-.0108-.0108-.0109-.0109-.0109-.0109-.011-.011-.011-.0111-.011-.0112-.0111-.0111-.0112-.0112-.0113-.0112-.0113-.0113-.0113-.0114-.0114-.0114-.0114-.0115-.0114-.0115-.0116-.0115-.0116-.0116-.0116-.0116-.0117-.0116-.0117-.0117-.0118-.0117-.0118-.0118-.0118-.0119-.0118-.0119-.0119-.0119-.0119-.012-.012-.0119-.012-.0121-.012-.0121-.012-.0121-.0121-.0121-.0122-.0121-.0122-.0122-.0122-.0122-.0122-.0123-.0122-.0123-.0123-.0123-.0123-.0123-.0123-.0124-.0123-.0124-.0124-.0124-.0124-.0124-.0124-.0125-.0124-.0125-.0124-.0125-.0125-.0125-.0125-.0125-.0125-.0126-.0125-.0126-.0125-.0126-.0126-.0126-.0125-.0126-.0126-.0126-.0127-.0126-.0126-.0126-.0127-.0126-.0126-.0127-.0127-.0126-.0127-.0126-.0127-.0127-.0127-.0126-.0127-.0127-.0127-.0127-.0127-.0127-.0126-.0127-.0127-.0127-.0127-.0127-.0127-.0127-.0127-.0127-.0127-.0127-.0127-.0127-.0127-.0126-.0127-.0127-.0127-.0127-.0126-.0127-.0127-.0126-.0127-.0126-.0127-.0126-.0127-.0126-.0126-.0127-.0126-.0126-.0126-.0126-.0126-.0126-.0125-.0126-.0126-.0125-.0126-.0125-.0126-.0125-.0125-.0125-.0125-.0125-.0125-.0124-.0125-.0124-.0125-.0124-.0124-.0124-.0124-.0124-.0123-.0124-.0123-.0124-.0123-.0123-.0123-.0123-.0122-.0123-.0122-.0122-.0122-.0122-.0122-.0122-.0121-.0122-.0121-.0121-.012-.0121-.0121-.012-.012-.012-.012-.012-.0119-.0119-.0119-.0119-.0119-.0119-.0118-.0118-.0118-.0118-.0117-.0117-.0118-.0116-.0117-.0117-.0116-.0116-.0116-.0115-.0116-.0115-.0115-.0115-.0114-.0114-.0114-.0114-.0113-.0114-.0113-.0112-.0113-.0112-.0112-.0112-.0111-.0112-.0111-.011-.0111-.011-.011-.0109-.011-.0109-.0109-.0108-.0108-.0108-.0108-.0107-.0107-.0107-.0106-.0106-.0106-.0106-.0105-.0105-.0105-.0104-.0104-.0103-.0104-.0103-.0102-.0103-.0102-.0101-.0102-.0101-.01-.0101-.01-.0099-.01-.0099-.0098-.0099-.0097-.0098-.0097-.0097-.0096-.0096-.0096-.0095-.0095zm184.235-8.5152c-.147.1465-.147.3839 0 .5304l.75.75c.146.1464.384.1464.53 0 .147-.1465.147-.3839 0-.5304l-.75-.75c-.146-.1464-.384-.1464-.53 0zm2.25 1.2804c.146.1464.384.1464.53 0l.75-.75c.147-.1465.147-.3839 0-.5304-.146-.1464-.384-.1464-.53 0l-.75.75c-.147.1465-.147.3839 0 .5304zm-2.625 2.625c.146.1464.384.1464.53 0l1.125-1.125c.147-.1465.147-.3839 0-.5304-.146-.1464-.384-.1464-.53 0l-1.125 1.125c-.147.1465-.147.3839 0 .5304zm2.625-1.125c-.147-.1465-.147-.3839 0-.5304.146-.1464.384-.1464.53 0l.75.75c.147.1465.147.3839 0 .5304-.146.1464-.384.1464-.53 0zm-11.36 5.7348c0 .2071.168.375.375.375s.375-.1679.375-.375c0-1.864 1.511-3.375 3.375-3.375.207 0 .375-.1679.375-.375s-.168-.375-.375-.375c-2.278 0-4.125 1.8468-4.125 4.125zm40.625 1.125c0 .2071.168.375.375.375s.375-.1679.375-.375v-3.375c0-3.7279-3.022-6.75-6.75-6.75s-6.75 3.0221-6.75 6.75v3.375c0 .2071.168.375.375.375s.375-.1679.375-.375v-3.375c0-3.3137 2.686-6 6-6s6 2.6863 6 6zm-240.625 19.8125c0-.2071-.16789-.375-.375-.375s-.375.1679-.375.375v11.0625c0 .207.16789.375.375.375s.375-.168.375-.375zm6 2.0625c0-.2071-.1679-.375-.375-.375s-.375.1679-.375.375v11.25c0 .207.1679.375.375.375s.375-.168.375-.375zm19.3653 1.6045c.1494-.1435.3868-.1386.5302.0108.3715.3871 1.1013.7598 2.1224 1.0336 1.008.2703 2.2536.432 3.6071.432s2.5991-.1617 3.6071-.432c1.0211-.2738 1.7509-.6465 2.1224-1.0336.1434-.1494.3808-.1543.5302-.0108.1494.1434.1543.3808.0108.5302-.5132.5347-1.4021.9525-2.4691 1.2386-1.0801.2897-2.392.4576-3.8014.4576s-2.7213-.1679-3.8014-.4576c-1.067-.2861-1.9559-.7039-2.4691-1.2386-.1435-.1494-.1386-.3868.0108-.5302zm0 4.5c.1494-.1435.3868-.1386.5302.0108.3715.3871 1.1013.7598 2.1224 1.0336 1.008.2703 2.2536.432 3.6071.432s2.5991-.1617 3.6071-.432c1.0211-.2738 1.7509-.6465 2.1224-1.0336.1434-.1494.3808-.1543.5302-.0108.1494.1434.1543.3808.0108.5302-.5132.5347-1.4021.9525-2.4691 1.2386-1.0801.2897-2.392.4576-3.8014.4576s-2.7213-.1679-3.8014-.4576c-1.067-.2861-1.9559-.7039-2.4691-1.2386-.1435-.1494-.1386-.3868.0108-.5302zm30.0097-7.6045h10.5c.4142 0 .75.3358.75.75v2.25c0 .4142-.3358.75-.75.75h-10.5c-.4142 0-.75-.3358-.75-.75v-2.25c0-.4142.3358-.75.75-.75zm-1.5.75c0-.8284.6716-1.5 1.5-1.5h10.5c.8284 0 1.5.6716 1.5 1.5v2.25c0 .8284-.6716 1.5-1.5 1.5h-10.5c-.8284 0-1.5-.6716-1.5-1.5zm3.375 5.25c-.2071 0-.375.1679-.375.375s.1679.375.375.375h6.75c.2071 0 .375-.1679.375-.375s-.1679-.375-.375-.375zm33.125-4.5v-.3832c0-.2026-.1642-.3668-.3668-.3668-.0816 0-.1608.0272-.2252.0773l-5.8555 4.5543c-.1909.1484-.3025.3766-.3025.6184s.1116.47.3025.6184l5.8555 4.5546c.0644.05.1436.077.2252.077.2026 0 .3668-.164.3668-.367v-.383zm.75 0v-.3832c0-.6168-.5-1.1168-1.1168-1.1168-.2484 0-.4896.0828-.6857.2353l-5.8555 4.5542c-.3735.2906-.592.7373-.592 1.2105s.2185.9199.592 1.2105l5.8555 4.5545c.1961.152.4373.235.6857.235.6168 0 1.1168-.5 1.1168-1.117v-.383zm27.491.375c0-.202-.164-.3658-.366-.3658s-.366.1638-.366.3658v3.9788l-1.244-1.244c-.146-.1464-.384-.1464-.53 0-.147.1465-.147.3839 0 .5304l1.774 1.7743v6.2105c0 .202.164.366.366.366s.366-.164.366-.366v-3.1755l2.477-1.7693c.168-.1204.208-.3546.087-.5232-.12-.1685-.354-.2075-.523-.0871l-2.041 1.4579zm30.134-3.75c.207 0 .375.1679.375.375v1.875c0 1.4497 1.175 2.625 2.625 2.625h1.875c.207 0 .375.1679.375.375s-.168.375-.375.375h-1.875c-1.864 0-3.375-1.511-3.375-3.375v-1.875c0-.2071.168-.375.375-.375zm-4.125 8.25c0-.2071.168-.375.375-.375h5.25c.207 0 .375.1679.375.375s-.168.375-.375.375h-5.25c-.207 0-.375-.1679-.375-.375zm0 3c0-.2071.168-.375.375-.375h5.25c.207 0 .375.1679.375.375s-.168.375-.375.375h-5.25c-.207 0-.375-.1679-.375-.375zm31.25-6c0-.2071-.168-.375-.375-.375s-.375.1679-.375.375v3.5947l-4.765 4.7653c-.147.146-.147.384 0 .53.146.147.384.147.53 0l8.25-8.2498c.147-.1465.147-.3839 0-.5304-.146-.1464-.384-.1464-.53 0l-2.735 2.7349zm27.316-3.375c.43 0 .824.2428 1.015.6255l.812 1.6245h-1.831c-.621 0-1.124-.5037-1.124-1.125 0-.62.506-1.125 1.128-1.125zm1.269 5.7927 1.165-2.3292 1.165 2.3292c.092.1853.317.2603.503.1677.185-.0926.26-.3179.167-.5031l-1.228-2.4573h.143 1.688c1.035 0 1.874-.8395 1.874-1.875 0-1.0368-.844-1.875-1.878-1.875-.712 0-1.367.402-1.686 1.04l-.748 1.4965-.748-1.4965c-.319-.638-.974-1.04-1.686-1.04-1.034 0-1.878.8382-1.878 1.875 0 1.0355.839 1.875 1.874 1.875h1.831l-1.228 2.4573c-.093.1852-.018.4105.167.5031.186.0926.411.0176.503-.1677zm3.603-3.5427h-1.688-.143l.812-1.6245c.191-.3827.585-.6255 1.015-.6255.622 0 1.128.505 1.128 1.125 0 .6213-.503 1.125-1.124 1.125zm26.562 6.75c1.657 0 3-1.3431 3-3s-1.343-3-3-3-3 1.3431-3 3 1.343 3 3 3zm0 .75c2.071 0 3.75-1.6789 3.75-3.75s-1.679-3.75-3.75-3.75-3.75 1.6789-3.75 3.75 1.679 3.75 3.75 3.75zm-234.28304 26.161 2.139-2.567c.07496-.09.21312-.09.28809 0l2.13895 2.567c.4448.534.6617 1.221.604 1.913-.1142 1.371-1.26034 2.426-2.63614 2.426h-.50172c-1.37579 0-2.52192-1.055-2.63617-2.426-.05769-.692.15926-1.379.60399-1.913zm-.57617-.48 2.13901-2.567c.3748-.45 1.0656-.45 1.44041 0l2.13899 2.567c.5708.685.8493 1.567.7752 2.456-.1466 1.759-1.6177 3.113-3.38354 3.113h-.50172c-1.76586 0-3.23694-1.354-3.38358-3.113-.07405-.889.20441-1.771.77523-2.456zm28.10921-4.556c0-.621.5037-1.125 1.125-1.125h.75c.6213 0 1.125.504 1.125 1.125v.75c0 .621-.5037 1.125-1.125 1.125h-.75c-.6213 0-1.125-.504-1.125-1.125zm1.125-.375c-.2071 0-.375.168-.375.375v.75c0 .207.1679.375.375.375h.75c.2071 0 .375-.168.375-.375v-.75c0-.207-.1679-.375-.375-.375zm3.375.375c0-.621.5037-1.125 1.125-1.125h.75c.6213 0 1.125.504 1.125 1.125v.75c0 .621-.5037 1.125-1.125 1.125h-.75c-.6213 0-1.125-.504-1.125-1.125zm1.125-.375c-.2071 0-.375.168-.375.375v.75c0 .207.1679.375.375.375h.75c.2071 0 .375-.168.375-.375v-.75c0-.207-.1679-.375-.375-.375zm-4.5 3.75c-.6213 0-1.125.504-1.125 1.125v.75c0 .621.5037 1.125 1.125 1.125h.75c.6213 0 1.125-.504 1.125-1.125v-.75c0-.621-.5037-1.125-1.125-1.125zm-.375 1.125c0-.207.1679-.375.375-.375h.75c.2071 0 .375.168.375.375v.75c0 .207-.1679.375-.375.375h-.75c-.2071 0-.375-.168-.375-.375zm3.75 0c0-.621.5037-1.125 1.125-1.125h.75c.6213 0 1.125.504 1.125 1.125v.75c0 .621-.5037 1.125-1.125 1.125h-.75c-.6213 0-1.125-.504-1.125-1.125zm1.125-.375c-.2071 0-.375.168-.375.375v.75c0 .207.1679.375.375.375h.75c.2071 0 .375-.168.375-.375v-.75c0-.207-.1679-.375-.375-.375zm-2.625 5.25c0-.414.3358-.75.75-.75s.75.336.75.75v2.25c0 .207.1679.375.375.375s.375-.168.375-.375v-2.25c0-.828-.6716-1.5-1.5-1.5s-1.5.672-1.5 1.5v2.25c0 .207.1679.375.375.375s.375-.168.375-.375zm24.125-3h1.5c.6213 0 1.125-.504 1.125-1.125v-5.25c0-.621-.5037-1.125-1.125-1.125h-1.5c-.6213 0-1.125.504-1.125 1.125v5.25c0 .621.5037 1.125 1.125 1.125zm-1.875-1.125c0 1.036.8395 1.875 1.875 1.875h1.5c1.0355 0 1.875-.839 1.875-1.875v-5.25c0-1.036-.8395-1.875-1.875-1.875h-1.5c-1.0355 0-1.875.839-1.875 1.875zm13.125-1.125c-.2071 0-.375-.168-.375-.375s.1679-.375.375-.375h1.875c.2071 0 .375.168.375.375s-.1679.375-.375.375zm-1.125-3.375c0 .207.1679.375.375.375h1.5c.2071 0 .375-.168.375-.375s-.1679-.375-.375-.375h-1.5c-.2071 0-.375.168-.375.375zm20.5286.756c.4876-1.734 2.0814-3.006 3.9714-3.006 2.0436 0 3.7407 1.486 4.068 3.437.0343.204.2276.342.4319.308.2042-.034.342-.228.3077-.432-.3868-2.306-2.3916-4.063-4.8076-4.063-2.3508 0-4.3124 1.664-4.7728 3.878-1.7834.455-3.1022 2.072-3.1022 3.997 0 .207.1679.375.375.375s.375-.168.375-.375c0-1.864 1.511-3.375 3.375-3.375.7604 0 1.461.251 2.0251.675.1656.124.4007.091.5251-.075.1244-.165.091-.4-.0746-.525-.6895-.518-1.5472-.825-2.4756-.825-.0427 0-.0853.001-.1278.002-.0313.001-.0625.002-.0936.004zm61.5964-2.631c-1.036 0-1.875.839-1.875 1.875 0 .207-.168.375-.375.375s-.375-.168-.375-.375c0-1.45 1.175-2.625 2.625-2.625.207 0 .375.168.375.375s-.168.375-.375.375zm2.494 10.521c.195.069.298.284.229.479-.361 1.019-1.332 1.75-2.476 1.75-1.143 0-2.115-.731-2.475-1.75-.07-.195.033-.41.228-.479s.41.034.479.229c.257.729.952 1.25 1.768 1.25s1.511-.521 1.768-1.25c.069-.195.284-.298.479-.229zm29.881-10.521c.414 0 .75.336.75.75v1.5c0 .414-.336.75-.75.75h-6c-.414 0-.75-.336-.75-.75v-1.5c0-.414.336-.75.75-.75zm-7.5.75c0-.828.672-1.5 1.5-1.5h6c.828 0 1.5.672 1.5 1.5v1.5c0 .828-.672 1.5-1.5 1.5h-6c-.828 0-1.5-.672-1.5-1.5zm.75 6c0 .414-.336.75-.75.75s-.75-.336-.75-.75.336-.75.75-.75.75.336.75.75zm.75 0c0 .828-.672 1.5-1.5 1.5s-1.5-.672-1.5-1.5.672-1.5 1.5-1.5 1.5.672 1.5 1.5zm-2.25 5.625v-1.875h.75v1.875c0 .207-.168.375-.375.375s-.375-.168-.375-.375zm9.75 0v-1.875h.75v1.875c0 .207-.168.375-.375.375s-.375-.168-.375-.375zm0-4.875c.414 0 .75-.336.75-.75s-.336-.75-.75-.75-.75.336-.75.75.336.75.75.75zm0 .75c.828 0 1.5-.672 1.5-1.5s-.672-1.5-1.5-1.5-1.5.672-1.5 1.5.672 1.5 1.5 1.5zm27.5-10.5c0-.207-.168-.375-.375-.375s-.375.168-.375.375v1.875c0 1.45 1.175 2.625 2.625 2.625h1.875c.207 0 .375-.168.375-.375s-.168-.375-.375-.375h-1.875c-1.036 0-1.875-.839-1.875-1.875zm-4.125 6.75c-.207 0-.375.168-.375.375s.168.375.375.375h5.25c.207 0 .375-.168.375-.375s-.168-.375-.375-.375zm0 3c-.207 0-.375.168-.375.375s.168.375.375.375h5.25c.207 0 .375-.168.375-.375s-.168-.375-.375-.375zm3.375 5.625c0 .207-.168.375-.375.375h-6c-1.864 0-3.375-1.511-3.375-3.375v-7.5c0-1.45 1.175-2.625 2.625-2.625.207 0 .375.168.375.375s-.168.375-.375.375c-1.036 0-1.875.839-1.875 1.875v7.5c0 1.45 1.175 2.625 2.625 2.625h6c.207 0 .375.168.375.375zm22.625-6.375c.207 0 .375.168.375.375v.375c0 1.657 1.343 3 3 3h.375c.207 0 .375.168.375.375s-.168.375-.375.375h-.375c-2.071 0-3.75-1.679-3.75-3.75v-.375c0-.207.168-.375.375-.375zm-119.182-4.822c-.178-.106-.408-.049-.515.129-.106.178-.049.408.129.515l5.957 3.573c1.068.642 2.404.642 3.472 0l5.957-3.573c.178-.107.235-.337.129-.515-.107-.178-.337-.235-.515-.129l-5.956 3.574c-.832.499-1.87.499-2.702 0z" fill="#183153"/><path d="m73.5723 57.925c0-.5 0-1.425-.025-1.925-.025-.625-.375-.85-.875-.9-.7-.05-4.85-.1-7.6-.1-2.775 0-6.9.025-7.6.1-.5.05-.85.275-.875.9-.025.5-.025 1.425-.025 1.925s0 1.425.025 1.925c.025.625.375.9 1 .9.3604 0 .9372-.0108 1.5542-.0224.7097-.0133 1.4725-.0276 2.0208-.0276v3.05c0 2.975 0 5.725.075 7.75.025.625.275.85.8.9.5.05 1.775.1 3.025.1s2.525-.05 3.025-.1c.525-.05.775-.275.8-.9.075-2.025.075-4.775.075-7.75v-3.05c.5482 0 1.3111.0143 2.0207.0276.617.0116 1.1938.0224 1.5543.0224.625 0 .975-.275 1-.9.025-.5.025-1.425.025-1.925zm14.0931-1.925c0-.625.225-.85.75-.9.5-.05 1.75-.1 3.025-.1 1.25 0 2.5.05 3 .1.525.05.775.275.8.9.075 2.025.075 4.825.075 7.75 0 2.975 0 5.725-.075 7.75-.025.625-.275.85-.8.9-.5.05-1.75.1-3 .1-1.275 0-2.525-.05-3.025-.1-.525-.05-.75-.275-.75-.9v-5.375h-2.2v5.375c0 .625-.225.85-.75.9-.5.05-1.75.1-3.025.1-1.25 0-2.5-.05-3-.1-.525-.05-.775-.275-.8-.9-.075-2.025-.075-4.775-.075-7.75 0-2.925 0-5.725.075-7.75.025-.625.275-.85.8-.9.5-.05 1.75-.1 3-.1 1.275 0 2.525.05 3.025.1.525.05.75.275.75.9v5.125h2.2zm23.1706-.9c-.525.05-.75.275-.75.9v11.475c0 .575-.1.65-1.1.65s-1.1-.075-1.1-.65v-11.475c0-.625-.225-.85-.75-.9-.5-.05-1.725-.1-3-.1-1.25 0-2.5.05-3 .1-.525.05-.775.275-.8.9-.075 2.1-.1 6.5-.1 9.1 0 6.35 1.2 7.575 8.75 7.575 7.7 0 8.75-1.375 8.75-7.575 0-2.6-.025-7-.1-9.1-.025-.625-.275-.85-.8-.9-.5-.05-1.75-.1-3-.1-1.275 0-2.5.05-3 .1zm24.898 1.2c.475-.85.75-1.125 2.2-1.225.4-.025 1.45-.075 2.6-.075 1.125 0 2.7.05 3.1.1.525.05.775.275.8.9.075 2.025.075 4.825.075 7.75 0 2.975 0 5.725-.075 7.75-.025.625-.225.85-.675.9-.425.05-1.9.1-2.975.1s-2.55-.05-3-.1c-.475-.05-.65-.275-.65-.9v-7.15l-1.95 3.65c-.3.575-.375.625-.85.625h-1.45c-.475 0-.55-.05-.85-.625l-1.95-3.65v7.15c0 .625-.175.85-.65.9-.45.05-1.925.1-3 .1s-2.55-.05-2.975-.1c-.45-.05-.65-.275-.675-.9-.075-2.025-.075-4.775-.075-7.75 0-2.925 0-5.725.075-7.75.025-.625.275-.85.8-.9.4-.05 1.975-.1 3.1-.1 1.15 0 2.2.05 2.6.075 1.45.1 1.725.375 2.2 1.225l2.125 3.775zm28.14 7.525c2.725.25 3.15.8 3.15 4.175 0 3.625-.525 4.1-3.45 4.325-1.9.15-3.65.175-5.275.175-3.1 0-6.725-.025-7.875-.125-.525-.05-.775-.275-.8-.9-.075-2.025-.075-4.75-.075-7.725 0-2.925 0-5.7.075-7.725.025-.625.275-.85.8-.9 1.15-.1 4.775-.125 7.875-.125 1.625 0 3.375.025 5.275.175 2.925.225 3.45.7 3.45 4.325 0 3.35-.4 3.975-3.15 4.175zm-6.5-4.625c-.175 0-.25.15-.25.5v2.15c0 .375.075.5.25.5h1.475c.425 0 .55-.05.625-.475.075-.375.1-.825.1-1.1s0-.725-.075-1.1c-.075-.425-.2-.475-.625-.475zm0 5.95c-.175 0-.25.15-.25.5v2.15c0 .375.075.5.25.5h1.5c.425 0 .55-.05.625-.475.075-.375.075-.825.075-1.1s-.025-.725-.1-1.1c-.075-.425-.2-.475-.625-.475z" fill="#ffd43b"/><path d="m161.331 81.325c0 .5175.36.9225.878.9225.495 0 .877-.405.877-.9225v-13.5c0-.5175-.382-.9225-.877-.9225-.518 0-.878.405-.878.9225zm18.131-14.4225c.517 0 .877.405.877.9225v13.5675c0 .45-.36.855-.855.855-.27 0-.54-.1575-.765-.45l-8.46-11.34v10.8675c0 .5175-.382.9225-.877.9225-.518 0-.878-.405-.878-.9225v-13.5675c0-.45.383-.855.878-.855.292 0 .517.1575.832.585l8.393 11.205-.023-10.8675c0-.5175.383-.9225.878-.9225zm10.8 15.345c-.495 0-.878-.405-.878-.9225v-12.6h-4.477c-.473 0-.833-.3375-.833-.7875 0-.4275.36-.7875.833-.7875h10.755c.45 0 .81.36.81.7875 0 .45-.36.7875-.81.7875h-4.523v12.6c0 .5175-.36.9225-.877.9225zm-33.365-1.4625c.18.225.293.45.293.675 0 .4275-.36.7875-.833.7875-.27 0-.517-.1575-.765-.4725l-4.477-6.0075h-3.375v5.58c0 .495-.383.9-.878.9-.517 0-.877-.405-.877-.9v-13.2975c0-.495.382-.9.9-.9h4.32c2.835 0 4.747 1.7325 4.747 4.2975 0 1.98-1.125 3.465-2.947 4.05zm-9.157-12.06v5.4675h3.397c1.868 0 2.993-1.035 2.993-2.7225 0-1.665-1.148-2.745-2.993-2.745zm-16.003 12.6c0 .5175.36.9225.877.9225.495 0 .878-.405.878-.9225v-5.535h3.465c2.835 0 4.747-1.755 4.747-4.3425 0-2.565-1.912-4.2975-4.747-4.2975h-4.298c-.54 0-.922.405-.922.9225zm5.175-7.11h-3.42v-5.49h3.42c1.845 0 2.97 1.0575 2.97 2.745 0 1.71-1.125 2.745-2.97 2.745z" fill="#183153"/></g></svg>