<svg width="240" height="135" viewBox="0 0 240 135" fill="none" xmlns="http://www.w3.org/2000/svg">
<g clip-path="url(#clip0_165_64332)">
<rect width="240" height="135" fill="#D0EBFF"/>
<g clip-path="url(#clip1_165_64332)">
<rect width="720" height="135" transform="translate(-240)" fill="#D0EBFF"/>
<path d="M90.6434 54.1682C91.3835 54.6604 92.0225 55.6965 91.8444 56.6123L91.8456 56.6135L91.7819 56.7796C91.2391 57.7797 89.8925 58.0203 88.955 57.5113C88.3894 57.143 88.2631 56.4836 88.1584 55.918C88.0886 54.7723 89.4869 53.5448 90.6434 54.1682Z" fill="#183153"/>
<path d="M92.0319 64.3432C92.0955 64.819 92.1571 65.2795 92.1609 65.6994L92.1477 65.8739C91.9082 68.1387 91.9648 70.5696 92.0791 72.8405C92.078 72.9485 92.0788 73.0609 92.0797 73.1756C92.0853 73.951 92.0916 74.8318 91.5171 75.1956C90.8636 75.5747 89.8419 75.1222 89.3606 74.4699C88.7555 73.2998 88.9159 72.0302 89.0807 70.7256C89.2138 69.6715 89.3498 68.5945 89.0874 67.5286C89.201 66.3664 89.081 65.189 88.9619 64.021C88.859 63.0108 88.7568 62.0078 88.807 61.0277C88.8097 60.9315 88.8091 60.8314 88.8085 60.7291C88.8055 60.2402 88.8023 59.7044 89.1596 59.3381C90.7878 57.9241 92.392 60.0842 91.9985 61.7558C91.7944 62.5666 91.9165 63.4799 92.0319 64.3432Z" fill="#183153"/>
<path fill-rule="evenodd" clip-rule="evenodd" d="M124.966 77.0537C128.142 76.8491 131.163 74.3135 131.498 71.0342L131.5 71.0354L131.507 70.8681C131.424 70.0522 131.154 69.2928 130.697 68.6213C130.527 68.3189 130.21 68.0748 129.894 67.8315C129.538 67.5577 129.184 67.2847 129.041 66.9305C128.997 66.6663 129.263 66.3959 129.517 66.1382C129.649 66.0049 129.777 65.875 129.857 65.7511C130.709 64.2974 131.04 61.8665 130.219 60.6655C128.791 57.989 125.309 56.9144 122.482 57.7869C122.297 57.8332 122.107 57.8686 121.917 57.9038C121.259 58.0262 120.61 58.1467 120.238 58.7147C119.759 59.4139 119.844 60.6282 119.959 61.3923C119.878 62.6645 119.902 64.0409 119.925 65.4011C119.935 65.9799 119.945 66.5558 119.947 67.1194C120.032 67.8409 120.025 68.5505 120.018 69.2511C120.011 69.9912 120.004 70.7212 120.106 71.4445C120.121 71.8121 120.118 72.1806 120.115 72.5479C120.105 73.7488 120.095 74.9365 120.723 76.0332C121.502 76.8595 122.922 76.9351 124.152 77.0005C124.437 77.0157 124.712 77.0303 124.966 77.0537ZM126.817 60.6943C127.561 61.3514 127.983 62.3996 128.088 63.319L128.09 63.3202V63.4586C127.798 65.3624 124.723 66.342 123.077 66.5129C122.721 66.4744 122.623 66.2168 122.583 65.8727C122.588 65.3823 122.567 64.8772 122.546 64.3693C122.492 63.105 122.438 61.823 122.784 60.7052C123.687 59.8351 125.768 60.2322 126.817 60.6943ZM123.348 68.7825C125.232 68.3638 128.396 68.927 128.858 71.0281L128.864 71.187C128.88 72.1774 128.07 73.2966 127.129 73.5782C126.59 73.9296 126.063 74.1835 125.332 74.1992C125.139 74.193 124.907 74.2237 124.664 74.256C123.962 74.3494 123.164 74.4554 122.928 73.7178C122.907 73.3417 122.873 72.9479 122.839 72.5469C122.761 71.648 122.681 70.713 122.742 69.8608C122.757 69.3337 122.893 68.9619 123.348 68.7825Z" fill="#183153"/>
<path fill-rule="evenodd" clip-rule="evenodd" d="M158.193 75.5795C159.137 76.5639 161.142 76.2642 160.914 74.6276L160.917 74.6288L160.899 74.4675C160.709 73.1534 160.279 70.9258 159.675 69.7116C159.079 66.6791 158.205 63.9082 157.281 60.9796C157.096 60.3937 156.909 59.8015 156.722 59.1997C156.382 58.0697 154.633 57.2887 153.798 58.2045C153.636 58.5012 153.476 58.7816 153.321 59.0532C152.579 60.3489 151.954 61.4419 151.869 63.1313C151.592 64.2541 150.624 67.0364 150.03 67.9028C149.783 68.1305 149.461 68.2652 149.142 68.3989C148.829 68.5295 148.519 68.6593 148.284 68.874C147.712 69.2398 147.666 70.1171 148.201 70.5504C148.405 70.7428 148.745 70.8233 149.015 70.8875C149.207 70.9329 149.364 70.9701 149.414 71.0329C149.488 71.1465 149.403 71.3677 149.316 71.5944C149.253 71.7593 149.189 71.927 149.184 72.0583C149.123 72.4049 148.995 72.7187 148.865 73.0377C148.626 73.6214 148.381 74.2223 148.528 75.0728C148.626 76.1511 150.265 76.7251 150.841 75.6926C151.437 75.0772 151.462 74.5611 151.495 73.8727C151.502 73.7103 151.511 73.5383 151.527 73.3531C151.589 73.0136 151.663 72.7892 151.738 72.5642C151.765 72.4814 151.793 72.3985 151.819 72.3098C151.843 72.2298 151.864 72.1391 151.885 72.0444C151.965 71.7004 152.057 71.3041 152.307 71.1786C152.558 71.0602 152.829 71.1041 153.107 71.1492C153.276 71.1766 153.447 71.2043 153.619 71.1966C153.79 71.1855 153.973 71.1712 154.162 71.1564C155.062 71.0858 156.115 71.0033 156.888 71.2002C157.301 71.3138 157.382 71.7457 157.469 72.2128C157.476 72.2506 157.483 72.2886 157.49 72.3266C157.616 72.6867 157.635 73.1441 157.655 73.6117C157.686 74.3599 157.718 75.1344 158.193 75.5795ZM156.371 67.5072C156.496 67.8715 156.625 68.2463 156.573 68.4528L156.52 68.5467C156.326 68.6665 155.974 68.5986 155.665 68.5389C155.518 68.5105 155.38 68.484 155.274 68.4805C154.799 68.3457 153.952 68.3505 153.457 68.3866C153.302 68.377 153.196 68.3289 153.142 68.2133C153.02 67.1533 153.444 66.06 153.85 65.0132C154.005 64.6114 154.158 64.2164 154.277 63.8329C154.312 63.747 154.345 63.663 154.377 63.582C154.725 62.7064 154.933 62.1814 155.406 63.3876C155.498 63.8061 155.608 64.2032 155.716 64.5944C155.924 65.3497 156.127 66.0827 156.19 66.904C156.223 67.0759 156.296 67.2896 156.371 67.5072Z" fill="#183153"/>
<path fill-rule="evenodd" clip-rule="evenodd" d="M171.583 59.6462C173.388 61.1649 174.307 63.7907 173.678 66.2253L173.677 66.2241L173.635 66.3938C173.203 68.1291 172.136 69.3819 170.539 70.0618C170.375 70.1734 170.097 70.2655 169.801 70.3636C169.277 70.5373 168.695 70.7302 168.588 71.0847C169.094 71.5614 169.798 71.9842 170.462 72.3825C170.78 72.5734 171.089 72.7587 171.362 72.9416C171.592 73.1334 171.891 73.3009 172.203 73.4755C172.779 73.7982 173.398 74.1453 173.711 74.7154C174.089 75.6072 173.193 76.2534 172.312 76.2606C171.594 76.3269 171.1 75.934 170.587 75.5259C170.476 75.4379 170.365 75.3492 170.25 75.2642C170.095 75.1804 169.941 75.1094 169.789 75.039C169.417 74.868 169.056 74.7012 168.718 74.3652C168.46 74.1817 168.193 74.0205 167.931 73.8617C167.448 73.5694 166.977 73.2849 166.594 72.8826C165.701 72.126 165.739 72.8911 165.775 73.6291C165.79 73.9359 165.805 74.238 165.753 74.4242C165.822 75.7034 164.459 76.6614 163.441 75.6469C162.82 74.364 162.913 72.7274 163.088 71.3362C162.836 69.8632 162.742 68.939 162.993 67.4407C163.034 66.8615 162.945 66.1268 162.858 65.4196C162.826 65.1526 162.794 64.8896 162.769 64.6404C162.886 63.9129 162.864 63.2167 162.843 62.5248C162.821 61.8513 162.8 61.182 162.908 60.4922C163.015 59.7918 163.159 59.184 163.84 58.9133C165.34 58.2803 166.661 58.2719 168.108 58.4163C168.255 58.4487 168.404 58.48 168.554 58.5117C169.603 58.7327 170.712 58.9661 171.583 59.6462ZM170.811 66.3889C171.785 65.0255 171.373 63.035 170.233 61.8797L170.11 61.7582C169.652 61.3079 169.057 61.2045 168.451 61.0991C168.42 61.0937 168.39 61.0884 168.359 61.083C167.46 60.9206 166.18 60.7232 165.576 61.402C165.246 62.5681 165.342 63.8768 165.436 65.1403C165.472 65.6371 165.508 66.1269 165.518 66.5983C165.542 66.8148 165.528 67.033 165.514 67.2446C165.488 67.6425 165.464 68.0171 165.696 68.3132C167.524 69.0425 169.521 68.0051 170.811 66.3889Z" fill="#183153"/>
<path fill-rule="evenodd" clip-rule="evenodd" d="M146.818 64.0163C147.064 64.6209 147.329 65.2743 147.227 65.9509L147.226 65.9521L147.207 66.0965C147.148 66.5129 147.165 66.9626 147.182 67.413C147.206 68.0428 147.23 68.6739 147.047 69.217C147.028 69.2896 147.01 69.3619 146.992 69.4338C146.56 71.1607 146.184 72.6604 144.808 73.8273C144.504 74.1119 144.357 74.3808 144.216 74.6374C144.117 74.8192 144.021 74.9948 143.874 75.1655C143.358 75.6541 142.723 76.0199 142.051 76.269C141.621 76.4346 141.224 76.448 140.825 76.4615C140.487 76.4728 140.148 76.4843 139.786 76.5879C136.163 76.8671 133.503 73.4542 133.285 70.0895C132.652 66.3974 133.13 61.7365 136.168 59.1696C136.308 59.0921 136.454 59.0077 136.604 58.9208C137.382 58.4707 138.278 57.9523 139.133 57.9614C139.394 57.9927 139.672 58.0113 139.957 58.0303C140.623 58.0748 141.32 58.1213 141.89 58.338C143.363 58.6413 144.873 59.9181 145.905 61.0181C146.5 61.7991 146.766 62.9074 146.749 63.8473C146.772 63.9032 146.795 63.9595 146.818 64.0163ZM142.292 72.9681C143.909 72.1004 144.846 69.3855 144.835 67.6164L144.834 67.6152L144.82 67.4431C144.757 67.0566 144.721 66.6416 144.683 66.2143C144.58 65.0502 144.469 63.7951 143.796 62.7775C142.659 60.4525 139.291 59.7521 137.518 61.5885C137.02 62.0711 136.747 62.5681 136.618 63.2324C136.554 63.5863 136.471 63.9653 136.384 64.3592C136.151 65.4212 135.894 66.5926 135.934 67.6802C135.736 70.1905 136.967 74.3809 140.161 73.6708C140.401 73.5917 140.639 73.5198 140.876 73.4483C141.352 73.3045 141.822 73.1626 142.292 72.9681Z" fill="#183153"/>
<path d="M115.897 72.5818C116.855 72.3062 118.207 72.6263 118.304 73.512L118.305 73.5108L118.309 73.6564C118.243 75.7309 114.026 75.4614 111.78 75.3179C111.4 75.2936 111.076 75.2729 110.838 75.2678C108.656 75.5061 108.039 75.1932 107.621 72.9717C107.429 71.2712 107.403 69.2615 107.403 67.4937C107.349 67.0785 107.136 66.916 106.79 66.7536C105.479 66.2048 106.305 64.3816 107.254 64.0435C107.484 63.5841 107.395 63.0251 107.307 62.4687C107.253 62.1227 107.198 61.7778 107.221 61.4585C107.266 59.7834 107.615 58.3681 109.642 58.5667C110.222 58.4948 111.014 58.4348 111.834 58.3727C112.895 58.2923 114.004 58.2082 114.765 58.0901C115.48 58.0769 116.475 58.0613 116.924 58.7219C117.657 60.4862 115.374 60.8123 114.133 60.8195C113.873 60.8498 113.668 60.8957 113.471 60.9396C113.199 61.0004 112.944 61.0575 112.584 61.0638C112.433 61.0829 112.238 61.0902 112.024 61.0982C111.076 61.1335 109.73 61.1838 109.889 62.3346C109.903 62.4623 109.914 62.5978 109.925 62.7352C109.966 63.2598 110.009 63.8116 110.293 64.0567C110.472 64.1819 110.707 64.2432 110.923 64.2517C111.718 64.246 112.614 64.291 113.483 64.3346C114.101 64.3656 114.706 64.3959 115.251 64.4069C115.987 64.4923 116.478 65.626 115.91 66.2638C114.579 67.4732 112.347 67.3384 110.741 66.9678C110.459 66.9293 110.321 67.0857 110.262 67.3661C110.1 68.4636 110.21 69.578 110.394 70.6527C110.303 72.9623 111.035 72.9005 112.614 72.7673C112.89 72.7441 113.191 72.7187 113.518 72.7033C114.052 72.6429 114.527 72.633 114.96 72.624C115.295 72.617 115.605 72.6106 115.897 72.5818Z" fill="#183153"/>
<path d="M102.218 62.0193C102.829 62.0241 103.65 61.9928 104.319 61.8207L104.318 61.8195L104.486 61.7678C105.693 61.4212 105.764 60.0252 104.572 59.5691C103.944 59.3242 103.348 59.312 102.763 59.2999C102.209 59.2886 101.665 59.2774 101.113 59.0697C100.89 58.9432 100.718 58.7441 100.548 58.547C100.251 58.2023 99.9589 57.8639 99.4091 57.9313C98.7706 57.9146 98.5803 58.2657 98.383 58.6296C98.2397 58.8939 98.0928 59.165 97.7677 59.3068C97.4275 59.4178 96.9645 59.4265 96.4782 59.4357C96.0785 59.4432 95.6631 59.451 95.2874 59.5162C93.8096 59.4789 92.8998 61.3634 94.3283 62.0542C94.7586 62.33 95.4361 62.293 96.1104 62.2561C97.1427 62.1996 98.1679 62.1436 98.2888 63.2107C98.265 64.5135 98.3391 65.853 98.4133 67.1936C98.5417 69.515 98.6703 71.8397 98.2912 73.9825C98.0204 75.4339 99.13 76.6674 100.484 75.914C100.934 75.5279 100.955 74.8799 100.975 74.2516C100.981 74.0574 100.987 73.865 101.006 73.6829C101.024 72.9082 101.008 72.189 100.991 71.4563C100.972 70.625 100.953 69.7761 100.983 68.809C100.793 66.8174 100.802 64.8016 100.874 62.8774C100.889 62.0687 101.568 61.964 102.218 62.0193Z" fill="#183153"/>
<path d="M84.9296 76.4267C85.7684 76.3954 86.0572 75.0957 86.0451 74.2966L86.0415 74.2978L86.0451 74.1125C86.0658 72.2114 85.9762 70.2823 85.8871 68.3636C85.8048 66.5913 85.7229 64.8279 85.7286 63.1036C85.6655 62.5054 85.7162 61.9471 85.7657 61.4025C85.8417 60.5667 85.9147 59.7633 85.5686 58.8976C85.1293 58.0023 83.4457 57.5354 83.1894 58.8062C82.9883 59.4339 83.0488 60.1673 83.0952 60.7307C83.0991 60.7776 83.1029 60.8233 83.1064 60.8676C83.144 61.4049 83.1012 61.8284 83.0608 62.2272C83.0134 62.6949 82.9695 63.1286 83.0631 63.6716C83.3233 64.443 83.2253 65.1569 83.1286 65.8602C83.0389 66.5131 82.9505 67.1569 83.1509 67.8294C83.1425 67.9883 83.0438 68.0966 82.8549 68.1387C82.605 68.1711 82.2816 68.1646 81.9323 68.1575C81.5683 68.1501 81.1763 68.1422 80.8103 68.1772C80.4526 68.172 80.0637 68.2013 79.6667 68.2313C78.7855 68.2978 77.8651 68.3672 77.1615 68.0677C76.9288 67.795 76.9715 67.4179 77.0148 67.036C77.0429 66.7876 77.0712 66.5372 77.0243 66.3119C76.8709 65.4736 76.9677 64.6034 77.0596 63.7768C77.0701 63.6826 77.0805 63.5889 77.0905 63.4959C77.059 63.0396 77.0705 62.5641 77.082 62.0932C77.0968 61.4848 77.1114 60.8843 77.0327 60.3429C76.9328 59.036 74.8894 58.6064 74.5741 60C74.5647 60.4266 74.5218 60.8198 74.4803 61.1996C74.3951 61.9812 74.316 62.7058 74.5476 63.5465C74.5532 63.9491 74.5477 64.3425 74.5423 64.7296C74.5325 65.437 74.523 66.1237 74.5813 66.8089C74.5585 67.1676 74.5103 67.5731 74.4068 67.7921C74.2924 68.0559 74.004 68.1015 73.6699 68.1543C73.3471 68.2053 72.9817 68.2631 72.6896 68.531C71.633 69.294 71.9844 70.5973 73.1312 70.8958C73.3246 71.01 73.5577 71.0347 73.7849 71.0587C74.1247 71.0946 74.4513 71.1291 74.6114 71.4602C74.7114 71.6884 74.6701 72.0618 74.6381 72.3509C74.6346 72.382 74.6313 72.4121 74.6283 72.441C74.3443 73.7888 74.5392 75.4218 75.9689 75.748C77.394 75.7949 77.3271 74.5356 77.2647 73.3615C77.2376 72.8501 77.2113 72.3549 77.3095 71.9909C77.3144 71.868 77.2822 71.7462 77.2518 71.6311C77.2069 71.4609 77.1658 71.3054 77.2541 71.1834C77.6513 70.8901 78.1291 70.9215 78.6885 70.9583C78.8683 70.9701 79.0564 70.9825 79.253 70.9848C79.6939 71.0394 80.1689 71.008 80.6458 70.9765C81.3665 70.9288 82.0915 70.8808 82.7093 71.1292C83.1868 71.4395 83.1484 72.1239 83.1173 72.6787C83.1114 72.7824 83.1059 72.8815 83.104 72.9729C83.1003 73.1454 83.0939 73.3151 83.0875 73.4824C83.0579 74.2582 83.0302 74.9834 83.2965 75.707C83.5962 76.3184 84.3796 76.4508 84.9296 76.4267Z" fill="#183153"/>
<path d="M63.6687 60.9091C63.6669 61.0267 63.6651 61.1468 63.6651 61.2696L63.6843 61.4393C63.8251 63.4767 63.972 65.3155 64.7097 67.3288C64.7238 67.4347 64.7381 67.543 64.7526 67.6534C64.925 68.9612 65.1354 70.558 65.617 71.7466C66.1393 72.4991 66.48 70.8514 66.7333 69.6266C66.836 69.1298 66.9244 68.7026 67.0046 68.5334C67.0983 68.2018 67.1977 67.8668 67.298 67.5289C67.6906 66.2054 68.0962 64.8387 68.2237 63.4658C68.3876 62.9695 68.503 62.4386 68.6193 61.9041C68.865 60.7746 69.1142 59.6288 69.8314 58.758C70.6341 58.0095 71.6594 58.5679 71.6751 59.6762C71.6262 60.4847 71.4398 61.2308 71.2535 61.9764C71.1461 62.4061 71.0388 62.8356 70.9578 63.2769C70.636 65.5067 69.9468 67.6818 69.2651 69.8333C68.9729 70.7553 68.6821 71.6731 68.4222 72.589C68.2206 72.9586 68.0768 73.3559 67.9344 73.7493C67.7258 74.3256 67.5203 74.8934 67.1406 75.3532C65.3438 77.2889 64.2092 74.5637 63.5298 72.932C63.4561 72.755 63.3878 72.5909 63.3245 72.447C63.0921 71.9701 62.9418 71.2905 62.7897 70.6028C62.637 69.9126 62.4826 69.2143 62.2414 68.7043C62.0268 69.1418 61.8843 69.7549 61.7378 70.3851C61.5647 71.1295 61.3861 71.8978 61.0765 72.4289C60.5001 74.1173 58.8695 77.6181 57.0511 74.9838C56.4746 73.5866 55.8705 72.0992 55.4999 70.619C54.56 67.9763 53.8572 64.8895 53.3554 62.118C53.323 61.8648 53.2593 61.6083 53.1949 61.349C53.0915 60.9328 52.9864 60.5096 53.0064 60.0818C53.0088 58.9927 54.0846 58.2971 54.8921 59.0023C55.4672 59.6189 55.6549 60.4687 55.8386 61.3005C55.9156 61.6489 55.9918 61.9941 56.0956 62.3178C56.3275 62.9545 56.3941 63.5451 56.4643 64.1675C56.4855 64.3556 56.5071 64.5466 56.5336 64.7427C56.8496 65.77 57.1127 66.8189 57.3752 67.8654C57.6976 69.1504 58.019 70.4317 58.4362 71.6647C58.9929 72.2121 59.1915 71.0283 59.3211 70.2553C59.3585 70.0324 59.3902 69.8436 59.423 69.7405C59.4647 69.5637 59.5082 69.3988 59.5501 69.2403C59.6651 68.8044 59.7673 68.417 59.7841 67.9642C59.8326 67.0809 60.0732 66.3668 60.3318 65.5995C60.4132 65.358 60.4964 65.1112 60.5759 64.8522C60.6236 64.286 60.6913 63.7063 60.7596 63.1213C60.8949 61.9629 61.0328 60.7831 61.0224 59.6438C61.1511 58.7833 62.1909 57.9253 63.0056 58.6678C63.6925 59.3441 63.6816 60.0621 63.6687 60.9091Z" fill="#183153"/>
<path fill-rule="evenodd" clip-rule="evenodd" d="M177.523 58.0216C179.074 57.8688 181.147 58.1552 182.563 58.5439L182.562 58.5415C185.917 59.8677 187.935 63.6175 187.533 67.1869V67.3602C187.487 69.471 187.308 71.5216 185.851 73.0247C183.723 74.896 180.124 77.1103 177.302 76.0874C176.718 75.7889 176.453 75.2618 176.393 74.5663C176.298 73.6339 176.331 72.7016 176.364 71.7989C176.385 71.1974 176.406 70.609 176.388 70.0426C176.324 68.2647 176.289 66.49 176.255 64.7125C176.23 63.428 176.204 62.1419 176.168 60.8521C176.165 60.7796 176.161 60.7049 176.157 60.6284C176.121 59.9598 176.079 59.1619 176.402 58.6305C176.633 58.2635 177.024 58.0782 177.523 58.0216ZM183.898 70.8545C184.347 70.4337 184.681 70.1203 184.8 69.2544C184.825 69.0098 184.863 68.7688 184.9 68.5335C184.978 68.0336 185.053 67.5595 184.988 67.1315L184.958 66.963C184.819 66.404 184.708 65.8875 184.606 65.4115C183.994 62.5696 183.694 61.1719 179.665 60.7895C179.374 60.7642 179.298 61.0506 179.242 61.2721C179.017 62.6259 179.05 63.9245 179.084 65.2663C179.098 65.8341 179.113 66.4096 179.108 67.0004C179.223 68.1067 179.193 69.2564 179.163 70.3976C179.139 71.3109 179.115 72.2188 179.166 73.0945C179.206 73.429 179.373 73.5963 179.706 73.5241C179.827 73.4816 179.948 73.4398 180.068 73.3983C181.426 72.9292 182.706 72.4868 183.574 71.1678C183.687 71.0525 183.796 70.9507 183.898 70.8545Z" fill="#183153"/>
<path fill-rule="evenodd" clip-rule="evenodd" d="M14.6934 35.0727C14.9657 34.5935 15.6152 34.42 16.0893 34.7053C16.3451 34.8751 16.4905 35.0541 16.7561 35.2689C18.0598 36.2151 19.0458 37.2125 20.218 38.108C20.9402 38.5578 21.3833 39.2891 21.9709 39.6647C23.0393 40.3387 23.8782 40.9349 22.9282 42.1764C23.1596 42.3495 23.4054 42.5294 23.6615 42.7161C24.5599 43.3737 25.5737 44.101 26.323 44.8771C26.5661 45.1146 26.6756 45.4856 26.6017 45.8132C26.535 46.1441 26.2849 46.4359 25.9661 46.5549C24.4716 47.1487 21.9136 47.6625 20.135 48.1108C20.3445 48.9966 21.075 50.417 19.8005 50.8009C18.5194 51.0957 18.4485 49.5361 18.175 48.6756C17.5566 48.8631 16.96 49.0089 16.3579 49.1541C15.2296 49.4203 14.3082 49.7152 13.1284 49.9738C12.3122 50.1154 11.5945 50.5781 11.005 49.8917C10.4391 49.2107 11.0785 48.4111 11.3829 47.7378C11.8792 46.844 12.0509 45.9356 12.4136 44.9431C12.2591 44.8414 11.8846 44.6617 11.7604 44.531C11.4158 44.2168 11.3742 43.7034 11.5568 43.288C11.8661 42.2653 12.2089 41.4215 12.6208 40.4677C12.9617 39.6687 13.2266 39.0132 13.5352 38.2038C13.8296 37.3686 14.2093 36.6364 14.4521 35.7894C14.5195 35.5691 14.5735 35.29 14.6934 35.0727ZM23.5571 45.1787C22.665 44.4572 21.5528 43.8128 20.7712 43.0263C20.3869 42.5137 20.6664 41.9535 20.9791 41.4754L20.99 41.4567C20.4996 41.1778 20.0924 40.7662 19.8212 40.478C19.5274 40.1683 19.3275 39.9626 19.1059 39.8185C17.943 39.0461 17.1722 38.0446 16.0699 37.3459C15.8544 37.8565 15.6644 38.3519 15.4682 38.8637C14.9805 40.1741 14.4038 41.451 13.8827 42.7543C13.8188 42.9358 13.7572 43.1262 13.6905 43.3252C13.8857 43.4531 14.3445 43.6643 14.4845 43.851C15.1569 44.736 14.1946 45.5112 14.0345 46.5473C13.915 46.9302 13.783 47.3575 13.6252 47.7589C14.9772 47.3768 16.2988 47.0955 17.6159 46.713C17.2331 45.4066 16.8327 44.1017 16.4247 42.7956C16.2563 42.2576 16.5569 41.6856 17.0939 41.5175C17.6318 41.3491 18.2039 41.6497 18.372 42.1867C18.7826 43.5026 19.1876 44.8211 19.5759 46.1483C20.8413 45.8301 22.3239 45.5073 23.5571 45.1787Z" fill="#146EBE"/>
<path fill-rule="evenodd" clip-rule="evenodd" d="M202.937 90.5038C200.579 91.6463 198.974 93.8784 197.12 95.6258C197.831 96.1063 198.372 96.6898 198.799 97.4406C200.253 96.19 201.641 94.8546 202.879 93.4754C203.663 92.5971 205.006 91.2362 203.433 90.5466C203.163 90.4783 203.027 90.4844 202.937 90.5038ZM199.288 99.6972C201.753 97.3896 210.017 91.4586 204.141 88.6308C200.793 87.5332 197.251 92.997 194.891 94.9638C190.998 94.8505 189.972 99.5421 190.122 102.525H188.618C187.284 102.531 187.285 104.559 188.618 104.565C188.674 104.559 190.144 104.571 190.203 104.565C193.64 104.364 199.302 104.598 199.288 99.6972ZM192.163 102.424C194.426 102.157 197.573 102.324 197.256 99.2095C197.363 98.4649 195.872 96.8939 195.114 97.002C192.367 96.8306 192.189 100.355 192.163 102.424Z" fill="#74C0FC"/>
<path fill-rule="evenodd" clip-rule="evenodd" d="M32.2847 80.2635C32.0028 80.0302 31.6171 79.9646 31.2747 80.0933C30.7064 80.3012 29.6817 80.693 29.2372 80.8156C25.6063 81.8438 21.6272 77.6829 22.2321 74.0957C22.297 73.3171 22.5656 73.4737 22.6619 72.7564C22.7231 72.058 21.8901 71.527 21.3412 71.7518C20.8542 71.9282 20.2689 72.1904 19.8239 72.4124C18.5578 73.341 17.3326 75.0291 16.7043 76.4317C15.4965 80.2003 16.5844 84.8899 20.3614 86.8776C24.4008 88.7688 28.835 87.6317 31.584 84.2107C32.3133 83.2553 32.466 82.2352 32.6101 81.3823C32.7133 80.9792 32.6189 80.5334 32.2838 80.2638L32.2847 80.2635ZM30.1634 82.6657C27.6901 86.4644 21.3384 87.0314 19.0188 82.7537C18.1684 81.347 18.1098 78.7164 18.6132 77.1574C18.9218 76.467 19.5181 75.5942 20.1364 74.896C20.2418 79.7589 25.1818 84.2872 30.1634 82.6657ZM31.2015 73.2939C31.5616 74.3653 30.3679 74.7109 29.5721 74.9255C29.8638 75.7015 30.3176 76.8965 29.2204 77.2393C28.1016 77.5572 27.8604 76.3004 27.6134 75.5017C27.2065 75.6151 26.8018 75.7248 26.4001 75.8337C25.8284 76.0171 25.2123 75.6704 25.086 75.0757C24.8548 73.9494 26.15 73.7834 26.9498 73.5677C26.6674 72.7596 26.096 71.4897 27.256 71.1172C28.4434 70.7913 28.6257 72.174 28.9101 72.9932C29.6807 72.7167 30.8186 72.2277 31.2015 73.2939Z" fill="#74C0FC"/>
<path fill-rule="evenodd" clip-rule="evenodd" d="M216.574 11.1186C216.96 12.7057 216.22 14.5432 214.631 15.2612C213.701 15.7299 212.911 16.4258 213.453 17.4071C214.268 16.9295 215.49 16.3163 215.955 17.4709C216.303 18.577 215.194 18.7713 214.421 19.2052C213.412 19.8454 212.711 20.9085 213.168 21.9739C213.778 23.3152 214.367 23.7171 214.918 23.8467C215.712 24.1348 217.816 23.4339 219.146 23.0672C220.887 22.5213 223.833 21.9985 224.703 20.2222C225.401 18.1432 224.438 16.5276 222.132 16.4692C221.785 16.4417 221.477 16.2379 221.313 15.9312C221.15 15.6241 221.154 15.2549 221.325 14.9521C221.643 14.2929 221.625 14.0483 221.186 13.5837C220.751 13.1932 219.952 12.9349 219.124 13.0394C218.598 13.1055 218.108 12.7573 217.998 12.2389C217.92 11.889 217.872 11.5704 217.759 11.3508C217.754 11.3396 217.714 11.2552 217.328 11.1255C217.106 11.0808 216.829 11.0988 216.574 11.1186ZM211.892 18.8024C210.388 16.7073 211.682 14.2669 213.797 13.3987C214.327 13.1612 214.705 12.4757 214.625 11.8254C214.6 11.0812 213.949 10.7866 214.175 10.0814C214.356 9.48698 214.9 9.35505 215.478 9.2167C217.015 8.81136 219.368 9.09444 219.798 10.9853C221.756 11.0663 223.809 12.4922 223.554 14.6244C226.373 15.2045 227.608 18.2086 226.643 20.8571C226.038 22.585 224.379 23.424 222.798 24.0637C221.335 24.6332 219.861 24.9696 218.53 25.3583C217.131 25.7863 215.724 26.1337 214.449 25.8328C211.805 25.276 209.782 21.1157 211.892 18.8024Z" fill="#146EBE"/>
<path fill-rule="evenodd" clip-rule="evenodd" d="M54.4945 16.3555C50.7343 15.5231 46.5202 16.9523 44.8574 20.5503C43.215 23.9809 43.8159 28.4583 46.9966 30.6964C49.8428 33.1906 54.6312 33.5742 57.457 30.7597C59.6003 29.4519 60.2623 26.7975 60.2613 24.4788C60.6602 20.8634 58.0619 17.1777 54.4945 16.3555ZM49.5143 18.6834C51.7902 17.9785 53.8468 17.849 55.9166 19.2078C57.3121 20.0779 58.6046 22.8119 58.219 24.4441C58.1303 25.8478 58.0589 27.5769 56.9918 28.4899C54.1089 27.0454 50.6415 27.3382 47.8535 28.748C44.6554 26.0192 45.8041 20.3462 49.5143 18.6834ZM49.8377 30.1037C51.5229 30.8617 53.5877 30.9892 55.175 29.9528C55.1627 29.9477 55.1505 29.9426 55.1393 29.9375C53.5224 29.3233 51.4964 29.5631 49.8377 30.1037ZM54.1436 20.7808C56.5756 22.4742 55.581 26.3874 52.6685 26.5231C51.0781 26.6731 49.3735 25.8549 49.1409 24.0728C48.5309 22.1039 49.9937 20.4748 51.7922 20.1677C52.8103 19.9035 53.6621 20.3983 54.1436 20.7808ZM52.8725 22.3773C52.5481 22.1264 52.3951 22.1172 52.2819 22.1488C51.3209 22.4436 50.9047 22.5477 51.12 23.579C51.2699 24.087 51.1312 23.9616 51.4535 24.3084C51.6963 24.4941 52.3115 24.4818 52.7144 24.4828C53.2224 24.5288 53.6999 23.3036 53.3918 22.9282C53.3449 22.8629 53.1449 22.5936 52.8725 22.3773Z" fill="#146EBE"/>
<path fill-rule="evenodd" clip-rule="evenodd" d="M142.527 26.0327C141.759 26.5559 141.315 27.2184 141.222 27.8205C142.11 27.8511 143.643 28.4335 143.072 29.5977C142.813 30.0984 142.198 30.2945 141.697 30.0368C140.431 29.3286 138.585 30.7594 138.142 31.9254C137.668 32.933 138.32 34.7229 139.38 35.4051L140.246 35.7837C141.466 36.3202 140.654 38.1834 139.43 37.6528C138.444 37.3207 137.385 36.594 136.893 35.7264C135.025 33.1061 136.075 29.574 139.166 28.2032C139.155 24.9221 143.032 22.4715 146.008 23.6599C147.072 24.148 148.29 24.8535 148.933 25.9823L149.389 26.6509C154.026 26.3562 156.188 33.6023 151.929 35.9652C150.75 36.5892 149.792 34.806 150.964 34.1676C152.743 33.3426 152.379 30.0942 150.814 29.0344C150.358 28.7097 149.822 28.5784 149.194 28.7537C148.773 28.8701 148.325 28.707 148.078 28.347L147.22 27.0937C147.199 27.0626 147.18 27.0314 147.163 26.9977C146.092 25.6145 144.335 24.739 142.527 26.0337L142.527 26.0327ZM142.981 34.6585C142.635 33.3708 140.674 33.8855 141.008 35.178C141.401 36.6743 141.776 38.1289 142.052 39.6085C142.155 40.1627 142.688 40.5271 143.242 40.424C143.796 40.3211 144.161 39.7881 144.058 39.2349C143.767 37.6728 143.374 36.1528 142.981 34.6585ZM145.148 34.4126C145.706 34.3348 146.222 34.7243 146.3 35.282C146.545 37.042 146.799 38.7957 147.086 40.5407C147.177 41.0966 146.8 41.6209 146.244 41.7119C145.689 41.8038 145.164 41.4269 145.072 40.8712C144.782 39.1019 144.526 37.3311 144.279 35.564C144.201 35.0063 144.59 34.4906 145.148 34.4126ZM149.186 33.4248C148.932 32.1162 146.939 32.491 147.181 33.8045C147.511 35.5476 147.851 37.3182 148.167 39.0581C148.268 39.6115 148.798 39.9794 149.352 39.8783C149.907 39.7783 150.275 39.247 150.174 38.6925C149.916 37.2721 149.647 35.8522 149.378 34.4373L149.186 33.4248Z" fill="#74C0FC"/>
<path fill-rule="evenodd" clip-rule="evenodd" d="M140.331 110.443C138.435 111.218 136.448 111.791 134.535 112.449C133.996 112.596 133.588 112.756 133.094 112.936L133.169 114.893C135.596 113.911 138.007 113.358 140.398 112.322C140.368 111.861 140.346 111.102 140.331 110.443ZM140.453 114.502V114.836C140.447 115.775 140.469 116.707 140.496 117.574C136.965 116.397 134.995 120.152 137.46 122.681C138.769 123.868 140.76 123.776 141.835 122.49C143.059 121.06 142.492 119.487 142.549 117.949C142.517 116.952 142.486 115.925 142.493 114.835C142.518 113.185 142.389 111.805 142.362 110.013C142.337 108.891 141.252 107.987 140.083 108.355C137.423 109.424 134.694 110.203 131.962 111.161C131.448 111.303 130.955 111.839 131.027 112.295C131.032 112.425 131.265 118.432 131.265 118.432C126.651 116.876 125.42 123.539 129.814 124.299C130.619 124.373 131.669 124.376 132.355 123.564C132.767 123.123 133.417 122.427 133.417 121.308C133.419 121.265 133.253 117.088 133.253 117.044C133.59 116.921 133.94 116.784 134.275 116.652C136.422 115.811 138.352 115.363 140.453 114.502ZM140.224 119.625C140.427 119.736 140.506 119.885 140.58 120.06C140.704 121.169 139.797 121.935 138.843 121.179C138.483 120.807 138.237 120.053 138.547 119.628C138.927 119.259 139.568 119.42 140.224 119.625ZM131.375 121.366C131.23 120.407 130.91 120.312 129.638 120.288C129.137 120.308 129.03 121.334 129.258 121.725C129.523 122.321 130.301 122.36 130.793 122.246C131.243 121.758 131.36 121.601 131.375 121.366Z" fill="#74C0FC"/>
<path fill-rule="evenodd" clip-rule="evenodd" d="M27.9991 103.269C30.9805 99.7266 34.7041 100.459 36.4941 104.725C37.4115 106.357 37.5649 108.068 38.137 109.791C38.2668 110.245 38.397 110.7 38.5144 111.146C37.833 110.959 37.0019 110.556 36.2222 110.652C35.048 111.052 34.3449 112.08 33.5776 112.931C33.4283 112.867 33.262 112.791 33.0869 112.711C31.2636 111.718 29.7266 111.902 28.278 113.57C27.5273 110.409 26.2622 106.217 27.9991 103.269ZM33.742 115.116C34.1224 115.19 34.5131 115.041 34.748 114.733L34.751 114.728C35.2561 114.089 35.9574 113.222 36.6166 112.71C37.0435 112.805 37.5395 112.971 38.0165 113.132C42.143 114.843 40.7304 111.622 40.0757 109.152C39.4943 107.333 39.2388 105.333 38.244 103.673C35.9075 98.187 30.1497 97.3131 26.3376 102.082C24.3886 105.187 25.132 108.646 25.7675 111.961L26.7625 115.918C26.9933 116.853 28.249 116.923 28.7136 116.119C29.1771 115.59 30.0896 114.517 30.7527 114.15C30.7618 114.145 30.7628 114.145 30.7569 114.146C31.0086 114.039 31.7857 114.339 32.2355 114.567C32.7193 114.789 33.1706 115.002 33.7401 115.117L33.742 115.116ZM29.6606 105.568C30.2633 105.409 30.8802 105.855 30.9266 106.474C31.5194 108.372 28.36 108.39 28.9019 106.399C28.9632 106.007 29.251 105.671 29.6606 105.568ZM33.9556 104.694C34.6636 104.632 35.1932 105.442 34.9634 106.05C34.6602 107.313 32.8481 107.059 32.9223 105.781C32.9768 105.23 33.3657 104.716 33.9556 104.694Z" fill="#146EBE"/>
<path fill-rule="evenodd" clip-rule="evenodd" d="M96.2755 16.5167C96.9793 15.8292 98.2147 16.581 97.9536 17.5103C97.9505 18.8528 98.1229 20.4075 97.9974 21.7949C99.5786 21.9601 101.02 22.0509 102.603 22.0397C103.535 22.0101 103.991 23.2873 103.245 23.8525C101.576 25.2031 100.059 26.8486 98.6636 28.5573C97.5139 29.8814 96.3009 31.0994 95.0819 32.3307C94.3331 33.0581 93.0733 32.6235 92.9376 31.584C92.7632 30.112 92.7172 28.6634 92.5316 27.173C91.0065 27.2362 89.0172 27.3913 87.5268 27.5168C86.8199 27.5749 86.2527 26.7945 86.521 26.1406C87.3667 24.945 88.904 23.932 89.9558 22.9415C92.1133 20.9216 94.1842 18.5866 96.2744 16.5177C96.2744 16.5177 96.2754 16.5178 96.2856 16.528L96.2755 16.5167ZM90.3944 25.25C91.4951 25.1756 92.6754 25.1113 93.4446 25.1113C93.9639 25.1113 94.4005 25.502 94.4586 26.0192C94.5831 27.1495 94.7228 28.4471 94.8166 29.6917C95.1247 29.352 95.4471 29.0225 95.7542 28.7083C97.2639 27.1893 98.4412 25.5102 100.01 24.0177C99.0726 23.9494 97.824 23.827 96.8487 23.7372C95.7756 23.6393 95.8704 22.4804 95.9602 21.6572C96.0214 20.9063 96.0133 20.4524 95.9796 19.7822C94.3698 21.3807 92.9549 22.915 91.2993 24.4768C91.0106 24.7237 90.7045 24.9838 90.3944 25.25Z" fill="#74C0FC"/>
<path fill-rule="evenodd" clip-rule="evenodd" d="M240.936 74.7727C238.852 69.7343 231.3 68.4224 227.546 72.2264C222.862 76.9976 225.274 85.8553 232.233 86.2981C233.2 86.4011 234.085 85.7839 234.335 84.8546C234.597 84.2027 234.514 83.2112 234.86 82.7542C235.711 81.8136 237.261 82.1962 238.474 82.2206C239.724 82.5042 241.103 81.885 241.238 80.5344C241.477 78.7777 241.76 76.3508 240.936 74.7727ZM231.966 72.1612C234.364 71.6613 238.155 72.9997 239.023 75.4837C239.779 77.1475 239.37 78.4747 239.219 80.2324C235.586 79.9009 232.825 79.8325 232.382 84.2619C231.695 84.1874 231.239 84.0977 230.752 83.911C225.362 81.8667 226.297 73.0456 231.966 72.1612ZM229.063 77.0588C229.189 76.7364 229.487 76.4273 229.895 76.3212C230.371 76.0264 231.227 76.412 231.341 76.9343C232.04 78.0769 230.364 79.3673 229.44 78.3676C228.99 78.1095 228.899 77.322 229.063 77.0588ZM234.506 74.129C234.788 74.5748 234.769 74.8247 234.654 75.2022C234.313 76.6579 232.043 76.5467 232.279 74.9145C232.23 74.483 232.677 73.9739 232.991 73.9005C233.41 73.6097 234.115 73.6026 234.506 74.129ZM237.501 76.2825C236.388 75.1542 234.638 76.7874 235.436 78.0463C236.36 79.2888 238.609 77.8688 237.689 76.5314C237.641 76.4416 237.579 76.3569 237.501 76.2825Z" fill="#146EBE"/>
<path fill-rule="evenodd" clip-rule="evenodd" d="M242.302 43.4473C241.245 39.8693 239.848 34.8108 235.691 33.4057C231.353 31.9056 225.826 35.1872 225.432 40.1454C225.207 42.1294 225.655 44.0457 226.149 45.8873L226.15 45.887C226.361 47.0357 226.824 48.2196 227.489 49.218C227.623 49.4768 227.811 49.7356 228.091 49.8398C228.49 50.0073 228.822 49.8627 229.245 49.7624C230.222 49.4845 231.512 49.18 232.329 48.4503C232.877 48.0255 232.866 47.081 232.717 46.3251C232.559 45.3614 232.276 44.214 231.73 43.3526C230.955 41.8295 228.887 42.3695 227.535 42.7861C226.123 35.1139 235.957 31.8373 238.747 39.3667C237.594 39.7151 236.201 40.1504 236.036 41.6599C235.888 44.0431 237.052 47.7211 240.066 46.7002C240.978 46.5279 241.809 46.199 242.42 45.4447C242.927 44.8332 242.45 44.1314 242.302 43.4473ZM227.981 44.7821C228.589 44.6074 229.329 44.3902 229.946 44.3603C230.419 45.0197 230.671 46.2587 230.756 47.0839C230.334 47.3205 229.503 47.5823 228.979 47.7228C228.861 47.5228 228.715 47.2579 228.634 47.1205C228.429 46.6539 228.281 46.0437 228.151 45.4835C228.098 45.2568 228.041 45.0165 227.981 44.7821ZM238.82 41.4744C239.053 41.3936 239.292 41.3305 239.497 41.2833C239.802 42.1724 240.067 43.0781 240.321 43.9478C240.371 44.119 240.421 44.2883 240.47 44.4559C240.23 44.601 239.846 44.6425 239.582 44.7179C239.427 44.7627 239.07 44.8432 238.998 44.8243C238.164 44.2466 238.092 42.7163 238.071 41.8511C238.253 41.7001 238.474 41.5984 238.82 41.4744ZM238.039 41.8845C238.039 41.8845 238.041 41.8839 238.043 41.8789C238.04 41.8829 238.039 41.8855 238.039 41.8845ZM229.901 44.3136C229.901 44.3136 229.904 44.316 229.911 44.3215C229.904 44.317 229.901 44.3146 229.901 44.3136Z" fill="#74C0FC"/>
<path fill-rule="evenodd" clip-rule="evenodd" d="M106.715 105.166C103.596 101.351 98.6419 102.099 96.2608 106.062C99.9076 107.374 103.572 108.138 107.219 109.413C107.437 109.487 107.646 109.557 107.855 109.623C107.885 109.527 107.915 109.431 107.945 109.335C108.415 108.056 107.945 106.605 106.715 105.166ZM102.453 110.066C103.837 110.499 105.205 110.893 106.581 111.352C107.059 111.514 107.571 111.672 108.059 111.825C108.1 111.838 108.141 111.85 108.182 111.863C108.767 112.073 109.396 111.705 109.529 111.103C109.55 111.038 109.57 110.972 109.591 110.907C109.657 110.696 109.723 110.483 109.789 110.272C109.827 110.152 109.865 110.032 109.902 109.912C111.254 105.632 106.792 101.338 102.959 100.659C100.33 100.27 97.7632 101.33 95.8951 103.24C95.06 104.136 92.7399 106.8 94.5899 107.607C96.5111 108.398 98.5042 108.977 100.49 109.483C100.138 110.847 100.014 112.988 98.8683 113.83C98.2674 114.132 96.9662 113.528 97.2661 112.72C97.6596 111.445 95.7218 110.84 95.3189 112.111C94.5588 114.735 97.3741 116.605 99.6452 115.717C101.755 114.699 101.986 112.05 102.453 110.066Z" fill="#74C0FC"/>
<path fill-rule="evenodd" clip-rule="evenodd" d="M0.159096 13.3838C-4.6661 10.0205 -12.0273 13.0513 -12.8424 18.9496C-14.1064 25.0694 -6.31973 30.7576 -0.825323 27.3167C4.08047 25.0296 4.76191 16.4565 0.159096 13.3838ZM-5.69236 14.1928C-0.573363 13.1961 2.17895 17.4113 0.883393 22.1916C0.621221 23.6484 -0.371373 24.7123 -1.83321 25.5448C-4.25398 26.9852 -7.08279 26.2997 -9.11692 24.2839C-12.6904 20.9726 -10.5614 14.8865 -5.69236 14.1928ZM-1.34049 19.4852C-0.336687 18.6079 -1.66388 17.0736 -2.67584 17.9428C-3.52765 18.6691 -4.87727 19.8188 -5.56075 20.6604C-5.64134 20.7451 -5.73827 20.8328 -5.83518 20.9236C-6.13816 20.6584 -6.38502 20.3952 -6.59517 20.0779C-7.33578 18.9701 -9.02816 20.0891 -8.29571 21.2052C-7.47349 22.3355 -6.14835 23.8575 -4.80587 22.7445C-3.57151 21.5683 -2.72684 20.5921 -1.34049 19.4852Z" fill="#74C0FC"/>
<path fill-rule="evenodd" clip-rule="evenodd" d="M198.222 125.537C197.08 125.134 195.129 124.513 191.802 123.583C190.823 123.309 189.766 123.002 188.72 122.678C186.728 122.061 184.607 123.218 184.02 125.207C183.393 127.395 182.576 129.53 181.886 131.691C181.28 133.613 182.415 135.578 184.274 136.156C187.336 137.192 190.274 138.163 193.258 139.023C195.503 139.723 197.475 138.022 197.852 135.821C198.489 133.896 199.128 131.956 199.687 130.018C200.366 128.376 200.22 126.203 198.222 125.537ZM196.27 127.034C198.417 127.621 198.233 127.826 197.636 129.747C197 129.564 196.198 129.321 195.655 129.142C195.839 128.512 196.104 127.607 196.27 127.034ZM194.321 126.432C193.28 126.118 191.688 125.671 190.376 125.299C190.292 125.61 190.217 125.936 190.139 126.28C189.407 129.23 188.353 132.163 187.468 135.08C188.778 135.52 190.051 135.924 191.335 136.316C192.58 133.237 193.206 129.857 194.321 126.432ZM193.308 136.91C194.585 137.476 195.562 136.872 195.793 135.56C195.529 135.476 195.267 135.393 195.005 135.311C194.668 135.203 194.333 135.097 193.999 134.991C193.806 135.637 193.584 136.291 193.308 136.91ZM196.424 133.62C196.646 132.983 196.861 132.344 197.052 131.702C196.437 131.525 195.668 131.293 195.084 131.102C194.852 131.902 194.699 132.429 194.539 133.022C194.9 133.135 195.261 133.25 195.619 133.365C195.888 133.451 196.156 133.536 196.424 133.62ZM185.537 134.419C185.747 133.744 185.954 133.1 186.163 132.445C185.985 132.383 185.806 132.318 185.635 132.255C185.091 132.054 184.496 131.846 183.995 131.793C183.359 133.128 184.13 134.16 185.537 134.419ZM184.666 129.833C185.429 129.982 186.082 130.253 186.775 130.498C186.961 129.893 187.149 129.287 187.337 128.682C186.744 128.472 185.905 128.178 185.294 127.972C185.091 128.597 184.88 129.218 184.666 129.833ZM185.905 126.026C186.508 126.228 187.352 126.524 187.932 126.728C188.104 126.073 188.235 125.399 188.418 124.719C187.357 124.237 186.114 124.859 185.905 126.026Z" fill="#146EBE"/>
<path fill-rule="evenodd" clip-rule="evenodd" d="M190.269 26.2298C189.02 25.774 187.701 25.5185 186.445 25.1411C186.174 25.3476 185.238 25.8944 184.93 26.0765C184.363 26.5022 183.059 25.7487 182.391 25.5915C181.689 27.7039 180.909 29.8685 180.255 31.9638C180.118 32.4182 179.972 32.9019 179.801 33.3815C182.986 34.6139 185.853 35.7618 189.047 36.6048C189.852 36.8321 190.674 37.064 191.434 37.2998C191.48 37.1894 191.515 37.099 191.563 36.9699C192.541 34.6075 193.337 32.3159 194.401 29.8536C194.321 29.8338 194.238 29.8143 194.149 29.7937C193.457 29.5929 192.289 29.4654 191.953 28.6995C191.875 28.4984 191.585 27.7899 191.529 27.646C191.189 26.8388 191.159 26.4147 190.27 26.2301L190.269 26.2298ZM182.081 23.3302C181.547 23.149 180.968 23.4346 180.786 23.9678C180.105 25.9729 179.31 28.3264 178.629 30.3306C178.241 31.4529 178.036 32.4627 177.549 33.5157C177.287 34.0474 177.561 34.7094 178.11 34.9101C181.531 36.2364 185.003 37.6504 188.474 38.5618C189.624 38.887 190.739 39.2023 191.664 39.5168C192.248 39.7215 192.895 39.3372 192.997 38.7275C194.287 35.9939 195.222 32.9812 196.463 30.2064C197.001 28.7966 195.815 27.938 194.531 27.7859C194.248 27.721 193.927 27.642 193.693 27.5571C193.641 27.4297 193.481 27.0303 193.431 26.9058C193.157 26.0593 192.475 24.7791 191.569 24.5241C190.016 23.9014 188.397 23.6173 186.803 23.1025C185.95 22.7813 185.005 23.7206 184.293 24.081L182.082 23.3296L182.081 23.3302ZM190.206 30.4158C189.516 26.5415 183.34 27.2988 183.449 31.2383C184.079 35.7817 190.868 35.1573 190.206 30.4158ZM185.915 30.2963C186.483 29.6738 188.067 29.7448 188.192 30.7439C188.306 31.443 187.985 31.9483 187.556 32.1816C186.665 32.7999 184.584 31.3653 185.915 30.2963Z" fill="#74C0FC"/>
<path fill-rule="evenodd" clip-rule="evenodd" d="M134.137 -7.12027C130.239 -8.81674 123.486 -6.76833 122.691 -2.0431C122.597 -1.28923 122.507 -0.403758 122.469 0.434787L121.97 0.558225C120.855 0.833659 119.392 1.49062 118.45 2.15982C118.147 2.37507 117.986 2.73722 118.026 3.1065C118.068 3.47477 118.307 3.79203 118.65 3.93382C119.078 4.0899 119.637 4.68566 120.046 5.17736C120.821 6.09649 121.693 6.78712 122.445 7.85825C123.61 9.31091 125.038 10.6493 126.29 8.40096C126.545 7.91538 126.973 6.86158 127.37 6.00978C131.165 5.50788 134.512 2.92491 135.145 -0.862818C135.55 -2.79902 135.393 -4.89844 134.637 -6.60919C134.537 -6.83464 134.361 -7.01622 134.138 -7.12027H134.137ZM124.716 -1.78705C124.977 -4.63321 130.524 -6.40925 132.917 -5.41564C134.413 -0.926063 131.843 3.44926 127.076 3.98993C125.561 4.04298 125.15 6.17096 124.594 7.22475C123.452 5.80575 122.174 4.46633 120.917 3.1014C121.732 2.70967 122.518 2.51584 123.329 2.32304C125.085 1.8089 124.343 -0.439464 124.716 -1.78705ZM124.222 7.77256L124.224 7.77052L124.22 7.77358L124.222 7.77256ZM130.199 -3.98644H130.207C128.768 -4.16803 128.454 -2.51644 129.386 -1.78705C131.256 -0.349692 132.372 -3.70489 130.199 -3.98644Z" fill="#146EBE"/>
<path fill-rule="evenodd" clip-rule="evenodd" d="M26.0783 -1.67258C19.7576 -2.54478 18.4844 0.356458 18.0825 5.80802C18.4263 6.15078 18.7691 6.49457 19.1108 6.83733C20.2016 7.93286 19.8282 8.37412 20.1013 9.95484C20.1095 10.1415 20.1166 10.3364 20.1217 10.5373C20.6197 10.6004 21.112 10.6642 21.6132 10.6801C21.5795 10.2415 21.5856 9.80488 21.5897 9.42335C21.502 8.74803 21.8651 8.03802 22.6129 8.04312C24.0635 8.10228 23.4973 9.87629 23.6738 10.7913C24.0737 10.8087 24.4603 10.8158 24.846 10.7985C24.8551 10.5934 24.8674 10.3925 24.8796 10.2007V10.1895C24.9327 9.32134 24.7674 8.0625 25.9477 8.03291C27.1678 8.04822 26.9913 9.46721 26.9178 10.2986C26.9086 10.4476 26.8995 10.5914 26.8913 10.7322C27.3493 10.7057 27.7911 10.6444 28.2409 10.5271C28.344 9.47129 27.9012 7.98599 28.7836 7.3882C29.4036 7.02489 29.8889 6.49342 30.3067 5.91615C30.2118 3.8657 29.8129 1.98357 29.0203 0.0728686C28.6357 -0.852387 27.6095 -1.42876 26.0783 -1.67258ZM18.0784 11.384C18.0499 11.9135 18.4365 12.3827 18.971 12.4501H18.9761C20.2179 12.6043 21.4111 12.6949 22.6547 12.7775C23.6575 12.8602 24.695 12.854 25.7498 12.8132C26.9849 12.8304 28.3448 12.7174 29.5232 12.3246C30.017 12.2114 30.3546 11.7543 30.3148 11.2494C30.2638 10.5996 30.2649 9.62737 30.2924 8.83678C31.1412 8.11759 32.1521 7.30455 32.3582 6.19771C32.2857 3.78511 31.843 1.55307 30.9035 -0.709575C29.3396 -4.63604 21.3816 -4.6697 18.8894 -2.21936C16.5278 -0.0893332 16.1626 3.36073 16.0361 6.22831C16.1239 7.13214 17.1368 7.5963 17.6551 8.26857L18.0458 8.6603C18.0091 9.59167 18.1152 10.4955 18.0784 11.384ZM27.7074 3.33625C27.941 3.86264 27.686 4.48084 27.1514 4.69404C25.6294 5.46526 24.9459 3.0853 26.4802 2.76804L26.4914 2.766C26.975 2.62625 27.4993 2.86189 27.7074 3.33625ZM26.5128 2.7609H26.519C26.5394 2.7558 26.5343 2.75682 26.5128 2.7609ZM22.215 4.67976C23.3637 4.17888 22.7139 2.41508 21.5224 2.766L21.5112 2.76804C19.9738 3.08632 20.6614 5.46526 22.1814 4.69404C22.1926 4.68996 22.2038 4.68486 22.215 4.67976ZM21.5489 2.75988H21.5428C21.5652 2.7558 21.5703 2.75478 21.5489 2.75988Z" fill="#74C0FC"/>
<path fill-rule="evenodd" clip-rule="evenodd" d="M-1.87222 114.003C0.914766 111.855 4.74127 114.725 3.74766 118.012C4.49235 118.655 5.15034 119.121 5.91135 119.855C7.38646 118.656 8.86155 117.32 10.4081 116.254C11.0416 115.743 11.9515 115.049 12.6024 115.912C13.2716 116.832 12.2035 117.522 11.523 117.965C10.0031 119.017 8.72894 120.205 7.30892 121.344C7.02635 121.587 6.72744 121.847 6.40202 122.081C6.13067 122.277 5.83687 122.527 5.55735 122.769C4.94426 123.315 4.31279 123.765 3.55178 124.312C5.18092 128.4 0.809672 131.079 -2.24459 128.219C-5.15501 125.461 -0.909228 120.585 2.23378 122.747C2.34906 122.663 2.47556 122.572 2.6041 122.479C3.31717 121.968 3.72214 121.668 4.30769 121.153C3.83639 120.726 3.73541 120.616 3.39877 120.371C3.14578 120.187 2.87748 119.975 2.62857 119.728C0.935156 121.444 -2.19866 120.246 -3.0066 118.073C-3.47586 116.64 -3.14228 114.907 -1.87222 114.003ZM0.556682 115.307C-1.90794 115.215 -1.63761 118.475 0.723985 118.523C2.32048 118.001 2.1746 115.731 0.556682 115.307ZM7.92508 122.967C8.33721 122.312 9.17066 122.439 9.6797 122.894C10.7284 123.506 11.875 124.404 12.9064 124.942C14.1264 125.479 13.3185 127.341 12.0923 126.813C11.5078 126.559 10.963 126.177 10.5427 125.882C9.71844 125.086 7.08756 124.432 7.92508 122.967ZM0.712777 124.307C-0.2288 124.022 -0.996961 125.146 -1.14794 125.817C-1.38359 126.754 -0.0268297 127.387 0.69746 127.388C0.93515 127.454 1.83389 126.847 1.80227 126.575C1.86245 125.474 1.8441 124.634 0.712777 124.307Z" fill="#74C0FC"/>
<path fill-rule="evenodd" clip-rule="evenodd" d="M217.379 116.332C222.075 114.157 228.469 114.412 232.059 118.356C233.022 119.274 231.638 120.752 230.659 119.84C227.01 115.855 219.746 116.184 215.944 119.883C214.919 120.73 213.615 119.17 214.64 118.313C215.479 117.649 216.359 116.771 217.379 116.332ZM218.096 121.658C220.176 119.633 223.711 118.827 226.594 120.184C227.494 120.642 229.992 121.801 228.783 123.156C227.67 124.073 226.92 122.365 225.751 122.042C223.603 121.119 221.275 121.477 219.398 123.228C218.372 124.076 217.07 122.514 218.096 121.658ZM225.63 124.542C224.18 124.024 222.983 123.988 221.092 124.555C220.752 124.669 220.497 124.951 220.418 125.3C220.243 126.266 221.36 126.743 221.866 127.412C223.098 128.948 223.728 128.302 224.901 127.125C225.275 126.775 225.606 126.479 225.838 126.311C226.496 125.865 226.322 124.839 225.63 124.542Z" fill="#74C0FC"/>
<path fill-rule="evenodd" clip-rule="evenodd" d="M172.826 1.24993C173.855 4.13383 171.62 6.48624 168.295 6.39953C168.306 6.98814 168.298 7.59104 168.32 8.18781C169.695 8.08478 171.33 8.25412 172.447 9.21712C174.568 10.9656 173.537 14.1229 171.4 15.192C168.211 16.458 165.925 13.3088 166.314 10.3862C165.582 10.429 164.865 10.3841 164.119 10.3637C164.037 11.9745 163.906 14.0474 162.203 15.089C160.813 15.9173 159.069 15.494 158.053 14.433C156.515 12.8559 157.03 10.1771 158.853 9.12939C159.831 8.56628 160.987 8.37959 162.064 8.32247C162.056 7.66142 162.062 7.00242 162.06 6.34138C161.099 6.30261 159.791 6.44951 158.912 5.89354C157.482 5.09376 156.492 3.28712 157.109 1.73652C157.713 -0.286388 159.939 -1.39425 161.948 -0.572023C163.651 0.302225 164.131 2.77093 164.108 4.30623C164.816 4.29398 165.525 4.28684 166.235 4.28378C166.212 2.26189 166.647 0.162469 168.901 -0.786249C170.616 -1.39731 172.294 -0.321069 172.826 1.24993ZM168.275 4.35927C168.268 3.71251 168.31 2.6322 168.585 2.16804C169.03 1.33255 169.655 0.838812 170.35 1.20606C171.197 1.7355 171.275 3.36873 170.378 3.87471C170 4.12158 169.07 4.37356 168.275 4.35927ZM166.254 6.32404C165.537 6.32608 164.819 6.33424 164.101 6.3475V7.28296C164.101 7.64 164.099 7.95318 164.106 8.32145C164.87 8.34287 165.549 8.39081 166.283 8.34389C166.258 7.68693 166.265 6.98814 166.254 6.32404ZM162.062 4.30112C162.075 3.23407 161.852 1.94973 161.099 1.28359C160.977 1.1877 159.84 1.1724 159.664 1.46415C159.202 1.81406 158.788 2.69545 159.053 3.20755C159.207 3.52175 159.713 4.02671 159.914 4.11648C160.451 4.41028 161.523 4.23992 162.062 4.30112ZM162.078 10.3648C161.174 10.4209 160.426 10.578 159.87 10.8973C159.077 11.3573 158.962 12.555 159.597 13.0895C161.566 14.532 162.096 11.8817 162.078 10.3648ZM168.358 10.2291C168.317 11.4165 168.291 12.5876 169.344 13.2538C170.334 13.7801 171.215 13.1171 171.505 12.0633C171.879 10.3025 169.81 10.1373 168.358 10.2291Z" fill="#146EBE"/>
<path fill-rule="evenodd" clip-rule="evenodd" d="M61.148 106.623C60.3044 105.591 58.7283 106.866 59.5628 107.907C60.0687 108.526 60.5798 108.986 61.1021 109.568C61.0715 109.599 61.0399 109.631 61.0063 109.665C60.5615 110.077 60.2626 110.582 59.7607 111.028C59.0986 111.678 58.4763 112.418 57.7061 113.052C55.8495 114.618 53.9521 116.43 55.6587 119.082C56.9767 121.1 59.2894 123.067 61.7489 123.244C62.7405 123.23 63.5004 122.439 64.1074 121.862C64.6124 121.373 65.1092 120.872 65.5968 120.378C66.1018 119.868 66.6088 119.359 67.1015 118.849C70.6658 115.59 69.914 114.852 66.6027 111.96C66.2089 111.597 65.7866 111.212 65.3816 110.848C64.6889 110.224 64.0187 109.62 63.376 108.986C63.3138 108.897 63.2311 108.816 63.1454 108.754C62.5048 108.067 61.7632 107.331 61.1491 106.623H61.148ZM62.4222 111.135C62.4599 111.097 62.4997 111.056 62.5415 111.015C63.0353 111.481 63.5351 111.931 64.0268 112.373C64.4196 112.725 64.7889 113.063 65.1826 113.426C65.5825 113.794 65.9926 114.172 66.4058 114.535C63.6117 114.826 61.1491 114.775 58.4682 115.108C58.6518 114.94 58.8425 114.77 59.0425 114.593C60.2503 113.539 61.3184 112.368 62.4222 111.135ZM65.6855 117.376C65.9426 117.112 66.2028 116.844 66.468 116.576C63.429 116.876 60.7747 116.83 57.7745 117.238C57.549 117.264 57.3256 117.289 57.1022 117.315H57.0869C57.697 119.043 59.9433 120.913 61.706 121.201C61.7152 121.196 61.7295 121.19 61.7468 121.182C63.1801 120.106 64.3451 118.671 65.6397 117.423L65.6855 117.376ZM70.5057 118.103L70.5026 118.108C69.6681 119.105 68.8572 119.769 68.4154 121.005C67.6248 122.979 69.4182 124.788 71.3259 124.373C73.3131 124.067 74.0251 121.66 73.1549 120.163C72.8785 119.536 72.4531 118.91 72.2011 118.362C71.9267 117.697 70.9657 117.549 70.5057 118.103ZM71.031 120.601L71.0708 120.555C71.4799 121.221 71.7665 122.195 70.9637 122.366C69.8354 122.525 70.3669 121.394 70.7985 120.874L70.8046 120.867L70.8199 120.848C70.8872 120.769 70.9474 120.698 71.031 120.601Z" fill="#74C0FC"/>
<path fill-rule="evenodd" clip-rule="evenodd" d="M107.024 124.635C107.439 124.654 107.8 124.924 107.938 125.316C108.19 126.051 108.722 127.005 109.184 127.823C109.436 128.272 109.71 128.758 109.983 129.278C111.856 129.746 113.216 129.887 114.851 130.273C115.484 130.569 115.61 131.494 115.077 131.945C114.222 132.708 112.817 133.481 112.146 134.35C111.997 134.517 111.829 134.706 111.657 134.882C111.857 136.37 112.153 137.749 112.347 139.219C112.478 140.161 111.353 140.675 110.633 140.15H110.632C109.497 139.401 108.252 138.7 107.206 137.998C106.817 138.215 106.413 138.429 106.016 138.639C104.995 139.181 103.856 139.787 103.021 140.418C102.571 140.756 101.931 140.665 101.593 140.214C100.932 139.497 101.493 138.401 101.756 137.687C102.124 136.862 102.371 135.972 102.571 135.158C102.604 135.033 102.635 134.907 102.67 134.777C101.401 133.86 100.197 132.906 98.9688 131.936C98.0609 131.234 98.9026 129.768 99.9563 130.178C101.372 130.161 102.732 129.944 104.141 129.524C104.355 129.095 104.708 128.386 104.908 127.973L104.91 127.967C105.282 127.059 105.631 126.134 106.051 125.227C106.225 124.849 106.61 124.616 107.025 124.635H107.024ZM105.871 130.623C106.264 129.826 106.77 128.873 107.034 128.155C107.16 128.389 107.292 128.62 107.423 128.853C107.738 129.414 108.061 129.989 108.385 130.627C108.521 130.896 108.77 131.091 109.064 131.16C110.149 131.411 111.051 131.607 111.914 131.778C111.379 132.164 111.011 132.544 110.614 133.003C110.053 133.599 109.482 134.138 109.624 135.081C109.718 135.726 109.852 136.562 109.955 137.21L109.972 137.323C109.556 137.065 109.153 136.82 108.89 136.67C108.898 136.675 108.892 136.67 108.865 136.654C108.568 136.459 108.169 136.184 107.874 135.985C106.917 135.342 106.022 136.482 105.106 136.812C104.769 136.991 104.414 137.18 104.069 137.368C104.291 136.149 105.448 134.306 104.274 133.414H104.272L104.271 133.413C103.608 132.946 103.016 132.499 102.384 132.018C103.579 131.704 105.156 131.759 105.871 130.623Z" fill="#146EBE"/>
<path fill-rule="evenodd" clip-rule="evenodd" d="M70.8916 30.4362C70.7118 29.9025 70.1328 29.6153 69.5992 29.795C69.0655 29.9748 68.7783 30.5538 68.958 31.0874C69.4591 32.7637 69.9138 34.5772 70.5133 36.2612C68.9185 36.8155 67.3286 37.3908 65.7495 38.0045C65.224 38.2084 64.9633 38.7989 65.1672 39.3244C65.3711 39.85 65.9626 40.1104 66.4871 39.9068C68.0253 39.3091 69.5785 38.7461 71.1423 38.2022C71.4482 39.1422 71.797 40.0915 72.1388 40.9979C72.7023 41.9803 72.6528 44.208 74.2298 43.8437C75.7339 43.1735 74.2852 41.3621 74.0548 40.2977C73.7035 39.3665 73.3742 38.472 73.0719 37.5426C74.756 36.9786 76.4137 36.3233 78.0795 35.7623C78.6141 35.5822 78.9004 35.0036 78.7206 34.4699C78.0328 32.9201 76.0719 34.4998 74.9567 34.7075C74.1109 35.0182 73.2792 35.3199 72.442 35.6019C72.0768 34.4633 71.6974 33.4135 71.4043 32.2237C71.2512 31.6445 71.0892 31.0295 70.8896 30.4368L70.8916 30.4362Z" fill="#74C0FC"/>
<path fill-rule="evenodd" clip-rule="evenodd" d="M171.347 104.083C171.707 103.65 171.648 103.006 171.214 102.646C170.781 102.286 170.138 102.346 169.778 102.779C168.614 104.085 167.309 105.424 166.19 106.818C164.881 105.751 163.557 104.699 162.206 103.677C161.757 103.337 161.117 103.425 160.777 103.874C160.436 104.323 160.525 104.964 160.974 105.303C162.29 106.299 163.584 107.326 164.868 108.372C164.228 109.125 163.603 109.92 163.011 110.687C162.47 111.682 160.548 112.809 161.685 113.96C163.045 114.889 163.827 112.705 164.612 111.95C165.22 111.163 165.809 110.413 166.442 109.668C167.806 110.806 169.233 111.873 170.585 112.996C171.019 113.357 171.661 113.297 172.021 112.864C172.98 111.465 170.606 110.625 169.844 109.785C169.136 109.228 168.443 108.678 167.763 108.113C168.541 107.205 169.235 106.331 170.094 105.457C170.507 105.023 170.946 104.562 171.345 104.082L171.347 104.083Z" fill="#74C0FC"/>
<path fill-rule="evenodd" clip-rule="evenodd" d="M1.34685 85.0828C1.7068 84.6498 1.64749 84.0062 1.21445 83.6463C0.781406 83.2863 0.137814 83.3456 -0.222142 83.7787C-1.38612 85.0848 -2.69125 86.4235 -3.81018 87.8175C-5.11895 86.7509 -6.44299 85.6994 -7.79402 84.6772C-8.24337 84.3368 -8.88287 84.4247 -9.22322 84.8741C-9.56356 85.3234 -9.47486 85.9636 -9.0263 86.3033C-7.7103 87.299 -6.41608 88.3257 -5.13241 89.3715C-5.77214 90.1252 -6.39718 90.9202 -6.98934 91.6869C-7.53002 92.682 -9.45231 93.8089 -8.31467 94.9601C-6.95487 95.8888 -6.17311 93.7051 -5.38789 92.9504C-4.77955 92.1627 -4.19089 91.413 -3.55834 90.668C-2.19449 91.8056 -0.766859 92.8729 0.584825 93.9965C1.01865 94.3571 1.66146 94.2971 2.02142 93.8641C2.97982 92.4653 0.606041 91.625 -0.155961 90.7847C-0.86432 90.2277 -1.55752 89.6781 -2.23689 89.1133C-1.4593 88.205 -0.764737 87.3311 0.0942702 86.4573C0.506993 86.023 0.945544 85.5624 1.34528 85.0815L1.34685 85.0828Z" fill="#146EBE"/>
<path fill-rule="evenodd" clip-rule="evenodd" d="M222.605 98.6437C219.304 100.957 222.228 105.889 225.647 105.625C227.822 105.456 228.739 102.75 228.225 100.821C227.796 98.2558 224.735 97.0274 222.605 98.6437ZM224.407 103.274C223.453 102.665 222.591 101.136 223.762 100.323C224.774 99.6238 225.932 99.8843 226.237 101.277C226.556 102.691 225.919 104.305 224.407 103.274Z" fill="#146EBE"/>
<path fill-rule="evenodd" clip-rule="evenodd" d="M120.605 36.7628C119.211 32.9802 113.696 34.5491 113.079 37.922C112.686 40.0686 115.069 41.645 117.066 41.6405C119.655 41.881 121.624 39.2345 120.605 36.7628ZM115.668 37.3237C116.501 36.5562 118.198 36.1134 118.686 37.453C119.104 38.6098 118.556 39.6632 117.132 39.6019C115.683 39.5503 114.285 38.5223 115.668 37.3237Z" fill="#74C0FC"/>
<path fill-rule="evenodd" clip-rule="evenodd" d="M85.1672 5.82612C82.0874 3.22479 78.066 7.31142 79.1943 10.5493C79.9125 12.61 82.7627 12.8048 84.4969 11.8153C86.8677 10.7462 87.2737 7.4726 85.1672 5.82612ZM81.1509 8.75082C81.4957 7.67255 82.7535 6.44942 83.839 7.37365C84.7734 8.17343 84.8172 9.35984 83.5482 10.0097C82.2629 10.6799 80.5399 10.4759 81.1509 8.75082Z" fill="#74C0FC"/>
<path fill-rule="evenodd" clip-rule="evenodd" d="M220.821 58.221C219.796 54.322 214.157 55.3545 213.219 58.6526C212.622 60.7516 214.842 62.5494 216.83 62.7365C219.385 63.2245 221.599 60.7791 220.821 58.221ZM215.854 58.3056C216.756 57.6215 218.488 57.3436 218.845 58.7238C219.15 59.9154 218.504 60.9114 217.092 60.7137C215.655 60.5233 214.362 59.3659 215.854 58.3056Z" fill="#74C0FC"/>
<path fill-rule="evenodd" clip-rule="evenodd" d="M55.8786 81.4419C55.3159 81.4756 54.8873 81.9583 54.921 82.5209C54.9546 83.0836 55.4383 83.5122 56 83.4786C65.1878 82.9239 178.01 83.5401 187.651 83.4C188.216 83.3918 188.665 82.9282 188.657 82.3651C188.475 80.6793 186.125 81.5847 185 81.4419C179.413 81.6751 55.8786 81.4419 55.8786 81.4419Z" fill="#74C0FC"/>
<path fill-rule="evenodd" clip-rule="evenodd" d="M183.793 85.9292C184.356 85.9629 184.784 86.4456 184.751 87.0082C184.717 87.5709 184.233 87.9995 183.672 87.9659C174.484 87.4112 61.6617 88.0274 52.02 87.8873C51.456 87.8791 51.0067 87.4155 51.0148 86.8524C51.1965 85.1666 53.5462 86.072 54.6715 85.9292C60.2588 86.1624 183.793 85.9292 183.793 85.9292Z" fill="#74C0FC"/>
</g>
</g>
<defs>
<clipPath id="clip0_165_64332">
<rect width="240" height="135" fill="white"/>
</clipPath>
<clipPath id="clip1_165_64332">
<rect width="720" height="135" fill="white" transform="translate(-240)"/>
</clipPath>
</defs>
</svg>
